  0
SECTION
  2
HEADER
  9
$ACADVER
  1
AC1032
  9
$ACADMAINTVER
 90
      228
  9
$DWGCODEPAGE
  3
ANSI_1252
  9
$LASTSAVEDBY
  1
Ender
  9
$REQUIREDVERSIONS
160
                 0
  9
$INSBASE
 10
0.0
 20
0.0
 30
0.0
  9
$EXTMIN
 10
0.0
 20
0.0
 30
0.0
  9
$EXTMAX
 10
275.9422576746597
 20
150.8498919532039
 30
0.0
  9
$LIMMIN
 10
0.0
 20
0.0
  9
$LIMMAX
 10
12.0
 20
9.0
  9
$ORTHOMODE
 70
     0
  9
$REGENMODE
 70
     1
  9
$FILLMODE
 70
     0
  9
$QTEXTMODE
 70
     0
  9
$MIRRTEXT
 70
     0
  9
$LTSCALE
 40
1.0
  9
$ATTMODE
 70
     1
  9
$TEXTSIZE
 40
0.2
  9
$TRACEWID
 40
0.05
  9
$TEXTSTYLE
  7
Standard
  9
$CLAYER
  8
0
  9
$CELTYPE
  6
Continuous
  9
$CECOLOR
 62
   256
  9
$CELTSCALE
 40
1.0
  9
$DISPSILH
 70
     0
  9
$DIMSCALE
 40
1.0
  9
$DIMASZ
 40
0.18
  9
$DIMEXO
 40
0.0625
  9
$DIMDLI
 40
0.38
  9
$DIMRND
 40
0.0
  9
$DIMDLE
 40
0.0
  9
$DIMEXE
 40
0.18
  9
$DIMTP
 40
0.0
  9
$DIMTM
 40
0.0
  9
$DIMTXT
 40
0.18
  9
$DIMCEN
 40
0.09
  9
$DIMTSZ
 40
0.0
  9
$DIMTOL
 70
     0
  9
$DIMLIM
 70
     0
  9
$DIMTIH
 70
     1
  9
$DIMTOH
 70
     1
  9
$DIMSE1
 70
     0
  9
$DIMSE2
 70
     0
  9
$DIMTAD
 70
     0
  9
$DIMZIN
 70
     0
  9
$DIMBLK
  1

  9
$DIMASO
 70
     1
  9
$DIMSHO
 70
     1
  9
$DIMPOST
  1

  9
$DIMAPOST
  1

  9
$DIMALT
 70
     0
  9
$DIMALTD
 70
     2
  9
$DIMALTF
 40
25.4
  9
$DIMLFAC
 40
1.0
  9
$DIMTOFL
 70
     0
  9
$DIMTVP
 40
0.0
  9
$DIMTIX
 70
     0
  9
$DIMSOXD
 70
     0
  9
$DIMSAH
 70
     0
  9
$DIMBLK1
  1

  9
$DIMBLK2
  1

  9
$DIMSTYLE
  2
Standard
  9
$DIMCLRD
 70
     0
  9
$DIMCLRE
 70
     0
  9
$DIMCLRT
 70
     0
  9
$DIMTFAC
 40
1.0
  9
$DIMGAP
 40
0.09
  9
$DIMJUST
 70
     0
  9
$DIMSD1
 70
     0
  9
$DIMSD2
 70
     0
  9
$DIMTOLJ
 70
     1
  9
$DIMTZIN
 70
     0
  9
$DIMALTZ
 70
     0
  9
$DIMALTTZ
 70
     0
  9
$DIMUPT
 70
     0
  9
$DIMDEC
 70
     4
  9
$DIMTDEC
 70
     4
  9
$DIMALTU
 70
     2
  9
$DIMALTTD
 70
     2
  9
$DIMTXSTY
  7
Standard
  9
$DIMAUNIT
 70
     0
  9
$DIMADEC
 70
     0
  9
$DIMALTRND
 40
0.0
  9
$DIMAZIN
 70
     0
  9
$DIMDSEP
 70
    46
  9
$DIMATFIT
 70
     3
  9
$DIMFRAC
 70
     0
  9
$DIMLDRBLK
  1

  9
$DIMLUNIT
 70
     2
  9
$DIMLWD
 70
    -2
  9
$DIMLWE
 70
    -2
  9
$DIMTMOVE
 70
     0
  9
$DIMFXL
 40
1.0
  9
$DIMFXLON
 70
     0
  9
$DIMJOGANG
 40
0.7853981633974483
  9
$DIMTFILL
 70
     0
  9
$DIMTFILLCLR
 70
     0
  9
$DIMARCSYM
 70
     0
  9
$DIMLTYPE
  6

  9
$DIMLTEX1
  6

  9
$DIMLTEX2
  6

  9
$DIMTXTDIRECTION
 70
     0
  9
$LUNITS
 70
     2
  9
$LUPREC
 70
     4
  9
$SKETCHINC
 40
0.1
  9
$FILLETRAD
 40
2.0
  9
$AUNITS
 70
     0
  9
$AUPREC
 70
     0
  9
$MENU
  1
.
  9
$ELEVATION
 40
0.0
  9
$PELEVATION
 40
0.0
  9
$THICKNESS
 40
0.0
  9
$LIMCHECK
 70
     0
  9
$CHAMFERA
 40
0.0
  9
$CHAMFERB
 40
0.0
  9
$CHAMFERC
 40
0.0
  9
$CHAMFERD
 40
0.0
  9
$SKPOLY
 70
     0
  9
$TDCREATE
 40
2459755.686041667
  9
$TDUCREATE
 40
2459755.852708333
  9
$TDUPDATE
 40
2459945.817847222
  9
$TDUUPDATE
 40
2459946.026180556
  9
$TDINDWG
 40
1.9491203704
  9
$TDUSRTIMER
 40
1.9491087963
  9
$USRTIMER
 70
     1
  9
$ANGBASE
 50
0.0
  9
$ANGDIR
 70
     0
  9
$PDMODE
 70
     0
  9
$PDSIZE
 40
0.0
  9
$PLINEWID
 40
0.0
  9
$SPLFRAME
 70
     1
  9
$SPLINETYPE
 70
     6
  9
$SPLINESEGS
 70
     8
  9
$HANDSEED
  5
57E
  9
$SURFTAB1
 70
     6
  9
$SURFTAB2
 70
     6
  9
$SURFTYPE
 70
     6
  9
$SURFU
 70
     6
  9
$SURFV
 70
     6
  9
$UCSBASE
  2

  9
$UCSNAME
  2

  9
$UCSORG
 10
0.0
 20
0.0
 30
0.0
  9
$UCSXDIR
 10
1.0
 20
0.0
 30
0.0
  9
$UCSYDIR
 10
0.0
 20
1.0
 30
0.0
  9
$UCSORTHOREF
  2

  9
$UCSORTHOVIEW
 70
     0
  9
$UCSORGTOP
 10
0.0
 20
0.0
 30
0.0
  9
$UCSORGBOTTOM
 10
0.0
 20
0.0
 30
0.0
  9
$UCSORGLEFT
 10
0.0
 20
0.0
 30
0.0
  9
$UCSORGRIGHT
 10
0.0
 20
0.0
 30
0.0
  9
$UCSORGFRONT
 10
0.0
 20
0.0
 30
0.0
  9
$UCSORGBACK
 10
0.0
 20
0.0
 30
0.0
  9
$PUCSBASE
  2

  9
$PUCSNAME
  2

  9
$PUCSORG
 10
0.0
 20
0.0
 30
0.0
  9
$PUCSXDIR
 10
1.0
 20
0.0
 30
0.0
  9
$PUCSYDIR
 10
0.0
 20
1.0
 30
0.0
  9
$PUCSORTHOREF
  2

  9
$PUCSORTHOVIEW
 70
     0
  9
$PUCSORGTOP
 10
0.0
 20
0.0
 30
0.0
  9
$PUCSORGBOTTOM
 10
0.0
 20
0.0
 30
0.0
  9
$PUCSORGLEFT
 10
0.0
 20
0.0
 30
0.0
  9
$PUCSORGRIGHT
 10
0.0
 20
0.0
 30
0.0
  9
$PUCSORGFRONT
 10
0.0
 20
0.0
 30
0.0
  9
$PUCSORGBACK
 10
0.0
 20
0.0
 30
0.0
  9
$USERI1
 70
     0
  9
$USERI2
 70
     0
  9
$USERI3
 70
     0
  9
$USERI4
 70
     0
  9
$USERI5
 70
     0
  9
$USERR1
 40
0.0
  9
$USERR2
 40
0.0
  9
$USERR3
 40
0.0
  9
$USERR4
 40
0.0
  9
$USERR5
 40
0.0
  9
$WORLDVIEW
 70
     1
  9
$SHADEDGE
 70
     3
  9
$SHADEDIF
 70
    70
  9
$TILEMODE
 70
     1
  9
$MAXACTVP
 70
    64
  9
$PINSBASE
 10
0.0
 20
0.0
 30
0.0
  9
$PLIMCHECK
 70
     0
  9
$PEXTMIN
 10
1.000000000000000E+20
 20
1.000000000000000E+20
 30
1.000000000000000E+20
  9
$PEXTMAX
 10
-1.000000000000000E+20
 20
-1.000000000000000E+20
 30
-1.000000000000000E+20
  9
$PLIMMIN
 10
0.0
 20
0.0
  9
$PLIMMAX
 10
12.0
 20
9.0
  9
$UNITMODE
 70
     0
  9
$VISRETAIN
 70
     1
  9
$PLINEGEN
 70
     0
  9
$PSLTSCALE
 70
     1
  9
$TREEDEPTH
 70
  3020
  9
$CMLSTYLE
  2
Standard
  9
$CMLJUST
 70
     0
  9
$CMLSCALE
 40
1.0
  9
$PROXYGRAPHICS
 70
     1
  9
$MEASUREMENT
 70
     0
  9
$CELWEIGHT
370
    -1
  9
$ENDCAPS
280
     0
  9
$JOINSTYLE
280
     0
  9
$LWDISPLAY
290
     0
  9
$INSUNITS
 70
     0
  9
$HYPERLINKBASE
  1

  9
$STYLESHEET
  1

  9
$XEDIT
290
     1
  9
$CEPSNTYPE
380
     0
  9
$PSTYLEMODE
290
     1
  9
$FINGERPRINTGUID
  2
{702DD6C6-CFFA-3247-B38D-0D71248D8916}
  9
$VERSIONGUID
  2
{351FDD3A-CA71-E54B-AD50-62C62832B3EF}
  9
$EXTNAMES
290
     1
  9
$PSVPSCALE
 40
0.0
  9
$OLESTARTUP
290
     0
  9
$SORTENTS
280
   127
  9
$INDEXCTL
280
     0
  9
$HIDETEXT
280
     0
  9
$XCLIPFRAME
280
     2
  9
$HALOGAP
280
     0
  9
$OBSCOLOR
 70
   257
  9
$OBSLTYPE
280
     0
  9
$INTERSECTIONDISPLAY
280
     0
  9
$INTERSECTIONCOLOR
 70
   257
  9
$DIMASSOC
280
     1
  9
$PROJECTNAME
  1

  9
$CAMERADISPLAY
290
     0
  9
$LENSLENGTH
 40
50.0
  9
$CAMERAHEIGHT
 40
0.0
  9
$STEPSPERSEC
 40
2.0
  9
$STEPSIZE
 40
6.0
  9
$3DDWFPREC
 40
2.0
  9
$PSOLWIDTH
 40
0.25
  9
$PSOLHEIGHT
 40
4.0
  9
$LOFTANG1
 40
1.570796326794896
  9
$LOFTANG2
 40
1.570796326794896
  9
$LOFTMAG1
 40
0.0
  9
$LOFTMAG2
 40
0.0
  9
$LOFTPARAM
 70
     7
  9
$LOFTNORMALS
280
     1
  9
$LATITUDE
 40
37.795
  9
$LONGITUDE
 40
-122.394
  9
$NORTHDIRECTION
 40
0.0
  9
$TIMEZONE
 70
 -8000
  9
$LIGHTGLYPHDISPLAY
280
     1
  9
$TILEMODELIGHTSYNCH
280
     1
  9
$CMATERIAL
347
11
  9
$SOLIDHIST
280
     0
  9
$SHOWHIST
280
     1
  9
$DWFFRAME
280
     2
  9
$DGNFRAME
280
     0
  9
$REALWORLDSCALE
290
     1
  9
$INTERFERECOLOR
 62
     1
  9
$INTERFEREOBJVS
345
33
  9
$INTERFEREVPVS
346
30
  9
$CSHADOW
280
     0
  9
$SHADOWPLANELOCATION
 40
0.0
  0
ENDSEC
  0
SECTION
  2
CLASSES
  0
CLASS
  1
ACDBDICTIONARYWDFLT
  2
AcDbDictionaryWithDefault
  3
ObjectDBX Classes
 90
        0
 91
        1
280
     0
281
     0
  0
CLASS
  1
MATERIAL
  2
AcDbMaterial
  3
ObjectDBX Classes
 90
     1153
 91
        3
280
     0
281
     0
  0
CLASS
  1
VISUALSTYLE
  2
AcDbVisualStyle
  3
ObjectDBX Classes
 90
     4095
 91
       24
280
     0
281
     0
  0
CLASS
  1
SCALE
  2
AcDbScale
  3
ObjectDBX Classes
 90
     1153
 91
       17
280
     0
281
     0
  0
CLASS
  1
TABLESTYLE
  2
AcDbTableStyle
  3
ObjectDBX Classes
 90
     4095
 91
        1
280
     0
281
     0
  0
CLASS
  1
MLEADERSTYLE
  2
AcDbMLeaderStyle
  3
ACDB_MLEADERSTYLE_CLASS
 90
     4095
 91
        1
280
     0
281
     0
  0
CLASS
  1
ACDBSECTIONVIEWSTYLE
  2
AcDbSectionViewStyle
  3
ObjectDBX Classes
 90
     1025
 91
        1
280
     0
281
     0
  0
CLASS
  1
ACDBDETAILVIEWSTYLE
  2
AcDbDetailViewStyle
  3
ObjectDBX Classes
 90
     1025
 91
        1
280
     0
281
     0
  0
CLASS
  1
DICTIONARYVAR
  2
AcDbDictionaryVar
  3
ObjectDBX Classes
 90
        0
 91
        9
280
     0
281
     0
  0
CLASS
  1
SORTENTSTABLE
  2
AcDbSortentsTable
  3
ObjectDBX Classes
 90
        0
 91
        1
280
     0
281
     0
  0
CLASS
  1
CELLSTYLEMAP
  2
AcDbCellStyleMap
  3
ObjectDBX Classes
 90
     1152
 91
        2
280
     0
281
     0
  0
ENDSEC
  0
SECTION
  2
TABLES
  0
TABLE
  2
VPORT
  5
8
330
0
100
AcDbSymbolTable
 70
     1
  0
VPORT
  5
74
330
8
100
AcDbSymbolTableRecord
100
AcDbViewportTableRecord
  2
*Active
 70
     0
 10
0.0
 20
0.0
 11
1.0
 21
1.0
 12
165.3576325266682
 22
69.25224125832119
 13
0.0
 23
0.0
 14
1.0
 24
1.0
 15
0.0
 25
0.0
 16
0.0
 26
0.0
 36
1.0
 17
0.0
 27
0.0
 37
0.0
 40
235.7314024408886
 41
2.264069264069263
 42
50.0
 43
0.0
 44
0.0
 50
0.0
 51
0.0
 71
     0
 72
   100
 73
     1
 74
     1
 75
     0
 76
     1
 77
     0
 78
     0
281
     0
 65
     1
110
0.0
120
0.0
130
0.0
111
1.0
121
0.0
131
0.0
112
0.0
122
1.0
132
0.0
 79
     0
146
0.0
348
2F
 60
     3
 61
     5
292
     1
282
     1
141
0.0
142
0.0
 63
   250
421
  3355443
1001
ACAD_NAV_VCDISPLAY
1070
     3
  0
ENDTAB
  0
TABLE
  2
LTYPE
  5
5
330
0
100
AcDbSymbolTable
 70
     1
  0
LTYPE
  5
5A
330
5
100
AcDbSymbolTableRecord
100
AcDbLinetypeTableRecord
  2
ByBlock
 70
     0
  3

 72
    65
 73
     0
 40
0.0
  0
LTYPE
  5
5B
330
5
100
AcDbSymbolTableRecord
100
AcDbLinetypeTableRecord
  2
ByLayer
 70
     0
  3

 72
    65
 73
     0
 40
0.0
  0
LTYPE
  5
5C
330
5
100
AcDbSymbolTableRecord
100
AcDbLinetypeTableRecord
  2
Continuous
 70
     0
  3
Solid line
 72
    65
 73
     0
 40
0.0
  0
ENDTAB
  0
TABLE
  2
LAYER
  5
2
102
{ACAD_XDICTIONARY
360
563
102
}
330
0
100
AcDbSymbolTable
 70
     1
  0
LAYER
  5
54
102
{ACAD_XDICTIONARY
360
30C
102
}
330
2
100
AcDbSymbolTableRecord
100
AcDbLayerTableRecord
  2
0
 70
     0
 62
     7
  6
Continuous
370
    -3
390
F
347
21
348
0
  0
ENDTAB
  0
TABLE
  2
STYLE
  5
3
330
0
100
AcDbSymbolTable
 70
     2
  0
STYLE
  5
55
330
3
100
AcDbSymbolTableRecord
100
AcDbTextStyleTableRecord
  2
Standard
 70
     0
 40
0.0
 41
1.0
 50
0.0
 71
     0
 42
0.2
  3
txt
  4

  0
STYLE
  5
59
330
3
100
AcDbSymbolTableRecord
100
AcDbTextStyleTableRecord
  2
Annotative
 70
     0
 40
0.0
 41
1.0
 50
0.0
 71
     0
 42
0.2
  3
txt
  4

1001
AcadAnnotative
1000
AnnotativeData
1002
{
1070
     1
1070
     1
1002
}
  0
ENDTAB
  0
TABLE
  2
VIEW
  5
6
330
0
100
AcDbSymbolTable
 70
     0
  0
ENDTAB
  0
TABLE
  2
UCS
  5
7
330
0
100
AcDbSymbolTable
 70
     0
  0
ENDTAB
  0
TABLE
  2
APPID
  5
9
330
0
100
AcDbSymbolTable
 70
     4
  0
APPID
  5
56
330
9
100
AcDbSymbolTableRecord
100
AcDbRegAppTableRecord
  2
ACAD
 70
     0
  0
APPID
  5
5D
330
9
100
AcDbSymbolTableRecord
100
AcDbRegAppTableRecord
  2
AcadAnnotative
 70
     0
  0
APPID
  5
12B
330
9
100
AcDbSymbolTableRecord
100
AcDbRegAppTableRecord
  2
ACAD_EXEMPT_FROM_CAD_STANDARDS
 70
     0
  0
APPID
  5
139
330
9
100
AcDbSymbolTableRecord
100
AcDbRegAppTableRecord
  2
ACAD_NAV_VCDISPLAY
 70
     0
  0
ENDTAB
  0
TABLE
  2
DIMSTYLE
  5
A
330
0
100
AcDbSymbolTable
 70
     2
100
AcDbDimStyleTable
 71
     1
340
57
  0
DIMSTYLE
105
57
330
A
100
AcDbSymbolTableRecord
100
AcDbDimStyleTableRecord
  2
Standard
 70
     0
340
55
  0
DIMSTYLE
105
58
330
A
100
AcDbSymbolTableRecord
100
AcDbDimStyleTableRecord
  2
Annotative
 70
     0
340
55
1001
AcadAnnotative
1000
AnnotativeData
1002
{
1070
     1
1070
     1
1002
}
  0
ENDTAB
  0
TABLE
  2
BLOCK_RECORD
  5
1
330
0
100
AcDbSymbolTable
 70
     0
  0
BLOCK_RECORD
  5
6F
102
{ACAD_XDICTIONARY
360
180
102
}
330
1
100
AcDbSymbolTableRecord
100
AcDbBlockTableRecord
  2
*Model_Space
340
72
 70
     0
280
     1
281
     0
  0
BLOCK_RECORD
  5
6B
330
1
100
AcDbSymbolTableRecord
100
AcDbBlockTableRecord
  2
*Paper_Space
340
6E
 70
     0
280
     1
281
     0
  0
ENDTAB
  0
ENDSEC
  0
SECTION
  2
BLOCKS
  0
BLOCK
  5
70
330
6F
100
AcDbEntity
  8
0
100
AcDbBlockBegin
  2
*Model_Space
 70
     0
 10
0.0
 20
0.0
 30
0.0
  3
*Model_Space
  1

  0
ENDBLK
  5
71
330
6F
100
AcDbEntity
  8
0
100
AcDbBlockEnd
  0
BLOCK
  5
6C
330
6B
100
AcDbEntity
 67
     1
  8
0
100
AcDbBlockBegin
  2
*Paper_Space
 70
     0
 10
0.0
 20
0.0
 30
0.0
  3
*Paper_Space
  1

  0
ENDBLK
  5
6D
330
6B
100
AcDbEntity
 67
     1
  8
0
100
AcDbBlockEnd
  0
ENDSEC
  0
SECTION
  2
ENTITIES
  0
LINE
  5
C9
330
6F
100
AcDbEntity
  8
0
 62
     0
100
AcDbLine
 10
12.050265
 20
26.0497
 30
0.0
 11
26.04973500000001
 21
26.0497
 31
0.0
  0
LINE
  5
CA
330
6F
100
AcDbEntity
  8
0
 62
     0
100
AcDbLine
 10
26.04973500000001
 20
26.0497
 30
0.0
 11
26.04973500000001
 21
12.05026
 31
0.0
  0
LINE
  5
CB
330
6F
100
AcDbEntity
  8
0
 62
     0
100
AcDbLine
 10
26.04973500000001
 20
12.05026
 30
0.0
 11
12.050265
 21
12.05026
 31
0.0
  0
LINE
  5
CC
330
6F
100
AcDbEntity
  8
0
 62
     0
100
AcDbLine
 10
12.050265
 20
12.05026
 30
0.0
 11
12.050265
 21
26.0497
 31
0.0
  0
LINE
  5
CD
330
6F
100
AcDbEntity
  8
0
 62
     0
100
AcDbLine
 10
31.100235
 20
26.0497
 30
0.0
 11
45.099635
 21
26.0497
 31
0.0
  0
LINE
  5
CE
330
6F
100
AcDbEntity
  8
0
 62
     0
100
AcDbLine
 10
45.099635
 20
26.0497
 30
0.0
 11
45.099635
 21
12.05026
 31
0.0
  0
LINE
  5
CF
330
6F
100
AcDbEntity
  8
0
 62
     0
100
AcDbLine
 10
45.099635
 20
12.05026
 30
0.0
 11
31.100235
 21
12.05026
 31
0.0
  0
LINE
  5
D0
330
6F
100
AcDbEntity
  8
0
 62
     0
100
AcDbLine
 10
31.100235
 20
12.05026
 30
0.0
 11
31.100235
 21
26.0497
 31
0.0
  0
LINE
  5
D1
330
6F
100
AcDbEntity
  8
0
 62
     0
100
AcDbLine
 10
50.15033500000001
 20
26.0497
 30
0.0
 11
64.149635
 21
26.0497
 31
0.0
  0
LINE
  5
D2
330
6F
100
AcDbEntity
  8
0
 62
     0
100
AcDbLine
 10
64.149635
 20
26.0497
 30
0.0
 11
64.149635
 21
12.05026
 31
0.0
  0
LINE
  5
D3
330
6F
100
AcDbEntity
  8
0
 62
     0
100
AcDbLine
 10
64.149635
 20
12.05026
 30
0.0
 11
50.15033500000001
 21
12.05026
 31
0.0
  0
LINE
  5
D4
330
6F
100
AcDbEntity
  8
0
 62
     0
100
AcDbLine
 10
50.15033500000001
 20
12.05026
 30
0.0
 11
50.15033500000001
 21
26.0497
 31
0.0
  0
LINE
  5
D5
330
6F
100
AcDbEntity
  8
0
 62
     0
100
AcDbLine
 10
75.699235
 20
44.6767
 30
0.0
 11
75.699235
 21
43.8499
 31
0.0
  0
LINE
  5
D6
330
6F
100
AcDbEntity
  8
0
 62
     0
100
AcDbLine
 10
75.699235
 20
43.8499
 30
0.0
 11
69.430435
 21
43.8499
 31
0.0
  0
LINE
  5
D7
330
6F
100
AcDbEntity
  8
0
 62
     0
100
AcDbLine
 10
69.430435
 20
43.8499
 30
0.0
 11
69.430435
 21
42.1259
 31
0.0
  0
LINE
  5
D8
330
6F
100
AcDbEntity
  8
0
 62
     0
100
AcDbLine
 10
69.430435
 20
42.1259
 30
0.0
 11
68.23023500000001
 21
42.1259
 31
0.0
  0
LINE
  5
D9
330
6F
100
AcDbEntity
  8
0
 62
     0
100
AcDbLine
 10
68.23023500000001
 20
42.1259
 30
0.0
 11
68.23023500000001
 21
38.8256
 31
0.0
  0
LINE
  5
DA
330
6F
100
AcDbEntity
  8
0
 62
     0
100
AcDbLine
 10
68.23023500000001
 20
38.8256
 30
0.0
 11
69.430435
 21
38.8256
 31
0.0
  0
LINE
  5
DB
330
6F
100
AcDbEntity
  8
0
 62
     0
100
AcDbLine
 10
69.430435
 20
38.8256
 30
0.0
 11
69.430435
 21
37.1002
 31
0.0
  0
LINE
  5
DC
330
6F
100
AcDbEntity
  8
0
 62
     0
100
AcDbLine
 10
69.430435
 20
37.1002
 30
0.0
 11
73.89933500000002
 21
37.1002
 31
0.0
  0
LINE
  5
DD
330
6F
100
AcDbEntity
  8
0
 62
     0
100
AcDbLine
 10
73.89933500000002
 20
37.1002
 30
0.0
 11
73.89933500000002
 21
35.5747
 31
0.0
  0
LINE
  5
DE
330
6F
100
AcDbEntity
  8
0
 62
     0
100
AcDbLine
 10
73.89933500000002
 20
35.5747
 30
0.0
 11
69.20033500000001
 21
35.5747
 31
0.0
  0
LINE
  5
DF
330
6F
100
AcDbEntity
  8
0
 62
     0
100
AcDbLine
 10
69.20033500000001
 20
35.5747
 30
0.0
 11
69.20033500000001
 21
21.5753
 31
0.0
  0
LINE
  5
E0
330
6F
100
AcDbEntity
  8
0
 62
     0
100
AcDbLine
 10
69.20033500000001
 20
21.5753
 30
0.0
 11
73.89933500000002
 21
21.5753
 31
0.0
  0
LINE
  5
E1
330
6F
100
AcDbEntity
  8
0
 62
     0
100
AcDbLine
 10
73.89933500000002
 20
21.5753
 30
0.0
 11
73.89933500000002
 21
20.0498
 31
0.0
  0
LINE
  5
E2
330
6F
100
AcDbEntity
  8
0
 62
     0
100
AcDbLine
 10
73.89933500000002
 20
20.0498
 30
0.0
 11
69.430435
 21
20.0498
 31
0.0
  0
LINE
  5
E3
330
6F
100
AcDbEntity
  8
0
 62
     0
100
AcDbLine
 10
69.430435
 20
20.0498
 30
0.0
 11
69.430435
 21
18.32585
 31
0.0
  0
LINE
  5
E4
330
6F
100
AcDbEntity
  8
0
 62
     0
100
AcDbLine
 10
69.430435
 20
18.32585
 30
0.0
 11
68.23023500000001
 21
18.32585
 31
0.0
  0
LINE
  5
E5
330
6F
100
AcDbEntity
  8
0
 62
     0
100
AcDbLine
 10
68.23023500000001
 20
18.32585
 30
0.0
 11
68.23023500000001
 21
15.02544
 31
0.0
  0
LINE
  5
E6
330
6F
100
AcDbEntity
  8
0
 62
     0
100
AcDbLine
 10
68.23023500000001
 20
15.02544
 30
0.0
 11
69.430435
 21
15.02544
 31
0.0
  0
LINE
  5
E7
330
6F
100
AcDbEntity
  8
0
 62
     0
100
AcDbLine
 10
69.430435
 20
15.02544
 30
0.0
 11
69.430435
 21
13.30014
 31
0.0
  0
LINE
  5
E8
330
6F
100
AcDbEntity
  8
0
 62
     0
100
AcDbLine
 10
69.430435
 20
13.30014
 30
0.0
 11
75.699235
 21
13.30014
 31
0.0
  0
LINE
  5
E9
330
6F
100
AcDbEntity
  8
0
 62
     0
100
AcDbLine
 10
75.699235
 20
13.30014
 30
0.0
 11
75.699235
 21
12.47469
 31
0.0
  0
LINE
  5
EA
330
6F
100
AcDbEntity
  8
0
 62
     0
100
AcDbLine
 10
75.699235
 20
12.47469
 30
0.0
 11
78.499235
 21
12.47469
 31
0.0
  0
LINE
  5
EB
330
6F
100
AcDbEntity
  8
0
 62
     0
100
AcDbLine
 10
78.499235
 20
12.47469
 30
0.0
 11
78.499235
 21
13.30014
 31
0.0
  0
LINE
  5
EC
330
6F
100
AcDbEntity
  8
0
 62
     0
100
AcDbLine
 10
78.499235
 20
13.30014
 30
0.0
 11
81.72923500000001
 21
13.30014
 31
0.0
  0
LINE
  5
ED
330
6F
100
AcDbEntity
  8
0
 62
     0
100
AcDbLine
 10
81.72923500000001
 20
13.30014
 30
0.0
 11
81.72923500000001
 21
20.0498
 31
0.0
  0
LINE
  5
EE
330
6F
100
AcDbEntity
  8
0
 62
     0
100
AcDbLine
 10
81.72923500000001
 20
20.0498
 30
0.0
 11
78.499235
 21
20.0498
 31
0.0
  0
LINE
  5
EF
330
6F
100
AcDbEntity
  8
0
 62
     0
100
AcDbLine
 10
78.499235
 20
20.0498
 30
0.0
 11
78.499235
 21
21.5753
 31
0.0
  0
LINE
  5
F0
330
6F
100
AcDbEntity
  8
0
 62
     0
100
AcDbLine
 10
78.499235
 20
21.5753
 30
0.0
 11
83.199635
 21
21.5753
 31
0.0
  0
LINE
  5
F1
330
6F
100
AcDbEntity
  8
0
 62
     0
100
AcDbLine
 10
83.199635
 20
21.5753
 30
0.0
 11
83.199635
 21
35.5747
 31
0.0
  0
LINE
  5
F2
330
6F
100
AcDbEntity
  8
0
 62
     0
100
AcDbLine
 10
83.199635
 20
35.5747
 30
0.0
 11
78.499235
 21
35.5747
 31
0.0
  0
LINE
  5
F3
330
6F
100
AcDbEntity
  8
0
 62
     0
100
AcDbLine
 10
78.499235
 20
35.5747
 30
0.0
 11
78.499235
 21
37.1002
 31
0.0
  0
LINE
  5
F4
330
6F
100
AcDbEntity
  8
0
 62
     0
100
AcDbLine
 10
78.499235
 20
37.1002
 30
0.0
 11
81.72923500000001
 21
37.1002
 31
0.0
  0
LINE
  5
F5
330
6F
100
AcDbEntity
  8
0
 62
     0
100
AcDbLine
 10
81.72923500000001
 20
37.1002
 30
0.0
 11
81.72923500000001
 21
43.8499
 31
0.0
  0
LINE
  5
F6
330
6F
100
AcDbEntity
  8
0
 62
     0
100
AcDbLine
 10
81.72923500000001
 20
43.8499
 30
0.0
 11
78.499235
 21
43.8499
 31
0.0
  0
LINE
  5
F7
330
6F
100
AcDbEntity
  8
0
 62
     0
100
AcDbLine
 10
78.499235
 20
43.8499
 30
0.0
 11
78.499235
 21
44.6767
 31
0.0
  0
LINE
  5
F8
330
6F
100
AcDbEntity
  8
0
 62
     0
100
AcDbLine
 10
78.499235
 20
44.6767
 30
0.0
 11
75.699235
 21
44.6767
 31
0.0
  0
LINE
  5
F9
330
6F
100
AcDbEntity
  8
0
 62
     0
100
AcDbLine
 10
12.050265
 20
45.0996
 30
0.0
 11
26.04973500000001
 21
45.0996
 31
0.0
  0
LINE
  5
FA
330
6F
100
AcDbEntity
  8
0
 62
     0
100
AcDbLine
 10
26.04973500000001
 20
45.0996
 30
0.0
 11
26.04973500000001
 21
31.1003
 31
0.0
  0
LINE
  5
FB
330
6F
100
AcDbEntity
  8
0
 62
     0
100
AcDbLine
 10
26.04973500000001
 20
31.1003
 30
0.0
 11
12.050265
 21
31.1003
 31
0.0
  0
LINE
  5
FC
330
6F
100
AcDbEntity
  8
0
 62
     0
100
AcDbLine
 10
12.050265
 20
31.1003
 30
0.0
 11
12.050265
 21
45.0996
 31
0.0
  0
LINE
  5
FD
330
6F
100
AcDbEntity
  8
0
 62
     0
100
AcDbLine
 10
31.100235
 20
45.0996
 30
0.0
 11
45.099635
 21
45.0996
 31
0.0
  0
LINE
  5
FE
330
6F
100
AcDbEntity
  8
0
 62
     0
100
AcDbLine
 10
45.099635
 20
45.0996
 30
0.0
 11
45.099635
 21
31.1003
 31
0.0
  0
LINE
  5
FF
330
6F
100
AcDbEntity
  8
0
 62
     0
100
AcDbLine
 10
45.099635
 20
31.1003
 30
0.0
 11
31.100235
 21
31.1003
 31
0.0
  0
LINE
  5
100
330
6F
100
AcDbEntity
  8
0
 62
     0
100
AcDbLine
 10
31.100235
 20
31.1003
 30
0.0
 11
31.100235
 21
45.0996
 31
0.0
  0
LINE
  5
101
330
6F
100
AcDbEntity
  8
0
 62
     0
100
AcDbLine
 10
50.15033500000001
 20
45.0996
 30
0.0
 11
64.149635
 21
45.0996
 31
0.0
  0
LINE
  5
102
330
6F
100
AcDbEntity
  8
0
 62
     0
100
AcDbLine
 10
64.149635
 20
45.0996
 30
0.0
 11
64.149635
 21
31.1003
 31
0.0
  0
LINE
  5
103
330
6F
100
AcDbEntity
  8
0
 62
     0
100
AcDbLine
 10
64.149635
 20
31.1003
 30
0.0
 11
50.15033500000001
 21
31.1003
 31
0.0
  0
LINE
  5
104
330
6F
100
AcDbEntity
  8
0
 62
     0
100
AcDbLine
 10
50.15033500000001
 20
31.1003
 30
0.0
 11
50.15033500000001
 21
45.0996
 31
0.0
  0
LINE
  5
105
330
6F
100
AcDbEntity
  8
0
 62
     0
100
AcDbLine
 10
12.050265
 20
64.14959999999999
 30
0.0
 11
26.04973500000001
 21
64.14959999999999
 31
0.0
  0
LINE
  5
106
330
6F
100
AcDbEntity
  8
0
 62
     0
100
AcDbLine
 10
26.04973500000001
 20
64.14959999999999
 30
0.0
 11
26.04973500000001
 21
50.15039999999999
 31
0.0
  0
LINE
  5
107
330
6F
100
AcDbEntity
  8
0
 62
     0
100
AcDbLine
 10
26.04973500000001
 20
50.15039999999999
 30
0.0
 11
12.050265
 21
50.15039999999999
 31
0.0
  0
LINE
  5
108
330
6F
100
AcDbEntity
  8
0
 62
     0
100
AcDbLine
 10
12.050265
 20
50.15039999999999
 30
0.0
 11
12.050265
 21
64.14959999999999
 31
0.0
  0
LINE
  5
109
330
6F
100
AcDbEntity
  8
0
 62
     0
100
AcDbLine
 10
31.100235
 20
64.14959999999999
 30
0.0
 11
45.099635
 21
64.14959999999999
 31
0.0
  0
LINE
  5
10A
330
6F
100
AcDbEntity
  8
0
 62
     0
100
AcDbLine
 10
45.099635
 20
64.14959999999999
 30
0.0
 11
45.099635
 21
50.15039999999999
 31
0.0
  0
LINE
  5
10B
330
6F
100
AcDbEntity
  8
0
 62
     0
100
AcDbLine
 10
45.099635
 20
50.15039999999999
 30
0.0
 11
31.100235
 21
50.15039999999999
 31
0.0
  0
LINE
  5
10C
330
6F
100
AcDbEntity
  8
0
 62
     0
100
AcDbLine
 10
31.100235
 20
50.15039999999999
 30
0.0
 11
31.100235
 21
64.14959999999999
 31
0.0
  0
LINE
  5
10D
330
6F
100
AcDbEntity
  8
0
 62
     0
100
AcDbLine
 10
50.15033500000001
 20
64.14959999999999
 30
0.0
 11
64.149635
 21
64.14959999999999
 31
0.0
  0
LINE
  5
10E
330
6F
100
AcDbEntity
  8
0
 62
     0
100
AcDbLine
 10
64.149635
 20
64.14959999999999
 30
0.0
 11
64.149635
 21
50.15039999999999
 31
0.0
  0
LINE
  5
10F
330
6F
100
AcDbEntity
  8
0
 62
     0
100
AcDbLine
 10
64.149635
 20
50.15039999999999
 30
0.0
 11
50.15033500000001
 21
50.15039999999999
 31
0.0
  0
LINE
  5
110
330
6F
100
AcDbEntity
  8
0
 62
     0
100
AcDbLine
 10
50.15033500000001
 20
50.15039999999999
 30
0.0
 11
50.15033500000001
 21
64.14959999999999
 31
0.0
  0
LINE
  5
111
330
6F
100
AcDbEntity
  8
0
 62
     0
100
AcDbLine
 10
69.20033500000001
 20
64.14959999999999
 30
0.0
 11
83.199635
 21
64.14959999999999
 31
0.0
  0
LINE
  5
112
330
6F
100
AcDbEntity
  8
0
 62
     0
100
AcDbLine
 10
83.199635
 20
64.14959999999999
 30
0.0
 11
83.199635
 21
50.15039999999999
 31
0.0
  0
LINE
  5
113
330
6F
100
AcDbEntity
  8
0
 62
     0
100
AcDbLine
 10
83.199635
 20
50.15039999999999
 30
0.0
 11
69.20033500000001
 21
50.15039999999999
 31
0.0
  0
LINE
  5
114
330
6F
100
AcDbEntity
  8
0
 62
     0
100
AcDbLine
 10
69.20033500000001
 20
50.15039999999999
 30
0.0
 11
69.20033500000001
 21
64.14959999999999
 31
0.0
  0
LINE
  5
115
330
6F
100
AcDbEntity
  8
0
 62
     0
100
AcDbLine
 10
12.050265
 20
83.1996
 30
0.0
 11
26.04973500000001
 21
83.1996
 31
0.0
  0
LINE
  5
116
330
6F
100
AcDbEntity
  8
0
 62
     0
100
AcDbLine
 10
26.04973500000001
 20
83.1996
 30
0.0
 11
26.04973500000001
 21
69.2004
 31
0.0
  0
LINE
  5
117
330
6F
100
AcDbEntity
  8
0
 62
     0
100
AcDbLine
 10
26.04973500000001
 20
69.2004
 30
0.0
 11
12.050265
 21
69.2004
 31
0.0
  0
LINE
  5
118
330
6F
100
AcDbEntity
  8
0
 62
     0
100
AcDbLine
 10
12.050265
 20
69.2004
 30
0.0
 11
12.050265
 21
83.1996
 31
0.0
  0
LINE
  5
119
330
6F
100
AcDbEntity
  8
0
 62
     0
100
AcDbLine
 10
31.100235
 20
83.1996
 30
0.0
 11
45.099635
 21
83.1996
 31
0.0
  0
LINE
  5
11A
330
6F
100
AcDbEntity
  8
0
 62
     0
100
AcDbLine
 10
45.099635
 20
83.1996
 30
0.0
 11
45.099635
 21
69.2004
 31
0.0
  0
LINE
  5
11B
330
6F
100
AcDbEntity
  8
0
 62
     0
100
AcDbLine
 10
45.099635
 20
69.2004
 30
0.0
 11
31.100235
 21
69.2004
 31
0.0
  0
LINE
  5
11C
330
6F
100
AcDbEntity
  8
0
 62
     0
100
AcDbLine
 10
31.100235
 20
69.2004
 30
0.0
 11
31.100235
 21
83.1996
 31
0.0
  0
LINE
  5
11D
330
6F
100
AcDbEntity
  8
0
 62
     0
100
AcDbLine
 10
50.15033500000001
 20
83.1996
 30
0.0
 11
64.149635
 21
83.1996
 31
0.0
  0
LINE
  5
11E
330
6F
100
AcDbEntity
  8
0
 62
     0
100
AcDbLine
 10
64.149635
 20
83.1996
 30
0.0
 11
64.149635
 21
69.2004
 31
0.0
  0
LINE
  5
11F
330
6F
100
AcDbEntity
  8
0
 62
     0
100
AcDbLine
 10
64.149635
 20
69.2004
 30
0.0
 11
50.15033500000001
 21
69.2004
 31
0.0
  0
LINE
  5
120
330
6F
100
AcDbEntity
  8
0
 62
     0
100
AcDbLine
 10
50.15033500000001
 20
69.2004
 30
0.0
 11
50.15033500000001
 21
83.1996
 31
0.0
  0
LINE
  5
121
330
6F
100
AcDbEntity
  8
0
 62
     0
100
AcDbLine
 10
69.20033500000001
 20
83.1996
 30
0.0
 11
83.199635
 21
83.1996
 31
0.0
  0
LINE
  5
122
330
6F
100
AcDbEntity
  8
0
 62
     0
100
AcDbLine
 10
83.199635
 20
83.1996
 30
0.0
 11
83.199635
 21
69.2004
 31
0.0
  0
LINE
  5
123
330
6F
100
AcDbEntity
  8
0
 62
     0
100
AcDbLine
 10
83.199635
 20
69.2004
 30
0.0
 11
69.20033500000001
 21
69.2004
 31
0.0
  0
LINE
  5
124
330
6F
100
AcDbEntity
  8
0
 62
     0
100
AcDbLine
 10
69.20033500000001
 20
69.2004
 30
0.0
 11
69.20033500000001
 21
83.1996
 31
0.0
  0
LINE
  5
125
330
6F
100
AcDbEntity
  8
0
 62
     0
100
AcDbLine
 10
12.050265
 20
102.2496
 30
0.0
 11
26.04973500000001
 21
102.2496
 31
0.0
  0
LINE
  5
126
330
6F
100
AcDbEntity
  8
0
 62
     0
100
AcDbLine
 10
26.04973500000001
 20
102.2496
 30
0.0
 11
26.04973500000001
 21
88.25039999999999
 31
0.0
  0
LINE
  5
127
330
6F
100
AcDbEntity
  8
0
 62
     0
100
AcDbLine
 10
26.04973500000001
 20
88.25039999999999
 30
0.0
 11
12.050265
 21
88.25039999999999
 31
0.0
  0
LINE
  5
128
330
6F
100
AcDbEntity
  8
0
 62
     0
100
AcDbLine
 10
12.050265
 20
88.25039999999999
 30
0.0
 11
12.050265
 21
102.2496
 31
0.0
  0
POINT
  5
132
330
6F
100
AcDbEntity
  8
0
  6
Continuous
100
AcDbPoint
 10
0.0
 20
0.0
 30
0.0
  0
LINE
  5
133
330
6F
100
AcDbEntity
  8
0
  6
Continuous
100
AcDbLine
 10
0.0
 20
0.0
 30
0.0
 11
0.0000000000000058
 21
95.25
 31
0.0
  0
LINE
  5
134
330
6F
100
AcDbEntity
  8
0
  6
Continuous
100
AcDbLine
 10
0.0000000000000058
 20
95.25
 30
0.0
 11
19.05000000000001
 21
95.25
 31
0.0
  0
LINE
  5
136
330
6F
100
AcDbEntity
  8
0
  6
Continuous
100
AcDbLine
 10
12.050265
 20
102.2496
 30
0.0
 11
12.050265
 21
88.25039999999999
 31
0.0
  0
CIRCLE
  5
138
330
6F
100
AcDbEntity
  8
0
  6
Continuous
100
AcDbCircle
 10
19.05
 20
95.25
 30
0.0
 40
2.0
  0
CIRCLE
  5
152
330
6F
100
AcDbEntity
  8
0
  6
Continuous
100
AcDbCircle
 10
19.05
 20
76.2
 30
0.0
 40
2.0
  0
CIRCLE
  5
153
330
6F
100
AcDbEntity
  8
0
  6
Continuous
100
AcDbCircle
 10
38.09997
 20
76.2
 30
0.0
 40
2.0
  0
CIRCLE
  5
154
330
6F
100
AcDbEntity
  8
0
  6
Continuous
100
AcDbCircle
 10
57.15006999999999
 20
76.2
 30
0.0
 40
2.0
  0
CIRCLE
  5
155
330
6F
100
AcDbEntity
  8
0
  6
Continuous
100
AcDbCircle
 10
76.20007000000002
 20
76.2
 30
0.0
 40
2.0
  0
CIRCLE
  5
156
330
6F
100
AcDbEntity
  8
0
  6
Continuous
100
AcDbCircle
 10
76.20007000000002
 20
57.14999999999999
 30
0.0
 40
2.0
  0
CIRCLE
  5
157
330
6F
100
AcDbEntity
  8
0
  6
Continuous
100
AcDbCircle
 10
57.15006999999999
 20
57.14999999999999
 30
0.0
 40
2.0
  0
CIRCLE
  5
158
330
6F
100
AcDbEntity
  8
0
  6
Continuous
100
AcDbCircle
 10
38.09997
 20
57.14999999999999
 30
0.0
 40
2.0
  0
CIRCLE
  5
159
330
6F
100
AcDbEntity
  8
0
  6
Continuous
100
AcDbCircle
 10
19.05
 20
57.14999999999999
 30
0.0
 40
2.0
  0
CIRCLE
  5
15A
330
6F
100
AcDbEntity
  8
0
  6
Continuous
100
AcDbCircle
 10
19.05
 20
38.09990000000001
 30
0.0
 40
2.0
  0
CIRCLE
  5
15B
330
6F
100
AcDbEntity
  8
0
  6
Continuous
100
AcDbCircle
 10
38.09997
 20
38.09990000000001
 30
0.0
 40
2.0
  0
CIRCLE
  5
15C
330
6F
100
AcDbEntity
  8
0
  6
Continuous
100
AcDbCircle
 10
57.15006999999999
 20
38.09990000000001
 30
0.0
 40
2.0
  0
CIRCLE
  5
15D
330
6F
100
AcDbEntity
  8
0
  6
Continuous
100
AcDbCircle
 10
57.15006999999999
 20
19.04986000000001
 30
0.0
 40
2.0
  0
CIRCLE
  5
15E
330
6F
100
AcDbEntity
  8
0
  6
Continuous
100
AcDbCircle
 10
38.09997
 20
19.04986000000001
 30
0.0
 40
2.0
  0
CIRCLE
  5
15F
330
6F
100
AcDbEntity
  8
0
  6
Continuous
100
AcDbCircle
 10
19.05
 20
19.04986000000001
 30
0.0
 40
2.0
  0
CIRCLE
  5
160
330
6F
100
AcDbEntity
  8
0
  6
Continuous
100
AcDbCircle
 10
76.20007000000002
 20
28.5749
 30
0.0
 40
2.0
  0
LINE
  5
165
330
6F
100
AcDbEntity
  8
0
  6
Continuous
100
AcDbLine
 10
19.05000000000001
 20
95.25
 30
0.0
 11
19.05000000000001
 21
104.45
 31
0.0
  0
LINE
  5
166
330
6F
100
AcDbEntity
  8
0
  6
Continuous
100
AcDbLine
 10
76.20007000000002
 20
76.2
 30
0.0
 11
85.40007000000001
 21
76.2
 31
0.0
  0
LINE
  5
167
330
6F
100
AcDbEntity
  8
0
  6
Continuous
100
AcDbLine
 10
57.15006999999999
 20
19.04986000000001
 30
0.0
 11
57.15006999999999
 21
9.84986000000001
 31
0.0
  0
LINE
  5
168
330
6F
100
AcDbEntity
  8
0
  6
Continuous
100
AcDbLine
 10
83.40007000000001
 20
104.4499999999999
 30
0.0
 11
19.05000000000001
 21
104.45
 31
0.0
  0
LINE
  5
169
330
6F
100
AcDbEntity
  8
0
  6
Continuous
100
AcDbLine
 10
19.05000000000001
 20
104.45
 30
0.0
 11
83.40007000000001
 21
104.4499999999999
 31
0.0
  0
LINE
  5
16A
330
6F
100
AcDbEntity
  8
0
  6
Continuous
100
AcDbLine
 10
85.40007000000001
 20
102.4499999999999
 30
0.0
 11
85.40007000000001
 21
76.2
 31
0.0
  0
LINE
  5
16B
330
6F
100
AcDbEntity
  8
0
  6
Continuous
100
AcDbLine
 10
85.40007000000001
 20
76.2
 30
0.0
 11
85.40007000000001
 21
11.84986
 31
0.0
  0
LINE
  5
16C
330
6F
100
AcDbEntity
  8
0
  6
Continuous
100
AcDbLine
 10
83.40006999999998
 20
9.849860000000006
 30
0.0
 11
57.15006999999999
 21
9.849860000000006
 31
0.0
  0
LINE
  5
16D
330
6F
100
AcDbEntity
  8
0
  6
Continuous
100
AcDbLine
 10
19.05
 20
76.2
 30
0.0
 11
9.850000000000003
 21
76.2
 31
0.0
  0
LINE
  5
16E
330
6F
100
AcDbEntity
  8
0
  6
Continuous
100
AcDbLine
 10
9.849999999999994
 20
11.84986000000001
 30
0.0
 11
9.849999999999996
 21
76.2
 31
0.0
  0
LINE
  5
16F
330
6F
100
AcDbEntity
  8
0
  6
Continuous
100
AcDbLine
 10
9.849999999999996
 20
76.2
 30
0.0
 11
9.849999999999994
 21
11.84986
 31
0.0
  0
LINE
  5
170
330
6F
100
AcDbEntity
  8
0
  6
Continuous
100
AcDbLine
 10
11.84999999999999
 20
9.849860000000012
 30
0.0
 11
57.15006999999999
 21
9.849859999999996
 31
0.0
  0
LINE
  5
171
330
6F
100
AcDbEntity
  8
0
  6
Continuous
100
AcDbLine
 10
57.15006999999999
 20
9.849859999999996
 30
0.0
 11
11.84999999999999
 21
9.849860000000012
 31
0.0
  0
LINE
  5
172
330
6F
100
AcDbEntity
  8
0
  6
Continuous
100
AcDbLine
 10
9.849999999999994
 20
11.84986000000001
 30
0.0
 11
9.850000000000012
 21
102.45
 31
0.0
  0
LINE
  5
173
330
6F
100
AcDbEntity
  8
0
  6
Continuous
100
AcDbLine
 10
11.85000000000001
 20
104.45
 30
0.0
 11
19.05000000000001
 21
104.45
 31
0.0
  0
LINE
  5
174
330
6F
100
AcDbEntity
  8
0
  6
Continuous
100
AcDbLine
 10
38.09997
 20
76.2
 30
0.0
 11
57.15006999999999
 21
76.2
 31
0.0
  0
LINE
  5
175
330
6F
100
AcDbEntity
  8
0
  6
Continuous
100
AcDbLine
 10
57.15006999999999
 20
76.2
 30
0.0
 11
47.62502
 21
76.2
 31
0.0
  0
LINE
  5
176
330
6F
100
AcDbEntity
  8
0
  6
Continuous
100
AcDbLine
 10
47.62502
 20
76.2
 30
0.0
 11
47.62502
 21
104.45
 31
0.0
  0
LINE
  5
177
330
6F
100
AcDbEntity
  8
0
  6
Continuous
100
AcDbLine
 10
47.62502
 20
104.45
 30
0.0
 11
47.62502
 21
106.45
 31
0.0
  0
LINE
  5
178
330
6F
100
AcDbEntity
  8
0
  6
Continuous
100
AcDbLine
 10
47.62502
 20
106.45
 30
0.0
 11
52.62502000000001
 21
106.45
 31
0.0
  0
LINE
  5
179
330
6F
100
AcDbEntity
  8
0
  6
Continuous
100
AcDbLine
 10
52.62502000000001
 20
106.45
 30
0.0
 11
42.62502
 21
106.45
 31
0.0
  0
LINE
  5
17A
330
6F
100
AcDbEntity
  8
0
  6
Continuous
100
AcDbLine
 10
42.62502
 20
106.45
 30
0.0
 11
42.62502
 21
104.45
 31
0.0
  0
LINE
  5
17B
330
6F
100
AcDbEntity
  8
0
  6
Continuous
100
AcDbLine
 10
52.62502000000001
 20
106.45
 30
0.0
 11
52.62502000000001
 21
104.45
 31
0.0
  0
LINE
  5
17C
330
6F
100
AcDbEntity
  8
0
  6
Continuous
100
AcDbLine
 10
47.62502
 20
106.45
 30
0.0
 11
47.62502
 21
108.85
 31
0.0
  0
LINE
  5
17D
330
6F
100
AcDbEntity
  8
0
  6
Continuous
100
AcDbLine
 10
47.62502
 20
108.85
 30
0.0
 11
48.62502
 21
108.85
 31
0.0
  0
LINE
  5
17E
330
6F
100
AcDbEntity
  8
0
  6
Continuous
100
AcDbLine
 10
48.62502
 20
108.85
 30
0.0
 11
46.62501999999999
 21
108.85
 31
0.0
  0
ARC
  5
17F
330
6F
100
AcDbEntity
  8
0
  6
Continuous
100
AcDbCircle
 10
83.40007000000001
 20
102.4499999999999
 30
0.0
 40
2.0
100
AcDbArc
 50
0.0
 51
89.99999999999998
  0
ARC
  5
182
330
6F
100
AcDbEntity
  8
0
  6
Continuous
100
AcDbCircle
 10
83.40007000000001
 20
102.4499999999999
 30
0.0
 40
2.0
100
AcDbArc
 50
0.0
 51
89.99999999999998
  0
ARC
  5
183
330
6F
100
AcDbEntity
  8
0
  6
Continuous
100
AcDbCircle
 10
83.40006999999998
 20
11.84986
 30
0.0
 40
2.0
100
AcDbArc
 50
270.0
 51
0.0
  0
ARC
  5
184
330
6F
100
AcDbEntity
  8
0
  6
Continuous
100
AcDbCircle
 10
11.84999999999999
 20
11.84986000000001
 30
0.0
 40
2.0
100
AcDbArc
 50
180.0
 51
270.0
  0
ARC
  5
185
330
6F
100
AcDbEntity
  8
0
  6
Continuous
100
AcDbCircle
 10
11.84999999999998
 20
11.84986000000001
 30
0.0
 40
2.0
100
AcDbArc
 50
180.0
 51
270.0
  0
ARC
  5
186
330
6F
100
AcDbEntity
  8
0
  6
Continuous
100
AcDbCircle
 10
11.84999999999999
 20
11.84986000000001
 30
0.0
 40
2.0
100
AcDbArc
 50
180.0
 51
270.0
  0
ARC
  5
187
330
6F
100
AcDbEntity
  8
0
  6
Continuous
100
AcDbCircle
 10
11.84999999999999
 20
11.84986000000001
 30
0.0
 40
2.0
100
AcDbArc
 50
180.0
 51
270.0
  0
ARC
  5
188
330
6F
100
AcDbEntity
  8
0
  6
Continuous
100
AcDbCircle
 10
11.85000000000001
 20
102.45
 30
0.0
 40
2.0
100
AcDbArc
 50
90.0
 51
180.0
  0
MTEXT
  5
18A
330
6F
100
AcDbEntity
  8
0
  6
Continuous
100
AcDbMText
 10
7.574568470858935
 20
49.09051940160168
 30
0.0
 40
2.780495194572312
 41
77.47540859304712
 46
0.0
 71
     1
 72
     5
  1
  NUG-MACRO REV 0 June 2022
 73
     1
 44
1.0
101
Embedded Object
 70
     1
 10
1.0
 20
0.0
 30
0.0
 11
7.574568470858935
 21
49.09051940160168
 31
0.0
 40
77.47540859304712
 41
0.0
 42
74.14653852192831
 43
2.780495194572312
 71
     2
 72
     1
 44
77.47540859304712
 45
13.90247597286157
 73
     0
 74
     0
 46
0.0
  0
LINE
  5
18D
330
6F
100
AcDbEntity
  8
0
  6
Continuous
100
AcDbLine
 10
82.45007000000002
 20
95.25
 30
0.0
 11
69.95007000000001
 21
95.25
 31
0.0
  0
LINE
  5
195
330
6F
100
AcDbEntity
  8
0
  6
Continuous
100
AcDbLine
 10
19.05
 20
95.25
 30
0.0
 11
85.40007000000001
 21
95.25
 31
0.0
  0
LINE
  5
196
330
6F
100
AcDbEntity
  8
0
  6
Continuous
100
AcDbLine
 10
76.20007000000002
 20
95.25
 30
0.0
 11
76.20007000000002
 21
88.55
 31
0.0
  0
MTEXT
  5
198
330
6F
100
AcDbEntity
  8
0
  6
Continuous
100
AcDbMText
 10
70.41119550926993
 20
98.6075370950256
 30
0.0
 40
0.6208901876942267
 41
13.00496024909096
 46
0.0
 71
     1
 72
     5
  1
Rotary Encoder/Push Switch
 73
     1
 44
1.0
101
Embedded Object
 70
     1
 10
1.0
 20
0.0
 30
0.0
 11
70.41119550926993
 21
98.6075370950256
 31
0.0
 40
13.00496024909096
 41
0.0
 42
11.58995017029222
 43
1.655707167184604
 71
     2
 72
     1
 44
13.00496024909096
 45
3.104450938471133
 73
     0
 74
     0
 46
0.0
  0
LINE
  5
19B
330
6F
100
AcDbEntity
  8
0
  6
Continuous
100
AcDbLine
 10
76.20007000000002
 20
95.25
 30
0.0
 11
84.65007000000001
 21
95.25
 31
0.0
  0
LINE
  5
19C
330
6F
100
AcDbEntity
  8
0
  6
Continuous
100
AcDbLine
 10
84.65007000000001
 20
95.25
 30
0.0
 11
67.75007000000002
 21
95.25
 31
0.0
  0
LINE
  5
19D
330
6F
100
AcDbEntity
  8
0
  6
Continuous
100
AcDbLine
 10
67.75007000000002
 20
95.25
 30
0.0
 11
67.75007000000002
 21
102.5
 31
0.0
  0
LINE
  5
19E
330
6F
100
AcDbEntity
  8
0
  6
Continuous
100
AcDbLine
 10
67.75007000000002
 20
102.5
 30
0.0
 11
76.20007000000002
 21
102.5
 31
0.0
  0
LINE
  5
19F
330
6F
100
AcDbEntity
  8
0
  6
Continuous
100
AcDbLine
 10
76.20007000000002
 20
102.5
 30
0.0
 11
84.65007000000001
 21
102.5
 31
0.0
  0
LINE
  5
1A0
330
6F
100
AcDbEntity
  8
0
  6
Continuous
100
AcDbLine
 10
84.65007000000001
 20
102.5
 30
0.0
 11
84.65007000000003
 21
95.25
 31
0.0
  0
LINE
  5
1A1
330
6F
100
AcDbEntity
  8
0
  6
Continuous
100
AcDbLine
 10
84.65007000000003
 20
95.25
 30
0.0
 11
84.65007000000003
 21
88.0
 31
0.0
  0
LINE
  5
1A2
330
6F
100
AcDbEntity
  8
0
  6
Continuous
100
AcDbLine
 10
84.65007000000003
 20
88.0
 30
0.0
 11
76.20007000000002
 21
88.0
 31
0.0
  0
LINE
  5
1A3
330
6F
100
AcDbEntity
  8
0
  6
Continuous
100
AcDbLine
 10
76.20007000000002
 20
88.0
 30
0.0
 11
67.75007000000002
 21
88.0
 31
0.0
  0
LINE
  5
1A4
330
6F
100
AcDbEntity
  8
0
  6
Continuous
100
AcDbLine
 10
67.75007000000002
 20
88.0
 30
0.0
 11
67.75007000000002
 21
95.25
 31
0.0
  0
LINE
  5
1A5
330
6F
100
AcDbEntity
  8
0
  6
Continuous
100
AcDbLine
 10
76.20007000000002
 20
102.5
 30
0.0
 11
76.20007000000002
 21
88.0
 31
0.0
  0
MTEXT
  5
1A6
330
6F
100
AcDbEntity
  8
0
  6
Continuous
100
AcDbMText
 10
68.61855654936897
 20
92.42474223741057
 30
0.0
 40
0.8826339505888796
 41
60.49855396088446
 46
0.0
 71
     1
 72
     5
  1
PEC12R-4025F-S0024
 73
     1
 44
1.0
101
Embedded Object
 70
     1
 10
1.0
 20
0.0
 30
0.0
 11
68.61855654936897
 21
92.42474223741057
 31
0.0
 40
60.49855396088446
 41
0.0
 42
14.85767150157946
 43
0.88263395058888
 71
     2
 72
     1
 44
60.49855396088446
 45
4.413169752944398
 73
     0
 74
     0
 46
0.0
  0
LINE
  5
1AA
330
6F
100
AcDbEntity
  8
0
  6
Continuous
100
AcDbLine
 10
12.050265
 20
101.1504
 30
0.0
 11
12.050265
 21
88.25039999999999
 31
0.0
  0
LINE
  5
25A
330
6F
100
AcDbEntity
  8
0
 62
     0
100
AcDbLine
 10
115.1049011470498
 20
30.0045727334175
 30
0.0
 11
129.1043711470498
 21
30.0045727334175
 31
0.0
  0
LINE
  5
25B
330
6F
100
AcDbEntity
  8
0
 62
     0
100
AcDbLine
 10
129.1043711470498
 20
30.0045727334175
 30
0.0
 11
129.1043711470498
 21
16.0051327334175
 31
0.0
  0
LINE
  5
25C
330
6F
100
AcDbEntity
  8
0
 62
     0
100
AcDbLine
 10
129.1043711470498
 20
16.0051327334175
 30
0.0
 11
115.1049011470498
 21
16.0051327334175
 31
0.0
  0
LINE
  5
25D
330
6F
100
AcDbEntity
  8
0
 62
     0
100
AcDbLine
 10
115.1049011470498
 20
16.0051327334175
 30
0.0
 11
115.1049011470498
 21
30.0045727334175
 31
0.0
  0
LINE
  5
25E
330
6F
100
AcDbEntity
  8
0
 62
     0
100
AcDbLine
 10
134.1548711470498
 20
30.0045727334175
 30
0.0
 11
148.1542711470498
 21
30.0045727334175
 31
0.0
  0
LINE
  5
25F
330
6F
100
AcDbEntity
  8
0
 62
     0
100
AcDbLine
 10
148.1542711470498
 20
30.0045727334175
 30
0.0
 11
148.1542711470498
 21
16.0051327334175
 31
0.0
  0
LINE
  5
260
330
6F
100
AcDbEntity
  8
0
 62
     0
100
AcDbLine
 10
148.1542711470498
 20
16.0051327334175
 30
0.0
 11
134.1548711470498
 21
16.0051327334175
 31
0.0
  0
LINE
  5
261
330
6F
100
AcDbEntity
  8
0
 62
     0
100
AcDbLine
 10
134.1548711470498
 20
16.0051327334175
 30
0.0
 11
134.1548711470498
 21
30.0045727334175
 31
0.0
  0
LINE
  5
262
330
6F
100
AcDbEntity
  8
0
 62
     0
100
AcDbLine
 10
153.2049711470498
 20
30.0045727334175
 30
0.0
 11
167.2042711470498
 21
30.0045727334175
 31
0.0
  0
LINE
  5
263
330
6F
100
AcDbEntity
  8
0
 62
     0
100
AcDbLine
 10
167.2042711470498
 20
30.0045727334175
 30
0.0
 11
167.2042711470498
 21
16.0051327334175
 31
0.0
  0
LINE
  5
264
330
6F
100
AcDbEntity
  8
0
 62
     0
100
AcDbLine
 10
167.2042711470498
 20
16.0051327334175
 30
0.0
 11
153.2049711470498
 21
16.0051327334175
 31
0.0
  0
LINE
  5
265
330
6F
100
AcDbEntity
  8
0
 62
     0
100
AcDbLine
 10
153.2049711470498
 20
16.0051327334175
 30
0.0
 11
153.2049711470498
 21
30.0045727334175
 31
0.0
  0
LINE
  5
26F
330
6F
100
AcDbEntity
  8
0
 62
     0
100
AcDbLine
 10
176.9539711470498
 20
39.5295727334175
 30
0.0
 11
172.2549711470498
 21
39.5295727334175
 31
0.0
  0
LINE
  5
270
330
6F
100
AcDbEntity
  8
0
 62
     0
100
AcDbLine
 10
172.2549711470498
 20
39.5295727334175
 30
0.0
 11
172.2549711470498
 21
25.5301727334175
 31
0.0
  0
LINE
  5
271
330
6F
100
AcDbEntity
  8
0
 62
     0
100
AcDbLine
 10
172.2549711470498
 20
25.5301727334175
 30
0.0
 11
176.9539711470498
 21
25.5301727334175
 31
0.0
  0
LINE
  5
281
330
6F
100
AcDbEntity
  8
0
 62
     0
100
AcDbLine
 10
181.5538711470498
 20
25.5301727334175
 30
0.0
 11
186.2542711470498
 21
25.5301727334175
 31
0.0
  0
LINE
  5
282
330
6F
100
AcDbEntity
  8
0
 62
     0
100
AcDbLine
 10
186.2542711470498
 20
25.5301727334175
 30
0.0
 11
186.2542711470498
 21
39.5295727334175
 31
0.0
  0
LINE
  5
283
330
6F
100
AcDbEntity
  8
0
 62
     0
100
AcDbLine
 10
186.2542711470498
 20
39.5295727334175
 30
0.0
 11
181.5538711470498
 21
39.5295727334175
 31
0.0
  0
LINE
  5
28A
330
6F
100
AcDbEntity
  8
0
 62
     0
100
AcDbLine
 10
115.1049011470498
 20
49.05447273341749
 30
0.0
 11
129.1043711470498
 21
49.05447273341749
 31
0.0
  0
LINE
  5
28B
330
6F
100
AcDbEntity
  8
0
 62
     0
100
AcDbLine
 10
129.1043711470498
 20
49.05447273341749
 30
0.0
 11
129.1043711470498
 21
35.0551727334175
 31
0.0
  0
LINE
  5
28C
330
6F
100
AcDbEntity
  8
0
 62
     0
100
AcDbLine
 10
129.1043711470498
 20
35.0551727334175
 30
0.0
 11
115.1049011470498
 21
35.0551727334175
 31
0.0
  0
LINE
  5
28D
330
6F
100
AcDbEntity
  8
0
 62
     0
100
AcDbLine
 10
115.1049011470498
 20
35.0551727334175
 30
0.0
 11
115.1049011470498
 21
49.05447273341749
 31
0.0
  0
LINE
  5
28E
330
6F
100
AcDbEntity
  8
0
 62
     0
100
AcDbLine
 10
134.1548711470498
 20
49.05447273341749
 30
0.0
 11
148.1542711470498
 21
49.05447273341749
 31
0.0
  0
LINE
  5
28F
330
6F
100
AcDbEntity
  8
0
 62
     0
100
AcDbLine
 10
148.1542711470498
 20
49.05447273341749
 30
0.0
 11
148.1542711470498
 21
35.0551727334175
 31
0.0
  0
LINE
  5
290
330
6F
100
AcDbEntity
  8
0
 62
     0
100
AcDbLine
 10
148.1542711470498
 20
35.0551727334175
 30
0.0
 11
134.1548711470498
 21
35.0551727334175
 31
0.0
  0
LINE
  5
291
330
6F
100
AcDbEntity
  8
0
 62
     0
100
AcDbLine
 10
134.1548711470498
 20
35.0551727334175
 30
0.0
 11
134.1548711470498
 21
49.05447273341749
 31
0.0
  0
LINE
  5
292
330
6F
100
AcDbEntity
  8
0
 62
     0
100
AcDbLine
 10
153.2049711470498
 20
49.05447273341749
 30
0.0
 11
167.2042711470498
 21
49.05447273341749
 31
0.0
  0
LINE
  5
293
330
6F
100
AcDbEntity
  8
0
 62
     0
100
AcDbLine
 10
167.2042711470498
 20
49.05447273341749
 30
0.0
 11
167.2042711470498
 21
35.0551727334175
 31
0.0
  0
LINE
  5
294
330
6F
100
AcDbEntity
  8
0
 62
     0
100
AcDbLine
 10
167.2042711470498
 20
35.0551727334175
 30
0.0
 11
153.2049711470498
 21
35.0551727334175
 31
0.0
  0
LINE
  5
295
330
6F
100
AcDbEntity
  8
0
 62
     0
100
AcDbLine
 10
153.2049711470498
 20
35.0551727334175
 30
0.0
 11
153.2049711470498
 21
49.05447273341749
 31
0.0
  0
LINE
  5
296
330
6F
100
AcDbEntity
  8
0
 62
     0
100
AcDbLine
 10
115.1049011470498
 20
68.1044727334175
 30
0.0
 11
129.1043711470498
 21
68.1044727334175
 31
0.0
  0
LINE
  5
297
330
6F
100
AcDbEntity
  8
0
 62
     0
100
AcDbLine
 10
129.1043711470498
 20
68.1044727334175
 30
0.0
 11
129.1043711470498
 21
54.10527273341749
 31
0.0
  0
LINE
  5
298
330
6F
100
AcDbEntity
  8
0
 62
     0
100
AcDbLine
 10
129.1043711470498
 20
54.10527273341749
 30
0.0
 11
115.1049011470498
 21
54.10527273341749
 31
0.0
  0
LINE
  5
299
330
6F
100
AcDbEntity
  8
0
 62
     0
100
AcDbLine
 10
115.1049011470498
 20
54.10527273341749
 30
0.0
 11
115.1049011470498
 21
68.1044727334175
 31
0.0
  0
LINE
  5
29A
330
6F
100
AcDbEntity
  8
0
 62
     0
100
AcDbLine
 10
134.1548711470498
 20
68.1044727334175
 30
0.0
 11
148.1542711470498
 21
68.1044727334175
 31
0.0
  0
LINE
  5
29B
330
6F
100
AcDbEntity
  8
0
 62
     0
100
AcDbLine
 10
148.1542711470498
 20
68.1044727334175
 30
0.0
 11
148.1542711470498
 21
54.10527273341749
 31
0.0
  0
LINE
  5
29C
330
6F
100
AcDbEntity
  8
0
 62
     0
100
AcDbLine
 10
148.1542711470498
 20
54.10527273341749
 30
0.0
 11
134.1548711470498
 21
54.10527273341749
 31
0.0
  0
LINE
  5
29D
330
6F
100
AcDbEntity
  8
0
 62
     0
100
AcDbLine
 10
134.1548711470498
 20
54.10527273341749
 30
0.0
 11
134.1548711470498
 21
68.1044727334175
 31
0.0
  0
LINE
  5
29E
330
6F
100
AcDbEntity
  8
0
 62
     0
100
AcDbLine
 10
153.2049711470498
 20
68.1044727334175
 30
0.0
 11
167.2042711470498
 21
68.1044727334175
 31
0.0
  0
LINE
  5
29F
330
6F
100
AcDbEntity
  8
0
 62
     0
100
AcDbLine
 10
167.2042711470498
 20
68.1044727334175
 30
0.0
 11
167.2042711470498
 21
54.10527273341749
 31
0.0
  0
LINE
  5
2A0
330
6F
100
AcDbEntity
  8
0
 62
     0
100
AcDbLine
 10
167.2042711470498
 20
54.10527273341749
 30
0.0
 11
153.2049711470498
 21
54.10527273341749
 31
0.0
  0
LINE
  5
2A1
330
6F
100
AcDbEntity
  8
0
 62
     0
100
AcDbLine
 10
153.2049711470498
 20
54.10527273341749
 30
0.0
 11
153.2049711470498
 21
68.1044727334175
 31
0.0
  0
LINE
  5
2A2
330
6F
100
AcDbEntity
  8
0
 62
     0
100
AcDbLine
 10
172.2549711470498
 20
68.1044727334175
 30
0.0
 11
186.2542711470498
 21
68.1044727334175
 31
0.0
  0
LINE
  5
2A3
330
6F
100
AcDbEntity
  8
0
 62
     0
100
AcDbLine
 10
186.2542711470498
 20
68.1044727334175
 30
0.0
 11
186.2542711470498
 21
54.10527273341749
 31
0.0
  0
LINE
  5
2A4
330
6F
100
AcDbEntity
  8
0
 62
     0
100
AcDbLine
 10
186.2542711470498
 20
54.10527273341749
 30
0.0
 11
172.2549711470498
 21
54.10527273341749
 31
0.0
  0
LINE
  5
2A5
330
6F
100
AcDbEntity
  8
0
 62
     0
100
AcDbLine
 10
172.2549711470498
 20
54.10527273341749
 30
0.0
 11
172.2549711470498
 21
68.1044727334175
 31
0.0
  0
LINE
  5
2A6
330
6F
100
AcDbEntity
  8
0
 62
     0
100
AcDbLine
 10
115.1049011470498
 20
87.1544727334175
 30
0.0
 11
129.1043711470498
 21
87.1544727334175
 31
0.0
  0
LINE
  5
2A7
330
6F
100
AcDbEntity
  8
0
 62
     0
100
AcDbLine
 10
129.1043711470498
 20
87.1544727334175
 30
0.0
 11
129.1043711470498
 21
73.1552727334175
 31
0.0
  0
LINE
  5
2A8
330
6F
100
AcDbEntity
  8
0
 62
     0
100
AcDbLine
 10
129.1043711470498
 20
73.1552727334175
 30
0.0
 11
115.1049011470498
 21
73.1552727334175
 31
0.0
  0
LINE
  5
2A9
330
6F
100
AcDbEntity
  8
0
 62
     0
100
AcDbLine
 10
115.1049011470498
 20
73.1552727334175
 30
0.0
 11
115.1049011470498
 21
87.1544727334175
 31
0.0
  0
LINE
  5
2AA
330
6F
100
AcDbEntity
  8
0
 62
     0
100
AcDbLine
 10
134.1548711470498
 20
87.1544727334175
 30
0.0
 11
148.1542711470498
 21
87.1544727334175
 31
0.0
  0
LINE
  5
2AB
330
6F
100
AcDbEntity
  8
0
 62
     0
100
AcDbLine
 10
148.1542711470498
 20
87.1544727334175
 30
0.0
 11
148.1542711470498
 21
73.1552727334175
 31
0.0
  0
LINE
  5
2AC
330
6F
100
AcDbEntity
  8
0
 62
     0
100
AcDbLine
 10
148.1542711470498
 20
73.1552727334175
 30
0.0
 11
134.1548711470498
 21
73.1552727334175
 31
0.0
  0
LINE
  5
2AD
330
6F
100
AcDbEntity
  8
0
 62
     0
100
AcDbLine
 10
134.1548711470498
 20
73.1552727334175
 30
0.0
 11
134.1548711470498
 21
87.1544727334175
 31
0.0
  0
LINE
  5
2AE
330
6F
100
AcDbEntity
  8
0
 62
     0
100
AcDbLine
 10
153.2049711470498
 20
87.1544727334175
 30
0.0
 11
167.2042711470498
 21
87.1544727334175
 31
0.0
  0
LINE
  5
2AF
330
6F
100
AcDbEntity
  8
0
 62
     0
100
AcDbLine
 10
167.2042711470498
 20
87.1544727334175
 30
0.0
 11
167.2042711470498
 21
73.1552727334175
 31
0.0
  0
LINE
  5
2B0
330
6F
100
AcDbEntity
  8
0
 62
     0
100
AcDbLine
 10
167.2042711470498
 20
73.1552727334175
 30
0.0
 11
153.2049711470498
 21
73.1552727334175
 31
0.0
  0
LINE
  5
2B1
330
6F
100
AcDbEntity
  8
0
 62
     0
100
AcDbLine
 10
153.2049711470498
 20
73.1552727334175
 30
0.0
 11
153.2049711470498
 21
87.1544727334175
 31
0.0
  0
LINE
  5
2B2
330
6F
100
AcDbEntity
  8
0
 62
     0
100
AcDbLine
 10
172.2549711470498
 20
87.1544727334175
 30
0.0
 11
186.2542711470498
 21
87.1544727334175
 31
0.0
  0
LINE
  5
2B3
330
6F
100
AcDbEntity
  8
0
 62
     0
100
AcDbLine
 10
186.2542711470498
 20
87.1544727334175
 30
0.0
 11
186.2542711470498
 21
73.1552727334175
 31
0.0
  0
LINE
  5
2B4
330
6F
100
AcDbEntity
  8
0
 62
     0
100
AcDbLine
 10
186.2542711470498
 20
73.1552727334175
 30
0.0
 11
172.2549711470498
 21
73.1552727334175
 31
0.0
  0
LINE
  5
2B5
330
6F
100
AcDbEntity
  8
0
 62
     0
100
AcDbLine
 10
172.2549711470498
 20
73.1552727334175
 30
0.0
 11
172.2549711470498
 21
87.1544727334175
 31
0.0
  0
CIRCLE
  5
2BC
330
6F
100
AcDbEntity
  8
0
  6
Continuous
100
AcDbCircle
 10
122.1046361470498
 20
80.15487273341751
 30
0.0
 40
2.0
  0
CIRCLE
  5
2BD
330
6F
100
AcDbEntity
  8
0
  6
Continuous
100
AcDbCircle
 10
141.1546061470497
 20
80.15487273341751
 30
0.0
 40
2.0
  0
CIRCLE
  5
2BE
330
6F
100
AcDbEntity
  8
0
  6
Continuous
100
AcDbCircle
 10
160.2047061470498
 20
80.15487273341751
 30
0.0
 40
2.0
  0
CIRCLE
  5
2BF
330
6F
100
AcDbEntity
  8
0
  6
Continuous
100
AcDbCircle
 10
179.2547061470498
 20
80.15487273341751
 30
0.0
 40
2.0
  0
CIRCLE
  5
2C0
330
6F
100
AcDbEntity
  8
0
  6
Continuous
100
AcDbCircle
 10
179.2547061470498
 20
61.1048727334175
 30
0.0
 40
2.0
  0
CIRCLE
  5
2C1
330
6F
100
AcDbEntity
  8
0
  6
Continuous
100
AcDbCircle
 10
160.2047061470498
 20
61.1048727334175
 30
0.0
 40
2.0
  0
CIRCLE
  5
2C2
330
6F
100
AcDbEntity
  8
0
  6
Continuous
100
AcDbCircle
 10
141.1546061470497
 20
61.1048727334175
 30
0.0
 40
2.0
  0
CIRCLE
  5
2C3
330
6F
100
AcDbEntity
  8
0
  6
Continuous
100
AcDbCircle
 10
122.1046361470498
 20
61.1048727334175
 30
0.0
 40
2.0
  0
CIRCLE
  5
2C4
330
6F
100
AcDbEntity
  8
0
  6
Continuous
100
AcDbCircle
 10
122.1046361470498
 20
42.05477273341751
 30
0.0
 40
2.0
  0
CIRCLE
  5
2C5
330
6F
100
AcDbEntity
  8
0
  6
Continuous
100
AcDbCircle
 10
141.1546061470497
 20
42.05477273341751
 30
0.0
 40
2.0
  0
CIRCLE
  5
2C6
330
6F
100
AcDbEntity
  8
0
  6
Continuous
100
AcDbCircle
 10
160.2047061470498
 20
42.05477273341751
 30
0.0
 40
2.0
  0
CIRCLE
  5
2C7
330
6F
100
AcDbEntity
  8
0
  6
Continuous
100
AcDbCircle
 10
160.2047061470498
 20
23.00473273341751
 30
0.0
 40
2.0
  0
CIRCLE
  5
2C8
330
6F
100
AcDbEntity
  8
0
  6
Continuous
100
AcDbCircle
 10
141.1546061470497
 20
23.00473273341751
 30
0.0
 40
2.0
  0
CIRCLE
  5
2C9
330
6F
100
AcDbEntity
  8
0
  6
Continuous
100
AcDbCircle
 10
122.1046361470498
 20
23.00473273341751
 30
0.0
 40
2.0
  0
CIRCLE
  5
2CA
330
6F
100
AcDbEntity
  8
0
  6
Continuous
100
AcDbCircle
 10
179.2547061470498
 20
32.52977273341751
 30
0.0
 40
2.0
  0
LINE
  5
2CB
330
6F
100
AcDbEntity
  8
0
  6
Continuous
100
AcDbLine
 10
122.1046361470498
 20
99.20487273341748
 30
0.0
 11
122.1046361470498
 21
108.4048727334175
 31
0.0
  0
LINE
  5
2CE
330
6F
100
AcDbEntity
  8
0
  6
Continuous
100
AcDbLine
 10
186.4547061470498
 20
108.4048727334175
 30
0.0
 11
122.1046361470498
 21
108.4048727334175
 31
0.0
  0
LINE
  5
2CF
330
6F
100
AcDbEntity
  8
0
  6
Continuous
100
AcDbLine
 10
122.1046361470498
 20
108.4048727334175
 30
0.0
 11
186.4547061470498
 21
108.4048727334175
 31
0.0
  0
LINE
  5
2D0
330
6F
100
AcDbEntity
  8
0
  6
Continuous
100
AcDbLine
 10
188.4547061470498
 20
106.4048727334174
 30
0.0
 11
188.4547061470498
 21
80.15487273341751
 31
0.0
  0
ARC
  5
2D1
330
6F
100
AcDbEntity
  8
0
  6
Continuous
100
AcDbCircle
 10
186.4547061470498
 20
106.4048727334174
 30
0.0
 40
2.0
100
AcDbArc
 50
0.0
 51
90.0
  0
ARC
  5
2D2
330
6F
100
AcDbEntity
  8
0
  6
Continuous
100
AcDbCircle
 10
186.4547061470498
 20
106.4048727334174
 30
0.0
 40
2.0
100
AcDbArc
 50
0.0
 51
90.0
  0
LINE
  5
2D3
330
6F
100
AcDbEntity
  8
0
  6
Continuous
100
AcDbLine
 10
188.4547061470498
 20
80.15487273341751
 30
0.0
 11
188.4547061470498
 21
15.8047327334175
 31
0.0
  0
LINE
  5
2D4
330
6F
100
AcDbEntity
  8
0
  6
Continuous
100
AcDbLine
 10
186.4547061470498
 20
13.8047327334175
 30
0.0
 11
160.2047061470498
 21
13.8047327334175
 31
0.0
  0
ARC
  5
2D5
330
6F
100
AcDbEntity
  8
0
  6
Continuous
100
AcDbCircle
 10
186.4547061470498
 20
15.8047327334175
 30
0.0
 40
2.0
100
AcDbArc
 50
270.0
 51
0.0
  0
LINE
  5
2D7
330
6F
100
AcDbEntity
  8
0
  6
Continuous
100
AcDbLine
 10
112.9046361470498
 20
15.80473273341751
 30
0.0
 11
112.9046361470498
 21
80.15487273341751
 31
0.0
  0
LINE
  5
2D8
330
6F
100
AcDbEntity
  8
0
  6
Continuous
100
AcDbLine
 10
112.9046361470498
 20
80.15487273341751
 30
0.0
 11
112.9046361470498
 21
15.8047327334175
 31
0.0
  0
LINE
  5
2D9
330
6F
100
AcDbEntity
  8
0
  6
Continuous
100
AcDbLine
 10
114.9046361470498
 20
13.80473273341751
 30
0.0
 11
160.2047061470498
 21
13.80473273341749
 31
0.0
  0
LINE
  5
2DA
330
6F
100
AcDbEntity
  8
0
  6
Continuous
100
AcDbLine
 10
160.2047061470498
 20
13.80473273341749
 30
0.0
 11
114.9046361470498
 21
13.80473273341751
 31
0.0
  0
ARC
  5
2DB
330
6F
100
AcDbEntity
  8
0
  6
Continuous
100
AcDbCircle
 10
114.9046361470498
 20
15.80473273341751
 30
0.0
 40
2.0
100
AcDbArc
 50
180.0
 51
270.0
  0
ARC
  5
2DC
330
6F
100
AcDbEntity
  8
0
  6
Continuous
100
AcDbCircle
 10
114.9046361470498
 20
15.80473273341751
 30
0.0
 40
2.0
100
AcDbArc
 50
180.0
 51
270.0
  0
ARC
  5
2DD
330
6F
100
AcDbEntity
  8
0
  6
Continuous
100
AcDbCircle
 10
114.9046361470498
 20
15.80473273341751
 30
0.0
 40
2.0
100
AcDbArc
 50
180.0
 51
270.0
  0
LINE
  5
2DE
330
6F
100
AcDbEntity
  8
0
  6
Continuous
100
AcDbLine
 10
112.9046361470498
 20
15.80473273341751
 30
0.0
 11
112.9046361470498
 21
106.4048727334175
 31
0.0
  0
ARC
  5
2DF
330
6F
100
AcDbEntity
  8
0
  6
Continuous
100
AcDbCircle
 10
114.9046361470498
 20
106.4048727334175
 30
0.0
 40
2.0
100
AcDbArc
 50
90.0
 51
180.0
  0
ARC
  5
2E0
330
6F
100
AcDbEntity
  8
0
  6
Continuous
100
AcDbCircle
 10
114.9046361470498
 20
15.80473273341751
 30
0.0
 40
2.0
100
AcDbArc
 50
180.0
 51
270.0
  0
LINE
  5
2E1
330
6F
100
AcDbEntity
  8
0
  6
Continuous
100
AcDbLine
 10
114.9046361470498
 20
108.4048727334175
 30
0.0
 11
122.1046361470498
 21
108.4048727334175
 31
0.0
  0
LINE
  5
2E5
330
6F
100
AcDbEntity
  8
0
  6
Continuous
100
AcDbLine
 10
150.6796561470498
 20
108.4048727334175
 30
0.0
 11
150.6796561470498
 21
110.4048727334175
 31
0.0
  0
LINE
  5
2E6
330
6F
100
AcDbEntity
  8
0
  6
Continuous
100
AcDbLine
 10
150.6796561470498
 20
110.4048727334175
 30
0.0
 11
155.6796561470498
 21
110.4048727334175
 31
0.0
  0
LINE
  5
2E7
330
6F
100
AcDbEntity
  8
0
  6
Continuous
100
AcDbLine
 10
155.6796561470498
 20
110.4048727334175
 30
0.0
 11
145.6796561470498
 21
110.4048727334175
 31
0.0
  0
LINE
  5
2E8
330
6F
100
AcDbEntity
  8
0
  6
Continuous
100
AcDbLine
 10
145.6796561470498
 20
110.4048727334175
 30
0.0
 11
145.6796561470498
 21
108.4048727334175
 31
0.0
  0
LINE
  5
2E9
330
6F
100
AcDbEntity
  8
0
  6
Continuous
100
AcDbLine
 10
155.6796561470498
 20
110.4048727334175
 30
0.0
 11
155.6796561470498
 21
108.4048727334175
 31
0.0
  0
LINE
  5
2EA
330
6F
100
AcDbEntity
  8
0
  6
Continuous
100
AcDbLine
 10
150.6796561470498
 20
110.4048727334175
 30
0.0
 11
150.6796561470498
 21
112.8048727334175
 31
0.0
  0
LINE
  5
2EB
330
6F
100
AcDbEntity
  8
0
  6
Continuous
100
AcDbLine
 10
150.6796561470498
 20
112.8048727334175
 30
0.0
 11
151.6796561470498
 21
112.8048727334175
 31
0.0
  0
LINE
  5
2EC
330
6F
100
AcDbEntity
  8
0
  6
Continuous
100
AcDbLine
 10
151.6796561470498
 20
112.8048727334175
 30
0.0
 11
149.6796561470498
 21
112.8048727334175
 31
0.0
  0
MTEXT
  5
2ED
330
6F
100
AcDbEntity
  8
0
  6
Continuous
100
AcDbMText
 10
110.6292046179087
 20
53.04539213501918
 30
0.0
 40
2.780495194572312
 41
77.47540859304712
 46
0.0
 71
     1
 72
     5
  1
 NUG-MACRO REV 1 August 2022
 73
     1
 44
1.0
101
Embedded Object
 70
     1
 10
1.0
 20
0.0
 30
0.0
 11
110.6292046179087
 21
53.04539213501918
 31
0.0
 40
77.47540859304712
 41
0.0
 42
76.46361785073857
 43
3.707326926096416
 71
     2
 72
     1
 44
77.47540859304712
 45
13.90247597286157
 73
     0
 74
     0
 46
0.0
  0
LINE
  5
2EE
330
6F
100
AcDbEntity
  8
0
  6
Continuous
100
AcDbLine
 10
185.5047061470498
 20
99.20487273341748
 30
0.0
 11
173.0047061470498
 21
99.20487273341748
 31
0.0
  0
LINE
  5
2EF
330
6F
100
AcDbEntity
  8
0
  6
Continuous
100
AcDbLine
 10
122.1046361470498
 20
99.20487273341748
 30
0.0
 11
188.4547061470498
 21
99.20487273341748
 31
0.0
  0
LINE
  5
2F0
330
6F
100
AcDbEntity
  8
0
  6
Continuous
100
AcDbLine
 10
179.2547061470498
 20
99.20487273341748
 30
0.0
 11
179.2547061470498
 21
92.50487273341748
 31
0.0
  0
MTEXT
  5
2F1
330
6F
100
AcDbEntity
  8
0
  6
Continuous
100
AcDbMText
 10
173.4658316563197
 20
102.5624098284431
 30
0.0
 40
0.6208901876942267
 41
13.00496024909096
 46
0.0
 71
     1
 72
     5
  1
Rotary Encoder/Push Switch
 73
     1
 44
1.0
101
Embedded Object
 70
     1
 10
1.0
 20
0.0
 30
0.0
 11
173.4658316563197
 21
102.5624098284431
 31
0.0
 40
13.00496024909096
 41
0.0
 42
11.58995017029222
 43
1.655707167184604
 71
     2
 72
     1
 44
13.00496024909096
 45
3.104450938471133
 73
     0
 74
     0
 46
0.0
  0
LINE
  5
2F2
330
6F
100
AcDbEntity
  8
0
  6
Continuous
100
AcDbLine
 10
179.2547061470498
 20
99.20487273341748
 30
0.0
 11
187.7047061470498
 21
99.20487273341748
 31
0.0
  0
LINE
  5
2F3
330
6F
100
AcDbEntity
  8
0
  6
Continuous
100
AcDbLine
 10
187.7047061470498
 20
99.20487273341748
 30
0.0
 11
170.8047061470498
 21
99.20487273341748
 31
0.0
  0
LINE
  5
2F4
330
6F
100
AcDbEntity
  8
0
  6
Continuous
100
AcDbLine
 10
170.8047061470498
 20
99.20487273341748
 30
0.0
 11
170.8047061470498
 21
106.4548727334175
 31
0.0
  0
LINE
  5
2F5
330
6F
100
AcDbEntity
  8
0
  6
Continuous
100
AcDbLine
 10
170.8047061470498
 20
106.4548727334175
 30
0.0
 11
179.2547061470498
 21
106.4548727334175
 31
0.0
  0
LINE
  5
2F6
330
6F
100
AcDbEntity
  8
0
  6
Continuous
100
AcDbLine
 10
179.2547061470498
 20
106.4548727334175
 30
0.0
 11
187.7047061470498
 21
106.4548727334175
 31
0.0
  0
LINE
  5
2F7
330
6F
100
AcDbEntity
  8
0
  6
Continuous
100
AcDbLine
 10
187.7047061470498
 20
106.4548727334175
 30
0.0
 11
187.7047061470498
 21
99.20487273341748
 31
0.0
  0
LINE
  5
2F8
330
6F
100
AcDbEntity
  8
0
  6
Continuous
100
AcDbLine
 10
187.7047061470498
 20
99.20487273341748
 30
0.0
 11
187.7047061470498
 21
91.95487273341749
 31
0.0
  0
LINE
  5
2F9
330
6F
100
AcDbEntity
  8
0
  6
Continuous
100
AcDbLine
 10
187.7047061470498
 20
91.95487273341749
 30
0.0
 11
179.2547061470498
 21
91.95487273341749
 31
0.0
  0
LINE
  5
2FA
330
6F
100
AcDbEntity
  8
0
  6
Continuous
100
AcDbLine
 10
179.2547061470498
 20
91.95487273341749
 30
0.0
 11
170.8047061470498
 21
91.95487273341749
 31
0.0
  0
LINE
  5
2FB
330
6F
100
AcDbEntity
  8
0
  6
Continuous
100
AcDbLine
 10
170.8047061470498
 20
91.95487273341749
 30
0.0
 11
170.8047061470498
 21
99.20487273341748
 31
0.0
  0
LINE
  5
2FC
330
6F
100
AcDbEntity
  8
0
  6
Continuous
100
AcDbLine
 10
179.2547061470498
 20
106.4548727334175
 30
0.0
 11
179.2547061470498
 21
91.95487273341749
 31
0.0
  0
LINE
  5
31B
330
6F
100
AcDbEntity
  8
0
  6
Continuous
100
AcDbLine
 10
153.007295169299
 20
106.0652349583651
 30
0.0
 11
115.007295169299
 21
106.0652349583651
 31
0.0
  0
LINE
  5
31C
330
6F
100
AcDbEntity
  8
0
  6
Continuous
100
AcDbLine
 10
153.007295169299
 20
106.0652349583651
 30
0.0
 11
153.007295169299
 21
94.06523495836514
 31
0.0
  0
LINE
  5
31D
330
6F
100
AcDbEntity
  8
0
  6
Continuous
100
AcDbLine
 10
115.007295169299
 20
94.06523495836514
 30
0.0
 11
153.007295169299
 21
94.06523495836514
 31
0.0
  0
LINE
  5
31E
330
6F
100
AcDbEntity
  8
0
  6
Continuous
100
AcDbLine
 10
115.007295169299
 20
106.0652349583651
 30
0.0
 11
115.007295169299
 21
94.27987273341749
 31
0.0
  0
MTEXT
  5
320
330
6F
100
AcDbEntity
  8
0
  6
Continuous
100
AcDbMText
 10
124.2564849937274
 20
103.8578058957741
 30
0.0
 40
2.386882871995201
 41
230.1161011231799
 46
0.0
 71
     1
 72
     5
  1
OLED DISPLAY
 73
     1
 44
1.0
101
Embedded Object
 70
     1
 10
1.0
 20
0.0
 30
0.0
 11
124.2564849937274
 21
103.8578058957741
 31
0.0
 40
230.1161011231799
 41
0.0
 42
27.05133921594561
 43
2.386882871995202
 71
     2
 72
     1
 44
230.1161011231799
 45
11.93441435997601
 73
     0
 74
     0
 46
0.0
  0
LINE
  5
321
330
6F
100
AcDbEntity
  8
0
  6
Continuous
100
AcDbLine
 10
115.007295169299
 20
105.1052727334175
 30
0.0
 11
117.1298395437583
 21
105.1052727334175
 31
0.0
  0
LINE
  5
322
330
6F
100
AcDbEntity
  8
0
  6
Continuous
100
AcDbLine
 10
117.1298395437583
 20
105.1052727334175
 30
0.0
 11
117.1298395437583
 21
94.23458702153247
 31
0.0
  0
LINE
  5
323
330
6F
100
AcDbEntity
  8
0
  6
Continuous
100
AcDbLine
 10
117.1298395437583
 20
94.23458702153247
 30
0.0
 11
115.0096826601265
 21
94.23458702153247
 31
0.0
  0
LINE
  5
324
330
6F
100
AcDbEntity
  8
0
  6
Continuous
100
AcDbLine
 10
115.0096826601265
 20
94.23458702153247
 30
0.0
 11
115.007295169299
 21
94.27987273341749
 31
0.0
  0
LINE
  5
325
330
6F
100
AcDbEntity
  8
0
  6
Continuous
100
AcDbLine
 10
115.007295169299
 20
94.27987273341749
 30
0.0
 11
115.007295169299
 21
94.06523495836514
 31
0.0
  0
LINE
  5
326
330
6F
100
AcDbEntity
  8
0
  6
Continuous
100
AcDbLine
 10
116.0685673565286
 20
105.1052727334175
 30
0.0
 11
116.0685673565286
 21
102.5652727334175
 31
0.0
  0
CIRCLE
  5
328
330
6F
100
AcDbEntity
  8
0
  6
Continuous
100
AcDbCircle
 10
116.0685673565286
 20
102.5652727334175
 30
0.0
 40
0.325
  0
LINE
  5
32F
330
6F
100
AcDbEntity
  8
0
  6
Continuous
100
AcDbLine
 10
135.5906749643279
 20
144.4761081094116
 30
0.0
 11
173.6906749643279
 21
144.4761081094116
 31
0.0
  0
LINE
  5
330
330
6F
100
AcDbEntity
  8
0
  6
Continuous
100
AcDbLine
 10
173.6906749643279
 20
144.4761081094116
 30
0.0
 11
173.6906749643279
 21
125.4261081094116
 31
0.0
  0
LINE
  5
331
330
6F
100
AcDbEntity
  8
0
  6
Continuous
100
AcDbLine
 10
173.6906749643279
 20
125.4261081094116
 30
0.0
 11
135.5906749643279
 21
125.4261081094116
 31
0.0
  0
LINE
  5
332
330
6F
100
AcDbEntity
  8
0
  6
Continuous
100
AcDbLine
 10
135.5906749643279
 20
125.4261081094116
 30
0.0
 11
135.5906749643279
 21
144.4761081094116
 31
0.0
  0
LINE
  5
333
330
6F
100
AcDbEntity
  8
0
  6
Continuous
100
AcDbLine
 10
173.6906749643279
 20
134.9511081094116
 30
0.0
 11
169.9706749643279
 21
134.9511081094116
 31
0.0
  0
LINE
  5
334
330
6F
100
AcDbEntity
  8
0
  6
Continuous
100
AcDbLine
 10
154.6406749643279
 20
144.4761081094116
 30
0.0
 11
154.6406749643279
 21
140.9761081094116
 31
0.0
  0
LINE
  5
335
330
6F
100
AcDbEntity
  8
0
  6
Continuous
100
AcDbLine
 10
154.6406749643279
 20
140.9761081094116
 30
0.0
 11
169.970674964328
 21
140.9761081094116
 31
0.0
  0
LINE
  5
336
330
6F
100
AcDbEntity
  8
0
  6
Continuous
100
AcDbLine
 10
169.970674964328
 20
140.9761081094116
 30
0.0
 11
169.970674964328
 21
134.9511081094116
 31
0.0
  0
LINE
  5
337
330
6F
100
AcDbEntity
  8
0
  6
Continuous
100
AcDbLine
 10
169.970674964328
 20
140.9761081094116
 30
0.0
 11
163.221674964328
 21
140.9761081094116
 31
0.0
  0
LINE
  5
338
330
6F
100
AcDbEntity
  8
0
  6
Continuous
100
AcDbLine
 10
163.221674964328
 20
140.9761081094116
 30
0.0
 11
163.221674964328
 21
126.9761081094116
 31
0.0
  0
LINE
  5
339
330
6F
100
AcDbEntity
  8
0
  6
Continuous
100
AcDbLine
 10
163.221674964328
 20
126.9761081094116
 30
0.0
 11
169.970674964328
 21
126.9761081094116
 31
0.0
  0
LINE
  5
33A
330
6F
100
AcDbEntity
  8
0
  6
Continuous
100
AcDbLine
 10
169.970674964328
 20
126.9761081094116
 30
0.0
 11
169.970674964328
 21
134.9511081094116
 31
0.0
  0
LINE
  5
33B
330
6F
100
AcDbEntity
  8
0
  6
Continuous
100
AcDbLine
 10
163.221674964328
 20
133.9761081094116
 30
0.0
 11
146.221674964328
 21
133.9761081094116
 31
0.0
  0
LINE
  5
348
330
6F
100
AcDbEntity
  8
0
  6
Continuous
100
AcDbLine
 10
146.2517129279622
 20
140.9761081094116
 30
0.0
 11
139.5027129279622
 21
140.9761081094116
 31
0.0
  0
LINE
  5
34C
330
6F
100
AcDbEntity
  8
0
  6
Continuous
100
AcDbLine
 10
154.6406749643279
 20
140.9761081094116
 30
0.0
 11
135.5906749643279
 21
140.9761081094116
 31
0.0
  0
LINE
  5
34D
330
6F
100
AcDbEntity
  8
0
  6
Continuous
100
AcDbLine
 10
135.5906749643279
 20
134.9511081094116
 30
0.0
 11
139.3106749643279
 21
134.9511081094116
 31
0.0
  0
LINE
  5
34E
330
6F
100
AcDbEntity
  8
0
  6
Continuous
100
AcDbLine
 10
142.8772129279622
 20
140.9761081094116
 30
0.0
 11
142.8772129279622
 21
144.4761081094116
 31
0.0
  0
LINE
  5
34F
330
6F
100
AcDbEntity
  8
0
  6
Continuous
100
AcDbLine
 10
139.3106749643279
 20
134.9511081094116
 30
0.0
 11
139.3106749643279
 21
126.9761081094116
 31
0.0
  0
LINE
  5
350
330
6F
100
AcDbEntity
  8
0
  6
Continuous
100
AcDbLine
 10
139.3106749643279
 20
126.9761081094116
 30
0.0
 11
146.221674964328
 21
126.9761081094116
 31
0.0
  0
LINE
  5
351
330
6F
100
AcDbEntity
  8
0
  6
Continuous
100
AcDbLine
 10
146.221674964328
 20
126.9761081094116
 30
0.0
 11
146.221674964328
 21
133.9761081094116
 31
0.0
  0
LINE
  5
352
330
6F
100
AcDbEntity
  8
0
  6
Continuous
100
AcDbLine
 10
146.221674964328
 20
133.9761081094116
 30
0.0
 11
146.2517129279622
 21
140.9761081094116
 31
0.0
  0
LINE
  5
353
330
6F
100
AcDbEntity
  8
0
  6
Continuous
100
AcDbLine
 10
146.2517129279622
 20
140.9761081094116
 30
0.0
 11
139.5027129279622
 21
140.9761081094116
 31
0.0
  0
LINE
  5
354
330
6F
100
AcDbEntity
  8
0
  6
Continuous
100
AcDbLine
 10
139.5027129279622
 20
140.9761081094116
 30
0.0
 11
139.3106749643279
 21
140.9761081094116
 31
0.0
  0
LINE
  5
355
330
6F
100
AcDbEntity
  8
0
  6
Continuous
100
AcDbLine
 10
139.3106749643279
 20
140.9761081094116
 30
0.0
 11
139.3106749643279
 21
134.9511081094116
 31
0.0
  0
LINE
  5
356
330
6F
100
AcDbEntity
  8
0
  6
Continuous
100
AcDbLine
 10
142.8772129279622
 20
144.4761081094116
 30
0.0
 11
142.8772129279622
 21
142.9746409242738
 31
0.0
  0
LINE
  5
357
330
6F
100
AcDbEntity
  8
0
  6
Continuous
100
AcDbLine
 10
142.8772129279622
 20
144.4761081094116
 30
0.0
 11
142.8772129279622
 21
141.9611081094116
 31
0.0
  0
LINE
  5
358
330
6F
100
AcDbEntity
  8
0
  6
Continuous
100
AcDbLine
 10
135.5906749643279
 20
141.9611081094116
 30
0.0
 11
142.6846749643279
 21
141.9611081094116
 31
0.0
  0
CIRCLE
  5
359
330
6F
100
AcDbEntity
  8
0
  6
Continuous
100
AcDbCircle
 10
142.8772129279622
 20
141.9611081094116
 30
0.0
 40
2.0
  0
LINE
  5
35A
330
6F
100
AcDbEntity
  8
0
  6
Continuous
100
AcDbLine
 10
166.596174964328
 20
144.4761081094116
 30
0.0
 11
166.596174964328
 21
140.9761081094116
 31
0.0
  0
LINE
  5
35C
330
6F
100
AcDbEntity
  8
0
  6
Continuous
100
AcDbLine
 10
166.596174964328
 20
144.4761081094116
 30
0.0
 11
166.596174964328
 21
141.9611081094116
 31
0.0
  0
CIRCLE
  5
35D
330
6F
100
AcDbEntity
  8
0
  6
Continuous
100
AcDbCircle
 10
166.596174964328
 20
141.9611081094116
 30
0.0
 40
2.0
  0
LINE
  5
35E
330
6F
100
AcDbEntity
  8
0
  6
Continuous
100
AcDbLine
 10
142.7661749643279
 20
125.4261081094116
 30
0.0
 11
142.7661749643279
 21
126.6711081094116
 31
0.0
  0
CIRCLE
  5
35F
330
6F
100
AcDbEntity
  8
0
  6
Continuous
100
AcDbCircle
 10
142.7661749643279
 20
126.6711081094116
 30
0.0
 40
2.0
  0
LINE
  5
360
330
6F
100
AcDbEntity
  8
0
  6
Continuous
100
AcDbLine
 10
166.596174964328
 20
125.4261081094116
 30
0.0
 11
166.596174964328
 21
126.6711081094116
 31
0.0
  0
CIRCLE
  5
361
330
6F
100
AcDbEntity
  8
0
  6
Continuous
100
AcDbCircle
 10
166.596174964328
 20
126.6711081094116
 30
0.0
 40
2.0
  0
LINE
  5
362
330
6F
100
AcDbEntity
  8
0
  6
Continuous
100
AcDbLine
 10
163.221674964328
 20
137.6457683081409
 30
0.0
 11
161.6906749643279
 21
137.6457683081409
 31
0.0
  0
LINE
  5
363
330
6F
100
AcDbEntity
  8
0
  6
Continuous
100
AcDbLine
 10
159.4120392545549
 20
144.4761081094116
 30
0.0
 11
159.4120392545549
 21
141.9761081094116
 31
0.0
  0
LINE
  5
36F
330
6F
100
AcDbEntity
  8
0
 62
     0
100
AcDbLine
 10
147.6913749643279
 20
141.9761081094116
 30
0.0
 11
161.6906749643279
 21
141.9761081094116
 31
0.0
  0
LINE
  5
370
330
6F
100
AcDbEntity
  8
0
 62
     0
100
AcDbLine
 10
161.6906749643279
 20
141.9761081094116
 30
0.0
 11
161.6906749643279
 21
127.9769081094116
 31
0.0
  0
LINE
  5
371
330
6F
100
AcDbEntity
  8
0
 62
     0
100
AcDbLine
 10
161.6906749643279
 20
127.9769081094116
 30
0.0
 11
147.6913749643279
 21
127.9769081094116
 31
0.0
  0
LINE
  5
372
330
6F
100
AcDbEntity
  8
0
 62
     0
100
AcDbLine
 10
147.6913749643279
 20
127.9769081094116
 30
0.0
 11
147.6913749643279
 21
141.9761081094116
 31
0.0
  0
CIRCLE
  5
373
330
6F
100
AcDbEntity
  8
0
  6
Continuous
100
AcDbCircle
 10
154.6911099643279
 20
134.9765081094116
 30
0.0
 40
2.0
  0
LINE
  5
374
330
6F
100
AcDbEntity
  8
0
  6
Continuous
100
AcDbLine
 10
159.4120392545549
 20
141.9761081094116
 30
0.0
 11
161.6906749643279
 21
141.9761081094116
 31
0.0
  0
LINE
  5
375
330
6F
100
AcDbEntity
  8
0
  6
Continuous
100
AcDbLine
 10
161.6906749643279
 20
141.9761081094116
 30
0.0
 11
161.6906749643279
 21
137.6457683081409
 31
0.0
  0
CIRCLE
  5
376
330
6F
100
AcDbEntity
  8
0
  6
Continuous
100
AcDbCircle
 10
142.8772129279622
 20
141.9761081094116
 30
0.0
 40
1.524
  0
CIRCLE
  5
377
330
6F
100
AcDbEntity
  8
0
  6
Continuous
100
AcDbCircle
 10
166.596174964328
 20
141.9761081094116
 30
0.0
 40
1.524
  0
MTEXT
  5
378
330
6F
100
AcDbEntity
  8
0
  6
Continuous
100
AcDbMText
 10
132.1895506745012
 20
150.8498919532039
 30
0.0
 40
2.121446901550524
 41
435.0767812577608
 46
0.0
 71
     1
 72
     5
  1
CHERRY SCREW IN STAB 2U
 73
     1
 44
1.0
101
Embedded Object
 70
     1
 10
1.0
 20
0.0
 30
0.0
 11
132.1895506745012
 21
150.8498919532039
 31
0.0
 40
435.0767812577608
 41
0.0
 42
48.08612976847855
 43
2.121446901550525
 71
     2
 72
     1
 44
435.0767812577608
 45
10.60723450775264
 73
     0
 74
     0
 46
0.0
  0
CIRCLE
  5
37A
330
6F
100
AcDbEntity
  8
0
  6
Continuous
100
AcDbCircle
 10
116.0685673565286
 20
100.0252727334175
 30
0.0
 40
0.325
  0
CIRCLE
  5
37D
330
6F
100
AcDbEntity
  8
0
  6
Continuous
100
AcDbCircle
 10
116.0685673565286
 20
97.4852727334175
 30
0.0
 40
0.325
  0
CIRCLE
  5
37E
330
6F
100
AcDbEntity
  8
0
  6
Continuous
100
AcDbCircle
 10
116.0685673565286
 20
94.9452727334175
 30
0.0
 40
0.325
  0
LINE
  5
3BA
330
6F
100
AcDbEntity
  8
0
  6
Continuous
100
AcDbLine
 10
185.2541711470498
 20
17.25027273341749
 30
0.0
 11
179.2291711470497
 21
17.25027273341749
 31
0.0
  0
LINE
  5
3BB
330
6F
100
AcDbEntity
  8
0
  6
Continuous
100
AcDbLine
 10
185.2541711470498
 20
17.25027273341749
 30
0.0
 11
185.2541711470498
 21
23.99927273341749
 31
0.0
  0
LINE
  5
3BC
330
6F
100
AcDbEntity
  8
0
  6
Continuous
100
AcDbLine
 10
185.2541711470498
 20
23.99927273341749
 30
0.0
 11
171.2541711470498
 21
23.99927273341749
 31
0.0
  0
LINE
  5
3BD
330
6F
100
AcDbEntity
  8
0
  6
Continuous
100
AcDbLine
 10
171.2541711470498
 20
23.99927273341749
 30
0.0
 11
171.2541711470498
 21
17.25027273341749
 31
0.0
  0
LINE
  5
3BE
330
6F
100
AcDbEntity
  8
0
  6
Continuous
100
AcDbLine
 10
171.2541711470498
 20
17.25027273341749
 30
0.0
 11
179.2291711470497
 21
17.25027273341749
 31
0.0
  0
LINE
  5
3C0
330
6F
100
AcDbEntity
  8
0
  6
Continuous
100
AcDbLine
 10
185.2541711470498
 20
40.96923476978328
 30
0.0
 11
185.2541711470498
 21
47.71823476978328
 31
0.0
  0
LINE
  5
3C4
330
6F
100
AcDbEntity
  8
0
  6
Continuous
100
AcDbLine
 10
179.2291711470498
 20
47.91027273341752
 30
0.0
 11
171.2541711470498
 21
47.91027273341752
 31
0.0
  0
LINE
  5
3C5
330
6F
100
AcDbEntity
  8
0
  6
Continuous
100
AcDbLine
 10
171.2541711470498
 20
47.91027273341752
 30
0.0
 11
171.2541711470497
 21
40.99927273341749
 31
0.0
  0
LINE
  5
3C6
330
6F
100
AcDbEntity
  8
0
  6
Continuous
100
AcDbLine
 10
171.2541711470497
 20
40.99927273341749
 30
0.0
 11
178.2541711470498
 21
40.99927273341749
 31
0.0
  0
LINE
  5
3C7
330
6F
100
AcDbEntity
  8
0
  6
Continuous
100
AcDbLine
 10
178.2541711470498
 20
40.99927273341749
 30
0.0
 11
185.2541711470498
 21
40.96923476978328
 31
0.0
  0
LINE
  5
3C8
330
6F
100
AcDbEntity
  8
0
  6
Continuous
100
AcDbLine
 10
185.2541711470498
 20
40.96923476978328
 30
0.0
 11
185.2541711470498
 21
47.71823476978328
 31
0.0
  0
LINE
  5
3C9
330
6F
100
AcDbEntity
  8
0
  6
Continuous
100
AcDbLine
 10
185.2541711470498
 20
47.71823476978328
 30
0.0
 11
185.2541711470498
 21
47.91027273341752
 31
0.0
  0
LINE
  5
3CA
330
6F
100
AcDbEntity
  8
0
  6
Continuous
100
AcDbLine
 10
185.2541711470498
 20
47.91027273341752
 30
0.0
 11
179.2291711470498
 21
47.91027273341752
 31
0.0
  0
CIRCLE
  5
3CE
330
6F
100
AcDbEntity
  8
0
  6
Continuous
100
AcDbCircle
 10
186.2391711470498
 20
44.34373476978326
 30
0.0
 40
2.0
  0
CIRCLE
  5
3D1
330
6F
100
AcDbEntity
  8
0
  6
Continuous
100
AcDbCircle
 10
186.2391711470498
 20
20.62477273341748
 30
0.0
 40
2.0
  0
CIRCLE
  5
3D3
330
6F
100
AcDbEntity
  8
0
  6
Continuous
100
AcDbCircle
 10
170.9491711470498
 20
44.45477273341752
 30
0.0
 40
2.0
  0
CIRCLE
  5
3D5
330
6F
100
AcDbEntity
  8
0
  6
Continuous
100
AcDbCircle
 10
170.9491711470498
 20
20.62477273341748
 30
0.0
 40
2.0
  0
LINE
  5
3D8
330
6F
100
AcDbEntity
  8
0
 62
     0
100
AcDbLine
 10
186.2541711470498
 20
39.5295727334175
 30
0.0
 11
186.2541711470498
 21
25.5302727334175
 31
0.0
  0
LINE
  5
3D9
330
6F
100
AcDbEntity
  8
0
 62
     0
100
AcDbLine
 10
186.2541711470498
 20
25.5302727334175
 30
0.0
 11
172.2549711470498
 21
25.5302727334175
 31
0.0
  0
LINE
  5
3DA
330
6F
100
AcDbEntity
  8
0
 62
     0
100
AcDbLine
 10
172.2549711470498
 20
25.5302727334175
 30
0.0
 11
172.2549711470498
 21
39.5295727334175
 31
0.0
  0
LINE
  5
3DB
330
6F
100
AcDbEntity
  8
0
 62
     0
100
AcDbLine
 10
172.2549711470498
 20
39.5295727334175
 30
0.0
 11
186.2541711470498
 21
39.5295727334175
 31
0.0
  0
CIRCLE
  5
3DC
330
6F
100
AcDbEntity
  8
0
  6
Continuous
100
AcDbCircle
 10
179.2545711470498
 20
32.52983773341749
 30
0.0
 40
2.0
  0
LINE
  5
3DD
330
6F
100
AcDbEntity
  8
0
  6
Continuous
100
AcDbLine
 10
186.2541711470498
 20
27.80890844319058
 30
0.0
 11
186.2541711470498
 21
25.5302727334175
 31
0.0
  0
LINE
  5
3DE
330
6F
100
AcDbEntity
  8
0
  6
Continuous
100
AcDbLine
 10
186.2541711470498
 20
25.5302727334175
 30
0.0
 11
181.923831345779
 21
25.5302727334175
 31
0.0
  0
CIRCLE
  5
3DF
330
6F
100
AcDbEntity
  8
0
  6
Continuous
100
AcDbCircle
 10
186.2541711470498
 20
44.34373476978326
 30
0.0
 40
1.524
  0
CIRCLE
  5
3E0
330
6F
100
AcDbEntity
  8
0
  6
Continuous
100
AcDbCircle
 10
186.2541711470498
 20
20.62477273341748
 30
0.0
 40
1.524
  0
LINE
  5
3F4
330
6F
100
AcDbEntity
  8
0
  6
Continuous
100
AcDbLine
 10
101.3684681651543
 20
140.4307983428132
 30
0.0
 11
91.36846816515436
 21
140.4307983428132
 31
0.0
  0
LINE
  5
3F5
330
6F
100
AcDbEntity
  8
0
  6
Continuous
100
AcDbLine
 10
91.36846816515436
 20
140.4307983428132
 30
0.0
 11
91.36846816515436
 21
130.4307983428132
 31
0.0
  0
LINE
  5
3F6
330
6F
100
AcDbEntity
  8
0
  6
Continuous
100
AcDbLine
 10
91.36846816515436
 20
130.4307983428132
 30
0.0
 11
101.3684681651543
 21
130.4307983428132
 31
0.0
  0
LINE
  5
3F7
330
6F
100
AcDbEntity
  8
0
  6
Continuous
100
AcDbLine
 10
101.3684681651543
 20
130.4307983428132
 30
0.0
 11
101.3684681651543
 21
140.4307983428132
 31
0.0
  0
MTEXT
  5
3F8
330
6F
100
AcDbEntity
  8
0
  6
Continuous
100
AcDbMText
 10
91.65420892850271
 20
136.7852735220719
 30
0.0
 40
2.606297794574042
 41
158.0122247935346
 46
0.0
 71
     1
 72
     5
  1
32U4
 73
     1
 44
1.0
101
Embedded Object
 70
     1
 10
1.0
 20
0.0
 30
0.0
 11
91.65420892850271
 21
136.7852735220719
 31
0.0
 40
158.0122247935346
 41
0.0
 42
9.556425246771491
 43
2.606297794574042
 71
     2
 72
     1
 44
158.0122247935346
 45
13.03148897287023
 73
     0
 74
     0
 46
0.0
  0
LINE
  5
404
330
6F
100
AcDbEntity
  8
0
  6
Continuous
100
AcDbLine
 10
167.5104097984376
 20
104.9894338416009
 30
0.0
 11
157.5104097984376
 21
104.9894338416009
 31
0.0
  0
LINE
  5
405
330
6F
100
AcDbEntity
  8
0
  6
Continuous
100
AcDbLine
 10
157.5104097984376
 20
104.9894338416009
 30
0.0
 11
157.5104097984376
 21
94.98943384160087
 31
0.0
  0
LINE
  5
406
330
6F
100
AcDbEntity
  8
0
  6
Continuous
100
AcDbLine
 10
157.5104097984376
 20
94.98943384160087
 30
0.0
 11
167.5104097984376
 21
94.98943384160087
 31
0.0
  0
LINE
  5
407
330
6F
100
AcDbEntity
  8
0
  6
Continuous
100
AcDbLine
 10
167.5104097984376
 20
94.98943384160087
 30
0.0
 11
167.5104097984376
 21
104.9894338416009
 31
0.0
  0
MTEXT
  5
408
330
6F
100
AcDbEntity
  8
0
  6
Continuous
100
AcDbMText
 10
157.796150561786
 20
101.3439090208596
 30
0.0
 40
2.606297794574042
 41
158.0122247935346
 46
0.0
 71
     1
 72
     5
  1
32U4
 73
     1
 44
1.0
101
Embedded Object
 70
     1
 10
1.0
 20
0.0
 30
0.0
 11
157.796150561786
 21
101.3439090208596
 31
0.0
 40
158.0122247935346
 41
0.0
 42
9.556425246771491
 43
2.606297794574042
 71
     2
 72
     1
 44
158.0122247935346
 45
13.03148897287023
 73
     0
 74
     0
 46
0.0
  0
LINE
  5
4B6
330
6F
100
AcDbEntity
  8
0
 62
     0
100
AcDbLine
 10
202.5924526746597
 20
31.18112146892624
 30
0.0
 11
216.5919226746597
 21
31.18112146892624
 31
0.0
  0
LINE
  5
4B7
330
6F
100
AcDbEntity
  8
0
 62
     0
100
AcDbLine
 10
216.5919226746597
 20
31.18112146892624
 30
0.0
 11
216.5919226746597
 21
17.18168146892623
 31
0.0
  0
LINE
  5
4B8
330
6F
100
AcDbEntity
  8
0
 62
     0
100
AcDbLine
 10
216.5919226746597
 20
17.18168146892623
 30
0.0
 11
202.5924526746597
 21
17.18168146892623
 31
0.0
  0
LINE
  5
4B9
330
6F
100
AcDbEntity
  8
0
 62
     0
100
AcDbLine
 10
202.5924526746597
 20
17.18168146892623
 30
0.0
 11
202.5924526746597
 21
31.18112146892624
 31
0.0
  0
LINE
  5
4BA
330
6F
100
AcDbEntity
  8
0
 62
     0
100
AcDbLine
 10
221.6424226746597
 20
31.18112146892624
 30
0.0
 11
235.6418226746597
 21
31.18112146892624
 31
0.0
  0
LINE
  5
4BB
330
6F
100
AcDbEntity
  8
0
 62
     0
100
AcDbLine
 10
235.6418226746597
 20
31.18112146892624
 30
0.0
 11
235.6418226746597
 21
17.18168146892623
 31
0.0
  0
LINE
  5
4BC
330
6F
100
AcDbEntity
  8
0
 62
     0
100
AcDbLine
 10
235.6418226746597
 20
17.18168146892623
 30
0.0
 11
221.6424226746597
 21
17.18168146892623
 31
0.0
  0
LINE
  5
4BD
330
6F
100
AcDbEntity
  8
0
 62
     0
100
AcDbLine
 10
221.6424226746597
 20
17.18168146892623
 30
0.0
 11
221.6424226746597
 21
31.18112146892624
 31
0.0
  0
LINE
  5
4BE
330
6F
100
AcDbEntity
  8
0
 62
     0
100
AcDbLine
 10
240.6925226746597
 20
31.18112146892624
 30
0.0
 11
254.6918226746597
 21
31.18112146892624
 31
0.0
  0
LINE
  5
4BF
330
6F
100
AcDbEntity
  8
0
 62
     0
100
AcDbLine
 10
254.6918226746597
 20
31.18112146892624
 30
0.0
 11
254.6918226746597
 21
17.18168146892623
 31
0.0
  0
LINE
  5
4C0
330
6F
100
AcDbEntity
  8
0
 62
     0
100
AcDbLine
 10
254.6918226746597
 20
17.18168146892623
 30
0.0
 11
240.6925226746597
 21
17.18168146892623
 31
0.0
  0
LINE
  5
4C1
330
6F
100
AcDbEntity
  8
0
 62
     0
100
AcDbLine
 10
240.6925226746597
 20
17.18168146892623
 30
0.0
 11
240.6925226746597
 21
31.18112146892624
 31
0.0
  0
LINE
  5
4C2
330
6F
100
AcDbEntity
  8
0
 62
     0
100
AcDbLine
 10
264.4415226746597
 20
40.70612146892623
 30
0.0
 11
259.7425226746597
 21
40.70612146892623
 31
0.0
  0
LINE
  5
4C3
330
6F
100
AcDbEntity
  8
0
 62
     0
100
AcDbLine
 10
259.7425226746597
 20
40.70612146892623
 30
0.0
 11
259.7425226746597
 21
26.70672146892624
 31
0.0
  0
LINE
  5
4C4
330
6F
100
AcDbEntity
  8
0
 62
     0
100
AcDbLine
 10
259.7425226746597
 20
26.70672146892624
 30
0.0
 11
264.4415226746597
 21
26.70672146892624
 31
0.0
  0
LINE
  5
4C5
330
6F
100
AcDbEntity
  8
0
 62
     0
100
AcDbLine
 10
269.0414226746597
 20
26.70672146892624
 30
0.0
 11
273.7418226746597
 21
26.70672146892624
 31
0.0
  0
LINE
  5
4C6
330
6F
100
AcDbEntity
  8
0
 62
     0
100
AcDbLine
 10
273.7418226746597
 20
26.70672146892624
 30
0.0
 11
273.7418226746597
 21
40.70612146892623
 31
0.0
  0
LINE
  5
4C7
330
6F
100
AcDbEntity
  8
0
 62
     0
100
AcDbLine
 10
273.7418226746597
 20
40.70612146892623
 30
0.0
 11
269.0414226746597
 21
40.70612146892623
 31
0.0
  0
LINE
  5
4C8
330
6F
100
AcDbEntity
  8
0
 62
     0
100
AcDbLine
 10
202.5924526746597
 20
50.23102146892623
 30
0.0
 11
216.5919226746597
 21
50.23102146892623
 31
0.0
  0
LINE
  5
4C9
330
6F
100
AcDbEntity
  8
0
 62
     0
100
AcDbLine
 10
216.5919226746597
 20
50.23102146892623
 30
0.0
 11
216.5919226746597
 21
36.23172146892625
 31
0.0
  0
LINE
  5
4CA
330
6F
100
AcDbEntity
  8
0
 62
     0
100
AcDbLine
 10
216.5919226746597
 20
36.23172146892625
 30
0.0
 11
202.5924526746597
 21
36.23172146892625
 31
0.0
  0
LINE
  5
4CB
330
6F
100
AcDbEntity
  8
0
 62
     0
100
AcDbLine
 10
202.5924526746597
 20
36.23172146892625
 30
0.0
 11
202.5924526746597
 21
50.23102146892623
 31
0.0
  0
LINE
  5
4CC
330
6F
100
AcDbEntity
  8
0
 62
     0
100
AcDbLine
 10
221.6424226746597
 20
50.23102146892623
 30
0.0
 11
235.6418226746597
 21
50.23102146892623
 31
0.0
  0
LINE
  5
4CD
330
6F
100
AcDbEntity
  8
0
 62
     0
100
AcDbLine
 10
235.6418226746597
 20
50.23102146892623
 30
0.0
 11
235.6418226746597
 21
36.23172146892625
 31
0.0
  0
LINE
  5
4CE
330
6F
100
AcDbEntity
  8
0
 62
     0
100
AcDbLine
 10
235.6418226746597
 20
36.23172146892625
 30
0.0
 11
221.6424226746597
 21
36.23172146892625
 31
0.0
  0
LINE
  5
4CF
330
6F
100
AcDbEntity
  8
0
 62
     0
100
AcDbLine
 10
221.6424226746597
 20
36.23172146892625
 30
0.0
 11
221.6424226746597
 21
50.23102146892623
 31
0.0
  0
LINE
  5
4D0
330
6F
100
AcDbEntity
  8
0
 62
     0
100
AcDbLine
 10
240.6925226746597
 20
50.23102146892623
 30
0.0
 11
254.6918226746597
 21
50.23102146892623
 31
0.0
  0
LINE
  5
4D1
330
6F
100
AcDbEntity
  8
0
 62
     0
100
AcDbLine
 10
254.6918226746597
 20
50.23102146892623
 30
0.0
 11
254.6918226746597
 21
36.23172146892625
 31
0.0
  0
LINE
  5
4D2
330
6F
100
AcDbEntity
  8
0
 62
     0
100
AcDbLine
 10
254.6918226746597
 20
36.23172146892625
 30
0.0
 11
240.6925226746597
 21
36.23172146892625
 31
0.0
  0
LINE
  5
4D3
330
6F
100
AcDbEntity
  8
0
 62
     0
100
AcDbLine
 10
240.6925226746597
 20
36.23172146892625
 30
0.0
 11
240.6925226746597
 21
50.23102146892623
 31
0.0
  0
LINE
  5
4D4
330
6F
100
AcDbEntity
  8
0
 62
     0
100
AcDbLine
 10
202.5924526746597
 20
69.28102146892624
 30
0.0
 11
216.5919226746597
 21
69.28102146892624
 31
0.0
  0
LINE
  5
4D5
330
6F
100
AcDbEntity
  8
0
 62
     0
100
AcDbLine
 10
216.5919226746597
 20
69.28102146892624
 30
0.0
 11
216.5919226746597
 21
55.28182146892623
 31
0.0
  0
LINE
  5
4D6
330
6F
100
AcDbEntity
  8
0
 62
     0
100
AcDbLine
 10
216.5919226746597
 20
55.28182146892623
 30
0.0
 11
202.5924526746597
 21
55.28182146892623
 31
0.0
  0
LINE
  5
4D7
330
6F
100
AcDbEntity
  8
0
 62
     0
100
AcDbLine
 10
202.5924526746597
 20
55.28182146892623
 30
0.0
 11
202.5924526746597
 21
69.28102146892624
 31
0.0
  0
LINE
  5
4D8
330
6F
100
AcDbEntity
  8
0
 62
     0
100
AcDbLine
 10
221.6424226746597
 20
69.28102146892624
 30
0.0
 11
235.6418226746597
 21
69.28102146892624
 31
0.0
  0
LINE
  5
4D9
330
6F
100
AcDbEntity
  8
0
 62
     0
100
AcDbLine
 10
235.6418226746597
 20
69.28102146892624
 30
0.0
 11
235.6418226746597
 21
55.28182146892623
 31
0.0
  0
LINE
  5
4DA
330
6F
100
AcDbEntity
  8
0
 62
     0
100
AcDbLine
 10
235.6418226746597
 20
55.28182146892623
 30
0.0
 11
221.6424226746597
 21
55.28182146892623
 31
0.0
  0
LINE
  5
4DB
330
6F
100
AcDbEntity
  8
0
 62
     0
100
AcDbLine
 10
221.6424226746597
 20
55.28182146892623
 30
0.0
 11
221.6424226746597
 21
69.28102146892624
 31
0.0
  0
LINE
  5
4DC
330
6F
100
AcDbEntity
  8
0
 62
     0
100
AcDbLine
 10
240.6925226746597
 20
69.28102146892624
 30
0.0
 11
254.6918226746597
 21
69.28102146892624
 31
0.0
  0
LINE
  5
4DD
330
6F
100
AcDbEntity
  8
0
 62
     0
100
AcDbLine
 10
254.6918226746597
 20
69.28102146892624
 30
0.0
 11
254.6918226746597
 21
55.28182146892623
 31
0.0
  0
LINE
  5
4DE
330
6F
100
AcDbEntity
  8
0
 62
     0
100
AcDbLine
 10
254.6918226746597
 20
55.28182146892623
 30
0.0
 11
240.6925226746597
 21
55.28182146892623
 31
0.0
  0
LINE
  5
4DF
330
6F
100
AcDbEntity
  8
0
 62
     0
100
AcDbLine
 10
240.6925226746597
 20
55.28182146892623
 30
0.0
 11
240.6925226746597
 21
69.28102146892624
 31
0.0
  0
LINE
  5
4E0
330
6F
100
AcDbEntity
  8
0
 62
     0
100
AcDbLine
 10
259.7425226746597
 20
69.28102146892624
 30
0.0
 11
273.7418226746597
 21
69.28102146892624
 31
0.0
  0
LINE
  5
4E1
330
6F
100
AcDbEntity
  8
0
 62
     0
100
AcDbLine
 10
273.7418226746597
 20
69.28102146892624
 30
0.0
 11
273.7418226746597
 21
55.28182146892623
 31
0.0
  0
LINE
  5
4E2
330
6F
100
AcDbEntity
  8
0
 62
     0
100
AcDbLine
 10
273.7418226746597
 20
55.28182146892623
 30
0.0
 11
259.7425226746597
 21
55.28182146892623
 31
0.0
  0
LINE
  5
4E3
330
6F
100
AcDbEntity
  8
0
 62
     0
100
AcDbLine
 10
259.7425226746597
 20
55.28182146892623
 30
0.0
 11
259.7425226746597
 21
69.28102146892624
 31
0.0
  0
LINE
  5
4E4
330
6F
100
AcDbEntity
  8
0
 62
     0
100
AcDbLine
 10
202.5924526746597
 20
88.33102146892622
 30
0.0
 11
216.5919226746597
 21
88.33102146892622
 31
0.0
  0
LINE
  5
4E5
330
6F
100
AcDbEntity
  8
0
 62
     0
100
AcDbLine
 10
216.5919226746597
 20
88.33102146892622
 30
0.0
 11
216.5919226746597
 21
74.33182146892625
 31
0.0
  0
LINE
  5
4E6
330
6F
100
AcDbEntity
  8
0
 62
     0
100
AcDbLine
 10
216.5919226746597
 20
74.33182146892625
 30
0.0
 11
202.5924526746597
 21
74.33182146892625
 31
0.0
  0
LINE
  5
4E7
330
6F
100
AcDbEntity
  8
0
 62
     0
100
AcDbLine
 10
202.5924526746597
 20
74.33182146892625
 30
0.0
 11
202.5924526746597
 21
88.33102146892622
 31
0.0
  0
LINE
  5
4E8
330
6F
100
AcDbEntity
  8
0
 62
     0
100
AcDbLine
 10
221.6424226746597
 20
88.33102146892622
 30
0.0
 11
235.6418226746597
 21
88.33102146892622
 31
0.0
  0
LINE
  5
4E9
330
6F
100
AcDbEntity
  8
0
 62
     0
100
AcDbLine
 10
235.6418226746597
 20
88.33102146892622
 30
0.0
 11
235.6418226746597
 21
74.33182146892625
 31
0.0
  0
LINE
  5
4EA
330
6F
100
AcDbEntity
  8
0
 62
     0
100
AcDbLine
 10
235.6418226746597
 20
74.33182146892625
 30
0.0
 11
221.6424226746597
 21
74.33182146892625
 31
0.0
  0
LINE
  5
4EB
330
6F
100
AcDbEntity
  8
0
 62
     0
100
AcDbLine
 10
221.6424226746597
 20
74.33182146892625
 30
0.0
 11
221.6424226746597
 21
88.33102146892622
 31
0.0
  0
LINE
  5
4EC
330
6F
100
AcDbEntity
  8
0
 62
     0
100
AcDbLine
 10
240.6925226746597
 20
88.33102146892622
 30
0.0
 11
254.6918226746597
 21
88.33102146892622
 31
0.0
  0
LINE
  5
4ED
330
6F
100
AcDbEntity
  8
0
 62
     0
100
AcDbLine
 10
254.6918226746597
 20
88.33102146892622
 30
0.0
 11
254.6918226746597
 21
74.33182146892625
 31
0.0
  0
LINE
  5
4EE
330
6F
100
AcDbEntity
  8
0
 62
     0
100
AcDbLine
 10
254.6918226746597
 20
74.33182146892625
 30
0.0
 11
240.6925226746597
 21
74.33182146892625
 31
0.0
  0
LINE
  5
4EF
330
6F
100
AcDbEntity
  8
0
 62
     0
100
AcDbLine
 10
240.6925226746597
 20
74.33182146892625
 30
0.0
 11
240.6925226746597
 21
88.33102146892622
 31
0.0
  0
LINE
  5
4F0
330
6F
100
AcDbEntity
  8
0
 62
     0
100
AcDbLine
 10
259.7425226746597
 20
88.33102146892622
 30
0.0
 11
273.7418226746597
 21
88.33102146892622
 31
0.0
  0
LINE
  5
4F1
330
6F
100
AcDbEntity
  8
0
 62
     0
100
AcDbLine
 10
273.7418226746597
 20
88.33102146892622
 30
0.0
 11
273.7418226746597
 21
74.33182146892625
 31
0.0
  0
LINE
  5
4F2
330
6F
100
AcDbEntity
  8
0
 62
     0
100
AcDbLine
 10
273.7418226746597
 20
74.33182146892625
 30
0.0
 11
259.7425226746597
 21
74.33182146892625
 31
0.0
  0
LINE
  5
4F3
330
6F
100
AcDbEntity
  8
0
 62
     0
100
AcDbLine
 10
259.7425226746597
 20
74.33182146892625
 30
0.0
 11
259.7425226746597
 21
88.33102146892622
 31
0.0
  0
CIRCLE
  5
4F4
330
6F
100
AcDbEntity
  8
0
  6
Continuous
100
AcDbCircle
 10
209.5921876746597
 20
81.33142146892623
 30
0.0
 40
2.0
  0
CIRCLE
  5
4F5
330
6F
100
AcDbEntity
  8
0
  6
Continuous
100
AcDbCircle
 10
228.6421576746596
 20
81.33142146892623
 30
0.0
 40
2.0
  0
CIRCLE
  5
4F6
330
6F
100
AcDbEntity
  8
0
  6
Continuous
100
AcDbCircle
 10
247.6922576746597
 20
81.33142146892623
 30
0.0
 40
2.0
  0
CIRCLE
  5
4F7
330
6F
100
AcDbEntity
  8
0
  6
Continuous
100
AcDbCircle
 10
266.7422576746597
 20
81.33142146892623
 30
0.0
 40
2.0
  0
CIRCLE
  5
4F8
330
6F
100
AcDbEntity
  8
0
  6
Continuous
100
AcDbCircle
 10
266.7422576746597
 20
62.28142146892624
 30
0.0
 40
2.0
  0
CIRCLE
  5
4F9
330
6F
100
AcDbEntity
  8
0
  6
Continuous
100
AcDbCircle
 10
247.6922576746597
 20
62.28142146892624
 30
0.0
 40
2.0
  0
CIRCLE
  5
4FA
330
6F
100
AcDbEntity
  8
0
  6
Continuous
100
AcDbCircle
 10
228.6421576746596
 20
62.28142146892624
 30
0.0
 40
2.0
  0
CIRCLE
  5
4FB
330
6F
100
AcDbEntity
  8
0
  6
Continuous
100
AcDbCircle
 10
209.5921876746597
 20
62.28142146892624
 30
0.0
 40
2.0
  0
CIRCLE
  5
4FC
330
6F
100
AcDbEntity
  8
0
  6
Continuous
100
AcDbCircle
 10
209.5921876746597
 20
43.23132146892624
 30
0.0
 40
2.0
  0
CIRCLE
  5
4FD
330
6F
100
AcDbEntity
  8
0
  6
Continuous
100
AcDbCircle
 10
228.6421576746596
 20
43.23132146892624
 30
0.0
 40
2.0
  0
CIRCLE
  5
4FE
330
6F
100
AcDbEntity
  8
0
  6
Continuous
100
AcDbCircle
 10
247.6922576746597
 20
43.23132146892624
 30
0.0
 40
2.0
  0
CIRCLE
  5
4FF
330
6F
100
AcDbEntity
  8
0
  6
Continuous
100
AcDbCircle
 10
247.6922576746597
 20
24.18128146892625
 30
0.0
 40
2.0
  0
CIRCLE
  5
500
330
6F
100
AcDbEntity
  8
0
  6
Continuous
100
AcDbCircle
 10
228.6421576746596
 20
24.18128146892625
 30
0.0
 40
2.0
  0
CIRCLE
  5
501
330
6F
100
AcDbEntity
  8
0
  6
Continuous
100
AcDbCircle
 10
209.5921876746597
 20
24.18128146892625
 30
0.0
 40
2.0
  0
CIRCLE
  5
502
330
6F
100
AcDbEntity
  8
0
  6
Continuous
100
AcDbCircle
 10
266.7422576746597
 20
33.70632146892625
 30
0.0
 40
2.0
  0
LINE
  5
504
330
6F
100
AcDbEntity
  8
0
  6
Continuous
100
AcDbLine
 10
273.9422576746597
 20
109.5814214689262
 30
0.0
 11
209.5921876746597
 21
109.5814214689262
 31
0.0
  0
LINE
  5
506
330
6F
100
AcDbEntity
  8
0
  6
Continuous
100
AcDbLine
 10
275.9422576746597
 20
107.5814214689261
 30
0.0
 11
275.9422576746597
 21
81.33142146892623
 31
0.0
  0
ARC
  5
507
330
6F
100
AcDbEntity
  8
0
  6
Continuous
100
AcDbCircle
 10
273.9422576746597
 20
107.5814214689261
 30
0.0
 40
2.0
100
AcDbArc
 50
0.0
 51
90.0
  0
LINE
  5
509
330
6F
100
AcDbEntity
  8
0
  6
Continuous
100
AcDbLine
 10
275.9422576746597
 20
81.33142146892623
 30
0.0
 11
275.9422576746597
 21
16.98128146892623
 31
0.0
  0
LINE
  5
50A
330
6F
100
AcDbEntity
  8
0
  6
Continuous
100
AcDbLine
 10
273.9422576746597
 20
14.98128146892623
 30
0.0
 11
247.6922576746597
 21
14.98128146892623
 31
0.0
  0
ARC
  5
50B
330
6F
100
AcDbEntity
  8
0
  6
Continuous
100
AcDbCircle
 10
273.9422576746597
 20
16.98128146892623
 30
0.0
 40
2.0
100
AcDbArc
 50
270.0
 51
0.0
  0
LINE
  5
50C
330
6F
100
AcDbEntity
  8
0
  6
Continuous
100
AcDbLine
 10
200.3921876746597
 20
16.98128146892624
 30
0.0
 11
200.3921876746597
 21
81.33142146892623
 31
0.0
  0
LINE
  5
50D
330
6F
100
AcDbEntity
  8
0
  6
Continuous
100
AcDbLine
 10
200.3921876746597
 20
81.33142146892623
 30
0.0
 11
200.3921876746597
 21
16.98128146892623
 31
0.0
  0
LINE
  5
50E
330
6F
100
AcDbEntity
  8
0
  6
Continuous
100
AcDbLine
 10
202.3921876746597
 20
14.98128146892624
 30
0.0
 11
247.6922576746597
 21
14.98128146892623
 31
0.0
  0
LINE
  5
50F
330
6F
100
AcDbEntity
  8
0
  6
Continuous
100
AcDbLine
 10
247.6922576746597
 20
14.98128146892623
 30
0.0
 11
202.3921876746597
 21
14.98128146892624
 31
0.0
  0
ARC
  5
510
330
6F
100
AcDbEntity
  8
0
  6
Continuous
100
AcDbCircle
 10
202.3921876746597
 20
16.98128146892624
 30
0.0
 40
2.0
100
AcDbArc
 50
180.0
 51
270.0
  0
ARC
  5
511
330
6F
100
AcDbEntity
  8
0
  6
Continuous
100
AcDbCircle
 10
202.3921876746597
 20
16.98128146892624
 30
0.0
 40
2.0
100
AcDbArc
 50
180.0
 51
270.0
  0
ARC
  5
512
330
6F
100
AcDbEntity
  8
0
  6
Continuous
100
AcDbCircle
 10
202.3921876746597
 20
16.98128146892624
 30
0.0
 40
2.0
100
AcDbArc
 50
180.0
 51
270.0
  0
LINE
  5
513
330
6F
100
AcDbEntity
  8
0
  6
Continuous
100
AcDbLine
 10
200.3921876746597
 20
16.98128146892624
 30
0.0
 11
200.3921876746597
 21
107.5814214689262
 31
0.0
  0
ARC
  5
514
330
6F
100
AcDbEntity
  8
0
  6
Continuous
100
AcDbCircle
 10
202.3921876746597
 20
107.5814214689262
 30
0.0
 40
2.0
100
AcDbArc
 50
90.0
 51
180.0
  0
ARC
  5
515
330
6F
100
AcDbEntity
  8
0
  6
Continuous
100
AcDbCircle
 10
202.3921876746597
 20
16.98128146892624
 30
0.0
 40
2.0
100
AcDbArc
 50
180.0
 51
270.0
  0
LINE
  5
516
330
6F
100
AcDbEntity
  8
0
  6
Continuous
100
AcDbLine
 10
202.3921876746597
 20
109.5814214689262
 30
0.0
 11
209.5921876746597
 21
109.5814214689262
 31
0.0
  0
LINE
  5
517
330
6F
100
AcDbEntity
  8
0
  6
Continuous
100
AcDbLine
 10
238.1672076746597
 20
109.5814214689262
 30
0.0
 11
238.1672076746597
 21
111.5814214689262
 31
0.0
  0
LINE
  5
518
330
6F
100
AcDbEntity
  8
0
  6
Continuous
100
AcDbLine
 10
238.1672076746597
 20
111.5814214689262
 30
0.0
 11
243.1672076746597
 21
111.5814214689262
 31
0.0
  0
LINE
  5
519
330
6F
100
AcDbEntity
  8
0
  6
Continuous
100
AcDbLine
 10
243.1672076746597
 20
111.5814214689262
 30
0.0
 11
233.1672076746597
 21
111.5814214689262
 31
0.0
  0
LINE
  5
51A
330
6F
100
AcDbEntity
  8
0
  6
Continuous
100
AcDbLine
 10
233.1672076746597
 20
111.5814214689262
 30
0.0
 11
233.1672076746597
 21
109.5814214689262
 31
0.0
  0
LINE
  5
51B
330
6F
100
AcDbEntity
  8
0
  6
Continuous
100
AcDbLine
 10
243.1672076746597
 20
111.5814214689262
 30
0.0
 11
243.1672076746597
 21
109.5814214689262
 31
0.0
  0
LINE
  5
51C
330
6F
100
AcDbEntity
  8
0
  6
Continuous
100
AcDbLine
 10
238.1672076746597
 20
111.5814214689262
 30
0.0
 11
238.1672076746597
 21
113.9814214689262
 31
0.0
  0
LINE
  5
51D
330
6F
100
AcDbEntity
  8
0
  6
Continuous
100
AcDbLine
 10
238.1672076746597
 20
113.9814214689262
 30
0.0
 11
239.1672076746597
 21
113.9814214689262
 31
0.0
  0
LINE
  5
51E
330
6F
100
AcDbEntity
  8
0
  6
Continuous
100
AcDbLine
 10
239.1672076746597
 20
113.9814214689262
 30
0.0
 11
237.1672076746597
 21
113.9814214689262
 31
0.0
  0
MTEXT
  5
51F
330
6F
100
AcDbEntity
  8
0
  6
Continuous
100
AcDbMText
 10
198.1167561455186
 20
54.2219408705279
 30
0.0
 40
2.780495194572312
 41
77.47540859304712
 46
0.0
 71
     1
 72
     5
  1
  NUG-MACRO REV 2 Sept. 2022
 73
     1
 44
1.0
101
Embedded Object
 70
     1
 10
1.0
 20
0.0
 30
0.0
 11
198.1167561455186
 21
54.2219408705279
 31
0.0
 40
77.47540859304712
 41
0.0
 42
75.53678611921445
 43
3.707326926096416
 71
     2
 72
     1
 44
77.47540859304712
 45
13.90247597286157
 73
     0
 74
     0
 46
0.0
  0
MTEXT
  5
523
330
6F
100
AcDbEntity
  8
0
  6
Continuous
100
AcDbMText
 10
258.8467524471867
 20
104.922673665546
 30
0.0
 40
1.354944845466784
 41
14.77731864953097
 46
0.0
 71
     1
 72
     5
  1
Rotary Encoder/Push Switch
 73
     1
 44
1.0
101
Embedded Object
 70
     1
 10
1.0
 20
0.0
 30
0.0
 11
258.8467524471867
 21
104.922673665546
 31
0.0
 40
14.77731864953097
 41
0.0
 42
15.80768986377916
 43
5.871427663689398
 71
     2
 72
     1
 44
14.77731864953097
 45
6.774724227333922
 73
     0
 74
     0
 46
10.8632185070548
  0
LINE
  5
526
330
6F
100
AcDbEntity
  8
0
  6
Continuous
100
AcDbLine
 10
258.2922576746597
 20
100.3814214689262
 30
0.0
 11
258.2922576746597
 21
107.6314214689262
 31
0.0
  0
LINE
  5
527
330
6F
100
AcDbEntity
  8
0
  6
Continuous
100
AcDbLine
 10
258.2922576746597
 20
107.6314214689262
 30
0.0
 11
266.7422576746597
 21
107.6314214689262
 31
0.0
  0
LINE
  5
528
330
6F
100
AcDbEntity
  8
0
  6
Continuous
100
AcDbLine
 10
266.7422576746597
 20
107.6314214689262
 30
0.0
 11
275.1922576746597
 21
107.6314214689262
 31
0.0
  0
LINE
  5
529
330
6F
100
AcDbEntity
  8
0
  6
Continuous
100
AcDbLine
 10
275.1922576746597
 20
107.6314214689262
 30
0.0
 11
275.1922576746597
 21
100.3814214689262
 31
0.0
  0
LINE
  5
52A
330
6F
100
AcDbEntity
  8
0
  6
Continuous
100
AcDbLine
 10
275.1922576746597
 20
100.3814214689262
 30
0.0
 11
275.1922576746597
 21
93.13142146892621
 31
0.0
  0
LINE
  5
52B
330
6F
100
AcDbEntity
  8
0
  6
Continuous
100
AcDbLine
 10
275.1922576746597
 20
93.13142146892621
 30
0.0
 11
266.7422576746597
 21
93.13142146892621
 31
0.0
  0
LINE
  5
52C
330
6F
100
AcDbEntity
  8
0
  6
Continuous
100
AcDbLine
 10
266.7422576746597
 20
93.13142146892621
 30
0.0
 11
258.2922576746597
 21
93.13142146892621
 31
0.0
  0
LINE
  5
52D
330
6F
100
AcDbEntity
  8
0
  6
Continuous
100
AcDbLine
 10
258.2922576746597
 20
93.13142146892621
 30
0.0
 11
258.2922576746597
 21
100.3814214689262
 31
0.0
  0
LINE
  5
52F
330
6F
100
AcDbEntity
  8
0
  6
Continuous
100
AcDbLine
 10
240.4948466969089
 20
107.2417836938739
 30
0.0
 11
202.4948466969089
 21
107.2417836938739
 31
0.0
  0
LINE
  5
530
330
6F
100
AcDbEntity
  8
0
  6
Continuous
100
AcDbLine
 10
240.4948466969089
 20
107.2417836938739
 30
0.0
 11
240.4948466969089
 21
95.24178369387389
 31
0.0
  0
LINE
  5
531
330
6F
100
AcDbEntity
  8
0
  6
Continuous
100
AcDbLine
 10
202.4948466969089
 20
95.24178369387389
 30
0.0
 11
240.4948466969089
 21
95.24178369387389
 31
0.0
  0
LINE
  5
532
330
6F
100
AcDbEntity
  8
0
  6
Continuous
100
AcDbLine
 10
202.4948466969089
 20
107.2417836938739
 30
0.0
 11
202.4948466969089
 21
95.45642146892623
 31
0.0
  0
MTEXT
  5
533
330
6F
100
AcDbEntity
  8
0
  6
Continuous
100
AcDbMText
 10
211.7440365213373
 20
105.0343546312829
 30
0.0
 40
2.386882871995201
 41
230.1161011231799
 46
0.0
 71
     1
 72
     5
  1
OLED DISPLAY
 73
     1
 44
1.0
101
Embedded Object
 70
     1
 10
1.0
 20
0.0
 30
0.0
 11
211.7440365213373
 21
105.0343546312829
 31
0.0
 40
230.1161011231799
 41
0.0
 42
27.05133921594561
 43
2.386882871995202
 71
     2
 72
     1
 44
230.1161011231799
 45
11.93441435997601
 73
     0
 74
     0
 46
0.0
  0
LINE
  5
534
330
6F
100
AcDbEntity
  8
0
  6
Continuous
100
AcDbLine
 10
202.4948466969089
 20
106.2818214689262
 30
0.0
 11
204.6173910713682
 21
106.2818214689262
 31
0.0
  0
LINE
  5
535
330
6F
100
AcDbEntity
  8
0
  6
Continuous
100
AcDbLine
 10
204.6173910713682
 20
106.2818214689262
 30
0.0
 11
204.6173910713682
 21
95.41113575704121
 31
0.0
  0
LINE
  5
536
330
6F
100
AcDbEntity
  8
0
  6
Continuous
100
AcDbLine
 10
204.6173910713682
 20
95.41113575704121
 30
0.0
 11
202.4972341877364
 21
95.41113575704121
 31
0.0
  0
LINE
  5
537
330
6F
100
AcDbEntity
  8
0
  6
Continuous
100
AcDbLine
 10
202.4972341877364
 20
95.41113575704121
 30
0.0
 11
202.4948466969089
 21
95.45642146892623
 31
0.0
  0
LINE
  5
538
330
6F
100
AcDbEntity
  8
0
  6
Continuous
100
AcDbLine
 10
202.4948466969089
 20
95.45642146892623
 30
0.0
 11
202.4948466969089
 21
95.24178369387389
 31
0.0
  0
CIRCLE
  5
53A
330
6F
100
AcDbEntity
  8
0
  6
Continuous
100
AcDbCircle
 10
203.5561188841385
 20
103.7418214689262
 30
0.0
 40
0.325
  0
CIRCLE
  5
53B
330
6F
100
AcDbEntity
  8
0
  6
Continuous
100
AcDbCircle
 10
203.5561188841385
 20
101.2018214689262
 30
0.0
 40
0.325
  0
CIRCLE
  5
53C
330
6F
100
AcDbEntity
  8
0
  6
Continuous
100
AcDbCircle
 10
203.5561188841385
 20
98.6618214689262
 30
0.0
 40
0.325
  0
CIRCLE
  5
53D
330
6F
100
AcDbEntity
  8
0
  6
Continuous
100
AcDbCircle
 10
203.5561188841385
 20
96.12182146892621
 30
0.0
 40
0.325
  0
LINE
  5
53E
330
6F
100
AcDbEntity
  8
0
  6
Continuous
100
AcDbLine
 10
272.7417226746597
 20
18.42682146892623
 30
0.0
 11
266.7167226746597
 21
18.42682146892623
 31
0.0
  0
LINE
  5
53F
330
6F
100
AcDbEntity
  8
0
  6
Continuous
100
AcDbLine
 10
272.7417226746597
 20
18.42682146892623
 30
0.0
 11
272.7417226746597
 21
25.17582146892623
 31
0.0
  0
LINE
  5
540
330
6F
100
AcDbEntity
  8
0
  6
Continuous
100
AcDbLine
 10
272.7417226746597
 20
25.17582146892623
 30
0.0
 11
258.7417226746597
 21
25.17582146892623
 31
0.0
  0
LINE
  5
541
330
6F
100
AcDbEntity
  8
0
  6
Continuous
100
AcDbLine
 10
258.7417226746597
 20
25.17582146892623
 30
0.0
 11
258.7417226746597
 21
18.42682146892623
 31
0.0
  0
LINE
  5
542
330
6F
100
AcDbEntity
  8
0
  6
Continuous
100
AcDbLine
 10
258.7417226746597
 20
18.42682146892623
 30
0.0
 11
266.7167226746597
 21
18.42682146892623
 31
0.0
  0
LINE
  5
543
330
6F
100
AcDbEntity
  8
0
  6
Continuous
100
AcDbLine
 10
272.7417226746597
 20
42.145783505292
 30
0.0
 11
272.7417226746597
 21
48.89478350529199
 31
0.0
  0
LINE
  5
544
330
6F
100
AcDbEntity
  8
0
  6
Continuous
100
AcDbLine
 10
266.7167226746597
 20
49.08682146892626
 30
0.0
 11
258.7417226746597
 21
49.08682146892626
 31
0.0
  0
LINE
  5
545
330
6F
100
AcDbEntity
  8
0
  6
Continuous
100
AcDbLine
 10
258.7417226746597
 20
49.08682146892626
 30
0.0
 11
258.7417226746596
 21
42.17582146892622
 31
0.0
  0
LINE
  5
546
330
6F
100
AcDbEntity
  8
0
  6
Continuous
100
AcDbLine
 10
258.7417226746596
 20
42.17582146892622
 30
0.0
 11
265.7417226746597
 21
42.17582146892622
 31
0.0
  0
LINE
  5
547
330
6F
100
AcDbEntity
  8
0
  6
Continuous
100
AcDbLine
 10
265.7417226746597
 20
42.17582146892622
 30
0.0
 11
272.7417226746597
 21
42.145783505292
 31
0.0
  0
LINE
  5
548
330
6F
100
AcDbEntity
  8
0
  6
Continuous
100
AcDbLine
 10
272.7417226746597
 20
42.145783505292
 30
0.0
 11
272.7417226746597
 21
48.89478350529199
 31
0.0
  0
LINE
  5
549
330
6F
100
AcDbEntity
  8
0
  6
Continuous
100
AcDbLine
 10
272.7417226746597
 20
48.89478350529199
 30
0.0
 11
272.7417226746597
 21
49.08682146892626
 31
0.0
  0
LINE
  5
54A
330
6F
100
AcDbEntity
  8
0
  6
Continuous
100
AcDbLine
 10
272.7417226746597
 20
49.08682146892626
 30
0.0
 11
266.7167226746597
 21
49.08682146892626
 31
0.0
  0
CIRCLE
  5
54B
330
6F
100
AcDbEntity
  8
0
  6
Continuous
100
AcDbCircle
 10
273.7267226746597
 20
45.520283505292
 30
0.0
 40
2.0
  0
CIRCLE
  5
54C
330
6F
100
AcDbEntity
  8
0
  6
Continuous
100
AcDbCircle
 10
273.7267226746597
 20
21.80132146892622
 30
0.0
 40
2.0
  0
CIRCLE
  5
54D
330
6F
100
AcDbEntity
  8
0
  6
Continuous
100
AcDbCircle
 10
258.4367226746597
 20
45.63132146892626
 30
0.0
 40
2.0
  0
CIRCLE
  5
54E
330
6F
100
AcDbEntity
  8
0
  6
Continuous
100
AcDbCircle
 10
258.4367226746597
 20
21.80132146892622
 30
0.0
 40
2.0
  0
LINE
  5
54F
330
6F
100
AcDbEntity
  8
0
 62
     0
100
AcDbLine
 10
273.7417226746597
 20
40.70612146892623
 30
0.0
 11
273.7417226746597
 21
26.70682146892624
 31
0.0
  0
LINE
  5
550
330
6F
100
AcDbEntity
  8
0
 62
     0
100
AcDbLine
 10
273.7417226746597
 20
26.70682146892624
 30
0.0
 11
259.7425226746597
 21
26.70682146892624
 31
0.0
  0
LINE
  5
551
330
6F
100
AcDbEntity
  8
0
 62
     0
100
AcDbLine
 10
259.7425226746597
 20
26.70682146892624
 30
0.0
 11
259.7425226746597
 21
40.70612146892623
 31
0.0
  0
LINE
  5
552
330
6F
100
AcDbEntity
  8
0
 62
     0
100
AcDbLine
 10
259.7425226746597
 20
40.70612146892623
 30
0.0
 11
273.7417226746597
 21
40.70612146892623
 31
0.0
  0
CIRCLE
  5
553
330
6F
100
AcDbEntity
  8
0
  6
Continuous
100
AcDbCircle
 10
266.7421226746597
 20
33.70638646892623
 30
0.0
 40
2.0
  0
LINE
  5
554
330
6F
100
AcDbEntity
  8
0
  6
Continuous
100
AcDbLine
 10
273.7417226746597
 20
28.98545717869932
 30
0.0
 11
273.7417226746597
 21
26.70682146892624
 31
0.0
  0
LINE
  5
555
330
6F
100
AcDbEntity
  8
0
  6
Continuous
100
AcDbLine
 10
273.7417226746597
 20
26.70682146892624
 30
0.0
 11
269.411382873389
 21
26.70682146892624
 31
0.0
  0
CIRCLE
  5
556
330
6F
100
AcDbEntity
  8
0
  6
Continuous
100
AcDbCircle
 10
273.7417226746597
 20
45.520283505292
 30
0.0
 40
1.524
  0
CIRCLE
  5
557
330
6F
100
AcDbEntity
  8
0
  6
Continuous
100
AcDbCircle
 10
273.7417226746597
 20
21.80132146892622
 30
0.0
 40
1.524
  0
LINE
  5
558
330
6F
100
AcDbEntity
  8
0
  6
Continuous
100
AcDbLine
 10
254.9979613260475
 20
106.1659825771096
 30
0.0
 11
244.9979613260475
 21
106.1659825771096
 31
0.0
  0
LINE
  5
559
330
6F
100
AcDbEntity
  8
0
  6
Continuous
100
AcDbLine
 10
244.9979613260475
 20
106.1659825771096
 30
0.0
 11
244.9979613260475
 21
96.16598257710959
 31
0.0
  0
LINE
  5
55A
330
6F
100
AcDbEntity
  8
0
  6
Continuous
100
AcDbLine
 10
244.9979613260475
 20
96.16598257710959
 30
0.0
 11
254.9979613260475
 21
96.16598257710959
 31
0.0
  0
LINE
  5
55B
330
6F
100
AcDbEntity
  8
0
  6
Continuous
100
AcDbLine
 10
254.9979613260475
 20
96.16598257710959
 30
0.0
 11
254.9979613260475
 21
106.1659825771096
 31
0.0
  0
MTEXT
  5
55C
330
6F
100
AcDbEntity
  8
0
  6
Continuous
100
AcDbMText
 10
245.2837020893959
 20
102.5204577563684
 30
0.0
 40
2.606297794574042
 41
158.0122247935346
 46
0.0
 71
     1
 72
     5
  1
32U4
 73
     1
 44
1.0
101
Embedded Object
 70
     1
 10
1.0
 20
0.0
 30
0.0
 11
245.2837020893959
 21
102.5204577563684
 31
0.0
 40
158.0122247935346
 41
0.0
 42
9.556425246771491
 43
2.606297794574042
 71
     2
 72
     1
 44
158.0122247935346
 45
13.03148897287023
 73
     0
 74
     0
 46
0.0
  0
ENDSEC
  0
SECTION
  2
OBJECTS
  0
DICTIONARY
  5
C
330
0
100
AcDbDictionary
281
     1
  3
ACAD_CIP_PREVIOUS_PRODUCT_INFO
350
12A
  3
ACAD_COLOR
350
62
  3
ACAD_DETAILVIEWSTYLE
350
69
  3
ACAD_GROUP
350
D
  3
ACAD_LAYOUT
350
61
  3
ACAD_MATERIAL
350
10
  3
ACAD_MLEADERSTYLE
350
65
  3
ACAD_MLINESTYLE
350
5E
  3
ACAD_PLOTSETTINGS
350
60
  3
ACAD_PLOTSTYLENAME
350
E
  3
ACAD_SCALELIST
350
42
  3
ACAD_SECTIONVIEWSTYLE
350
67
  3
ACAD_TABLESTYLE
350
63
  3
ACAD_VISUALSTYLE
350
29
  3
ACDB_RECOMPOSE_DATA
350
57D
  3
AcDbVariableDictionary
350
13A
  0
DICTIONARY
  5
563
330
2
100
AcDbDictionary
280
     1
281
     1
  3
ACAD_LAYERSTATES
360
564
  0
DICTIONARY
  5
30C
330
54
100
AcDbDictionary
280
     1
281
     1
  3
ADSK_XREC_LAYER_RECONCILED
360
30D
  0
DICTIONARY
  5
180
330
6F
100
AcDbDictionary
280
     1
281
     1
  3
ACAD_SORTENTS
360
181
  0
XRECORD
  5
12A
102
{ACAD_REACTORS
330
C
102
}
330
C
100
AcDbXrecord
280
     1
300
ACD
300
2023
300

  0
DICTIONARY
  5
62
102
{ACAD_REACTORS
330
C
102
}
330
C
100
AcDbDictionary
281
     1
  0
DICTIONARY
  5
69
102
{ACAD_REACTORS
330
C
102
}
330
C
100
AcDbDictionary
281
     1
  3
Imperial24
350
6A
  0
DICTIONARY
  5
D
102
{ACAD_REACTORS
330
C
102
}
330
C
100
AcDbDictionary
281
     1
  0
DICTIONARY
  5
61
102
{ACAD_REACTORS
330
C
102
}
330
C
100
AcDbDictionary
281
     1
  3
Layout1
350
6E
  3
Model
350
72
  0
DICTIONARY
  5
10
102
{ACAD_REACTORS
330
C
102
}
330
C
100
AcDbDictionary
281
     1
  3
ByBlock
350
19
  3
ByLayer
350
11
  3
Global
350
21
  0
DICTIONARY
  5
65
102
{ACAD_REACTORS
330
C
102
}
330
C
100
AcDbDictionary
281
     1
  3
Standard
350
66
  0
DICTIONARY
  5
5E
102
{ACAD_REACTORS
330
C
102
}
330
C
100
AcDbDictionary
281
     1
  3
Standard
350
5F
  0
DICTIONARY
  5
60
102
{ACAD_REACTORS
330
C
102
}
330
C
100
AcDbDictionary
281
     1
  0
ACDBDICTIONARYWDFLT
  5
E
102
{ACAD_REACTORS
330
C
102
}
330
C
100
AcDbDictionary
281
     1
  3
Normal
350
F
100
AcDbDictionaryWithDefault
340
F
  0
DICTIONARY
  5
42
102
{ACAD_REACTORS
330
C
102
}
330
C
100
AcDbDictionary
281
     1
  3
A0
350
43
  3
A1
350
44
  3
A2
350
45
  3
A3
350
46
  3
A4
350
47
  3
A5
350
48
  3
A6
350
49
  3
A7
350
4A
  3
A8
350
4B
  3
A9
350
4C
  3
B0
350
4D
  3
B1
350
4E
  3
B2
350
4F
  3
B3
350
50
  3
B4
350
51
  3
B5
350
52
  3
B6
350
53
  0
DICTIONARY
  5
67
102
{ACAD_REACTORS
330
C
102
}
330
C
100
AcDbDictionary
281
     1
  3
Imperial24
350
68
  0
DICTIONARY
  5
63
102
{ACAD_REACTORS
330
C
102
}
330
C
100
AcDbDictionary
281
     1
  3
Standard
350
64
  0
DICTIONARY
  5
29
102
{ACAD_REACTORS
330
C
102
}
330
C
100
AcDbDictionary
281
     1
  3
2dWireframe
350
2F
  3
Basic
350
2E
  3
Brighten
350
35
  3
ColorChange
350
39
  3
Conceptual
350
32
  3
Dim
350
34
  3
EdgeColorOff
350
41
  3
Facepattern
350
38
  3
Flat
350
2A
  3
FlatWithEdges
350
2B
  3
Gouraud
350
2C
  3
GouraudWithEdges
350
2D
  3
Hidden
350
31
  3
JitterOff
350
3F
  3
Linepattern
350
37
  3
OverhangOff
350
40
  3
Realistic
350
33
  3
Shaded
350
3E
  3
Shaded with edges
350
3D
  3
Shades of Gray
350
3A
  3
Sketchy
350
3B
  3
Thicken
350
36
  3
Wireframe
350
30
  3
X-Ray
350
3C
  0
XRECORD
  5
57D
102
{ACAD_REACTORS
330
C
102
}
330
C
100
AcDbXrecord
280
     1
 90
        1
330
64
  0
DICTIONARY
  5
13A
102
{ACAD_REACTORS
330
C
102
}
330
C
100
AcDbDictionary
281
     1
  3
CANNOSCALE
350
140
  3
CMLEADERSTYLE
350
13C
  3
CTABLESTYLE
350
13B
  3
CVIEWDETAILSTYLE
350
13D
  3
CVIEWSECTIONSTYLE
350
13E
  3
LAYEREVAL
350
142
  3
LAYERNOTIFY
350
143
  3
LIGHTINGUNITS
350
141
  3
MSLTSCALE
350
13F
  0
DICTIONARY
  5
564
102
{ACAD_REACTORS
330
563
102
}
330
563
100
AcDbDictionary
281
     1
  0
XRECORD
  5
30D
102
{ACAD_REACTORS
330
30C
102
}
330
30C
100
AcDbXrecord
280
     1
290
     1
  0
SORTENTSTABLE
  5
181
102
{ACAD_REACTORS
330
180
102
}
330
180
100
AcDbSortentsTable
330
6F
331
16B
  5
16D
331
16C
  5
16E
331
16D
  5
170
331
16E
  5
171
331
16F
  5
172
331
170
  5
173
331
171
  5
174
331
172
  5
178
331
173
  5
17B
331
174
  5
17C
331
175
  5
17D
331
176
  5
17E
331
177
  5
17F
331
178
  5
182
331
179
  5
183
331
17A
  5
184
331
17B
  5
185
331
17C
  5
186
331
17D
  5
187
331
17E
  5
188
331
17F
  5
16C
331
182
  5
16B
331
183
  5
16F
331
184
  5
177
331
185
  5
176
331
186
  5
17A
331
187
  5
175
331
188
  5
179
  0
ACDBDETAILVIEWSTYLE
  5
6A
102
{ACAD_REACTORS
330
69
102
}
330
69
100
AcDbModelDocViewStyle
 70
     0
  3
Imperial24
290
     0
300
Imperial24
 90
        0
100
AcDbDetailViewStyle
 70
     0
 71
     0
 90
        3
 71
     1
340
55
 62
   256
 40
0.24
340
0
 62
   256
 40
0.24
300

 40
0.36
280
     3
 71
     2
340
5C
 90
       25
 62
   256
 71
     3
340
55
 62
   256
 40
0.24
 90
        1
 40
0.75
 90
        1
300
%<\AcVar ViewType \f "%tc1">% %<\AcVar ViewDetailId>%\PSCALE %<\AcVar ViewScale \f "%sn">%
 71
     4
340
5C
 90
       25
 62
   256
340
5C
 90
       25
 62
   256
280
     0
  0
LAYOUT
  5
6E
102
{ACAD_REACTORS
330
61
102
}
330
61
100
AcDbPlotSettings
  1

  2
EPSON1D6874 (WF-3620 Series)
  4

  6

 40
0.0
 41
0.0
 42
0.0
 43
0.0
 44
0.0
 45
0.0
 46
0.0
 47
0.0
 48
0.0
 49
0.0
140
0.0
141
0.0
142
1.0
143
1.0
 70
   688
 72
     0
 73
     0
 74
     5
  7

 75
    16
147
1.0
 76
     0
 77
     2
 78
   300
148
0.0
149
0.0
100
AcDbLayout
  1
Layout1
 70
     1
 71
     1
 10
0.0
 20
0.0
 11
12.0
 21
9.0
 12
0.0
 22
0.0
 32
0.0
 14
1.000000000000000E+20
 24
1.000000000000000E+20
 34
1.000000000000000E+20
 15
-1.000000000000000E+20
 25
-1.000000000000000E+20
 35
-1.000000000000000E+20
146
0.0
 13
0.0
 23
0.0
 33
0.0
 16
1.0
 26
0.0
 36
0.0
 17
0.0
 27
1.0
 37
0.0
 76
     0
330
6B
  0
LAYOUT
  5
72
102
{ACAD_REACTORS
330
61
102
}
330
61
100
AcDbPlotSettings
  1

  2
EPSON1D6874 (WF-3620 Series)
  4

  6

 40
0.0
 41
0.0
 42
0.0
 43
0.0
 44
0.0
 45
0.0
 46
0.0
 47
0.0
 48
0.0
 49
0.0
140
0.0
141
0.0
142
1.0
143
1.0
 70
  1712
 72
     0
 73
     0
 74
     0
  7

 75
     0
147
1.0
 76
     0
 77
     2
 78
   300
148
0.0
149
0.0
100
AcDbLayout
  1
Model
 70
     1
 71
     0
 10
0.0
 20
0.0
 11
12.0
 21
9.0
 12
0.0
 22
0.0
 32
0.0
 14
0.0
 24
0.0
 34
0.0
 15
0.0
 25
0.0
 35
0.0
146
0.0
 13
0.0
 23
0.0
 33
0.0
 16
1.0
 26
0.0
 36
0.0
 17
0.0
 27
1.0
 37
0.0
 76
     0
330
6F
331
74
  0
MATERIAL
  5
19
102
{ACAD_XDICTIONARY
360
1A
102
}
102
{ACAD_REACTORS
330
10
102
}
330
10
100
AcDbMaterial
  1
ByBlock
 72
     0
 43
0.0208333333333333
 43
0.0
 43
0.0
 43
0.0
 43
0.0
 43
0.0208333333333333
 43
0.0
 43
0.0
 43
0.0
 43
0.0
 43
1.0
 43
0.0
 43
0.0
 43
0.0
 43
0.0
 43
1.0
 77
     0
 47
0.0208333333333333
 47
0.0
 47
0.0
 47
0.0
 47
0.0
 47
0.0208333333333333
 47
0.0
 47
0.0
 47
0.0
 47
0.0
 47
1.0
 47
0.0
 47
0.0
 47
0.0
 47
0.0
 47
1.0
171
     0
 49
0.0208333333333333
 49
0.0
 49
0.0
 49
0.0
 49
0.0
 49
0.0208333333333333
 49
0.0
 49
0.0
 49
0.0
 49
0.0
 49
1.0
 49
0.0
 49
0.0
 49
0.0
 49
0.0
 49
1.0
175
     0
142
0.0208333333333333
142
0.0
142
0.0
142
0.0
142
0.0
142
0.0208333333333333
142
0.0
142
0.0
142
0.0
142
0.0
142
1.0
142
0.0
142
0.0
142
0.0
142
0.0
142
1.0
179
     0
144
0.0208333333333333
144
0.0
144
0.0
144
0.0
144
0.0
144
0.0208333333333333
144
0.0
144
0.0
144
0.0
144
0.0
144
1.0
144
0.0
144
0.0
144
0.0
144
0.0
144
1.0
147
0.0208333333333333
147
0.0
147
0.0
147
0.0
147
0.0
147
0.0208333333333333
147
0.0
147
0.0
147
0.0
147
0.0
147
1.0
147
0.0
147
0.0
147
0.0
147
0.0
147
1.0
  0
MATERIAL
  5
11
102
{ACAD_XDICTIONARY
360
12
102
}
102
{ACAD_REACTORS
330
10
102
}
330
10
100
AcDbMaterial
  1
ByLayer
 72
     0
 43
0.0208333333333333
 43
0.0
 43
0.0
 43
0.0
 43
0.0
 43
0.0208333333333333
 43
0.0
 43
0.0
 43
0.0
 43
0.0
 43
1.0
 43
0.0
 43
0.0
 43
0.0
 43
0.0
 43
1.0
 77
     0
 47
0.0208333333333333
 47
0.0
 47
0.0
 47
0.0
 47
0.0
 47
0.0208333333333333
 47
0.0
 47
0.0
 47
0.0
 47
0.0
 47
1.0
 47
0.0
 47
0.0
 47
0.0
 47
0.0
 47
1.0
171
     0
 49
0.0208333333333333
 49
0.0
 49
0.0
 49
0.0
 49
0.0
 49
0.0208333333333333
 49
0.0
 49
0.0
 49
0.0
 49
0.0
 49
1.0
 49
0.0
 49
0.0
 49
0.0
 49
0.0
 49
1.0
175
     0
142
0.0208333333333333
142
0.0
142
0.0
142
0.0
142
0.0
142
0.0208333333333333
142
0.0
142
0.0
142
0.0
142
0.0
142
1.0
142
0.0
142
0.0
142
0.0
142
0.0
142
1.0
179
     0
144
0.0208333333333333
144
0.0
144
0.0
144
0.0
144
0.0
144
0.0208333333333333
144
0.0
144
0.0
144
0.0
144
0.0
144
1.0
144
0.0
144
0.0
144
0.0
144
0.0
144
1.0
147
0.0208333333333333
147
0.0
147
0.0
147
0.0
147
0.0
147
0.0208333333333333
147
0.0
147
0.0
147
0.0
147
0.0
147
1.0
147
0.0
147
0.0
147
0.0
147
0.0
147
1.0
  0
MATERIAL
  5
21
102
{ACAD_XDICTIONARY
360
22
102
}
102
{ACAD_REACTORS
330
10
102
}
330
10
100
AcDbMaterial
  1
Global
 72
     0
 43
0.0208333333333333
 43
0.0
 43
0.0
 43
0.0
 43
0.0
 43
0.0208333333333333
 43
0.0
 43
0.0
 43
0.0
 43
0.0
 43
1.0
 43
0.0
 43
0.0
 43
0.0
 43
0.0
 43
1.0
 77
     0
 47
0.0208333333333333
 47
0.0
 47
0.0
 47
0.0
 47
0.0
 47
0.0208333333333333
 47
0.0
 47
0.0
 47
0.0
 47
0.0
 47
1.0
 47
0.0
 47
0.0
 47
0.0
 47
0.0
 47
1.0
171
     0
 49
0.0208333333333333
 49
0.0
 49
0.0
 49
0.0
 49
0.0
 49
0.0208333333333333
 49
0.0
 49
0.0
 49
0.0
 49
0.0
 49
1.0
 49
0.0
 49
0.0
 49
0.0
 49
0.0
 49
1.0
175
     0
142
0.0208333333333333
142
0.0
142
0.0
142
0.0
142
0.0
142
0.0208333333333333
142
0.0
142
0.0
142
0.0
142
0.0
142
1.0
142
0.0
142
0.0
142
0.0
142
0.0
142
1.0
179
     0
144
0.0208333333333333
144
0.0
144
0.0
144
0.0
144
0.0
144
0.0208333333333333
144
0.0
144
0.0
144
0.0
144
0.0
144
1.0
144
0.0
144
0.0
144
0.0
144
0.0
144
1.0
147
0.0208333333333333
147
0.0
147
0.0
147
0.0
147
0.0
147
0.0208333333333333
147
0.0
147
0.0
147
0.0
147
0.0
147
1.0
147
0.0
147
0.0
147
0.0
147
0.0
147
1.0
  0
MLEADERSTYLE
  5
66
102
{ACAD_REACTORS
330
65
102
}
330
65
100
AcDbMLeaderStyle
179
     2
170
     2
171
     1
172
     0
 90
        2
 40
0.0
 41
0.0
173
     1
 91
-1056964608
340
5A
 92
       -2
290
     1
 42
0.09
291
     1
 43
0.36
  3
Standard
 44
0.18
300

342
55
174
     1
178
     6
175
     1
176
     0
 93
-1056964608
 45
0.18
292
     0
297
     0
 46
0.18
 94
-1056964608
 47
1.0
 49
1.0
140
1.0
293
     1
141
0.0
294
     1
177
     0
142
1.0
295
     0
296
     0
143
0.125
271
     0
272
     9
273
     9
298
     0
  0
MLINESTYLE
  5
5F
102
{ACAD_REACTORS
330
5E
102
}
330
5E
100
AcDbMlineStyle
  2
STANDARD
 70
     0
  3

 62
   256
 51
90.0
 52
90.0
 71
     2
 49
0.5
 62
   256
  6
BYLAYER
 49
-0.5
 62
   256
  6
BYLAYER
  0
ACDBPLACEHOLDER
  5
F
102
{ACAD_REACTORS
330
E
102
}
330
E
  0
SCALE
  5
43
102
{ACAD_REACTORS
330
42
102
}
330
42
100
AcDbScale
 70
     0
300
1:1
140
1.0
141
1.0
290
     1
  0
SCALE
  5
44
102
{ACAD_REACTORS
330
42
102
}
330
42
100
AcDbScale
 70
     0
300
1/128" = 1'-0"
140
0.0078125
141
12.0
290
     0
  0
SCALE
  5
45
102
{ACAD_REACTORS
330
42
102
}
330
42
100
AcDbScale
 70
     0
300
1/64" = 1'-0"
140
0.015625
141
12.0
290
     0
  0
SCALE
  5
46
102
{ACAD_REACTORS
330
42
102
}
330
42
100
AcDbScale
 70
     0
300
1/32" = 1'-0"
140
0.03125
141
12.0
290
     0
  0
SCALE
  5
47
102
{ACAD_REACTORS
330
42
102
}
330
42
100
AcDbScale
 70
     0
300
1/16" = 1'-0"
140
0.0625
141
12.0
290
     0
  0
SCALE
  5
48
102
{ACAD_REACTORS
330
42
102
}
330
42
100
AcDbScale
 70
     0
300
3/32" = 1'-0"
140
0.09375
141
12.0
290
     0
  0
SCALE
  5
49
102
{ACAD_REACTORS
330
42
102
}
330
42
100
AcDbScale
 70
     0
300
1/8" = 1'-0"
140
0.125
141
12.0
290
     0
  0
SCALE
  5
4A
102
{ACAD_REACTORS
330
42
102
}
330
42
100
AcDbScale
 70
     0
300
3/16" = 1'-0"
140
0.1875
141
12.0
290
     0
  0
SCALE
  5
4B
102
{ACAD_REACTORS
330
42
102
}
330
42
100
AcDbScale
 70
     0
300
1/4" = 1'-0"
140
0.25
141
12.0
290
     0
  0
SCALE
  5
4C
102
{ACAD_REACTORS
330
42
102
}
330
42
100
AcDbScale
 70
     0
300
3/8" = 1'-0"
140
0.375
141
12.0
290
     0
  0
SCALE
  5
4D
102
{ACAD_REACTORS
330
42
102
}
330
42
100
AcDbScale
 70
     0
300
1/2" = 1'-0"
140
0.5
141
12.0
290
     0
  0
SCALE
  5
4E
102
{ACAD_REACTORS
330
42
102
}
330
42
100
AcDbScale
 70
     0
300
3/4" = 1'-0"
140
0.75
141
12.0
290
     0
  0
SCALE
  5
4F
102
{ACAD_REACTORS
330
42
102
}
330
42
100
AcDbScale
 70
     0
300
1" = 1'-0"
140
1.0
141
12.0
290
     0
  0
SCALE
  5
50
102
{ACAD_REACTORS
330
42
102
}
330
42
100
AcDbScale
 70
     0
300
1-1/2" = 1'-0"
140
1.5
141
12.0
290
     0
  0
SCALE
  5
51
102
{ACAD_REACTORS
330
42
102
}
330
42
100
AcDbScale
 70
     0
300
3" = 1'-0"
140
3.0
141
12.0
290
     0
  0
SCALE
  5
52
102
{ACAD_REACTORS
330
42
102
}
330
42
100
AcDbScale
 70
     0
300
6" = 1'-0"
140
6.0
141
12.0
290
     0
  0
SCALE
  5
53
102
{ACAD_REACTORS
330
42
102
}
330
42
100
AcDbScale
 70
     0
300
1'-0" = 1'-0"
140
12.0
141
12.0
290
     0
  0
ACDBSECTIONVIEWSTYLE
  5
68
102
{ACAD_REACTORS
330
67
102
}
330
67
100
AcDbModelDocViewStyle
 70
     0
  3
Imperial24
290
     0
300
Imperial24
 90
        0
100
AcDbSectionViewStyle
 70
     0
 71
     0
 90
       78
 71
     1
340
55
 62
   256
 40
0.24
340
0
340
0
 62
   256
 40
0.24
300
I, O, Q, S, X, Z
 40
0.48
 90
        3
 40
0.18
 90
        1
 71
     2
340
5C
 90
       25
 62
   256
340
5C
 90
       50
 62
   256
 40
0.24
 40
0.0
 40
0.24
 71
     3
340
55
 62
   256
 40
0.24
 90
        1
 40
0.75
 90
        1
300
%<\AcVar ViewType \f "%tc1">% %<\AcVar ViewSectionStartId>%-%<\AcVar ViewSectionEndId>%\PSCALE %<\AcVar ViewScale \f "%sn">%
 71
     4
 62
   256
 62
   257
300
ANSI31
 40
1.0
 90
        0
290
     0
290
     0
 90
        6
 40
0.0
 40
1.570796326794896
 40
0.2617993877991494
 40
1.308996938995747
 40
-0.2617993877991494
 40
1.832595714594044
  0
TABLESTYLE
  5
64
102
{ACAD_XDICTIONARY
360
30E
102
}
102
{ACAD_REACTORS
330
63
102
}
330
63
100
AcDbTableStyle
280
     0
  3
Standard
 70
     0
 71
     0
 40
0.06
 41
0.06
280
     0
281
     0
  7
Standard
140
0.18
170
     2
 62
     0
 63
     7
283
     0
 90
      512
 91
        0
  1

274
    -2
284
     1
 64
     0
275
    -2
285
     1
 65
     0
276
    -2
286
     1
 66
     0
277
    -2
287
     1
 67
     0
278
    -2
288
     1
 68
     0
279
    -2
289
     1
 69
     0
  7
Standard
140
0.25
170
     5
 62
     0
 63
     7
283
     0
 90
      512
 91
        0
  1

274
    -2
284
     1
 64
     0
275
    -2
285
     1
 65
     0
276
    -2
286
     1
 66
     0
277
    -2
287
     1
 67
     0
278
    -2
288
     1
 68
     0
279
    -2
289
     1
 69
     0
  7
Standard
140
0.18
170
     5
 62
     0
 63
     7
283
     0
 90
      512
 91
        0
  1

274
    -2
284
     1
 64
     0
275
    -2
285
     1
 65
     0
276
    -2
286
     1
 66
     0
277
    -2
287
     1
 67
     0
278
    -2
288
     1
 68
     0
279
    -2
289
     1
 69
     0
  0
VISUALSTYLE
  5
2F
102
{ACAD_REACTORS
330
29
102
}
330
29
100
AcDbVisualStyle
  2
2dWireframe
 70
     4
177
     3
291
     0
 70
    58
 90
        0
176
     1
 90
        2
176
     1
 90
        0
176
     1
 90
        0
176
     1
 40
0.6
176
     1
 40
30.0
176
     1
 62
     7
420
 16777215
176
     1
 90
        1
176
     1
 90
        4
176
     1
 62
     7
176
     1
 62
   257
176
     1
 90
        1
176
     1
 90
        1
176
     1
 40
1.0
176
     1
 90
        0
176
     1
 62
   257
176
     1
 40
1.0
176
     1
 90
        1
176
     1
 90
        6
176
     1
 90
        2
176
     1
 62
     7
176
     1
 90
        5
176
     1
 90
        0
176
     1
 90
        0
176
     1
290
     0
176
     1
 90
        1
176
     1
 40
0.0
176
     1
 90
        0
176
     1
290
     1
176
     1
290
     1
176
     1
290
     0
176
     1
290
     0
176
     1
290
     0
176
     1
290
     0
176
     1
290
     0
176
     1
290
     0
176
     1
290
     0
176
     1
 90
       50
176
     1
 40
0.0
176
     1
 40
1.0
176
     1
 90
        0
176
     1
 62
    18
176
     1
 90
       50
176
     1
 90
        3
176
     1
 62
     5
420
      255
176
     1
290
     0
176
     1
 90
       50
176
     1
 90
       50
176
     1
 90
       50
176
     1
290
     0
176
     1
 90
       50
176
     1
 62
   256
176
     0
 40
1.0
176
     0
 90
        2
176
     1
  1
strokes_ogs.tif
176
     1
290
     0
176
     1
 40
1.0
176
     1
 40
1.0
176
     1
  0
VISUALSTYLE
  5
2E
102
{ACAD_REACTORS
330
29
102
}
330
29
100
AcDbVisualStyle
  2
Basic
 70
     7
177
     3
291
     1
 70
    58
 90
        1
176
     1
 90
        0
176
     1
 90
        1
176
     1
 90
        0
176
     1
 40
0.6
176
     1
 40
30.0
176
     1
 62
     7
420
 16777215
176
     1
 90
        0
176
     1
 90
        4
176
     1
 62
     7
176
     1
 62
   257
176
     1
 90
        1
176
     1
 90
        1
176
     1
 40
1.0
176
     1
 90
        8
176
     1
 62
     7
176
     1
 40
1.0
176
     1
 90
        1
176
     1
 90
        6
176
     1
 90
        2
176
     1
 62
     7
176
     1
 90
        5
176
     1
 90
        0
176
     1
 90
        0
176
     1
290
     0
176
     1
 90
        1
176
     1
 40
0.0
176
     1
 90
        0
176
     1
290
     0
176
     1
290
     1
176
     1
290
     1
176
     1
290
     0
176
     1
290
     0
176
     1
290
     0
176
     1
290
     0
176
     1
290
     0
176
     1
290
     0
176
     1
 90
       50
176
     1
 40
0.0
176
     1
 40
1.0
176
     1
 90
        0
176
     1
 62
    18
176
     1
 90
       50
176
     1
 90
        3
176
     1
 62
     5
420
      255
176
     1
290
     0
176
     1
 90
       50
176
     1
 90
       50
176
     1
 90
       50
176
     1
290
     0
176
     1
 90
       50
176
     1
 62
   256
176
     0
 40
1.0
176
     0
 90
        2
176
     1
  1
strokes_ogs.tif
176
     1
290
     0
176
     1
 40
1.0
176
     1
 40
1.0
176
     1
  0
VISUALSTYLE
  5
35
102
{ACAD_REACTORS
330
29
102
}
330
29
100
AcDbVisualStyle
  2
Brighten
 70
    12
177
     3
291
     1
 70
    58
 90
        2
176
     1
 90
        2
176
     1
 90
        0
176
     1
 90
        0
176
     1
 40
0.6
176
     1
 40
30.0
176
     1
 62
     7
420
 16777215
176
     1
 90
        1
176
     1
 90
        4
176
     1
 62
     7
176
     1
 62
   257
176
     1
 90
        1
176
     1
 90
        1
176
     1
 40
1.0
176
     1
 90
        8
176
     1
 62
     7
176
     1
 40
1.0
176
     1
 90
        1
176
     1
 90
        6
176
     1
 90
        2
176
     1
 62
     7
176
     1
 90
        5
176
     1
 90
        0
176
     1
 90
        0
176
     1
290
     0
176
     1
 90
        1
176
     1
 40
50.0
176
     1
 90
        0
176
     1
290
     0
176
     1
290
     1
176
     1
290
     1
176
     1
290
     0
176
     1
290
     0
176
     1
290
     0
176
     1
290
     0
176
     1
290
     0
176
     1
290
     0
176
     1
 90
       50
176
     1
 40
0.0
176
     1
 40
1.0
176
     1
 90
        0
176
     1
 62
    18
176
     1
 90
       50
176
     1
 90
        3
176
     1
 62
     5
420
      255
176
     1
290
     0
176
     1
 90
       50
176
     1
 90
       50
176
     1
 90
       50
176
     1
290
     0
176
     1
 90
       50
176
     1
 62
   256
176
     0
 40
1.0
176
     0
 90
        2
176
     1
  1
strokes_ogs.tif
176
     1
290
     0
176
     1
 40
1.0
176
     1
 40
1.0
176
     1
  0
VISUALSTYLE
  5
39
102
{ACAD_REACTORS
330
29
102
}
330
29
100
AcDbVisualStyle
  2
ColorChange
 70
    16
177
     3
291
     1
 70
    58
 90
        2
176
     1
 90
        2
176
     1
 90
        3
176
     1
 90
        0
176
     1
 40
0.6
176
     1
 40
30.0
176
     1
 62
     8
420
  8421504
176
     1
 90
        1
176
     1
 90
        4
176
     1
 62
     7
176
     1
 62
   257
176
     1
 90
        1
176
     1
 90
        1
176
     1
 40
1.0
176
     1
 90
        8
176
     1
 62
     8
420
  8421504
176
     1
 40
1.0
176
     1
 90
        1
176
     1
 90
        6
176
     1
 90
        2
176
     1
 62
     7
176
     1
 90
        5
176
     1
 90
        0
176
     1
 90
        0
176
     1
290
     0
176
     1
 90
        1
176
     1
 40
0.0
176
     1
 90
        0
176
     1
290
     0
176
     1
290
     1
176
     1
290
     1
176
     1
290
     0
176
     1
290
     0
176
     1
290
     0
176
     1
290
     0
176
     1
290
     0
176
     1
290
     0
176
     1
 90
       50
176
     1
 40
0.0
176
     1
 40
1.0
176
     1
 90
        0
176
     1
 62
    18
176
     1
 90
       50
176
     1
 90
        3
176
     1
 62
     5
420
      255
176
     1
290
     0
176
     1
 90
       50
176
     1
 90
       50
176
     1
 90
       50
176
     1
290
     0
176
     1
 90
       50
176
     1
 62
   256
176
     0
 40
1.0
176
     0
 90
        2
176
     1
  1
strokes_ogs.tif
176
     1
290
     0
176
     1
 40
1.0
176
     1
 40
1.0
176
     1
  0
VISUALSTYLE
  5
32
102
{ACAD_REACTORS
330
29
102
}
330
29
100
AcDbVisualStyle
  2
Conceptual
 70
     9
177
     3
291
     0
 70
    58
 90
        3
176
     1
 90
        2
176
     1
 90
        0
176
     1
 90
        0
176
     1
 40
0.6
176
     1
 40
30.0
176
     1
 62
     7
420
 16777215
176
     1
 90
        2
176
     1
 90
        2
176
     1
 62
     7
176
     1
 62
   257
176
     1
 90
        1
176
     1
 90
        1
176
     1
 40
179.0
176
     1
 90
        8
176
     1
 62
     7
176
     1
 40
1.0
176
     1
 90
        1
176
     1
 90
        6
176
     1
 90
        2
176
     1
 62
     7
176
     1
 90
        3
176
     1
 90
        0
176
     1
 90
        0
176
     1
290
     0
176
     1
 90
        1
176
     1
 40
0.0
176
     1
 90
        0
176
     1
290
     0
176
     1
290
     1
176
     1
290
     1
176
     1
290
     0
176
     1
290
     0
176
     1
290
     0
176
     1
290
     0
176
     1
290
     0
176
     1
290
     0
176
     1
 90
       50
176
     1
 40
0.0
176
     1
 40
1.0
176
     1
 90
        0
176
     1
 62
    18
176
     1
 90
       50
176
     1
 90
        3
176
     1
 62
     5
420
      255
176
     1
290
     0
176
     1
 90
       50
176
     1
 90
       50
176
     1
 90
       50
176
     1
290
     0
176
     1
 90
       50
176
     1
 62
   256
176
     0
 40
1.0
176
     0
 90
        2
176
     1
  1
strokes_ogs.tif
176
     1
290
     0
176
     1
 40
1.0
176
     1
 40
1.0
176
     1
  0
VISUALSTYLE
  5
34
102
{ACAD_REACTORS
330
29
102
}
330
29
100
AcDbVisualStyle
  2
Dim
 70
    11
177
     3
291
     1
 70
    58
 90
        2
176
     1
 90
        2
176
     1
 90
        0
176
     1
 90
        0
176
     1
 40
0.6
176
     1
 40
30.0
176
     1
 62
     7
420
 16777215
176
     1
 90
        1
176
     1
 90
        4
176
     1
 62
     7
176
     1
 62
   257
176
     1
 90
        1
176
     1
 90
        1
176
     1
 40
1.0
176
     1
 90
        8
176
     1
 62
     7
176
     1
 40
1.0
176
     1
 90
        1
176
     1
 90
        6
176
     1
 90
        2
176
     1
 62
     7
176
     1
 90
        5
176
     1
 90
        0
176
     1
 90
        0
176
     1
290
     0
176
     1
 90
        1
176
     1
 40
-50.0
176
     1
 90
        0
176
     1
290
     0
176
     1
290
     1
176
     1
290
     1
176
     1
290
     0
176
     1
290
     0
176
     1
290
     0
176
     1
290
     0
176
     1
290
     0
176
     1
290
     0
176
     1
 90
       50
176
     1
 40
0.0
176
     1
 40
1.0
176
     1
 90
        0
176
     1
 62
    18
176
     1
 90
       50
176
     1
 90
        3
176
     1
 62
     5
420
      255
176
     1
290
     0
176
     1
 90
       50
176
     1
 90
       50
176
     1
 90
       50
176
     1
290
     0
176
     1
 90
       50
176
     1
 62
   256
176
     0
 40
1.0
176
     0
 90
        2
176
     1
  1
strokes_ogs.tif
176
     1
290
     0
176
     1
 40
1.0
176
     1
 40
1.0
176
     1
  0
VISUALSTYLE
  5
41
102
{ACAD_REACTORS
330
29
102
}
330
29
100
AcDbVisualStyle
  2
EdgeColorOff
 70
    22
177
     3
291
     1
 70
    58
 90
        2
176
     0
 90
        2
176
     0
 90
        0
176
     0
 90
        0
176
     0
 40
0.6
176
     0
 40
30.0
176
     0
 62
     7
420
 16777215
176
     0
 90
        1
176
     0
 90
        4
176
     0
 62
     7
176
     0
 62
   257
176
     0
 90
        1
176
     0
 90
        1
176
     0
 40
1.0
176
     0
 90
        8
176
     2
 62
     7
176
     0
 40
1.0
176
     0
 90
        1
176
     0
 90
        6
176
     0
 90
        2
176
     0
 62
     7
176
     0
 90
        5
176
     0
 90
        0
176
     0
 90
        0
176
     0
290
     0
176
     0
 90
        1
176
     0
 40
0.0
176
     0
 90
        0
176
     0
290
     0
176
     1
290
     1
176
     1
290
     1
176
     1
290
     0
176
     1
290
     0
176
     1
290
     0
176
     1
290
     0
176
     1
290
     0
176
     1
290
     0
176
     1
 90
       50
176
     0
 40
0.0
176
     0
 40
1.0
176
     0
 90
        0
176
     0
 62
    18
176
     0
 90
       50
176
     0
 90
        3
176
     0
 62
     5
420
      255
176
     0
290
     0
176
     1
 90
       50
176
     0
 90
       50
176
     0
 90
       50
176
     0
290
     0
176
     1
 90
       50
176
     0
 62
   256
176
     0
 40
1.0
176
     0
 90
        2
176
     0
  1
strokes_ogs.tif
176
     0
290
     0
176
     1
 40
1.0
176
     0
 40
1.0
176
     0
  0
VISUALSTYLE
  5
38
102
{ACAD_REACTORS
330
29
102
}
330
29
100
AcDbVisualStyle
  2
Facepattern
 70
    15
177
     3
291
     1
 70
    58
 90
        2
176
     1
 90
        2
176
     1
 90
        0
176
     1
 90
        0
176
     1
 40
0.6
176
     1
 40
30.0
176
     1
 62
     7
420
 16777215
176
     1
 90
        1
176
     1
 90
        4
176
     1
 62
     7
176
     1
 62
   257
176
     1
 90
        1
176
     1
 90
        1
176
     1
 40
1.0
176
     1
 90
        8
176
     1
 62
     7
176
     1
 40
1.0
176
     1
 90
        1
176
     1
 90
        6
176
     1
 90
        2
176
     1
 62
     7
176
     1
 90
        5
176
     1
 90
        0
176
     1
 90
        0
176
     1
290
     0
176
     1
 90
        1
176
     1
 40
0.0
176
     1
 90
        0
176
     1
290
     0
176
     1
290
     1
176
     1
290
     1
176
     1
290
     0
176
     1
290
     0
176
     1
290
     0
176
     1
290
     0
176
     1
290
     0
176
     1
290
     0
176
     1
 90
       50
176
     1
 40
0.0
176
     1
 40
1.0
176
     1
 90
        0
176
     1
 62
    18
176
     1
 90
       50
176
     1
 90
        3
176
     1
 62
     5
420
      255
176
     1
290
     0
176
     1
 90
       50
176
     1
 90
       50
176
     1
 90
       50
176
     1
290
     0
176
     1
 90
       50
176
     1
 62
   256
176
     0
 40
1.0
176
     0
 90
        2
176
     1
  1
strokes_ogs.tif
176
     1
290
     0
176
     1
 40
1.0
176
     1
 40
1.0
176
     1
  0
VISUALSTYLE
  5
2A
102
{ACAD_REACTORS
330
29
102
}
330
29
100
AcDbVisualStyle
  2
Flat
 70
     0
177
     3
291
     1
 70
    58
 90
        2
176
     1
 90
        1
176
     1
 90
        1
176
     1
 90
        2
176
     1
 40
0.6
176
     1
 40
30.0
176
     1
 62
     7
420
 16777215
176
     1
 90
        0
176
     1
 90
        0
176
     1
 62
     7
176
     1
 62
   257
176
     1
 90
        1
176
     1
 90
        1
176
     1
 40
1.0
176
     1
 90
        8
176
     1
 62
     7
176
     1
 40
1.0
176
     1
 90
        1
176
     1
 90
        6
176
     1
 90
        2
176
     1
 62
     7
176
     1
 90
        5
176
     1
 90
        0
176
     1
 90
        0
176
     1
290
     0
176
     1
 90
       13
176
     1
 40
0.0
176
     1
 90
        0
176
     1
290
     0
176
     1
290
     1
176
     1
290
     1
176
     1
290
     0
176
     1
290
     0
176
     1
290
     0
176
     1
290
     0
176
     1
290
     0
176
     1
290
     0
176
     1
 90
       50
176
     1
 40
0.0
176
     1
 40
1.0
176
     1
 90
        0
176
     1
 62
    18
176
     1
 90
       50
176
     1
 90
        3
176
     1
 62
     5
420
      255
176
     1
290
     0
176
     1
 90
       50
176
     1
 90
       50
176
     1
 90
       50
176
     1
290
     0
176
     1
 90
       50
176
     1
 62
   256
176
     0
 40
1.0
176
     0
 90
        2
176
     1
  1
strokes_ogs.tif
176
     1
290
     0
176
     1
 40
1.0
176
     1
 40
1.0
176
     1
  0
VISUALSTYLE
  5
2B
102
{ACAD_REACTORS
330
29
102
}
330
29
100
AcDbVisualStyle
  2
FlatWithEdges
 70
     1
177
     3
291
     1
 70
    58
 90
        2
176
     1
 90
        1
176
     1
 90
        1
176
     1
 90
        2
176
     1
 40
0.6
176
     1
 40
30.0
176
     1
 62
     7
420
 16777215
176
     1
 90
        1
176
     1
 90
        0
176
     1
 62
     7
176
     1
 62
   257
176
     1
 90
        1
176
     1
 90
        1
176
     1
 40
1.0
176
     1
 90
        0
176
     1
 62
   257
176
     1
 40
1.0
176
     1
 90
        1
176
     1
 90
        6
176
     1
 90
        2
176
     1
 62
     7
176
     1
 90
        5
176
     1
 90
        0
176
     1
 90
        0
176
     1
290
     0
176
     1
 90
       13
176
     1
 40
0.0
176
     1
 90
        0
176
     1
290
     0
176
     1
290
     1
176
     1
290
     1
176
     1
290
     0
176
     1
290
     0
176
     1
290
     0
176
     1
290
     0
176
     1
290
     0
176
     1
290
     0
176
     1
 90
       50
176
     1
 40
0.0
176
     1
 40
1.0
176
     1
 90
        0
176
     1
 62
    18
176
     1
 90
       50
176
     1
 90
        3
176
     1
 62
     5
420
      255
176
     1
290
     0
176
     1
 90
       50
176
     1
 90
       50
176
     1
 90
       50
176
     1
290
     0
176
     1
 90
       50
176
     1
 62
   256
176
     0
 40
1.0
176
     0
 90
        2
176
     1
  1
strokes_ogs.tif
176
     1
290
     0
176
     1
 40
1.0
176
     1
 40
1.0
176
     1
  0
VISUALSTYLE
  5
2C
102
{ACAD_REACTORS
330
29
102
}
330
29
100
AcDbVisualStyle
  2
Gouraud
 70
     2
177
     3
291
     1
 70
    58
 90
        2
176
     1
 90
        2
176
     1
 90
        1
176
     1
 90
        2
176
     1
 40
0.6
176
     1
 40
30.0
176
     1
 62
     7
420
 16777215
176
     1
 90
        0
176
     1
 90
        0
176
     1
 62
     7
176
     1
 62
   257
176
     1
 90
        1
176
     1
 90
        1
176
     1
 40
1.0
176
     1
 90
        0
176
     1
 62
     7
176
     1
 40
1.0
176
     1
 90
        1
176
     1
 90
        6
176
     1
 90
        2
176
     1
 62
     7
176
     1
 90
        5
176
     1
 90
        0
176
     1
 90
        0
176
     1
290
     0
176
     1
 90
       13
176
     1
 40
0.0
176
     1
 90
        0
176
     1
290
     0
176
     1
290
     1
176
     1
290
     1
176
     1
290
     0
176
     1
290
     0
176
     1
290
     0
176
     1
290
     0
176
     1
290
     0
176
     1
290
     0
176
     1
 90
       50
176
     1
 40
0.0
176
     1
 40
1.0
176
     1
 90
        0
176
     1
 62
    18
176
     1
 90
       50
176
     1
 90
        3
176
     1
 62
     5
420
      255
176
     1
290
     0
176
     1
 90
       50
176
     1
 90
       50
176
     1
 90
       50
176
     1
290
     0
176
     1
 90
       50
176
     1
 62
   256
176
     0
 40
1.0
176
     0
 90
        2
176
     1
  1
strokes_ogs.tif
176
     1
290
     0
176
     1
 40
1.0
176
     1
 40
1.0
176
     1
  0
VISUALSTYLE
  5
2D
102
{ACAD_REACTORS
330
29
102
}
330
29
100
AcDbVisualStyle
  2
GouraudWithEdges
 70
     3
177
     3
291
     1
 70
    58
 90
        2
176
     1
 90
        2
176
     1
 90
        1
176
     1
 90
        2
176
     1
 40
0.6
176
     1
 40
30.0
176
     1
 62
     7
420
 16777215
176
     1
 90
        1
176
     1
 90
        0
176
     1
 62
     7
176
     1
 62
   257
176
     1
 90
        1
176
     1
 90
        1
176
     1
 40
1.0
176
     1
 90
        0
176
     1
 62
   257
176
     1
 40
1.0
176
     1
 90
        1
176
     1
 90
        6
176
     1
 90
        2
176
     1
 62
     7
176
     1
 90
        5
176
     1
 90
        0
176
     1
 90
        0
176
     1
290
     0
176
     1
 90
       13
176
     1
 40
0.0
176
     1
 90
        0
176
     1
290
     0
176
     1
290
     1
176
     1
290
     1
176
     1
290
     0
176
     1
290
     0
176
     1
290
     0
176
     1
290
     0
176
     1
290
     0
176
     1
290
     0
176
     1
 90
       50
176
     1
 40
0.0
176
     1
 40
1.0
176
     1
 90
        0
176
     1
 62
    18
176
     1
 90
       50
176
     1
 90
        3
176
     1
 62
     5
420
      255
176
     1
290
     0
176
     1
 90
       50
176
     1
 90
       50
176
     1
 90
       50
176
     1
290
     0
176
     1
 90
       50
176
     1
 62
   256
176
     0
 40
1.0
176
     0
 90
        2
176
     1
  1
strokes_ogs.tif
176
     1
290
     0
176
     1
 40
1.0
176
     1
 40
1.0
176
     1
  0
VISUALSTYLE
  5
31
102
{ACAD_REACTORS
330
29
102
}
330
29
100
AcDbVisualStyle
  2
Hidden
 70
     6
177
     3
291
     0
 70
    58
 90
        1
176
     1
 90
        2
176
     1
 90
        2
176
     1
 90
        0
176
     1
 40
0.6
176
     1
 40
30.0
176
     1
 62
     7
420
 16777215
176
     1
 90
        2
176
     1
 90
        2
176
     1
 62
     7
176
     1
 62
   257
176
     1
 90
        2
176
     1
 90
        1
176
     1
 40
40.0
176
     1
 90
        0
176
     1
 62
   257
176
     1
 40
1.0
176
     1
 90
        1
176
     1
 90
        6
176
     1
 90
        2
176
     1
 62
     7
176
     1
 90
        3
176
     1
 90
        0
176
     1
 90
        0
176
     1
290
     0
176
     1
 90
        1
176
     1
 40
0.0
176
     1
 90
        0
176
     1
290
     0
176
     1
290
     1
176
     1
290
     1
176
     1
290
     0
176
     1
290
     0
176
     1
290
     0
176
     1
290
     0
176
     1
290
     0
176
     1
290
     0
176
     1
 90
       50
176
     1
 40
0.0
176
     1
 40
1.0
176
     1
 90
        0
176
     1
 62
    18
176
     1
 90
       50
176
     1
 90
        3
176
     1
 62
     5
420
      255
176
     1
290
     0
176
     1
 90
       50
176
     1
 90
       50
176
     1
 90
       50
176
     1
290
     0
176
     1
 90
       50
176
     1
 62
   256
176
     0
 40
1.0
176
     0
 90
        2
176
     1
  1
strokes_ogs.tif
176
     1
290
     0
176
     1
 40
1.0
176
     1
 40
1.0
176
     1
  0
VISUALSTYLE
  5
3F
102
{ACAD_REACTORS
330
29
102
}
330
29
100
AcDbVisualStyle
  2
JitterOff
 70
    20
177
     3
291
     1
 70
    58
 90
        2
176
     0
 90
        2
176
     0
 90
        0
176
     0
 90
        0
176
     0
 40
0.6
176
     0
 40
30.0
176
     0
 62
     7
420
 16777215
176
     0
 90
        1
176
     0
 90
        4
176
     0
 62
     7
176
     0
 62
   257
176
     0
 90
        1
176
     0
 90
        1
176
     0
 40
1.0
176
     0
 90
       10
176
     2
 62
     7
176
     0
 40
1.0
176
     0
 90
        1
176
     0
 90
        6
176
     0
 90
        2
176
     0
 62
     7
176
     0
 90
        5
176
     0
 90
        0
176
     0
 90
        0
176
     0
290
     0
176
     0
 90
        1
176
     0
 40
0.0
176
     0
 90
        0
176
     0
290
     0
176
     1
290
     1
176
     1
290
     1
176
     1
290
     0
176
     1
290
     0
176
     1
290
     0
176
     1
290
     0
176
     1
290
     0
176
     1
290
     0
176
     1
 90
       50
176
     0
 40
0.0
176
     0
 40
1.0
176
     0
 90
        0
176
     0
 62
    18
176
     0
 90
       50
176
     0
 90
        3
176
     0
 62
     5
420
      255
176
     0
290
     0
176
     1
 90
       50
176
     0
 90
       50
176
     0
 90
       50
176
     0
290
     0
176
     1
 90
       50
176
     0
 62
   256
176
     0
 40
1.0
176
     0
 90
        2
176
     0
  1
strokes_ogs.tif
176
     0
290
     0
176
     1
 40
1.0
176
     0
 40
1.0
176
     0
  0
VISUALSTYLE
  5
37
102
{ACAD_REACTORS
330
29
102
}
330
29
100
AcDbVisualStyle
  2
Linepattern
 70
    14
177
     3
291
     1
 70
    58
 90
        2
176
     1
 90
        2
176
     1
 90
        0
176
     1
 90
        0
176
     1
 40
0.6
176
     1
 40
30.0
176
     1
 62
     7
420
 16777215
176
     1
 90
        1
176
     1
 90
        4
176
     1
 62
     7
176
     1
 62
   257
176
     1
 90
        7
176
     1
 90
        7
176
     1
 40
1.0
176
     1
 90
        8
176
     1
 62
     7
176
     1
 40
1.0
176
     1
 90
        1
176
     1
 90
        6
176
     1
 90
        2
176
     1
 62
     7
176
     1
 90
        5
176
     1
 90
        0
176
     1
 90
        0
176
     1
290
     0
176
     1
 90
        1
176
     1
 40
0.0
176
     1
 90
        0
176
     1
290
     0
176
     1
290
     1
176
     1
290
     1
176
     1
290
     0
176
     1
290
     0
176
     1
290
     0
176
     1
290
     0
176
     1
290
     0
176
     1
290
     0
176
     1
 90
       50
176
     1
 40
0.0
176
     1
 40
1.0
176
     1
 90
        0
176
     1
 62
    18
176
     1
 90
       50
176
     1
 90
        3
176
     1
 62
     5
420
      255
176
     1
290
     0
176
     1
 90
       50
176
     1
 90
       50
176
     1
 90
       50
176
     1
290
     0
176
     1
 90
       50
176
     1
 62
   256
176
     0
 40
1.0
176
     0
 90
        2
176
     1
  1
strokes_ogs.tif
176
     1
290
     0
176
     1
 40
1.0
176
     1
 40
1.0
176
     1
  0
VISUALSTYLE
  5
40
102
{ACAD_REACTORS
330
29
102
}
330
29
100
AcDbVisualStyle
  2
OverhangOff
 70
    21
177
     3
291
     1
 70
    58
 90
        2
176
     0
 90
        2
176
     0
 90
        0
176
     0
 90
        0
176
     0
 40
0.6
176
     0
 40
30.0
176
     0
 62
     7
420
 16777215
176
     0
 90
        1
176
     0
 90
        4
176
     0
 62
     7
176
     0
 62
   257
176
     0
 90
        1
176
     0
 90
        1
176
     0
 40
1.0
176
     0
 90
        9
176
     2
 62
     7
176
     0
 40
1.0
176
     0
 90
        1
176
     0
 90
        6
176
     0
 90
        2
176
     0
 62
     7
176
     0
 90
        5
176
     0
 90
        0
176
     0
 90
        0
176
     0
290
     0
176
     0
 90
        1
176
     0
 40
0.0
176
     0
 90
        0
176
     0
290
     0
176
     1
290
     1
176
     1
290
     1
176
     1
290
     0
176
     1
290
     0
176
     1
290
     0
176
     1
290
     0
176
     1
290
     0
176
     1
290
     0
176
     1
 90
       50
176
     0
 40
0.0
176
     0
 40
1.0
176
     0
 90
        0
176
     0
 62
    18
176
     0
 90
       50
176
     0
 90
        3
176
     0
 62
     5
420
      255
176
     0
290
     0
176
     1
 90
       50
176
     0
 90
       50
176
     0
 90
       50
176
     0
290
     0
176
     1
 90
       50
176
     0
 62
   256
176
     0
 40
1.0
176
     0
 90
        2
176
     0
  1
strokes_ogs.tif
176
     0
290
     0
176
     1
 40
1.0
176
     0
 40
1.0
176
     0
  0
VISUALSTYLE
  5
33
102
{ACAD_REACTORS
330
29
102
}
330
29
100
AcDbVisualStyle
  2
Realistic
 70
     8
177
     3
291
     0
 70
    58
 90
        2
176
     1
 90
        3
176
     1
 90
        0
176
     1
 90
        2
176
     1
 40
0.6
176
     1
 40
30.0
176
     1
 62
     7
420
 16777215
176
     1
 90
        0
176
     1
 90
        0
176
     1
 62
     7
176
     1
 62
   257
176
     1
 90
        1
176
     1
 90
        1
176
     1
 40
1.0
176
     1
 90
        8
176
     1
 62
   257
176
     1
 40
1.0
176
     1
 90
        1
176
     1
 90
        6
176
     1
 90
        2
176
     1
 62
     7
176
     1
 90
        3
176
     1
 90
        0
176
     1
 90
        0
176
     1
290
     0
176
     1
 90
       13
176
     1
 40
0.0
176
     1
 90
        0
176
     1
290
     0
176
     1
290
     1
176
     1
290
     1
176
     1
290
     0
176
     1
290
     0
176
     1
290
     0
176
     1
290
     0
176
     1
290
     0
176
     1
290
     0
176
     1
 90
       50
176
     1
 40
0.0
176
     1
 40
1.0
176
     1
 90
        0
176
     1
 62
    18
176
     1
 90
       50
176
     1
 90
        3
176
     1
 62
     5
420
      255
176
     1
290
     0
176
     1
 90
       50
176
     1
 90
       50
176
     1
 90
       50
176
     1
290
     0
176
     1
 90
       50
176
     1
 62
   256
176
     0
 40
1.0
176
     0
 90
        2
176
     1
  1
strokes_ogs.tif
176
     1
290
     0
176
     1
 40
1.0
176
     1
 40
1.0
176
     1
  0
VISUALSTYLE
  5
3E
102
{ACAD_REACTORS
330
29
102
}
330
29
100
AcDbVisualStyle
  2
Shaded
 70
    27
177
     3
291
     0
 70
    58
 90
        2
176
     1
 90
        2
176
     1
 90
        1
176
     1
 90
        2
176
     1
 40
0.6
176
     1
 40
30.0
176
     1
 62
     7
420
 16777215
176
     1
 90
        0
176
     1
 90
        4
176
     1
 62
     7
176
     1
 62
   257
176
     1
 90
        1
176
     1
 90
        1
176
     1
 40
1.0
176
     1
 90
        8
176
     1
 62
   257
176
     1
 40
1.0
176
     1
 90
        1
176
     1
 90
        6
176
     1
 90
        2
176
     1
 62
     8
420
  7895160
176
     1
 90
        3
176
     1
 90
        0
176
     1
 90
        0
176
     1
290
     0
176
     1
 90
        5
176
     1
 40
0.0
176
     1
 90
        0
176
     1
290
     0
176
     1
290
     1
176
     1
290
     1
176
     1
290
     0
176
     1
290
     0
176
     1
290
     0
176
     1
290
     0
176
     1
290
     0
176
     1
290
     0
176
     1
 90
       50
176
     1
 40
0.0
176
     1
 40
1.0
176
     1
 90
        0
176
     1
 62
    18
176
     1
 90
       50
176
     1
 90
        3
176
     1
 62
     5
420
      255
176
     1
290
     0
176
     1
 90
       50
176
     1
 90
       50
176
     1
 90
       50
176
     1
290
     0
176
     1
 90
       50
176
     1
 62
   256
176
     0
 40
1.0
176
     0
 90
        2
176
     1
  1
strokes_ogs.tif
176
     1
290
     0
176
     1
 40
1.0
176
     1
 40
1.0
176
     1
  0
VISUALSTYLE
  5
3D
102
{ACAD_REACTORS
330
29
102
}
330
29
100
AcDbVisualStyle
  2
Shaded with edges
 70
    26
177
     3
291
     0
 70
    58
 90
        2
176
     1
 90
        2
176
     1
 90
        1
176
     1
 90
        2
176
     1
 40
0.6
176
     1
 40
30.0
176
     1
 62
     7
420
 16777215
176
     1
 90
        1
176
     1
 90
        2
176
     1
 62
     7
176
     1
 62
   257
176
     1
 90
        2
176
     1
 90
        1
176
     1
 40
1.0
176
     1
 90
        8
176
     1
 62
   257
176
     1
 40
1.0
176
     1
 90
        1
176
     1
 90
        6
176
     1
 90
        2
176
     1
 62
     7
176
     1
 90
        3
176
     1
 90
        0
176
     1
 90
        0
176
     1
290
     0
176
     1
 90
        5
176
     1
 40
0.0
176
     1
 90
        0
176
     1
290
     0
176
     1
290
     1
176
     1
290
     1
176
     1
290
     0
176
     1
290
     0
176
     1
290
     0
176
     1
290
     0
176
     1
290
     0
176
     1
290
     0
176
     1
 90
       50
176
     1
 40
0.0
176
     1
 40
1.0
176
     1
 90
        0
176
     1
 62
    18
176
     1
 90
       50
176
     1
 90
        3
176
     1
 62
     5
420
      255
176
     1
290
     0
176
     1
 90
       50
176
     1
 90
       50
176
     1
 90
       50
176
     1
290
     0
176
     1
 90
       50
176
     1
 62
   256
176
     0
 40
1.0
176
     0
 90
        2
176
     1
  1
strokes_ogs.tif
176
     1
290
     0
176
     1
 40
1.0
176
     1
 40
1.0
176
     1
  0
VISUALSTYLE
  5
3A
102
{ACAD_REACTORS
330
29
102
}
330
29
100
AcDbVisualStyle
  2
Shades of Gray
 70
    23
177
     3
291
     0
 70
    58
 90
        2
176
     1
 90
        2
176
     1
 90
        3
176
     1
 90
        0
176
     1
 40
0.6
176
     1
 40
30.0
176
     1
 62
     7
420
 16777215
176
     1
 90
        2
176
     1
 90
        2
176
     1
 62
     7
176
     1
 62
     7
176
     1
 90
        1
176
     1
 90
        1
176
     1
 40
40.0
176
     1
 90
        8
176
     1
 62
     7
176
     1
 40
1.0
176
     1
 90
        1
176
     1
 90
        6
176
     1
 90
        2
176
     1
 62
     7
176
     1
 90
        3
176
     1
 90
        0
176
     1
 90
        0
176
     1
290
     0
176
     1
 90
        1
176
     1
 40
0.0
176
     1
 90
        0
176
     1
290
     0
176
     1
290
     1
176
     1
290
     1
176
     1
290
     0
176
     1
290
     0
176
     1
290
     0
176
     1
290
     0
176
     1
290
     0
176
     1
290
     0
176
     1
 90
       50
176
     1
 40
0.0
176
     1
 40
1.0
176
     1
 90
        0
176
     1
 62
    18
176
     1
 90
       50
176
     1
 90
        3
176
     1
 62
     5
420
      255
176
     1
290
     0
176
     1
 90
       50
176
     1
 90
       50
176
     1
 90
       50
176
     1
290
     0
176
     1
 90
       50
176
     1
 62
   256
176
     0
 40
1.0
176
     0
 90
        2
176
     1
  1
strokes_ogs.tif
176
     1
290
     0
176
     1
 40
1.0
176
     1
 40
1.0
176
     1
  0
VISUALSTYLE
  5
3B
102
{ACAD_REACTORS
330
29
102
}
330
29
100
AcDbVisualStyle
  2
Sketchy
 70
    24
177
     3
291
     0
 70
    58
 90
        1
176
     1
 90
        2
176
     1
 90
        2
176
     1
 90
        0
176
     1
 40
0.6
176
     1
 40
30.0
176
     1
 62
     7
420
 16777215
176
     1
 90
        2
176
     1
 90
        2
176
     1
 62
     7
176
     1
 62
     7
176
     1
 90
        1
176
     1
 90
        1
176
     1
 40
40.0
176
     1
 90
       11
176
     1
 62
     7
176
     1
 40
1.0
176
     1
 90
        1
176
     1
 90
        6
176
     1
 90
        2
176
     1
 62
     7
176
     1
 90
        6
176
     1
 90
        0
176
     1
 90
        0
176
     1
290
     0
176
     1
 90
        1
176
     1
 40
0.0
176
     1
 90
        0
176
     1
290
     0
176
     1
290
     1
176
     1
290
     1
176
     1
290
     0
176
     1
290
     0
176
     1
290
     0
176
     1
290
     0
176
     1
290
     0
176
     1
290
     0
176
     1
 90
       50
176
     1
 40
0.0
176
     1
 40
1.0
176
     1
 90
        0
176
     1
 62
    18
176
     1
 90
       50
176
     1
 90
        3
176
     1
 62
     5
420
      255
176
     1
290
     0
176
     1
 90
       50
176
     1
 90
       50
176
     1
 90
       50
176
     1
290
     0
176
     1
 90
       50
176
     1
 62
   256
176
     0
 40
1.0
176
     0
 90
        2
176
     1
  1
strokes_ogs.tif
176
     1
290
     0
176
     1
 40
1.0
176
     1
 40
1.0
176
     1
  0
VISUALSTYLE
  5
36
102
{ACAD_REACTORS
330
29
102
}
330
29
100
AcDbVisualStyle
  2
Thicken
 70
    13
177
     3
291
     1
 70
    58
 90
        2
176
     1
 90
        2
176
     1
 90
        0
176
     1
 90
        0
176
     1
 40
0.6
176
     1
 40
30.0
176
     1
 62
     7
420
 16777215
176
     1
 90
        1
176
     1
 90
        4
176
     1
 62
     7
176
     1
 62
   257
176
     1
 90
        1
176
     1
 90
        1
176
     1
 40
1.0
176
     1
 90
       12
176
     1
 62
     7
176
     1
 40
1.0
176
     1
 90
        1
176
     1
 90
        6
176
     1
 90
        2
176
     1
 62
     7
176
     1
 90
        5
176
     1
 90
        0
176
     1
 90
        0
176
     1
290
     0
176
     1
 90
        1
176
     1
 40
0.0
176
     1
 90
        0
176
     1
290
     0
176
     1
290
     1
176
     1
290
     1
176
     1
290
     0
176
     1
290
     0
176
     1
290
     0
176
     1
290
     0
176
     1
290
     0
176
     1
290
     0
176
     1
 90
       50
176
     1
 40
0.0
176
     1
 40
1.0
176
     1
 90
        0
176
     1
 62
    18
176
     1
 90
       50
176
     1
 90
        3
176
     1
 62
     5
420
      255
176
     1
290
     0
176
     1
 90
       50
176
     1
 90
       50
176
     1
 90
       50
176
     1
290
     0
176
     1
 90
       50
176
     1
 62
   256
176
     0
 40
1.0
176
     0
 90
        2
176
     1
  1
strokes_ogs.tif
176
     1
290
     0
176
     1
 40
1.0
176
     1
 40
1.0
176
     1
  0
VISUALSTYLE
  5
30
102
{ACAD_REACTORS
330
29
102
}
330
29
100
AcDbVisualStyle
  2
Wireframe
 70
     5
177
     3
291
     0
 70
    58
 90
        0
176
     1
 90
        2
176
     1
 90
        0
176
     1
 90
        0
176
     1
 40
0.6
176
     1
 40
30.0
176
     1
 62
     7
420
 16777215
176
     1
 90
        1
176
     1
 90
        4
176
     1
 62
     7
176
     1
 62
   257
176
     1
 90
        1
176
     1
 90
        1
176
     1
 40
1.0
176
     1
 90
        0
176
     1
 62
   257
176
     1
 40
1.0
176
     1
 90
        1
176
     1
 90
        6
176
     1
 90
        2
176
     1
 62
     7
176
     1
 90
        3
176
     1
 90
        0
176
     1
 90
        0
176
     1
290
     0
176
     1
 90
        1
176
     1
 40
0.0
176
     1
 90
        0
176
     1
290
     0
176
     1
290
     1
176
     1
290
     1
176
     1
290
     0
176
     1
290
     0
176
     1
290
     0
176
     1
290
     0
176
     1
290
     0
176
     1
290
     0
176
     1
 90
       50
176
     1
 40
0.0
176
     1
 40
1.0
176
     1
 90
        0
176
     1
 62
    18
176
     1
 90
       50
176
     1
 90
        3
176
     1
 62
     5
420
      255
176
     1
290
     0
176
     1
 90
       50
176
     1
 90
       50
176
     1
 90
       50
176
     1
290
     0
176
     1
 90
       50
176
     1
 62
   256
176
     0
 40
1.0
176
     0
 90
        2
176
     1
  1
strokes_ogs.tif
176
     1
290
     0
176
     1
 40
1.0
176
     1
 40
1.0
176
     1
  0
VISUALSTYLE
  5
3C
102
{ACAD_REACTORS
330
29
102
}
330
29
100
AcDbVisualStyle
  2
X-Ray
 70
    25
177
     3
291
     0
 70
    58
 90
        2
176
     1
 90
        2
176
     1
 90
        1
176
     1
 90
        1
176
     1
 40
0.5
176
     1
 40
30.0
176
     1
 62
     7
420
 16777215
176
     1
 90
        1
176
     1
 90
        0
176
     1
 62
     7
176
     1
 62
   257
176
     1
 90
        1
176
     1
 90
        1
176
     1
 40
1.0
176
     1
 90
        8
176
     1
 62
     7
176
     1
 40
1.0
176
     1
 90
        1
176
     1
 90
        6
176
     1
 90
        2
176
     1
 62
     7
176
     1
 90
        3
176
     1
 90
        0
176
     1
 90
        0
176
     1
290
     0
176
     1
 90
       13
176
     1
 40
0.0
176
     1
 90
        0
176
     1
290
     0
176
     1
290
     1
176
     1
290
     1
176
     1
290
     0
176
     1
290
     0
176
     1
290
     0
176
     1
290
     0
176
     1
290
     0
176
     1
290
     0
176
     1
 90
       50
176
     1
 40
0.0
176
     1
 40
1.0
176
     1
 90
        0
176
     1
 62
    18
176
     1
 90
       50
176
     1
 90
        3
176
     1
 62
     5
420
      255
176
     1
290
     0
176
     1
 90
       50
176
     1
 90
       50
176
     1
 90
       50
176
     1
290
     0
176
     1
 90
       50
176
     1
 62
   256
176
     0
 40
1.0
176
     0
 90
        2
176
     1
  1
strokes_ogs.tif
176
     1
290
     0
176
     1
 40
1.0
176
     1
 40
1.0
176
     1
  0
DICTIONARYVAR
  5
140
102
{ACAD_REACTORS
330
13A
102
}
330
13A
100
DictionaryVariables
280
     0
  1
1:1
  0
DICTIONARYVAR
  5
13C
102
{ACAD_REACTORS
330
13A
102
}
330
13A
100
DictionaryVariables
280
     0
  1
STANDARD
  0
DICTIONARYVAR
  5
13B
102
{ACAD_REACTORS
330
13A
102
}
330
13A
100
DictionaryVariables
280
     0
  1
STANDARD
  0
DICTIONARYVAR
  5
13D
102
{ACAD_REACTORS
330
13A
102
}
330
13A
100
DictionaryVariables
280
     0
  1
Imperial24
  0
DICTIONARYVAR
  5
13E
102
{ACAD_REACTORS
330
13A
102
}
330
13A
100
DictionaryVariables
280
     0
  1
Imperial24
  0
DICTIONARYVAR
  5
142
102
{ACAD_REACTORS
330
13A
102
}
330
13A
100
DictionaryVariables
280
     0
  1
1
  0
DICTIONARYVAR
  5
143
102
{ACAD_REACTORS
330
13A
102
}
330
13A
100
DictionaryVariables
280
     0
  1
15
  0
DICTIONARYVAR
  5
141
102
{ACAD_REACTORS
330
13A
102
}
330
13A
100
DictionaryVariables
280
     0
  1
0
  0
DICTIONARYVAR
  5
13F
102
{ACAD_REACTORS
330
13A
102
}
330
13A
100
DictionaryVariables
280
     0
  1
0
  0
DICTIONARY
  5
1A
330
19
100
AcDbDictionary
280
     1
281
     1
  3
BUMPTILE
360
1C
  3
DIFFUSETILE
360
1B
  3
OPACITYTILE
360
1F
  3
REFLECTIONTILE
360
1E
  3
REFRACTIONTILE
360
20
  3
SPECULARTILE
360
1D
  0
DICTIONARY
  5
12
330
11
100
AcDbDictionary
280
     1
281
     1
  3
BUMPTILE
360
14
  3
DIFFUSETILE
360
13
  3
OPACITYTILE
360
17
  3
REFLECTIONTILE
360
16
  3
REFRACTIONTILE
360
18
  3
SPECULARTILE
360
15
  0
DICTIONARY
  5
22
330
21
100
AcDbDictionary
280
     1
281
     1
  3
BUMPTILE
360
24
  3
DIFFUSETILE
360
23
  3
OPACITYTILE
360
27
  3
REFLECTIONTILE
360
26
  3
REFRACTIONTILE
360
28
  3
SPECULARTILE
360
25
  0
DICTIONARY
  5
30E
330
64
100
AcDbDictionary
280
     1
281
     1
  3
ACAD_ROUNDTRIP_2008_TABLESTYLE_CELLSTYLEMAP
360
57C
  0
XRECORD
  5
1C
102
{ACAD_REACTORS
330
1A
102
}
330
1A
100
AcDbXrecord
280
     1
270
     1
271
     1
  0
XRECORD
  5
1B
102
{ACAD_REACTORS
330
1A
102
}
330
1A
100
AcDbXrecord
280
     1
270
     1
271
     1
  0
XRECORD
  5
1F
102
{ACAD_REACTORS
330
1A
102
}
330
1A
100
AcDbXrecord
280
     1
270
     1
271
     1
  0
XRECORD
  5
1E
102
{ACAD_REACTORS
330
1A
102
}
330
1A
100
AcDbXrecord
280
     1
270
     1
271
     1
  0
XRECORD
  5
20
102
{ACAD_REACTORS
330
1A
102
}
330
1A
100
AcDbXrecord
280
     1
270
     1
271
     1
  0
XRECORD
  5
1D
102
{ACAD_REACTORS
330
1A
102
}
330
1A
100
AcDbXrecord
280
     1
270
     1
271
     1
  0
XRECORD
  5
14
102
{ACAD_REACTORS
330
12
102
}
330
12
100
AcDbXrecord
280
     1
270
     1
271
     1
  0
XRECORD
  5
13
102
{ACAD_REACTORS
330
12
102
}
330
12
100
AcDbXrecord
280
     1
270
     1
271
     1
  0
XRECORD
  5
17
102
{ACAD_REACTORS
330
12
102
}
330
12
100
AcDbXrecord
280
     1
270
     1
271
     1
  0
XRECORD
  5
16
102
{ACAD_REACTORS
330
12
102
}
330
12
100
AcDbXrecord
280
     1
270
     1
271
     1
  0
XRECORD
  5
18
102
{ACAD_REACTORS
330
12
102
}
330
12
100
AcDbXrecord
280
     1
270
     1
271
     1
  0
XRECORD
  5
15
102
{ACAD_REACTORS
330
12
102
}
330
12
100
AcDbXrecord
280
     1
270
     1
271
     1
  0
XRECORD
  5
24
102
{ACAD_REACTORS
330
22
102
}
330
22
100
AcDbXrecord
280
     1
270
     1
271
     1
  0
XRECORD
  5
23
102
{ACAD_REACTORS
330
22
102
}
330
22
100
AcDbXrecord
280
     1
270
     1
271
     1
  0
XRECORD
  5
27
102
{ACAD_REACTORS
330
22
102
}
330
22
100
AcDbXrecord
280
     1
270
     1
271
     1
  0
XRECORD
  5
26
102
{ACAD_REACTORS
330
22
102
}
330
22
100
AcDbXrecord
280
     1
270
     1
271
     1
  0
XRECORD
  5
28
102
{ACAD_REACTORS
330
22
102
}
330
22
100
AcDbXrecord
280
     1
270
     1
271
     1
  0
XRECORD
  5
25
102
{ACAD_REACTORS
330
22
102
}
330
22
100
AcDbXrecord
280
     1
270
     1
271
     1
  0
CELLSTYLEMAP
  5
57C
102
{ACAD_REACTORS
330
30E
102
}
330
30E
100
AcDbCellStyleMap
 90
        3
300
CELLSTYLE
  1
TABLEFORMAT_BEGIN
 90
        5
170
     1
 91
        0
 92
    32768
 62
   257
 93
        1
300
CONTENTFORMAT
  1
CONTENTFORMAT_BEGIN
 90
        0
 91
        0
 92
      512
 93
        0
300

 40
0.0
140
1.0
 94
        5
 62
     0
340
55
144
0.25
309
CONTENTFORMAT_END
171
     1
301
MARGIN
  1
CELLMARGIN_BEGIN
 40
0.06
 40
0.06
 40
0.06
 40
0.06
 40
0.18
 40
0.18
309
CELLMARGIN_END
 94
        6
 95
        1
302
GRIDFORMAT
  1
GRIDFORMAT_BEGIN
 90
        0
 91
        1
 62
     0
 92
       -2
340
0
 93
        0
 40
0.045
309
GRIDFORMAT_END
 95
        2
302
GRIDFORMAT
  1
GRIDFORMAT_BEGIN
 90
        0
 91
        1
 62
     0
 92
       -2
340
0
 93
        0
 40
0.045
309
GRIDFORMAT_END
 95
        4
302
GRIDFORMAT
  1
GRIDFORMAT_BEGIN
 90
        0
 91
        1
 62
     0
 92
       -2
340
0
 93
        0
 40
0.045
309
GRIDFORMAT_END
 95
        8
302
GRIDFORMAT
  1
GRIDFORMAT_BEGIN
 90
        0
 91
        1
 62
     0
 92
       -2
340
0
 93
        0
 40
0.045
309
GRIDFORMAT_END
 95
       16
302
GRIDFORMAT
  1
GRIDFORMAT_BEGIN
 90
        0
 91
        1
 62
     0
 92
       -2
340
0
 93
        0
 40
0.045
309
GRIDFORMAT_END
 95
       32
302
GRIDFORMAT
  1
GRIDFORMAT_BEGIN
 90
        0
 91
        1
 62
     0
 92
       -2
340
0
 93
        0
 40
0.045
309
GRIDFORMAT_END
309
TABLEFORMAT_END
  1
CELLSTYLE_BEGIN
 90
        1
 91
        1
300
_TITLE
309
CELLSTYLE_END
300
CELLSTYLE
  1
TABLEFORMAT_BEGIN
 90
        5
170
     1
 91
        0
 92
        0
 62
   257
 93
        1
300
CONTENTFORMAT
  1
CONTENTFORMAT_BEGIN
 90
        0
 91
        0
 92
      512
 93
        0
300

 40
0.0
140
1.0
 94
        5
 62
     0
340
55
144
0.18
309
CONTENTFORMAT_END
171
     1
301
MARGIN
  1
CELLMARGIN_BEGIN
 40
0.06
 40
0.06
 40
0.06
 40
0.06
 40
0.18
 40
0.18
309
CELLMARGIN_END
 94
        6
 95
        1
302
GRIDFORMAT
  1
GRIDFORMAT_BEGIN
 90
        0
 91
        1
 62
     0
 92
       -2
340
0
 93
        0
 40
0.045
309
GRIDFORMAT_END
 95
        2
302
GRIDFORMAT
  1
GRIDFORMAT_BEGIN
 90
        0
 91
        1
 62
     0
 92
       -2
340
0
 93
        0
 40
0.045
309
GRIDFORMAT_END
 95
        4
302
GRIDFORMAT
  1
GRIDFORMAT_BEGIN
 90
        0
 91
        1
 62
     0
 92
       -2
340
0
 93
        0
 40
0.045
309
GRIDFORMAT_END
 95
        8
302
GRIDFORMAT
  1
GRIDFORMAT_BEGIN
 90
        0
 91
        1
 62
     0
 92
       -2
340
0
 93
        0
 40
0.045
309
GRIDFORMAT_END
 95
       16
302
GRIDFORMAT
  1
GRIDFORMAT_BEGIN
 90
        0
 91
        1
 62
     0
 92
       -2
340
0
 93
        0
 40
0.045
309
GRIDFORMAT_END
 95
       32
302
GRIDFORMAT
  1
GRIDFORMAT_BEGIN
 90
        0
 91
        1
 62
     0
 92
       -2
340
0
 93
        0
 40
0.045
309
GRIDFORMAT_END
309
TABLEFORMAT_END
  1
CELLSTYLE_BEGIN
 90
        2
 91
        1
300
_HEADER
309
CELLSTYLE_END
300
CELLSTYLE
  1
TABLEFORMAT_BEGIN
 90
        5
170
     1
 91
        0
 92
        0
 62
   257
 93
        1
300
CONTENTFORMAT
  1
CONTENTFORMAT_BEGIN
 90
        0
 91
        0
 92
      512
 93
        0
300

 40
0.0
140
1.0
 94
        2
 62
     0
340
55
144
0.18
309
CONTENTFORMAT_END
171
     1
301
MARGIN
  1
CELLMARGIN_BEGIN
 40
0.06
 40
0.06
 40
0.06
 40
0.06
 40
0.18
 40
0.18
309
CELLMARGIN_END
 94
        6
 95
        1
302
GRIDFORMAT
  1
GRIDFORMAT_BEGIN
 90
        0
 91
        1
 62
     0
 92
       -2
340
0
 93
        0
 40
0.045
309
GRIDFORMAT_END
 95
        2
302
GRIDFORMAT
  1
GRIDFORMAT_BEGIN
 90
        0
 91
        1
 62
     0
 92
       -2
340
0
 93
        0
 40
0.045
309
GRIDFORMAT_END
 95
        4
302
GRIDFORMAT
  1
GRIDFORMAT_BEGIN
 90
        0
 91
        1
 62
     0
 92
       -2
340
0
 93
        0
 40
0.045
309
GRIDFORMAT_END
 95
        8
302
GRIDFORMAT
  1
GRIDFORMAT_BEGIN
 90
        0
 91
        1
 62
     0
 92
       -2
340
0
 93
        0
 40
0.045
309
GRIDFORMAT_END
 95
       16
302
GRIDFORMAT
  1
GRIDFORMAT_BEGIN
 90
        0
 91
        1
 62
     0
 92
       -2
340
0
 93
        0
 40
0.045
309
GRIDFORMAT_END
 95
       32
302
GRIDFORMAT
  1
GRIDFORMAT_BEGIN
 90
        0
 91
        1
 62
     0
 92
       -2
340
0
 93
        0
 40
0.045
309
GRIDFORMAT_END
309
TABLEFORMAT_END
  1
CELLSTYLE_BEGIN
 90
        3
 91
        2
300
_DATA
309
CELLSTYLE_END
  0
ENDSEC
  0
SECTION
  2
ACDSDATA
 70
     2
 71
     8
  0
ACDSSCHEMA
 90
        0
  1
AcDb_Thumbnail_Schema
  2
AcDbDs::ID
280
    10
 91
        8
  2
Thumbnail_Data
280
    15
 91
        0
101
ACDSRECORD
 95
        0
 90
        1
  2
AcDbDs::TreatedAsObjectData
280
     1
291
     1
101
ACDSRECORD
 95
        0
 90
        2
  2
AcDbDs::Legacy
280
     1
291
     1
101
ACDSRECORD
  1
AcDbDs::ID
 90
        3
  2
AcDs:Indexable
280
     1
291
     1
101
ACDSRECORD
  1
AcDbDs::ID
 90
        4
  2
AcDbDs::HandleAttribute
280
     7
282
     1
  0
ACDSSCHEMA
 90
        1
  1
AcDbDs::TreatedAsObjectDataSchema
  2
AcDbDs::TreatedAsObjectData
280
     1
 91
        0
  0
ACDSSCHEMA
 90
        2
  1
AcDbDs::LegacySchema
  2
AcDbDs::Legacy
280
     1
 91
        0
  0
ACDSSCHEMA
 90
        3
  1
AcDbDs::IndexedPropertySchema
  2
AcDs:Indexable
280
     1
 91
        0
  0
ACDSSCHEMA
 90
        4
  1
AcDbDs::HandleAttributeSchema
  2
AcDbDs::HandleAttribute
280
     7
 91
        1
284
     1
  0
ACDSRECORD
 90
        0
  2
AcDbDs::ID
280
    10
320
72
  2
Thumbnail_Data
280
    15
 94
     1698
310
89504E470D0A1A0A0000000D49484452000001000000006E0803000000FF253DCA00000300504C5445212830FFFFFF2128300000000000000000000000000000000000000000000000000000330000660000990000CC0000FF0033000033330033660033990033CC0033FF0066000066330066660066990066CC0066FF0099
310
000099330099660099990099CC0099FF00CC0000CC3300CC6600CC9900CCCC00CCFF00FF0000FF3300FF6600FF9900FFCC00FFFF3300003300333300663300993300CC3300FF3333003333333333663333993333CC3333FF3366003366333366663366993366CC3366FF3399003399333399663399993399CC3399FF33CC00
310
33CC3333CC6633CC9933CCCC33CCFF33FF0033FF3333FF6633FF9933FFCC33FFFF6600006600336600666600996600CC6600FF6633006633336633666633996633CC6633FF6666006666336666666666996666CC6666FF6699006699336699666699996699CC6699FF66CC0066CC3366CC6666CC9966CCCC66CCFF66FF0066
310
FF3366FF6666FF9966FFCC66FFFF9900009900339900669900999900CC9900FF9933009933339933669933999933CC9933FF9966009966339966669966999966CC9966FF9999009999339999669999999999CC9999FF99CC0099CC3399CC6699CC9999CCCC99CCFF99FF0099FF3399FF6699FF9999FFCC99FFFFCC0000CC00
310
33CC0066CC0099CC00CCCC00FFCC3300CC3333CC3366CC3399CC33CCCC33FFCC6600CC6633CC6666CC6699CC66CCCC66FFCC9900CC9933CC9966CC9999CC99CCCC99FFCCCC00CCCC33CCCC66CCCC99CCCCCCCCCCFFCCFF00CCFF33CCFF66CCFF99CCFFCCCCFFFFFF0000FF0033FF0066FF0099FF00CCFF00FFFF3300FF3333
310
FF3366FF3399FF33CCFF33FFFF6600FF6633FF6666FF6699FF66CCFF66FFFF9900FF9933FF9966FF9999FF99CCFF99FFFFCC00FFCC33FFCC66FFCC99FFCCCCFFCCFFFFFF00FFFF33FFFF66FFFF99FFFFCCFFFFFF0000000D0D0D1A1A1A2828283535354343435050505D5D5D6B6B6B787878868686939393A1A1A1AEAEAEBB
310
BBBBC9C9C9D6D6D6E4E4E4F1F1F1FFFFFF0000000000000000000000000000000000000000000000000000000000002E4550F10000035D4944415478DAED5CD9B6C32008E4FFFF97F77B4E7B13D1BA800B21CABCB49E2CC511912136004DE00780C5E3F03D8648AFA1475E0E21019F8F0D0940AC1DA7E785B36B57BD8980E8
310
E3440F9011B06B0CC073096078881350C031047C28F89938D5C8B113015580C3E170381C0E0733A5787B07E628CFD74BE7B18C7257D9CC4D9EB5736AF1ADB1136313651903727A91EDEC79020423ADE30352D5DEB4FFFE8A59C690540FBFA7DDE77F0F617A83A52E209F7857A5E3DFF6FB167715F8EE3793000804201D0E04
310
6AC5520F10795D44008411BCECA7046066340901483C00EED3AE5BD13B03AA11D09CE8D73061DC81D0CDFB6B8380E284A4BDD6890142022AC53E490CA813407C43770A64472DE301DDCB609B80C4147B04546C91044106011A8940670C5849C00B96C1D13C809B08D9F400E99D7F08E81C1D3379C0A0FD38C5CE577840FE32
310
27C0380113A74089807CCC6CB59408681F4A9FFF325B9480DCAAD96C1922A024A5AB2DAB04606D444F21A06DF40202EED201B7658C806413CC6572B99510104A07DC962D02AE61BC0609B0D5720FB01E03AA46EF1C04E3C423EC793A6715007D0FB09409F28C9E9B099AD2021D04EC25869C0096DB4E1643B6D4A094F4CD56
310
81E309E899027BE601E7AA41385D0DC2E96AB02F15DE480D7246CDC590AF02AE06F3A9705A54E6A9C1703CDE61756D114A365E2DFD035A8F188A7A0AC15200C410B4930E6021F58AB698857B5827800E37900E401856C86E1668EC0F002C68AD7504E042355890C3EC20883ACF06196EDB1B040BDBE4D804804A5598E1B6C3
310
AB4027017487B5961A9C2A8731633F9F806487B55210E4EC1364A6C2F95E0BB480960794460D86C550D903586A109F4D84863DA01A04796A509180B80B4D02A4ABC08BD4204E24E08D6A10304EECCE538334197A5C0DDA94C3FC0723F98A90B02E6FAE282AB51FC60850288A96DEFB3287804C4D503605D67A00CFE8A12960
310
3B08F2DC76E355A0C703B65B0685314093009B45D11E2D807D6AD02C015C355814434C35F8881C6665824C0F281744384F03550B22F1FF9E01275484AA05114B25B1F003B3C5D058494CA9285A765B034551CD8208BF22D4B34B0CB0707D35158656445E4140D3034612AC1F061E7F8BCA0F01101E51313CC0C26B60563C17
310
38E8859855CFF6378282C3E170381C0E87C3E170381C0EC776F8038D94150134F149D90000000049454E44AE426082
  0
ENDSEC
  0
EOF
