M48
; DRILL file {KiCad (6.0.10)} date Fri Aug  4 22:21:36 2023
; FORMAT={-:-/ absolute / inch / decimal}
; #@! TF.CreationDate,2023-08-04T22:21:36-04:00
; #@! TF.GenerationSoftware,Kicad,Pcbnew,(6.0.10)
; #@! TF.FileFunction,NonPlated,1,2,NPTH
FMAT,2
INCH
; #@! TA.AperFunction,NonPlated,NPTH,ComponentDrill
T1C0.0689
; #@! TA.AperFunction,NonPlated,NPTH,ComponentDrill
T2C0.1200
; #@! TA.AperFunction,NonPlated,NPTH,ComponentDrill
T3C0.1570
%
G90
G05
T1
X0.895Y-3.3216
X0.895Y-4.0716
X0.895Y-4.8216
X0.895Y-5.5716
X1.295Y-3.3216
X1.295Y-4.0716
X1.295Y-4.8216
X1.295Y-5.5716
X1.645Y-3.3216
X1.645Y-4.0716
X1.645Y-4.8216
X1.645Y-5.5716
X2.045Y-3.3216
X2.045Y-4.0716
X2.045Y-4.8216
X2.045Y-5.5716
X2.395Y-3.3216
X2.395Y-4.0716
X2.395Y-4.8216
X2.395Y-5.5716
X2.795Y-3.3216
X2.795Y-4.0716
X2.795Y-4.8216
X2.795Y-5.5716
X3.145Y-3.3216
X3.145Y-4.0716
X3.3478Y-5.0
X3.3478Y-5.4
X3.545Y-3.3216
X3.545Y-4.0716
T2
X3.6228Y-4.73
X3.6228Y-5.67
T3
X1.095Y-3.3216
X1.095Y-4.0716
X1.095Y-4.8216
X1.095Y-5.5716
X1.845Y-3.3216
X1.845Y-4.0716
X1.845Y-4.8216
X1.845Y-5.5716
X2.595Y-3.3216
X2.595Y-4.0716
X2.595Y-4.8216
X2.595Y-5.5716
X3.0228Y-4.73
X3.0228Y-5.67
X3.345Y-3.3216
X3.345Y-4.0716
X3.3478Y-5.2
T0
M30
