G04 #@! TF.GenerationSoftware,KiCad,Pcbnew,(6.0.10)*
G04 #@! TF.CreationDate,2023-08-06T19:18:38-04:00*
G04 #@! TF.ProjectId,NugMacro-Keypad,4e75674d-6163-4726-9f2d-4b6579706164,V3*
G04 #@! TF.SameCoordinates,Original*
G04 #@! TF.FileFunction,Copper,L2,Bot*
G04 #@! TF.FilePolarity,Positive*
%FSLAX46Y46*%
G04 Gerber Fmt 4.6, Leading zero omitted, Abs format (unit mm)*
G04 Created by KiCad (PCBNEW (6.0.10)) date 2023-08-06 19:18:38*
%MOMM*%
%LPD*%
G01*
G04 APERTURE LIST*
G04 Aperture macros list*
%AMRoundRect*
0 Rectangle with rounded corners*
0 $1 Rounding radius*
0 $2 $3 $4 $5 $6 $7 $8 $9 X,Y pos of 4 corners*
0 Add a 4 corners polygon primitive as box body*
4,1,4,$2,$3,$4,$5,$6,$7,$8,$9,$2,$3,0*
0 Add four circle primitives for the rounded corners*
1,1,$1+$1,$2,$3*
1,1,$1+$1,$4,$5*
1,1,$1+$1,$6,$7*
1,1,$1+$1,$8,$9*
0 Add four rect primitives between the rounded corners*
20,1,$1+$1,$2,$3,$4,$5,0*
20,1,$1+$1,$4,$5,$6,$7,0*
20,1,$1+$1,$6,$7,$8,$9,0*
20,1,$1+$1,$8,$9,$2,$3,0*%
%AMHorizOval*
0 Thick line with rounded ends*
0 $1 width*
0 $2 $3 position (X,Y) of the first rounded end (center of the circle)*
0 $4 $5 position (X,Y) of the second rounded end (center of the circle)*
0 Add line between two ends*
20,1,$1,$2,$3,$4,$5,0*
0 Add two circle primitives to create the rounded ends*
1,1,$1,$2,$3*
1,1,$1,$4,$5*%
G04 Aperture macros list end*
G04 #@! TA.AperFunction,ComponentPad*
%ADD10HorizOval,2.250000X0.655001X0.730000X-0.655001X-0.730000X0*%
G04 #@! TD*
G04 #@! TA.AperFunction,ComponentPad*
%ADD11C,2.250000*%
G04 #@! TD*
G04 #@! TA.AperFunction,ComponentPad*
%ADD12HorizOval,2.250000X0.020000X0.290000X-0.020000X-0.290000X0*%
G04 #@! TD*
G04 #@! TA.AperFunction,ComponentPad*
%ADD13R,2.000000X2.000000*%
G04 #@! TD*
G04 #@! TA.AperFunction,ComponentPad*
%ADD14C,2.000000*%
G04 #@! TD*
G04 #@! TA.AperFunction,ComponentPad*
%ADD15R,3.200000X2.000000*%
G04 #@! TD*
G04 #@! TA.AperFunction,ComponentPad*
%ADD16HorizOval,2.250000X0.730000X-0.655001X-0.730000X0.655001X0*%
G04 #@! TD*
G04 #@! TA.AperFunction,ComponentPad*
%ADD17HorizOval,2.250000X0.290000X-0.020000X-0.290000X0.020000X0*%
G04 #@! TD*
G04 #@! TA.AperFunction,ComponentPad*
%ADD18R,1.700000X1.700000*%
G04 #@! TD*
G04 #@! TA.AperFunction,ComponentPad*
%ADD19O,1.700000X1.700000*%
G04 #@! TD*
G04 #@! TA.AperFunction,SMDPad,CuDef*
%ADD20RoundRect,0.250000X0.450000X-0.262500X0.450000X0.262500X-0.450000X0.262500X-0.450000X-0.262500X0*%
G04 #@! TD*
G04 #@! TA.AperFunction,SMDPad,CuDef*
%ADD21R,1.200000X0.900000*%
G04 #@! TD*
G04 #@! TA.AperFunction,SMDPad,CuDef*
%ADD22RoundRect,0.250000X0.475000X-0.250000X0.475000X0.250000X-0.475000X0.250000X-0.475000X-0.250000X0*%
G04 #@! TD*
G04 #@! TA.AperFunction,SMDPad,CuDef*
%ADD23R,1.500000X0.550000*%
G04 #@! TD*
G04 #@! TA.AperFunction,SMDPad,CuDef*
%ADD24R,0.550000X1.500000*%
G04 #@! TD*
G04 #@! TA.AperFunction,SMDPad,CuDef*
%ADD25RoundRect,0.250000X0.262500X0.450000X-0.262500X0.450000X-0.262500X-0.450000X0.262500X-0.450000X0*%
G04 #@! TD*
G04 #@! TA.AperFunction,SMDPad,CuDef*
%ADD26R,0.900000X1.200000*%
G04 #@! TD*
G04 #@! TA.AperFunction,SMDPad,CuDef*
%ADD27R,1.200000X1.800000*%
G04 #@! TD*
G04 #@! TA.AperFunction,SMDPad,CuDef*
%ADD28R,0.600000X1.550000*%
G04 #@! TD*
G04 #@! TA.AperFunction,SMDPad,CuDef*
%ADD29RoundRect,0.250000X0.250000X0.475000X-0.250000X0.475000X-0.250000X-0.475000X0.250000X-0.475000X0*%
G04 #@! TD*
G04 #@! TA.AperFunction,SMDPad,CuDef*
%ADD30RoundRect,0.250000X-0.450000X0.262500X-0.450000X-0.262500X0.450000X-0.262500X0.450000X0.262500X0*%
G04 #@! TD*
G04 #@! TA.AperFunction,SMDPad,CuDef*
%ADD31R,1.800000X1.100000*%
G04 #@! TD*
G04 #@! TA.AperFunction,SMDPad,CuDef*
%ADD32R,1.400000X1.200000*%
G04 #@! TD*
G04 #@! TA.AperFunction,SMDPad,CuDef*
%ADD33RoundRect,0.250000X-0.475000X0.250000X-0.475000X-0.250000X0.475000X-0.250000X0.475000X0.250000X0*%
G04 #@! TD*
G04 #@! TA.AperFunction,SMDPad,CuDef*
%ADD34RoundRect,0.250000X-0.250000X-0.475000X0.250000X-0.475000X0.250000X0.475000X-0.250000X0.475000X0*%
G04 #@! TD*
G04 #@! TA.AperFunction,ViaPad*
%ADD35C,0.800000*%
G04 #@! TD*
G04 #@! TA.AperFunction,Conductor*
%ADD36C,0.254000*%
G04 #@! TD*
G04 #@! TA.AperFunction,Conductor*
%ADD37C,0.381000*%
G04 #@! TD*
G04 #@! TA.AperFunction,Conductor*
%ADD38C,0.200000*%
G04 #@! TD*
G04 APERTURE END LIST*
D10*
G04 #@! TO.P,MX14,1,COL*
G04 #@! TO.N,COL3*
X167899436Y-89426400D03*
D11*
X168554435Y-88696400D03*
G04 #@! TO.P,MX14,2,ROW*
G04 #@! TO.N,Net-(D14-Pad2)*
X173594435Y-87616400D03*
D12*
X173574435Y-87906400D03*
G04 #@! TD*
D11*
G04 #@! TO.P,MX1,1,COL*
G04 #@! TO.N,COL0*
X111404365Y-69646400D03*
D10*
X110749366Y-70376400D03*
D11*
G04 #@! TO.P,MX1,2,ROW*
G04 #@! TO.N,Net-(D1-Pad2)*
X116444365Y-68566400D03*
D12*
X116424365Y-68856400D03*
G04 #@! TD*
D11*
G04 #@! TO.P,MX7,1,COL*
G04 #@! TO.N,COL1*
X130454335Y-107746500D03*
D10*
X129799336Y-108476500D03*
D11*
G04 #@! TO.P,MX7,2,ROW*
G04 #@! TO.N,Net-(D7-Pad2)*
X135494335Y-106666500D03*
D12*
X135474335Y-106956500D03*
G04 #@! TD*
D11*
G04 #@! TO.P,MX13,1,COL*
G04 #@! TO.N,COL3*
X168554435Y-69646400D03*
D10*
X167899436Y-70376400D03*
D11*
G04 #@! TO.P,MX13,2,ROW*
G04 #@! TO.N,Net-(D13-Pad2)*
X173594435Y-68566400D03*
D12*
X173574435Y-68856400D03*
G04 #@! TD*
D11*
G04 #@! TO.P,MX8,1,COL*
G04 #@! TO.N,COL1*
X130454335Y-126796540D03*
D10*
X129799336Y-127526540D03*
D12*
G04 #@! TO.P,MX8,2,ROW*
G04 #@! TO.N,Net-(D8-Pad2)*
X135474335Y-126006540D03*
D11*
X135494335Y-125716540D03*
G04 #@! TD*
D10*
G04 #@! TO.P,MX10,1,COL*
G04 #@! TO.N,COL2*
X148849436Y-89426400D03*
D11*
X149504435Y-88696400D03*
D12*
G04 #@! TO.P,MX10,2,ROW*
G04 #@! TO.N,Net-(D10-Pad2)*
X154524435Y-87906400D03*
D11*
X154544435Y-87616400D03*
G04 #@! TD*
D10*
G04 #@! TO.P,MX2,1,COL*
G04 #@! TO.N,COL0*
X110749366Y-89426400D03*
D11*
X111404365Y-88696400D03*
G04 #@! TO.P,MX2,2,ROW*
G04 #@! TO.N,Net-(D2-Pad2)*
X116444365Y-87616400D03*
D12*
X116424365Y-87906400D03*
G04 #@! TD*
D10*
G04 #@! TO.P,MX12,1,COL*
G04 #@! TO.N,COL2*
X148849436Y-127526540D03*
D11*
X149504435Y-126796540D03*
D12*
G04 #@! TO.P,MX12,2,ROW*
G04 #@! TO.N,Net-(D12-Pad2)*
X154524435Y-126006540D03*
D11*
X154544435Y-125716540D03*
G04 #@! TD*
G04 #@! TO.P,MX11,1,COL*
G04 #@! TO.N,COL2*
X149504435Y-107746500D03*
D10*
X148849436Y-108476500D03*
D12*
G04 #@! TO.P,MX11,2,ROW*
G04 #@! TO.N,Net-(D11-Pad2)*
X154524435Y-106956500D03*
D11*
X154544435Y-106666500D03*
G04 #@! TD*
D13*
G04 #@! TO.P,SW2,A,A*
G04 #@! TO.N,CLK*
X162407400Y-52563470D03*
D14*
G04 #@! TO.P,SW2,B,B*
G04 #@! TO.N,DT*
X162407400Y-57563470D03*
G04 #@! TO.P,SW2,C,C*
G04 #@! TO.N,GND*
X162407400Y-55063470D03*
D15*
G04 #@! TO.P,SW2,MP*
G04 #@! TO.N,N/C*
X169907400Y-49463470D03*
X169907400Y-60663470D03*
D14*
G04 #@! TO.P,SW2,S1,S1*
G04 #@! TO.N,Net-(D16-Pad2)*
X176907400Y-57563470D03*
G04 #@! TO.P,SW2,S2,S2*
G04 #@! TO.N,COL3*
X176907400Y-52563470D03*
G04 #@! TD*
D16*
G04 #@! TO.P,MX15,1,COL*
G04 #@! TO.N,COL3*
X174394850Y-118202471D03*
D11*
X175124850Y-118857470D03*
D17*
G04 #@! TO.P,MX15,2,ROW*
G04 #@! TO.N,Net-(D15-Pad2)*
X175914850Y-123877470D03*
D11*
X176204850Y-123897470D03*
G04 #@! TD*
G04 #@! TO.P,MX3,1,COL*
G04 #@! TO.N,COL0*
X111404365Y-107746500D03*
D10*
X110749366Y-108476500D03*
D11*
G04 #@! TO.P,MX3,2,ROW*
G04 #@! TO.N,Net-(D3-Pad2)*
X116444365Y-106666500D03*
D12*
X116424365Y-106956500D03*
G04 #@! TD*
D10*
G04 #@! TO.P,MX4,1,COL*
G04 #@! TO.N,COL0*
X110749366Y-127526540D03*
D11*
X111404365Y-126796540D03*
D12*
G04 #@! TO.P,MX4,2,ROW*
G04 #@! TO.N,Net-(D4-Pad2)*
X116424365Y-126006540D03*
D11*
X116444365Y-125716540D03*
G04 #@! TD*
D18*
G04 #@! TO.P,J3,1,Pin_1*
G04 #@! TO.N,GND*
X108204581Y-57575405D03*
D19*
G04 #@! TO.P,J3,2,Pin_2*
G04 #@! TO.N,+5V*
X108204581Y-55035405D03*
G04 #@! TO.P,J3,3,Pin_3*
G04 #@! TO.N,OLED2*
X108204581Y-52495405D03*
G04 #@! TO.P,J3,4,Pin_4*
G04 #@! TO.N,OLED1*
X108204581Y-49955405D03*
G04 #@! TD*
D11*
G04 #@! TO.P,MX6,1,COL*
G04 #@! TO.N,COL1*
X130454335Y-88696400D03*
D10*
X129799336Y-89426400D03*
D11*
G04 #@! TO.P,MX6,2,ROW*
G04 #@! TO.N,Net-(D6-Pad2)*
X135494335Y-87616400D03*
D12*
X135474335Y-87906400D03*
G04 #@! TD*
D10*
G04 #@! TO.P,MX5,1,COL*
G04 #@! TO.N,COL1*
X129799336Y-70376400D03*
D11*
X130454335Y-69646400D03*
G04 #@! TO.P,MX5,2,ROW*
G04 #@! TO.N,Net-(D5-Pad2)*
X135494335Y-68566400D03*
D12*
X135474335Y-68856400D03*
G04 #@! TD*
D10*
G04 #@! TO.P,MX9,1,COL*
G04 #@! TO.N,COL2*
X148849436Y-70376400D03*
D11*
X149504435Y-69646400D03*
G04 #@! TO.P,MX9,2,ROW*
G04 #@! TO.N,Net-(D9-Pad2)*
X154544435Y-68566400D03*
D12*
X154524435Y-68856400D03*
G04 #@! TD*
D20*
G04 #@! TO.P,R3,1*
G04 #@! TO.N,Net-(R3-Pad1)*
X121651400Y-53435970D03*
G04 #@! TO.P,R3,2*
G04 #@! TO.N,D+*
X121651400Y-51610970D03*
G04 #@! TD*
D21*
G04 #@! TO.P,D3,1,K*
G04 #@! TO.N,ROW2*
X120904365Y-120396500D03*
G04 #@! TO.P,D3,2,A*
G04 #@! TO.N,Net-(D3-Pad2)*
X120904365Y-117096500D03*
G04 #@! TD*
G04 #@! TO.P,D4,1,K*
G04 #@! TO.N,ROW3*
X120904365Y-139446540D03*
G04 #@! TO.P,D4,2,A*
G04 #@! TO.N,Net-(D4-Pad2)*
X120904365Y-136146540D03*
G04 #@! TD*
D22*
G04 #@! TO.P,C4,1*
G04 #@! TO.N,+5V*
X142098400Y-50359470D03*
G04 #@! TO.P,C4,2*
G04 #@! TO.N,GND*
X142098400Y-48459470D03*
G04 #@! TD*
D21*
G04 #@! TO.P,D8,1,K*
G04 #@! TO.N,ROW3*
X139954000Y-139446140D03*
G04 #@! TO.P,D8,2,A*
G04 #@! TO.N,Net-(D8-Pad2)*
X139954000Y-136146140D03*
G04 #@! TD*
D23*
G04 #@! TO.P,U1,1,PE6*
G04 #@! TO.N,unconnected-(U1-Pad1)*
X145288400Y-62619470D03*
G04 #@! TO.P,U1,2,UVCC*
G04 #@! TO.N,+5V*
X145288400Y-61819470D03*
G04 #@! TO.P,U1,3,D-*
G04 #@! TO.N,Net-(R2-Pad1)*
X145288400Y-61019470D03*
G04 #@! TO.P,U1,4,D+*
G04 #@! TO.N,Net-(R3-Pad1)*
X145288400Y-60219470D03*
G04 #@! TO.P,U1,5,UGND*
G04 #@! TO.N,GND*
X145288400Y-59419470D03*
G04 #@! TO.P,U1,6,UCAP*
G04 #@! TO.N,Net-(C6-Pad1)*
X145288400Y-58619470D03*
G04 #@! TO.P,U1,7,VBUS*
G04 #@! TO.N,+5V*
X145288400Y-57819470D03*
G04 #@! TO.P,U1,8,PB0*
G04 #@! TO.N,OLED1*
X145288400Y-57019470D03*
G04 #@! TO.P,U1,9,PB1*
G04 #@! TO.N,OLED2*
X145288400Y-56219470D03*
G04 #@! TO.P,U1,10,PB2*
G04 #@! TO.N,unconnected-(U1-Pad10)*
X145288400Y-55419470D03*
G04 #@! TO.P,U1,11,PB3*
G04 #@! TO.N,unconnected-(U1-Pad11)*
X145288400Y-54619470D03*
D24*
G04 #@! TO.P,U1,12,PB7*
G04 #@! TO.N,unconnected-(U1-Pad12)*
X146988400Y-52919470D03*
G04 #@! TO.P,U1,13,~{RESET}*
G04 #@! TO.N,RESET*
X147788400Y-52919470D03*
G04 #@! TO.P,U1,14,VCC*
G04 #@! TO.N,+5V*
X148588400Y-52919470D03*
G04 #@! TO.P,U1,15,GND*
G04 #@! TO.N,GND*
X149388400Y-52919470D03*
G04 #@! TO.P,U1,16,XTAL2*
G04 #@! TO.N,XTAL2*
X150188400Y-52919470D03*
G04 #@! TO.P,U1,17,XTAL1*
G04 #@! TO.N,XTAL1*
X150988400Y-52919470D03*
G04 #@! TO.P,U1,18,PD0*
G04 #@! TO.N,unconnected-(U1-Pad18)*
X151788400Y-52919470D03*
G04 #@! TO.P,U1,19,PD1*
G04 #@! TO.N,unconnected-(U1-Pad19)*
X152588400Y-52919470D03*
G04 #@! TO.P,U1,20,PD2*
G04 #@! TO.N,unconnected-(U1-Pad20)*
X153388400Y-52919470D03*
G04 #@! TO.P,U1,21,PD3*
G04 #@! TO.N,unconnected-(U1-Pad21)*
X154188400Y-52919470D03*
G04 #@! TO.P,U1,22,PD5*
G04 #@! TO.N,unconnected-(U1-Pad22)*
X154988400Y-52919470D03*
D23*
G04 #@! TO.P,U1,23,GND*
G04 #@! TO.N,GND*
X156688400Y-54619470D03*
G04 #@! TO.P,U1,24,AVCC*
G04 #@! TO.N,+5V*
X156688400Y-55419470D03*
G04 #@! TO.P,U1,25,PD4*
G04 #@! TO.N,unconnected-(U1-Pad25)*
X156688400Y-56219470D03*
G04 #@! TO.P,U1,26,PD6*
G04 #@! TO.N,COL2*
X156688400Y-57019470D03*
G04 #@! TO.P,U1,27,PD7*
G04 #@! TO.N,COL3*
X156688400Y-57819470D03*
G04 #@! TO.P,U1,28,PB4*
G04 #@! TO.N,unconnected-(U1-Pad28)*
X156688400Y-58619470D03*
G04 #@! TO.P,U1,29,PB5*
G04 #@! TO.N,CLK*
X156688400Y-59419470D03*
G04 #@! TO.P,U1,30,PB6*
G04 #@! TO.N,DT*
X156688400Y-60219470D03*
G04 #@! TO.P,U1,31,PC6*
G04 #@! TO.N,unconnected-(U1-Pad31)*
X156688400Y-61019470D03*
G04 #@! TO.P,U1,32,PC7*
G04 #@! TO.N,unconnected-(U1-Pad32)*
X156688400Y-61819470D03*
G04 #@! TO.P,U1,33,~{HWB}/PE2*
G04 #@! TO.N,Net-(R4-Pad2)*
X156688400Y-62619470D03*
D24*
G04 #@! TO.P,U1,34,VCC*
G04 #@! TO.N,+5V*
X154988400Y-64319470D03*
G04 #@! TO.P,U1,35,GND*
G04 #@! TO.N,GND*
X154188400Y-64319470D03*
G04 #@! TO.P,U1,36,PF7*
G04 #@! TO.N,COL1*
X153388400Y-64319470D03*
G04 #@! TO.P,U1,37,PF6*
G04 #@! TO.N,COL0*
X152588400Y-64319470D03*
G04 #@! TO.P,U1,38,PF5*
G04 #@! TO.N,ROW0*
X151788400Y-64319470D03*
G04 #@! TO.P,U1,39,PF4*
G04 #@! TO.N,ROW1*
X150988400Y-64319470D03*
G04 #@! TO.P,U1,40,PF1*
G04 #@! TO.N,ROW2*
X150188400Y-64319470D03*
G04 #@! TO.P,U1,41,PF0*
G04 #@! TO.N,ROW3*
X149388400Y-64319470D03*
G04 #@! TO.P,U1,42,AREF*
G04 #@! TO.N,unconnected-(U1-Pad42)*
X148588400Y-64319470D03*
G04 #@! TO.P,U1,43,GND*
G04 #@! TO.N,GND*
X147788400Y-64319470D03*
G04 #@! TO.P,U1,44,AVCC*
G04 #@! TO.N,+5V*
X146988400Y-64319470D03*
G04 #@! TD*
D25*
G04 #@! TO.P,R4,1*
G04 #@! TO.N,GND*
X162060900Y-63064470D03*
G04 #@! TO.P,R4,2*
G04 #@! TO.N,Net-(R4-Pad2)*
X160235900Y-63064470D03*
G04 #@! TD*
D20*
G04 #@! TO.P,R2,1*
G04 #@! TO.N,Net-(R2-Pad1)*
X118349400Y-53435970D03*
G04 #@! TO.P,R2,2*
G04 #@! TO.N,D-*
X118349400Y-51610970D03*
G04 #@! TD*
D21*
G04 #@! TO.P,D15,1,K*
G04 #@! TO.N,ROW3*
X164450400Y-122853470D03*
G04 #@! TO.P,D15,2,A*
G04 #@! TO.N,Net-(D15-Pad2)*
X164450400Y-119553470D03*
G04 #@! TD*
D26*
G04 #@! TO.P,D16,1,K*
G04 #@! TO.N,ROW2*
X174103400Y-64153470D03*
G04 #@! TO.P,D16,2,A*
G04 #@! TO.N,Net-(D16-Pad2)*
X177403400Y-64153470D03*
G04 #@! TD*
D27*
G04 #@! TO.P,J2,*
G04 #@! TO.N,*
X117327400Y-44279470D03*
X122927400Y-44279470D03*
D28*
G04 #@! TO.P,J2,1,Pin_1*
G04 #@! TO.N,+5V*
X118627400Y-48154470D03*
G04 #@! TO.P,J2,2,Pin_2*
G04 #@! TO.N,D-*
X119627400Y-48154470D03*
G04 #@! TO.P,J2,3,Pin_3*
G04 #@! TO.N,D+*
X120627400Y-48154470D03*
G04 #@! TO.P,J2,4,Pin_4*
G04 #@! TO.N,GND*
X121627400Y-48154470D03*
G04 #@! TD*
D29*
G04 #@! TO.P,C3,1*
G04 #@! TO.N,+5V*
X141209400Y-57476470D03*
G04 #@! TO.P,C3,2*
G04 #@! TO.N,GND*
X139309400Y-57476470D03*
G04 #@! TD*
D20*
G04 #@! TO.P,R6,1*
G04 #@! TO.N,DT*
X159370400Y-48918470D03*
G04 #@! TO.P,R6,2*
G04 #@! TO.N,+5V*
X159370400Y-47093470D03*
G04 #@! TD*
D21*
G04 #@! TO.P,D14,1,K*
G04 #@! TO.N,ROW1*
X178054435Y-101346400D03*
G04 #@! TO.P,D14,2,A*
G04 #@! TO.N,Net-(D14-Pad2)*
X178054435Y-98046400D03*
G04 #@! TD*
G04 #@! TO.P,D10,1,K*
G04 #@! TO.N,ROW1*
X159004000Y-101346000D03*
G04 #@! TO.P,D10,2,A*
G04 #@! TO.N,Net-(D10-Pad2)*
X159004000Y-98046000D03*
G04 #@! TD*
D30*
G04 #@! TO.P,R1,1*
G04 #@! TO.N,+5V*
X139431400Y-48435970D03*
G04 #@! TO.P,R1,2*
G04 #@! TO.N,RESET*
X139431400Y-50260970D03*
G04 #@! TD*
D31*
G04 #@! TO.P,SW1,1,1*
G04 #@! TO.N,GND*
X127822400Y-50563470D03*
G04 #@! TO.P,SW1,2,2*
G04 #@! TO.N,RESET*
X134022400Y-46863470D03*
G04 #@! TO.P,SW1,3*
G04 #@! TO.N,N/C*
X127822400Y-46863470D03*
G04 #@! TO.P,SW1,4*
X134022400Y-50563470D03*
G04 #@! TD*
D21*
G04 #@! TO.P,D6,1,K*
G04 #@! TO.N,ROW1*
X139954000Y-101346000D03*
G04 #@! TO.P,D6,2,A*
G04 #@! TO.N,Net-(D6-Pad2)*
X139954000Y-98046000D03*
G04 #@! TD*
D22*
G04 #@! TO.P,C1,1*
G04 #@! TO.N,XTAL1*
X154417400Y-49155470D03*
G04 #@! TO.P,C1,2*
G04 #@! TO.N,GND*
X154417400Y-47255470D03*
G04 #@! TD*
D21*
G04 #@! TO.P,D12,1,K*
G04 #@! TO.N,ROW3*
X159004000Y-139446140D03*
G04 #@! TO.P,D12,2,A*
G04 #@! TO.N,Net-(D12-Pad2)*
X159004000Y-136146140D03*
G04 #@! TD*
D32*
G04 #@! TO.P,Y1,1,1*
G04 #@! TO.N,XTAL1*
X151961400Y-49055470D03*
G04 #@! TO.P,Y1,2,2*
G04 #@! TO.N,GND*
X149761400Y-49055470D03*
G04 #@! TO.P,Y1,3,3*
G04 #@! TO.N,XTAL2*
X149761400Y-47355470D03*
G04 #@! TO.P,Y1,4,4*
G04 #@! TO.N,GND*
X151961400Y-47355470D03*
G04 #@! TD*
D33*
G04 #@! TO.P,C2,1*
G04 #@! TO.N,XTAL2*
X147305400Y-47255470D03*
G04 #@! TO.P,C2,2*
G04 #@! TO.N,GND*
X147305400Y-49155470D03*
G04 #@! TD*
D21*
G04 #@! TO.P,D9,1,K*
G04 #@! TO.N,ROW0*
X159004435Y-82296400D03*
G04 #@! TO.P,D9,2,A*
G04 #@! TO.N,Net-(D9-Pad2)*
X159004435Y-78996400D03*
G04 #@! TD*
G04 #@! TO.P,D11,1,K*
G04 #@! TO.N,ROW2*
X159004000Y-120396100D03*
G04 #@! TO.P,D11,2,A*
G04 #@! TO.N,Net-(D11-Pad2)*
X159004000Y-117096100D03*
G04 #@! TD*
G04 #@! TO.P,D5,1,K*
G04 #@! TO.N,ROW0*
X139954335Y-82296400D03*
G04 #@! TO.P,D5,2,A*
G04 #@! TO.N,Net-(D5-Pad2)*
X139954335Y-78996400D03*
G04 #@! TD*
G04 #@! TO.P,D1,1,K*
G04 #@! TO.N,ROW0*
X120904365Y-82296400D03*
G04 #@! TO.P,D1,2,A*
G04 #@! TO.N,Net-(D1-Pad2)*
X120904365Y-78996400D03*
G04 #@! TD*
D29*
G04 #@! TO.P,C6,1*
G04 #@! TO.N,Net-(C6-Pad1)*
X141209400Y-59508470D03*
G04 #@! TO.P,C6,2*
G04 #@! TO.N,GND*
X139309400Y-59508470D03*
G04 #@! TD*
D34*
G04 #@! TO.P,C8,1*
G04 #@! TO.N,+5V*
X157785400Y-66366470D03*
G04 #@! TO.P,C8,2*
G04 #@! TO.N,GND*
X159685400Y-66366470D03*
G04 #@! TD*
D21*
G04 #@! TO.P,D2,1,K*
G04 #@! TO.N,ROW1*
X120904365Y-101346400D03*
G04 #@! TO.P,D2,2,A*
G04 #@! TO.N,Net-(D2-Pad2)*
X120904365Y-98046400D03*
G04 #@! TD*
G04 #@! TO.P,D7,1,K*
G04 #@! TO.N,ROW2*
X139954335Y-120396500D03*
G04 #@! TO.P,D7,2,A*
G04 #@! TO.N,Net-(D7-Pad2)*
X139954335Y-117096500D03*
G04 #@! TD*
D29*
G04 #@! TO.P,C7,1*
G04 #@! TO.N,+5V*
X142987400Y-64334470D03*
G04 #@! TO.P,C7,2*
G04 #@! TO.N,GND*
X141087400Y-64334470D03*
G04 #@! TD*
D20*
G04 #@! TO.P,R5,1*
G04 #@! TO.N,CLK*
X161402400Y-48918470D03*
G04 #@! TO.P,R5,2*
G04 #@! TO.N,+5V*
X161402400Y-47093470D03*
G04 #@! TD*
D29*
G04 #@! TO.P,C5,1*
G04 #@! TO.N,+5V*
X160447400Y-52015470D03*
G04 #@! TO.P,C5,2*
G04 #@! TO.N,GND*
X158547400Y-52015470D03*
G04 #@! TD*
D21*
G04 #@! TO.P,D13,1,K*
G04 #@! TO.N,ROW0*
X178054000Y-82296000D03*
G04 #@! TO.P,D13,2,A*
G04 #@! TO.N,Net-(D13-Pad2)*
X178054000Y-78996000D03*
G04 #@! TD*
D35*
G04 #@! TO.N,+5V*
X145400400Y-64687470D03*
X156703400Y-66973470D03*
X140701400Y-47189470D03*
X142606400Y-58619470D03*
G04 #@! TO.N,OLED2*
X136311645Y-55118715D03*
G04 #@! TO.N,OLED1*
X137018400Y-55825470D03*
G04 #@! TO.N,+5V*
X137653400Y-56686470D03*
X143876400Y-62683470D03*
X160386400Y-55444470D03*
X160386400Y-53793470D03*
X161148400Y-50618470D03*
G04 #@! TO.N,ROW2*
X171943400Y-64080470D03*
X161148400Y-120341470D03*
G04 #@! TO.N,COL1*
X153528400Y-66620470D03*
G04 #@! TO.N,COL2*
X158735400Y-57349470D03*
G04 #@! TO.N,COL3*
X166482400Y-65223470D03*
X160767400Y-58692970D03*
X164069400Y-62048470D03*
G04 #@! TO.N,CLK*
X163307400Y-50364470D03*
X162164400Y-59381470D03*
G04 #@! TO.N,+5V*
X163307400Y-48586470D03*
G04 #@! TD*
D36*
G04 #@! TO.N,ROW0*
X139954335Y-82296400D02*
X159004435Y-82296400D01*
G04 #@! TO.N,ROW3*
X164450400Y-127707470D02*
X164450400Y-122853470D01*
X165847400Y-129104470D02*
X164450400Y-127707470D01*
X165847400Y-139264470D02*
X165847400Y-129104470D01*
X165593400Y-139518470D02*
X165847400Y-139264470D01*
X159076330Y-139518470D02*
X165593400Y-139518470D01*
X159004000Y-139446140D02*
X159076330Y-139518470D01*
X138614330Y-139446540D02*
X120904365Y-139446540D01*
X138614730Y-139446140D02*
X138614330Y-139446540D01*
X139954000Y-139446140D02*
X138614730Y-139446140D01*
X159004000Y-139446140D02*
X139954000Y-139446140D01*
G04 #@! TO.N,ROW2*
X150188400Y-66655470D02*
X150188400Y-64319470D01*
X139861504Y-66655470D02*
X150188400Y-66655470D01*
X137902504Y-64696470D02*
X139861504Y-66655470D01*
X106543296Y-64696470D02*
X137902504Y-64696470D01*
X105757400Y-82236575D02*
X105757400Y-65482366D01*
X105757400Y-65482366D02*
X106543296Y-64696470D01*
X106592400Y-112775470D02*
X106592400Y-83071576D01*
X114158400Y-120341470D02*
X106592400Y-112775470D01*
X121032100Y-120341470D02*
X114158400Y-120341470D01*
X106592400Y-83071576D02*
X105757400Y-82236575D01*
X139954335Y-120396500D02*
X120904365Y-120396500D01*
X157156370Y-120396500D02*
X139954335Y-120396500D01*
X157156770Y-120396100D02*
X157156370Y-120396500D01*
G04 #@! TO.N,ROW1*
X150988400Y-67109470D02*
X150988400Y-64319470D01*
X139673452Y-67109470D02*
X150988400Y-67109470D01*
X137714452Y-65150470D02*
X139673452Y-67109470D01*
X106731348Y-65150470D02*
X137714452Y-65150470D01*
X107046400Y-94814470D02*
X107046400Y-82883523D01*
X107046400Y-82883523D02*
X106211400Y-82048522D01*
X106211400Y-65670418D02*
X106731348Y-65150470D01*
X113650400Y-101418470D02*
X107046400Y-94814470D01*
X106211400Y-82048522D02*
X106211400Y-65670418D01*
X121014160Y-101418470D02*
X113650400Y-101418470D01*
X121086630Y-101346000D02*
X121014160Y-101418470D01*
X139954000Y-101346000D02*
X121086630Y-101346000D01*
X176315930Y-101346000D02*
X159004000Y-101346000D01*
X178054435Y-101346400D02*
X176316330Y-101346400D01*
X176316330Y-101346400D02*
X176315930Y-101346000D01*
X139954000Y-101346000D02*
X159004000Y-101346000D01*
G04 #@! TO.N,ROW0*
X160822730Y-82296000D02*
X178054000Y-82296000D01*
X160822330Y-82296400D02*
X160822730Y-82296000D01*
X159004435Y-82296400D02*
X160822330Y-82296400D01*
X120904365Y-82296400D02*
X139954335Y-82296400D01*
G04 #@! TO.N,+5V*
X143340400Y-64687470D02*
X145400400Y-64687470D01*
X142987400Y-64334470D02*
X143340400Y-64687470D01*
X146973400Y-64334470D02*
X146988400Y-64319470D01*
X142987400Y-64334470D02*
X146973400Y-64334470D01*
X156703400Y-67001470D02*
X156703400Y-66973470D01*
X157785400Y-66427470D02*
X157211400Y-67001470D01*
X157211400Y-67001470D02*
X156703400Y-67001470D01*
X157785400Y-66366470D02*
X157785400Y-66427470D01*
D37*
G04 #@! TO.N,GND*
X128636400Y-61295970D02*
X125882044Y-61295970D01*
X125882044Y-61295970D02*
X122161479Y-57575405D01*
X140955400Y-63073970D02*
X130414400Y-63073970D01*
X140955400Y-63191470D02*
X140955400Y-63073970D01*
X141087400Y-63323470D02*
X140955400Y-63191470D01*
X141087400Y-64334470D02*
X141087400Y-63323470D01*
X130414400Y-63073970D02*
X128636400Y-61295970D01*
X122161479Y-57575405D02*
X108204581Y-57575405D01*
D36*
G04 #@! TO.N,+5V*
X154988400Y-65540470D02*
X154988400Y-64319470D01*
X155814400Y-66366470D02*
X154988400Y-65540470D01*
X157785400Y-66366470D02*
X155814400Y-66366470D01*
D37*
G04 #@! TO.N,GND*
X159685400Y-67448470D02*
X159685400Y-66366470D01*
X159370400Y-67763470D02*
X159685400Y-67448470D01*
X156322400Y-67763470D02*
X154188400Y-65629470D01*
X154188400Y-65629470D02*
X154188400Y-64319470D01*
X159370400Y-67763470D02*
X156322400Y-67763470D01*
X159812400Y-66493470D02*
X159685400Y-66366470D01*
X162037400Y-66493470D02*
X159812400Y-66493470D01*
X162060900Y-66469970D02*
X162037400Y-66493470D01*
X162060900Y-63064470D02*
X162060900Y-66469970D01*
D36*
G04 #@! TO.N,+5V*
X157465400Y-45411470D02*
X140701400Y-45411470D01*
X157465400Y-49856470D02*
X157465400Y-45411470D01*
X157973400Y-50364470D02*
X157465400Y-49856470D01*
X159624400Y-50364470D02*
X157973400Y-50364470D01*
X140701400Y-45411470D02*
X140701400Y-47189470D01*
X160320400Y-51060470D02*
X159624400Y-50364470D01*
X160320400Y-52015470D02*
X160320400Y-51060470D01*
D37*
G04 #@! TO.N,GND*
X151750400Y-46173470D02*
X151961400Y-46384470D01*
X146225900Y-46173470D02*
X151750400Y-46173470D01*
X145146400Y-47252970D02*
X146225900Y-46173470D01*
X145146400Y-47697470D02*
X145146400Y-47252970D01*
X151961400Y-46384470D02*
X151961400Y-47355470D01*
D36*
G04 #@! TO.N,+5V*
X140701400Y-48962470D02*
X142098400Y-50359470D01*
X140701400Y-47189470D02*
X140701400Y-48962470D01*
X141463400Y-57476470D02*
X142606400Y-58619470D01*
X141209400Y-57476470D02*
X141463400Y-57476470D01*
G04 #@! TO.N,OLED2*
X136331890Y-55098470D02*
X136311645Y-55118715D01*
X136717266Y-55098470D02*
X136331890Y-55098470D01*
X140115504Y-55098470D02*
X136717266Y-55098470D01*
X140896504Y-55879470D02*
X140115504Y-55098470D01*
X142413453Y-55879470D02*
X140896504Y-55879470D01*
X143099452Y-56565470D02*
X142413453Y-55879470D01*
X143898400Y-56565470D02*
X143099452Y-56565470D01*
X144244400Y-56219470D02*
X143898400Y-56565470D01*
X145288400Y-56219470D02*
X144244400Y-56219470D01*
G04 #@! TO.N,OLED1*
X142911400Y-57019470D02*
X145288400Y-57019470D01*
X142225400Y-56333470D02*
X142911400Y-57019470D01*
X140708452Y-56333470D02*
X142225400Y-56333470D01*
X140254452Y-55879470D02*
X140708452Y-56333470D01*
X137072400Y-55879470D02*
X140254452Y-55879470D01*
X137018400Y-55825470D02*
X137072400Y-55879470D01*
G04 #@! TO.N,+5V*
X140066400Y-56333470D02*
X141209400Y-57476470D01*
X138006400Y-56333470D02*
X140066400Y-56333470D01*
X137653400Y-56686470D02*
X138006400Y-56333470D01*
X143928400Y-62631470D02*
X143876400Y-62683470D01*
X143928400Y-62175470D02*
X143928400Y-62631470D01*
X146167400Y-61819470D02*
X145288400Y-61819470D01*
X146988400Y-62640470D02*
X146167400Y-61819470D01*
X146988400Y-64319470D02*
X146988400Y-62640470D01*
D37*
G04 #@! TO.N,GND*
X139309400Y-57476470D02*
X139309400Y-59508470D01*
D36*
G04 #@! TO.N,+5V*
X142987400Y-64334470D02*
X142987400Y-62810470D01*
X121651400Y-56333470D02*
X116825400Y-56333470D01*
X126096400Y-60778470D02*
X121651400Y-56333470D01*
X130668400Y-62556470D02*
X128890400Y-60778470D01*
X142733400Y-62556470D02*
X130668400Y-62556470D01*
X128890400Y-60778470D02*
X126096400Y-60778470D01*
X116825400Y-56333470D02*
X115527335Y-55035405D01*
X142987400Y-62810470D02*
X142733400Y-62556470D01*
X115527335Y-55035405D02*
X108204581Y-55035405D01*
D37*
G04 #@! TO.N,GND*
X127822400Y-55646470D02*
X127822400Y-50563470D01*
X129652400Y-57476470D02*
X127822400Y-55646470D01*
X139309400Y-57476470D02*
X129652400Y-57476470D01*
D36*
G04 #@! TO.N,+5V*
X141552400Y-57819470D02*
X145288400Y-57819470D01*
X141209400Y-57476470D02*
X141552400Y-57819470D01*
D37*
G04 #@! TO.N,GND*
X145146400Y-48205470D02*
X145146400Y-47697470D01*
X142098400Y-47570470D02*
X142225400Y-47443470D01*
X142225400Y-47443470D02*
X144892400Y-47443470D01*
X144892400Y-47443470D02*
X145146400Y-47697470D01*
X142098400Y-48459470D02*
X142098400Y-47570470D01*
D36*
G04 #@! TO.N,+5V*
X148588400Y-52198418D02*
X148588400Y-52919470D01*
X147189452Y-50799470D02*
X148588400Y-52198418D01*
X142538400Y-50799470D02*
X147189452Y-50799470D01*
X142098400Y-50359470D02*
X142538400Y-50799470D01*
G04 #@! TO.N,RESET*
X147001400Y-51253470D02*
X147788400Y-52040470D01*
X140320400Y-51253470D02*
X147001400Y-51253470D01*
X139431400Y-50364470D02*
X140320400Y-51253470D01*
X147788400Y-52040470D02*
X147788400Y-52919470D01*
X139431400Y-50260970D02*
X139431400Y-50364470D01*
G04 #@! TO.N,+5V*
X141331400Y-50359470D02*
X142098400Y-50359470D01*
X139431400Y-48459470D02*
X141331400Y-50359470D01*
X139431400Y-48435970D02*
X139431400Y-48459470D01*
G04 #@! TO.N,RESET*
X138184900Y-50260970D02*
X139431400Y-50260970D01*
X136002400Y-48078470D02*
X138184900Y-50260970D01*
X136002400Y-46935470D02*
X136002400Y-48078470D01*
X135930400Y-46863470D02*
X136002400Y-46935470D01*
X134022400Y-46863470D02*
X135930400Y-46863470D01*
G04 #@! TO.N,Net-(C6-Pad1)*
X144317688Y-58619470D02*
X145288400Y-58619470D01*
X143428688Y-59508470D02*
X144317688Y-58619470D01*
X141209400Y-59508470D02*
X143428688Y-59508470D01*
D37*
G04 #@! TO.N,GND*
X139304400Y-60641970D02*
X143027044Y-60641970D01*
X143027044Y-60641970D02*
X144249544Y-59419470D01*
X139304400Y-59513470D02*
X139304400Y-60641970D01*
X144249544Y-59419470D02*
X145288400Y-59419470D01*
X139309400Y-59508470D02*
X139304400Y-59513470D01*
X158420400Y-53473470D02*
X157274400Y-54619470D01*
X158420400Y-52015470D02*
X158420400Y-53473470D01*
X157274400Y-54619470D02*
X156688400Y-54619470D01*
D36*
G04 #@! TO.N,+5V*
X159751400Y-55444470D02*
X159726400Y-55419470D01*
X160386400Y-55444470D02*
X159751400Y-55444470D01*
X159726400Y-55419470D02*
X160107400Y-55419470D01*
X156688400Y-55419470D02*
X159726400Y-55419470D01*
X160320400Y-53727470D02*
X160386400Y-53793470D01*
X160320400Y-52015470D02*
X160320400Y-53727470D01*
X160386400Y-50618470D02*
X160320400Y-50684470D01*
X161148400Y-50618470D02*
X160386400Y-50618470D01*
X160320400Y-50684470D02*
X160320400Y-52015470D01*
D37*
G04 #@! TO.N,GND*
X147636400Y-65477470D02*
X147788400Y-65325470D01*
X147788400Y-65325470D02*
X147788400Y-64319470D01*
X141087400Y-64334470D02*
X142230400Y-65477470D01*
X142230400Y-65477470D02*
X147636400Y-65477470D01*
D36*
G04 #@! TO.N,ROW0*
X107101330Y-82296400D02*
X120904365Y-82296400D01*
X106919400Y-65604470D02*
X106665400Y-65858470D01*
X106665400Y-65858470D02*
X106665400Y-81860470D01*
X139485400Y-67563470D02*
X137526400Y-65604470D01*
X151788400Y-67563470D02*
X139485400Y-67563470D01*
X137526400Y-65604470D02*
X106919400Y-65604470D01*
X106665400Y-81860470D02*
X107101330Y-82296400D01*
X151788400Y-64319470D02*
X151788400Y-67563470D01*
G04 #@! TO.N,COL0*
X113650400Y-66493470D02*
X113650400Y-67400365D01*
X139050400Y-68017470D02*
X137399400Y-66366470D01*
X113650400Y-67400365D02*
X111404365Y-69646400D01*
X152588400Y-68017470D02*
X139050400Y-68017470D01*
X137399400Y-66366470D02*
X113777400Y-66366470D01*
X113777400Y-66366470D02*
X113650400Y-66493470D01*
X152588400Y-64319470D02*
X152588400Y-68017470D01*
G04 #@! TO.N,ROW3*
X149388400Y-66188470D02*
X149388400Y-64319470D01*
X149375400Y-66201470D02*
X149388400Y-66188470D01*
X140049557Y-66201470D02*
X149375400Y-66201470D01*
X105303400Y-82424628D02*
X105303400Y-65294314D01*
X138055557Y-64207470D02*
X140049557Y-66201470D01*
X106138400Y-83259629D02*
X105303400Y-82424628D01*
X106390244Y-64207470D02*
X138055557Y-64207470D01*
X114721470Y-139446540D02*
X106138400Y-130863470D01*
X105303400Y-65294314D02*
X106390244Y-64207470D01*
X120904365Y-139446540D02*
X114721470Y-139446540D01*
X106138400Y-130863470D02*
X106138400Y-83259629D01*
G04 #@! TO.N,Net-(R3-Pad1)*
X131430400Y-61159470D02*
X143241400Y-61159470D01*
X129525400Y-59254470D02*
X131430400Y-61159470D01*
X144181400Y-60219470D02*
X145288400Y-60219470D01*
X121651400Y-53435970D02*
X121651400Y-54174470D01*
X121651400Y-54174470D02*
X126731400Y-59254470D01*
X126731400Y-59254470D02*
X129525400Y-59254470D01*
X143241400Y-61159470D02*
X144181400Y-60219470D01*
G04 #@! TO.N,Net-(R2-Pad1)*
X131176400Y-61667470D02*
X143495400Y-61667470D01*
X143495400Y-61667470D02*
X144143400Y-61019470D01*
X129271400Y-59762470D02*
X131176400Y-61667470D01*
X126477400Y-59762470D02*
X129271400Y-59762470D01*
X144143400Y-61019470D02*
X145288400Y-61019470D01*
X120230900Y-55317470D02*
X122032400Y-55317470D01*
X118349400Y-53435970D02*
X120230900Y-55317470D01*
X122032400Y-55317470D02*
X126477400Y-59762470D01*
G04 #@! TO.N,ROW2*
X172016400Y-64153470D02*
X171943400Y-64080470D01*
X174103400Y-64153470D02*
X172016400Y-64153470D01*
G04 #@! TO.N,Net-(D16-Pad2)*
X177403400Y-58059470D02*
X176907400Y-57563470D01*
X177403400Y-64153470D02*
X177403400Y-58059470D01*
G04 #@! TO.N,XTAL1*
X151961400Y-49055470D02*
X151961400Y-50534470D01*
X154417400Y-49155470D02*
X152061400Y-49155470D01*
X151961400Y-50534470D02*
X150988400Y-51507470D01*
X152061400Y-49155470D02*
X151961400Y-49055470D01*
X150988400Y-51507470D02*
X150988400Y-52919470D01*
D37*
G04 #@! TO.N,GND*
X156688400Y-54619470D02*
X161963400Y-54619470D01*
X153782400Y-60524470D02*
X154188400Y-60930470D01*
X150038400Y-49055470D02*
X151738400Y-47355470D01*
X147305400Y-49155470D02*
X146096400Y-49155470D01*
X149346900Y-50627970D02*
X149388400Y-50669470D01*
X155242400Y-54619470D02*
X156688400Y-54619470D01*
X149388400Y-54758470D02*
X149388400Y-52919470D01*
X147788400Y-64319470D02*
X147788400Y-62835470D01*
X161963400Y-54619470D02*
X162407400Y-55063470D01*
X121627400Y-48154470D02*
X125413400Y-48154470D01*
X155103400Y-54758470D02*
X155242400Y-54619470D01*
X154417400Y-47255470D02*
X152061400Y-47255470D01*
X147788400Y-62835470D02*
X150099400Y-60524470D01*
X149388400Y-54758470D02*
X155103400Y-54758470D01*
X147305400Y-49475470D02*
X148457900Y-50627970D01*
X125413400Y-48154470D02*
X127822400Y-50563470D01*
X154188400Y-60930470D02*
X154188400Y-64319470D01*
X148994400Y-55152470D02*
X149388400Y-54758470D01*
X148457900Y-50627970D02*
X149346900Y-50627970D01*
X149761400Y-49055470D02*
X150038400Y-49055470D01*
X147305400Y-49155470D02*
X147305400Y-49475470D01*
X151738400Y-47355470D02*
X151961400Y-47355470D01*
X149388400Y-50669470D02*
X149388400Y-52919470D01*
X150099400Y-60524470D02*
X153782400Y-60524470D01*
X148994400Y-59419470D02*
X145288400Y-59419470D01*
X152061400Y-47255470D02*
X151961400Y-47355470D01*
X146096400Y-49155470D02*
X145146400Y-48205470D01*
X150099400Y-60524470D02*
X148994400Y-59419470D01*
X148994400Y-59419470D02*
X148994400Y-55152470D01*
D36*
G04 #@! TO.N,XTAL2*
X147305400Y-47255470D02*
X149661400Y-47255470D01*
D37*
X150220400Y-47023470D02*
X150220400Y-47228470D01*
D36*
X148702400Y-48078470D02*
X148702400Y-50110470D01*
X149761400Y-47355470D02*
X149425400Y-47355470D01*
D37*
X150047400Y-47196470D02*
X150220400Y-47023470D01*
D36*
X149425400Y-47355470D02*
X148702400Y-48078470D01*
X150188400Y-50110470D02*
X150188400Y-52919470D01*
X149661400Y-47255470D02*
X149761400Y-47355470D01*
X148702400Y-50110470D02*
X150188400Y-50110470D01*
G04 #@! TO.N,Net-(D1-Pad2)*
X120904365Y-70064435D02*
X119406330Y-68566400D01*
X119406330Y-68566400D02*
X116444365Y-68566400D01*
X120904365Y-78996400D02*
X120904365Y-70064435D01*
G04 #@! TO.N,Net-(D2-Pad2)*
X120904100Y-97863470D02*
X120904100Y-89241170D01*
X119859330Y-88196400D02*
X116404365Y-88196400D01*
X120904100Y-89241170D02*
X119859330Y-88196400D01*
G04 #@! TO.N,ROW2*
X161093770Y-120396100D02*
X161148400Y-120341470D01*
X159004000Y-120396100D02*
X157156770Y-120396100D01*
X159004000Y-120396100D02*
X161093770Y-120396100D01*
G04 #@! TO.N,Net-(D3-Pad2)*
X120904100Y-116913470D02*
X120904100Y-108418170D01*
X120904100Y-108418170D02*
X119732430Y-107246500D01*
X119732430Y-107246500D02*
X116404365Y-107246500D01*
G04 #@! TO.N,Net-(D4-Pad2)*
X120904365Y-127595435D02*
X119605470Y-126296540D01*
X120904365Y-136146540D02*
X120904365Y-127595435D01*
X119605470Y-126296540D02*
X116404365Y-126296540D01*
G04 #@! TO.N,Net-(D5-Pad2)*
X139954335Y-78996400D02*
X139954335Y-70191405D01*
X139954335Y-70191405D02*
X138909330Y-69146400D01*
X138909330Y-69146400D02*
X135454335Y-69146400D01*
G04 #@! TO.N,Net-(D6-Pad2)*
X139163330Y-88196400D02*
X135454335Y-88196400D01*
X139954000Y-88987070D02*
X139163330Y-88196400D01*
X139954000Y-98046000D02*
X139954000Y-88987070D01*
G04 #@! TO.N,Net-(D7-Pad2)*
X139954335Y-117096500D02*
X139954335Y-108418405D01*
X138782430Y-107246500D02*
X135454335Y-107246500D01*
X139954335Y-108418405D02*
X138782430Y-107246500D01*
G04 #@! TO.N,Net-(D8-Pad2)*
X139954000Y-127595070D02*
X138655470Y-126296540D01*
X139954000Y-136146140D02*
X139954000Y-127595070D01*
X138655470Y-126296540D02*
X135454335Y-126296540D01*
G04 #@! TO.N,Net-(D9-Pad2)*
X157959330Y-69146400D02*
X154504435Y-69146400D01*
X159004435Y-70191505D02*
X157959330Y-69146400D01*
X159004435Y-78996400D02*
X159004435Y-70191505D01*
G04 #@! TO.N,Net-(D10-Pad2)*
X159004000Y-98046000D02*
X159004000Y-90511070D01*
X159004000Y-90511070D02*
X156689330Y-88196400D01*
X156689330Y-88196400D02*
X154504435Y-88196400D01*
G04 #@! TO.N,Net-(D11-Pad2)*
X157578430Y-107246500D02*
X154504435Y-107246500D01*
X159004000Y-108672070D02*
X157578430Y-107246500D01*
X159004000Y-117096100D02*
X159004000Y-108672070D01*
G04 #@! TO.N,Net-(D12-Pad2)*
X157633470Y-125716540D02*
X154544435Y-125716540D01*
X159004000Y-127311870D02*
X159116400Y-127199470D01*
X159116400Y-127199470D02*
X157633470Y-125716540D01*
X159004000Y-136146140D02*
X159004000Y-127311870D01*
G04 #@! TO.N,Net-(D13-Pad2)*
X178054000Y-70445070D02*
X176755330Y-69146400D01*
X178054000Y-78996000D02*
X178054000Y-70445070D01*
X176755330Y-69146400D02*
X173554435Y-69146400D01*
G04 #@! TO.N,Net-(D14-Pad2)*
X178054435Y-90130505D02*
X176120330Y-88196400D01*
X178054435Y-98046400D02*
X178054435Y-90130505D01*
X176120330Y-88196400D02*
X173554435Y-88196400D01*
G04 #@! TO.N,Net-(D15-Pad2)*
X169530400Y-128850470D02*
X174737400Y-128850470D01*
X164450400Y-119553470D02*
X167498400Y-122601470D01*
X167498400Y-122601470D02*
X167498400Y-126818470D01*
X174737400Y-128850470D02*
X175624850Y-127963020D01*
X167498400Y-126818470D02*
X169530400Y-128850470D01*
X175624850Y-127963020D02*
X175624850Y-123857470D01*
D38*
G04 #@! TO.N,D+*
X120627400Y-48154470D02*
X120627400Y-50586970D01*
X120627400Y-50586970D02*
X121651400Y-51610970D01*
G04 #@! TO.N,D-*
X119627400Y-50332970D02*
X118349400Y-51610970D01*
X119627400Y-48154470D02*
X119627400Y-50332970D01*
D36*
G04 #@! TO.N,COL1*
X153388400Y-66480470D02*
X153528400Y-66620470D01*
X153388400Y-64319470D02*
X153388400Y-66480470D01*
G04 #@! TO.N,COL2*
X158405400Y-57019470D02*
X158735400Y-57349470D01*
X156688400Y-57019470D02*
X158405400Y-57019470D01*
G04 #@! TO.N,COL3*
X156688400Y-57819470D02*
X157808400Y-57819470D01*
X158681900Y-58692970D02*
X160767400Y-58692970D01*
X166482400Y-65223470D02*
X164069400Y-62810470D01*
X157808400Y-57819470D02*
X158681900Y-58692970D01*
X164069400Y-62810470D02*
X164069400Y-62048470D01*
G04 #@! TO.N,Net-(R4-Pad2)*
X160108900Y-63191470D02*
X160235900Y-63064470D01*
X158354400Y-63191470D02*
X160108900Y-63191470D01*
X156688400Y-62619470D02*
X157782400Y-62619470D01*
X157782400Y-62619470D02*
X158354400Y-63191470D01*
G04 #@! TO.N,CLK*
X156688400Y-59419470D02*
X162126400Y-59419470D01*
X162407400Y-50353470D02*
X162407400Y-52563470D01*
X161402400Y-48918470D02*
X162407400Y-49923470D01*
X162407400Y-50353470D02*
X163296400Y-50353470D01*
X162126400Y-59419470D02*
X162164400Y-59381470D01*
X163296400Y-50353470D02*
X163307400Y-50364470D01*
X162407400Y-49923470D02*
X162407400Y-50353470D01*
G04 #@! TO.N,DT*
X163942400Y-45665470D02*
X164704400Y-46427470D01*
X157973400Y-45665470D02*
X163942400Y-45665470D01*
X164577400Y-57222470D02*
X164577400Y-60143470D01*
X157973400Y-48078470D02*
X157973400Y-45665470D01*
X164386900Y-57031970D02*
X164577400Y-57222470D01*
X164577400Y-60143470D02*
X164501400Y-60219470D01*
X158813400Y-48918470D02*
X157973400Y-48078470D01*
X164386900Y-57031970D02*
X163855400Y-57563470D01*
X164704400Y-56714470D02*
X164386900Y-57031970D01*
X159370400Y-48918470D02*
X158813400Y-48918470D01*
X163855400Y-57563470D02*
X162407400Y-57563470D01*
X164501400Y-60219470D02*
X156688400Y-60219470D01*
X164704400Y-46427470D02*
X164704400Y-56714470D01*
G04 #@! TO.N,+5V*
X126223400Y-60397470D02*
X121778400Y-55952470D01*
X161402400Y-47093470D02*
X159370400Y-47093470D01*
X116952400Y-55952470D02*
X116571400Y-55571470D01*
X116571400Y-55571470D02*
X116571400Y-50210470D01*
X116571400Y-50210470D02*
X118627400Y-48154470D01*
X121778400Y-55952470D02*
X116952400Y-55952470D01*
X130795400Y-62175470D02*
X129017400Y-60397470D01*
X145288400Y-61819470D02*
X144284400Y-61819470D01*
X130795400Y-62175470D02*
X143928400Y-62175470D01*
X144284400Y-61819470D02*
X143928400Y-62175470D01*
X129017400Y-60397470D02*
X126223400Y-60397470D01*
X161402400Y-47093470D02*
X161814400Y-47093470D01*
X161814400Y-47093470D02*
X163307400Y-48586470D01*
G04 #@! TD*
G04 #@! TA.AperFunction,Conductor*
G04 #@! TO.N,GND*
G36*
X154277545Y-65337974D02*
G01*
X154289226Y-65351455D01*
X154326304Y-65400928D01*
X154351152Y-65467434D01*
X154351026Y-65478695D01*
X154350692Y-65480189D01*
X154350926Y-65487636D01*
X154350926Y-65487638D01*
X154352838Y-65548482D01*
X154352900Y-65552439D01*
X154352900Y-65580453D01*
X154353396Y-65584378D01*
X154353396Y-65584379D01*
X154353408Y-65584474D01*
X154354341Y-65596319D01*
X154355735Y-65640675D01*
X154357947Y-65648287D01*
X154361413Y-65660218D01*
X154365423Y-65679582D01*
X154367973Y-65699769D01*
X154370889Y-65707133D01*
X154370890Y-65707138D01*
X154384307Y-65741026D01*
X154388152Y-65752255D01*
X154400531Y-65794863D01*
X154404569Y-65801690D01*
X154404570Y-65801693D01*
X154410888Y-65812376D01*
X154419588Y-65830134D01*
X154424161Y-65841685D01*
X154424165Y-65841691D01*
X154427081Y-65849058D01*
X154431739Y-65855469D01*
X154431740Y-65855471D01*
X154453164Y-65884958D01*
X154459681Y-65894880D01*
X154478226Y-65926238D01*
X154478229Y-65926242D01*
X154482266Y-65933068D01*
X154496650Y-65947452D01*
X154509491Y-65962486D01*
X154521458Y-65978957D01*
X154527566Y-65984010D01*
X154555655Y-66007247D01*
X154564435Y-66015237D01*
X154573573Y-66024375D01*
X154607599Y-66086687D01*
X154602534Y-66157502D01*
X154559987Y-66214338D01*
X154493467Y-66239149D01*
X154484478Y-66239470D01*
X154430220Y-66239470D01*
X154362099Y-66219468D01*
X154321101Y-66176470D01*
X154299175Y-66138492D01*
X154267440Y-66083526D01*
X154205953Y-66015237D01*
X154144075Y-65946515D01*
X154144074Y-65946514D01*
X154139653Y-65941604D01*
X154075839Y-65895240D01*
X154032485Y-65839017D01*
X154023900Y-65793304D01*
X154023900Y-65478390D01*
X154043902Y-65410269D01*
X154049074Y-65402825D01*
X154087574Y-65351455D01*
X154144434Y-65308940D01*
X154215252Y-65303915D01*
X154277545Y-65337974D01*
G37*
G04 #@! TD.AperFunction*
G04 #@! TA.AperFunction,Conductor*
G36*
X178651455Y-45549401D02*
G01*
X178665627Y-45551608D01*
X178675150Y-45553091D01*
X178684054Y-45551927D01*
X178684060Y-45551927D01*
X178690410Y-45551097D01*
X178715730Y-45550355D01*
X178832832Y-45558731D01*
X178884709Y-45562443D01*
X178902493Y-45565000D01*
X179032982Y-45593387D01*
X179092831Y-45606407D01*
X179110073Y-45611469D01*
X179292594Y-45679547D01*
X179308931Y-45687009D01*
X179479895Y-45780363D01*
X179495018Y-45790082D01*
X179650948Y-45906809D01*
X179664533Y-45918581D01*
X179802272Y-46056317D01*
X179814045Y-46069903D01*
X179930773Y-46225829D01*
X179940493Y-46240952D01*
X180033848Y-46411913D01*
X180041316Y-46428265D01*
X180082397Y-46538398D01*
X180109389Y-46610761D01*
X180109391Y-46610767D01*
X180114454Y-46628009D01*
X180136512Y-46729390D01*
X180155866Y-46818347D01*
X180158425Y-46836141D01*
X180169997Y-46997866D01*
X180169219Y-47016602D01*
X180169126Y-47024268D01*
X180167744Y-47033142D01*
X180170831Y-47056744D01*
X180171871Y-47064693D01*
X180172935Y-47081035D01*
X180172935Y-66113470D01*
X180152933Y-66181591D01*
X180099277Y-66228084D01*
X180046935Y-66239470D01*
X167017416Y-66239470D01*
X166949295Y-66219468D01*
X166902802Y-66165812D01*
X166892698Y-66095538D01*
X166922192Y-66030958D01*
X166943355Y-66011534D01*
X166944048Y-66011031D01*
X167021901Y-65954467D01*
X167088309Y-65906219D01*
X167088311Y-65906217D01*
X167093653Y-65902336D01*
X167100042Y-65895240D01*
X167217021Y-65765322D01*
X167217022Y-65765321D01*
X167221440Y-65760414D01*
X167288283Y-65644638D01*
X167313623Y-65600749D01*
X167313624Y-65600748D01*
X167316927Y-65595026D01*
X167375942Y-65413398D01*
X167380889Y-65366336D01*
X167395214Y-65230035D01*
X167395904Y-65223470D01*
X167393369Y-65199355D01*
X167376632Y-65040105D01*
X167376632Y-65040103D01*
X167375942Y-65033542D01*
X167316927Y-64851914D01*
X167221440Y-64686526D01*
X167137180Y-64592945D01*
X167098075Y-64549515D01*
X167098074Y-64549514D01*
X167093653Y-64544604D01*
X166966231Y-64452026D01*
X166944494Y-64436233D01*
X166944493Y-64436232D01*
X166939152Y-64432352D01*
X166933124Y-64429668D01*
X166933122Y-64429667D01*
X166770719Y-64357361D01*
X166770718Y-64357361D01*
X166764688Y-64354676D01*
X166671287Y-64334823D01*
X166584344Y-64316342D01*
X166584339Y-64316342D01*
X166577887Y-64314970D01*
X166524823Y-64314970D01*
X166456702Y-64294968D01*
X166435728Y-64278065D01*
X166238133Y-64080470D01*
X171029896Y-64080470D01*
X171030586Y-64087035D01*
X171048746Y-64259815D01*
X171049858Y-64270398D01*
X171108873Y-64452026D01*
X171204360Y-64617414D01*
X171208778Y-64622321D01*
X171208779Y-64622322D01*
X171262169Y-64681618D01*
X171332147Y-64759336D01*
X171372935Y-64788970D01*
X171475910Y-64863786D01*
X171486648Y-64871588D01*
X171492676Y-64874272D01*
X171492678Y-64874273D01*
X171655081Y-64946579D01*
X171661112Y-64949264D01*
X171738136Y-64965636D01*
X171841456Y-64987598D01*
X171841461Y-64987598D01*
X171847913Y-64988970D01*
X172038887Y-64988970D01*
X172045339Y-64987598D01*
X172045344Y-64987598D01*
X172148664Y-64965636D01*
X172225688Y-64949264D01*
X172231719Y-64946579D01*
X172394122Y-64874273D01*
X172394124Y-64874272D01*
X172400152Y-64871588D01*
X172410891Y-64863786D01*
X172480744Y-64813034D01*
X172547611Y-64789176D01*
X172554805Y-64788970D01*
X173036280Y-64788970D01*
X173104401Y-64808972D01*
X173150894Y-64862628D01*
X173154262Y-64870741D01*
X173189837Y-64965636D01*
X173202785Y-65000175D01*
X173290139Y-65116731D01*
X173406695Y-65204085D01*
X173543084Y-65255215D01*
X173605266Y-65261970D01*
X174601534Y-65261970D01*
X174663716Y-65255215D01*
X174800105Y-65204085D01*
X174916661Y-65116731D01*
X175004015Y-65000175D01*
X175055145Y-64863786D01*
X175061900Y-64801604D01*
X175061900Y-63505336D01*
X175055145Y-63443154D01*
X175004015Y-63306765D01*
X174916661Y-63190209D01*
X174800105Y-63102855D01*
X174663716Y-63051725D01*
X174601534Y-63044970D01*
X173605266Y-63044970D01*
X173543084Y-63051725D01*
X173406695Y-63102855D01*
X173290139Y-63190209D01*
X173202785Y-63306765D01*
X173199633Y-63315173D01*
X173199632Y-63315175D01*
X173154262Y-63436199D01*
X173111621Y-63492964D01*
X173045059Y-63517664D01*
X173036280Y-63517970D01*
X172715527Y-63517970D01*
X172647406Y-63497968D01*
X172621896Y-63476285D01*
X172554653Y-63401604D01*
X172435694Y-63315175D01*
X172405494Y-63293233D01*
X172405493Y-63293232D01*
X172400152Y-63289352D01*
X172394124Y-63286668D01*
X172394122Y-63286667D01*
X172231719Y-63214361D01*
X172231718Y-63214361D01*
X172225688Y-63211676D01*
X172124694Y-63190209D01*
X172045344Y-63173342D01*
X172045339Y-63173342D01*
X172038887Y-63171970D01*
X171847913Y-63171970D01*
X171841461Y-63173342D01*
X171841456Y-63173342D01*
X171762106Y-63190209D01*
X171661112Y-63211676D01*
X171655082Y-63214361D01*
X171655081Y-63214361D01*
X171492678Y-63286667D01*
X171492676Y-63286668D01*
X171486648Y-63289352D01*
X171481307Y-63293232D01*
X171481306Y-63293233D01*
X171451106Y-63315175D01*
X171332147Y-63401604D01*
X171327726Y-63406514D01*
X171327725Y-63406515D01*
X171245381Y-63497968D01*
X171204360Y-63543526D01*
X171168542Y-63605564D01*
X171128015Y-63675760D01*
X171108873Y-63708914D01*
X171049858Y-63890542D01*
X171049168Y-63897103D01*
X171049168Y-63897105D01*
X171035620Y-64026007D01*
X171029896Y-64080470D01*
X166238133Y-64080470D01*
X164852881Y-62695218D01*
X164818855Y-62632906D01*
X164823920Y-62562091D01*
X164832857Y-62543123D01*
X164900623Y-62425749D01*
X164900624Y-62425748D01*
X164903927Y-62420026D01*
X164962942Y-62238398D01*
X164964247Y-62225987D01*
X164982214Y-62055035D01*
X164982904Y-62048470D01*
X164976190Y-61984589D01*
X164963632Y-61865105D01*
X164963632Y-61865103D01*
X164962942Y-61858542D01*
X164915199Y-61711604D01*
X167798900Y-61711604D01*
X167805655Y-61773786D01*
X167856785Y-61910175D01*
X167944139Y-62026731D01*
X168060695Y-62114085D01*
X168197084Y-62165215D01*
X168259266Y-62171970D01*
X171555534Y-62171970D01*
X171617716Y-62165215D01*
X171754105Y-62114085D01*
X171870661Y-62026731D01*
X171958015Y-61910175D01*
X172009145Y-61773786D01*
X172015900Y-61711604D01*
X172015900Y-59615336D01*
X172009145Y-59553154D01*
X171958015Y-59416765D01*
X171870661Y-59300209D01*
X171754105Y-59212855D01*
X171617716Y-59161725D01*
X171555534Y-59154970D01*
X168259266Y-59154970D01*
X168197084Y-59161725D01*
X168060695Y-59212855D01*
X167944139Y-59300209D01*
X167856785Y-59416765D01*
X167805655Y-59553154D01*
X167798900Y-59615336D01*
X167798900Y-61711604D01*
X164915199Y-61711604D01*
X164903927Y-61676914D01*
X164808440Y-61511526D01*
X164731421Y-61425987D01*
X164685075Y-61374515D01*
X164685074Y-61374514D01*
X164680653Y-61369604D01*
X164526152Y-61257352D01*
X164520124Y-61254668D01*
X164520122Y-61254667D01*
X164357719Y-61182361D01*
X164357718Y-61182361D01*
X164351688Y-61179676D01*
X164258287Y-61159823D01*
X164171344Y-61141342D01*
X164171339Y-61141342D01*
X164164887Y-61139970D01*
X163973913Y-61139970D01*
X163967461Y-61141342D01*
X163967456Y-61141342D01*
X163880513Y-61159823D01*
X163787112Y-61179676D01*
X163781082Y-61182361D01*
X163781081Y-61182361D01*
X163618678Y-61254667D01*
X163618676Y-61254668D01*
X163612648Y-61257352D01*
X163458147Y-61369604D01*
X163453726Y-61374514D01*
X163453725Y-61374515D01*
X163407380Y-61425987D01*
X163330360Y-61511526D01*
X163234873Y-61676914D01*
X163175858Y-61858542D01*
X163175168Y-61865103D01*
X163175168Y-61865105D01*
X163162610Y-61984589D01*
X163155896Y-62048470D01*
X163156586Y-62055035D01*
X163156586Y-62055038D01*
X163157878Y-62067333D01*
X163145105Y-62137171D01*
X163096602Y-62189017D01*
X163027769Y-62206410D01*
X162960459Y-62183827D01*
X162930357Y-62152017D01*
X162929880Y-62152395D01*
X162925572Y-62146960D01*
X162925422Y-62146801D01*
X162925335Y-62146661D01*
X162916301Y-62135262D01*
X162801571Y-62020731D01*
X162790160Y-62011719D01*
X162652157Y-61926654D01*
X162638976Y-61920507D01*
X162484690Y-61869332D01*
X162471314Y-61866465D01*
X162376962Y-61856798D01*
X162370545Y-61856470D01*
X162333015Y-61856470D01*
X162317776Y-61860945D01*
X162316571Y-61862335D01*
X162314900Y-61870018D01*
X162314900Y-62792355D01*
X162319375Y-62807594D01*
X162320765Y-62808799D01*
X162328448Y-62810470D01*
X163063284Y-62810470D01*
X163078523Y-62805995D01*
X163079728Y-62804605D01*
X163081399Y-62796922D01*
X163081399Y-62624439D01*
X163101401Y-62556318D01*
X163155057Y-62509825D01*
X163225331Y-62499721D01*
X163289911Y-62529215D01*
X163316518Y-62561439D01*
X163330360Y-62585414D01*
X163334778Y-62590321D01*
X163334779Y-62590322D01*
X163400054Y-62662817D01*
X163430771Y-62726824D01*
X163431561Y-62750193D01*
X163431692Y-62750189D01*
X163433838Y-62818482D01*
X163433900Y-62822439D01*
X163433900Y-62850453D01*
X163434396Y-62854378D01*
X163434396Y-62854379D01*
X163434408Y-62854474D01*
X163435341Y-62866319D01*
X163436735Y-62910675D01*
X163438947Y-62918287D01*
X163442413Y-62930218D01*
X163446423Y-62949582D01*
X163448973Y-62969769D01*
X163451889Y-62977133D01*
X163451890Y-62977138D01*
X163465307Y-63011026D01*
X163469152Y-63022255D01*
X163481531Y-63064863D01*
X163485569Y-63071690D01*
X163485570Y-63071693D01*
X163491888Y-63082376D01*
X163500588Y-63100134D01*
X163505161Y-63111685D01*
X163505165Y-63111691D01*
X163508081Y-63119058D01*
X163512739Y-63125469D01*
X163512740Y-63125471D01*
X163516512Y-63130663D01*
X163533477Y-63154012D01*
X163534164Y-63154958D01*
X163540681Y-63164880D01*
X163559226Y-63196238D01*
X163559229Y-63196242D01*
X163563266Y-63203068D01*
X163577650Y-63217452D01*
X163590491Y-63232486D01*
X163602458Y-63248957D01*
X163608566Y-63254010D01*
X163636655Y-63277247D01*
X163645435Y-63285237D01*
X165535610Y-65175412D01*
X165569636Y-65237724D01*
X165571825Y-65251335D01*
X165573791Y-65270044D01*
X165582979Y-65357458D01*
X165588858Y-65413398D01*
X165647873Y-65595026D01*
X165651176Y-65600748D01*
X165651177Y-65600749D01*
X165676517Y-65644638D01*
X165743360Y-65760414D01*
X165747778Y-65765321D01*
X165747779Y-65765322D01*
X165864758Y-65895240D01*
X165871147Y-65902336D01*
X165876489Y-65906217D01*
X165876491Y-65906219D01*
X165942899Y-65954467D01*
X166020753Y-66011031D01*
X166021445Y-66011534D01*
X166064799Y-66067756D01*
X166070874Y-66138492D01*
X166037743Y-66201284D01*
X165975923Y-66236196D01*
X165947384Y-66239470D01*
X160819399Y-66239470D01*
X160751278Y-66219468D01*
X160704785Y-66165812D01*
X160693399Y-66113470D01*
X160693399Y-65844375D01*
X160693062Y-65837856D01*
X160683143Y-65742264D01*
X160680251Y-65728870D01*
X160628812Y-65574686D01*
X160622639Y-65561508D01*
X160537337Y-65423663D01*
X160528301Y-65412262D01*
X160413571Y-65297731D01*
X160402160Y-65288719D01*
X160264157Y-65203654D01*
X160250976Y-65197507D01*
X160096690Y-65146332D01*
X160083314Y-65143465D01*
X159988962Y-65133798D01*
X159982545Y-65133470D01*
X159957515Y-65133470D01*
X159942276Y-65137945D01*
X159941071Y-65139335D01*
X159939400Y-65147018D01*
X159939400Y-66239470D01*
X159431400Y-66239470D01*
X159431400Y-65151586D01*
X159426925Y-65136347D01*
X159425535Y-65135142D01*
X159417852Y-65133471D01*
X159388305Y-65133471D01*
X159381786Y-65133808D01*
X159286194Y-65143727D01*
X159272800Y-65146619D01*
X159118616Y-65198058D01*
X159105438Y-65204231D01*
X158967593Y-65289533D01*
X158956192Y-65298569D01*
X158841662Y-65413298D01*
X158834606Y-65422232D01*
X158776688Y-65463293D01*
X158705765Y-65466523D01*
X158644354Y-65430896D01*
X158637554Y-65423063D01*
X158633878Y-65417122D01*
X158508703Y-65292165D01*
X158502472Y-65288324D01*
X158364368Y-65203195D01*
X158364366Y-65203194D01*
X158358138Y-65199355D01*
X158275454Y-65171930D01*
X158196789Y-65145838D01*
X158196787Y-65145838D01*
X158190261Y-65143673D01*
X158183425Y-65142973D01*
X158183422Y-65142972D01*
X158140369Y-65138561D01*
X158085800Y-65132970D01*
X157485000Y-65132970D01*
X157481754Y-65133307D01*
X157481750Y-65133307D01*
X157386092Y-65143232D01*
X157386088Y-65143233D01*
X157379234Y-65143944D01*
X157372698Y-65146125D01*
X157372696Y-65146125D01*
X157295350Y-65171930D01*
X157211454Y-65199920D01*
X157061052Y-65292992D01*
X156936095Y-65418167D01*
X156932255Y-65424397D01*
X156932254Y-65424398D01*
X156873272Y-65520085D01*
X156843285Y-65568732D01*
X156820882Y-65636274D01*
X156818108Y-65644638D01*
X156777677Y-65702998D01*
X156712113Y-65730234D01*
X156698515Y-65730970D01*
X156129823Y-65730970D01*
X156061702Y-65710968D01*
X156040728Y-65694065D01*
X155757424Y-65410761D01*
X155723398Y-65348449D01*
X155728537Y-65277438D01*
X155765145Y-65179786D01*
X155771900Y-65117604D01*
X155771900Y-63528970D01*
X155791902Y-63460849D01*
X155845558Y-63414356D01*
X155897900Y-63402970D01*
X157486534Y-63402970D01*
X157548716Y-63396215D01*
X157556116Y-63393441D01*
X157563800Y-63391614D01*
X157564245Y-63393484D01*
X157624812Y-63389055D01*
X157687321Y-63423123D01*
X157849145Y-63584947D01*
X157856722Y-63593273D01*
X157860847Y-63599773D01*
X157866625Y-63605199D01*
X157866626Y-63605200D01*
X157910681Y-63646570D01*
X157913523Y-63649325D01*
X157933306Y-63669108D01*
X157936514Y-63671596D01*
X157945543Y-63679307D01*
X157977894Y-63709687D01*
X157988874Y-63715723D01*
X157995729Y-63719492D01*
X158012253Y-63730346D01*
X158019372Y-63735868D01*
X158028333Y-63742819D01*
X158044072Y-63749630D01*
X158069050Y-63760439D01*
X158079711Y-63765662D01*
X158111647Y-63783219D01*
X158111652Y-63783221D01*
X158118597Y-63787039D01*
X158126271Y-63789009D01*
X158126278Y-63789012D01*
X158138313Y-63792102D01*
X158157018Y-63798506D01*
X158168413Y-63803437D01*
X158175692Y-63806587D01*
X158191369Y-63809070D01*
X158219527Y-63813530D01*
X158231140Y-63815935D01*
X158274118Y-63826970D01*
X158294465Y-63826970D01*
X158314177Y-63828521D01*
X158334279Y-63831705D01*
X158342171Y-63830959D01*
X158378456Y-63827529D01*
X158390314Y-63826970D01*
X159204565Y-63826970D01*
X159272686Y-63846972D01*
X159311708Y-63886666D01*
X159374922Y-63988818D01*
X159500097Y-64113775D01*
X159506327Y-64117615D01*
X159506328Y-64117616D01*
X159643688Y-64202286D01*
X159650662Y-64206585D01*
X159730405Y-64233034D01*
X159812011Y-64260102D01*
X159812013Y-64260102D01*
X159818539Y-64262267D01*
X159825375Y-64262967D01*
X159825378Y-64262968D01*
X159868431Y-64267379D01*
X159923000Y-64272970D01*
X160548800Y-64272970D01*
X160552046Y-64272633D01*
X160552050Y-64272633D01*
X160647708Y-64262708D01*
X160647712Y-64262707D01*
X160654566Y-64261996D01*
X160661102Y-64259815D01*
X160661104Y-64259815D01*
X160793206Y-64215742D01*
X160822346Y-64206020D01*
X160972748Y-64112948D01*
X160998616Y-64087035D01*
X161059538Y-64026007D01*
X161121821Y-63991928D01*
X161192641Y-63996931D01*
X161237729Y-64025852D01*
X161320229Y-64108209D01*
X161331640Y-64117221D01*
X161469643Y-64202286D01*
X161482824Y-64208433D01*
X161637110Y-64259608D01*
X161650486Y-64262475D01*
X161744838Y-64272142D01*
X161751254Y-64272470D01*
X161788785Y-64272470D01*
X161804024Y-64267995D01*
X161805229Y-64266605D01*
X161806900Y-64258922D01*
X161806900Y-64254354D01*
X162314900Y-64254354D01*
X162319375Y-64269593D01*
X162320765Y-64270798D01*
X162328448Y-64272469D01*
X162370495Y-64272469D01*
X162377014Y-64272132D01*
X162472606Y-64262213D01*
X162486000Y-64259321D01*
X162640184Y-64207882D01*
X162653362Y-64201709D01*
X162791207Y-64116407D01*
X162802608Y-64107371D01*
X162917139Y-63992641D01*
X162926151Y-63981230D01*
X163011216Y-63843227D01*
X163017363Y-63830046D01*
X163068538Y-63675760D01*
X163071405Y-63662384D01*
X163081072Y-63568032D01*
X163081400Y-63561616D01*
X163081400Y-63336585D01*
X163076925Y-63321346D01*
X163075535Y-63320141D01*
X163067852Y-63318470D01*
X162333015Y-63318470D01*
X162317776Y-63322945D01*
X162316571Y-63324335D01*
X162314900Y-63332018D01*
X162314900Y-64254354D01*
X161806900Y-64254354D01*
X161806900Y-61874586D01*
X161802425Y-61859347D01*
X161801035Y-61858142D01*
X161793352Y-61856471D01*
X161751305Y-61856471D01*
X161744786Y-61856808D01*
X161649194Y-61866727D01*
X161635800Y-61869619D01*
X161481616Y-61921058D01*
X161468438Y-61927231D01*
X161330593Y-62012533D01*
X161319192Y-62021569D01*
X161237970Y-62102932D01*
X161175687Y-62137011D01*
X161104867Y-62132008D01*
X161059780Y-62103087D01*
X160976888Y-62020340D01*
X160976883Y-62020336D01*
X160971703Y-62015165D01*
X160922100Y-61984589D01*
X160827368Y-61926195D01*
X160827366Y-61926194D01*
X160821138Y-61922355D01*
X160741395Y-61895906D01*
X160659789Y-61868838D01*
X160659787Y-61868838D01*
X160653261Y-61866673D01*
X160646425Y-61865973D01*
X160646422Y-61865972D01*
X160603369Y-61861561D01*
X160548800Y-61855970D01*
X159923000Y-61855970D01*
X159919754Y-61856307D01*
X159919750Y-61856307D01*
X159824092Y-61866232D01*
X159824088Y-61866233D01*
X159817234Y-61866944D01*
X159810698Y-61869125D01*
X159810696Y-61869125D01*
X159794328Y-61874586D01*
X159649454Y-61922920D01*
X159499052Y-62015992D01*
X159374095Y-62141167D01*
X159370255Y-62147397D01*
X159370254Y-62147398D01*
X159334717Y-62205050D01*
X159281285Y-62291732D01*
X159226063Y-62458222D01*
X159226062Y-62458224D01*
X159225630Y-62459527D01*
X159225603Y-62459609D01*
X159225356Y-62459527D01*
X159193222Y-62518798D01*
X159131012Y-62553010D01*
X159103860Y-62555970D01*
X158669823Y-62555970D01*
X158601702Y-62535968D01*
X158580728Y-62519065D01*
X158287650Y-62225987D01*
X158280074Y-62217661D01*
X158275953Y-62211167D01*
X158226134Y-62164384D01*
X158223293Y-62161630D01*
X158203494Y-62141831D01*
X158200369Y-62139407D01*
X158200360Y-62139399D01*
X158200274Y-62139333D01*
X158191249Y-62131625D01*
X158164685Y-62106680D01*
X158158906Y-62101253D01*
X158141069Y-62091447D01*
X158124553Y-62080597D01*
X158108467Y-62068120D01*
X158067734Y-62050494D01*
X158057086Y-62045277D01*
X158018202Y-62023900D01*
X158019020Y-62022411D01*
X157970544Y-61984589D01*
X157946900Y-61911109D01*
X157946900Y-61496336D01*
X157940145Y-61434154D01*
X157942574Y-61433890D01*
X157942574Y-61405050D01*
X157940145Y-61404786D01*
X157946531Y-61346001D01*
X157946900Y-61342604D01*
X157946900Y-60980970D01*
X157966902Y-60912849D01*
X158020558Y-60866356D01*
X158072900Y-60854970D01*
X164422380Y-60854970D01*
X164433614Y-60855500D01*
X164441119Y-60857178D01*
X164509412Y-60855032D01*
X164513369Y-60854970D01*
X164541383Y-60854970D01*
X164545308Y-60854474D01*
X164545309Y-60854474D01*
X164545404Y-60854462D01*
X164557249Y-60853529D01*
X164587070Y-60852592D01*
X164593682Y-60852384D01*
X164593683Y-60852384D01*
X164601605Y-60852135D01*
X164621149Y-60846457D01*
X164640512Y-60842447D01*
X164652840Y-60840890D01*
X164652842Y-60840890D01*
X164660699Y-60839897D01*
X164668063Y-60836981D01*
X164668068Y-60836980D01*
X164701956Y-60823563D01*
X164713185Y-60819718D01*
X164729865Y-60814872D01*
X164755793Y-60807339D01*
X164762620Y-60803301D01*
X164762623Y-60803300D01*
X164773306Y-60796982D01*
X164791064Y-60788282D01*
X164802615Y-60783709D01*
X164802621Y-60783705D01*
X164809988Y-60780789D01*
X164845891Y-60754704D01*
X164855810Y-60748189D01*
X164887168Y-60729644D01*
X164887172Y-60729641D01*
X164893998Y-60725604D01*
X164908382Y-60711220D01*
X164923416Y-60698379D01*
X164933473Y-60691072D01*
X164939887Y-60686412D01*
X164965783Y-60655109D01*
X164980684Y-60640208D01*
X164985703Y-60637023D01*
X165015976Y-60604786D01*
X165032500Y-60587189D01*
X165035255Y-60584347D01*
X165055038Y-60564564D01*
X165057529Y-60561353D01*
X165065238Y-60552326D01*
X165074368Y-60542604D01*
X165095617Y-60519976D01*
X165101749Y-60508822D01*
X165105422Y-60502141D01*
X165116276Y-60485617D01*
X165123891Y-60475800D01*
X165123892Y-60475799D01*
X165128749Y-60469537D01*
X165146369Y-60428820D01*
X165151592Y-60418159D01*
X165169149Y-60386223D01*
X165169151Y-60386218D01*
X165172969Y-60379273D01*
X165174939Y-60371599D01*
X165174942Y-60371592D01*
X165178032Y-60359557D01*
X165184436Y-60340852D01*
X165189367Y-60329457D01*
X165192517Y-60322178D01*
X165199460Y-60278343D01*
X165201867Y-60266721D01*
X165212900Y-60223752D01*
X165212900Y-60203405D01*
X165214451Y-60183694D01*
X165216395Y-60171420D01*
X165217635Y-60163591D01*
X165213459Y-60119414D01*
X165212900Y-60107556D01*
X165212900Y-57563470D01*
X175394235Y-57563470D01*
X175412865Y-57800181D01*
X175414019Y-57804988D01*
X175414020Y-57804994D01*
X175449040Y-57950861D01*
X175468295Y-58031064D01*
X175470188Y-58035635D01*
X175470189Y-58035637D01*
X175552308Y-58233890D01*
X175559160Y-58250433D01*
X175561746Y-58254653D01*
X175680641Y-58448672D01*
X175680645Y-58448678D01*
X175683224Y-58452886D01*
X175837431Y-58633439D01*
X176017984Y-58787646D01*
X176022192Y-58790225D01*
X176022198Y-58790229D01*
X176155930Y-58872180D01*
X176220437Y-58911710D01*
X176225007Y-58913603D01*
X176225011Y-58913605D01*
X176392716Y-58983070D01*
X176439806Y-59002575D01*
X176670689Y-59058005D01*
X176670156Y-59060225D01*
X176725765Y-59086588D01*
X176763291Y-59146856D01*
X176767900Y-59180623D01*
X176767900Y-62996132D01*
X176747898Y-63064253D01*
X176706608Y-63102739D01*
X176706695Y-63102855D01*
X176705620Y-63103660D01*
X176705616Y-63103663D01*
X176590139Y-63190209D01*
X176502785Y-63306765D01*
X176451655Y-63443154D01*
X176444900Y-63505336D01*
X176444900Y-64801604D01*
X176451655Y-64863786D01*
X176502785Y-65000175D01*
X176590139Y-65116731D01*
X176706695Y-65204085D01*
X176843084Y-65255215D01*
X176905266Y-65261970D01*
X177901534Y-65261970D01*
X177963716Y-65255215D01*
X178100105Y-65204085D01*
X178216661Y-65116731D01*
X178304015Y-65000175D01*
X178355145Y-64863786D01*
X178361900Y-64801604D01*
X178361900Y-63505336D01*
X178355145Y-63443154D01*
X178304015Y-63306765D01*
X178216661Y-63190209D01*
X178100105Y-63102855D01*
X178100318Y-63102571D01*
X178054243Y-63056390D01*
X178038900Y-62996132D01*
X178038900Y-58607879D01*
X178058902Y-58539758D01*
X178069089Y-58526049D01*
X178128361Y-58456651D01*
X178128364Y-58456646D01*
X178131576Y-58452886D01*
X178255640Y-58250433D01*
X178262493Y-58233890D01*
X178344611Y-58035637D01*
X178344612Y-58035635D01*
X178346505Y-58031064D01*
X178365760Y-57950861D01*
X178400780Y-57804994D01*
X178400781Y-57804988D01*
X178401935Y-57800181D01*
X178420565Y-57563470D01*
X178401935Y-57326759D01*
X178400249Y-57319734D01*
X178347660Y-57100688D01*
X178346505Y-57095876D01*
X178344611Y-57091303D01*
X178257535Y-56881081D01*
X178257533Y-56881077D01*
X178255640Y-56876507D01*
X178231872Y-56837721D01*
X178134159Y-56678268D01*
X178134155Y-56678262D01*
X178131576Y-56674054D01*
X177977369Y-56493501D01*
X177796816Y-56339294D01*
X177792608Y-56336715D01*
X177792602Y-56336711D01*
X177598583Y-56217816D01*
X177594363Y-56215230D01*
X177589793Y-56213337D01*
X177589789Y-56213335D01*
X177379567Y-56126259D01*
X177379565Y-56126258D01*
X177374994Y-56124365D01*
X177273390Y-56099972D01*
X177148924Y-56070090D01*
X177148918Y-56070089D01*
X177144111Y-56068935D01*
X176907400Y-56050305D01*
X176670689Y-56068935D01*
X176665882Y-56070089D01*
X176665876Y-56070090D01*
X176541410Y-56099972D01*
X176439806Y-56124365D01*
X176435235Y-56126258D01*
X176435233Y-56126259D01*
X176225011Y-56213335D01*
X176225007Y-56213337D01*
X176220437Y-56215230D01*
X176216217Y-56217816D01*
X176022198Y-56336711D01*
X176022192Y-56336715D01*
X176017984Y-56339294D01*
X175837431Y-56493501D01*
X175683224Y-56674054D01*
X175680645Y-56678262D01*
X175680641Y-56678268D01*
X175582928Y-56837721D01*
X175559160Y-56876507D01*
X175557267Y-56881077D01*
X175557265Y-56881081D01*
X175470189Y-57091303D01*
X175468295Y-57095876D01*
X175467140Y-57100688D01*
X175414552Y-57319734D01*
X175412865Y-57326759D01*
X175394235Y-57563470D01*
X165212900Y-57563470D01*
X165212900Y-57301502D01*
X165213430Y-57290263D01*
X165215109Y-57282751D01*
X165212962Y-57214439D01*
X165212900Y-57210482D01*
X165212900Y-57182487D01*
X165212392Y-57178464D01*
X165211459Y-57166617D01*
X165210897Y-57148713D01*
X165226419Y-57084061D01*
X165232421Y-57073143D01*
X165243273Y-57056623D01*
X165255750Y-57040537D01*
X165273376Y-56999804D01*
X165278593Y-56989156D01*
X165287919Y-56972191D01*
X165299969Y-56950273D01*
X165301940Y-56942598D01*
X165301942Y-56942592D01*
X165305031Y-56930559D01*
X165311434Y-56911857D01*
X165319517Y-56893178D01*
X165326460Y-56849343D01*
X165328867Y-56837721D01*
X165333868Y-56818244D01*
X165339900Y-56794752D01*
X165339900Y-56774405D01*
X165341451Y-56754694D01*
X165343395Y-56742420D01*
X165344635Y-56734591D01*
X165340459Y-56690414D01*
X165339900Y-56678556D01*
X165339900Y-52563470D01*
X175394235Y-52563470D01*
X175412865Y-52800181D01*
X175414019Y-52804988D01*
X175414020Y-52804994D01*
X175424711Y-52849524D01*
X175468295Y-53031064D01*
X175470188Y-53035635D01*
X175470189Y-53035637D01*
X175555918Y-53242605D01*
X175559160Y-53250433D01*
X175561746Y-53254653D01*
X175680641Y-53448672D01*
X175680645Y-53448678D01*
X175683224Y-53452886D01*
X175837431Y-53633439D01*
X176017984Y-53787646D01*
X176022192Y-53790225D01*
X176022198Y-53790229D01*
X176200812Y-53899684D01*
X176220437Y-53911710D01*
X176225007Y-53913603D01*
X176225011Y-53913605D01*
X176435233Y-54000681D01*
X176439806Y-54002575D01*
X176495892Y-54016040D01*
X176665876Y-54056850D01*
X176665882Y-54056851D01*
X176670689Y-54058005D01*
X176907400Y-54076635D01*
X177144111Y-54058005D01*
X177148918Y-54056851D01*
X177148924Y-54056850D01*
X177318908Y-54016040D01*
X177374994Y-54002575D01*
X177379567Y-54000681D01*
X177589789Y-53913605D01*
X177589793Y-53913603D01*
X177594363Y-53911710D01*
X177613988Y-53899684D01*
X177792602Y-53790229D01*
X177792608Y-53790225D01*
X177796816Y-53787646D01*
X177977369Y-53633439D01*
X178131576Y-53452886D01*
X178134155Y-53448678D01*
X178134159Y-53448672D01*
X178253054Y-53254653D01*
X178255640Y-53250433D01*
X178258883Y-53242605D01*
X178344611Y-53035637D01*
X178344612Y-53035635D01*
X178346505Y-53031064D01*
X178390089Y-52849524D01*
X178400780Y-52804994D01*
X178400781Y-52804988D01*
X178401935Y-52800181D01*
X178420565Y-52563470D01*
X178401935Y-52326759D01*
X178392531Y-52287585D01*
X178347660Y-52100688D01*
X178346505Y-52095876D01*
X178344611Y-52091303D01*
X178257535Y-51881081D01*
X178257533Y-51881077D01*
X178255640Y-51876507D01*
X178200341Y-51786267D01*
X178134159Y-51678268D01*
X178134155Y-51678262D01*
X178131576Y-51674054D01*
X177977369Y-51493501D01*
X177796816Y-51339294D01*
X177792608Y-51336715D01*
X177792602Y-51336711D01*
X177598583Y-51217816D01*
X177594363Y-51215230D01*
X177589793Y-51213337D01*
X177589789Y-51213335D01*
X177379567Y-51126259D01*
X177379565Y-51126258D01*
X177374994Y-51124365D01*
X177294791Y-51105110D01*
X177148924Y-51070090D01*
X177148918Y-51070089D01*
X177144111Y-51068935D01*
X176907400Y-51050305D01*
X176670689Y-51068935D01*
X176665882Y-51070089D01*
X176665876Y-51070090D01*
X176520009Y-51105110D01*
X176439806Y-51124365D01*
X176435235Y-51126258D01*
X176435233Y-51126259D01*
X176225011Y-51213335D01*
X176225007Y-51213337D01*
X176220437Y-51215230D01*
X176216217Y-51217816D01*
X176022198Y-51336711D01*
X176022192Y-51336715D01*
X176017984Y-51339294D01*
X175837431Y-51493501D01*
X175683224Y-51674054D01*
X175680645Y-51678262D01*
X175680641Y-51678268D01*
X175614459Y-51786267D01*
X175559160Y-51876507D01*
X175557267Y-51881077D01*
X175557265Y-51881081D01*
X175470189Y-52091303D01*
X175468295Y-52095876D01*
X175467140Y-52100688D01*
X175422270Y-52287585D01*
X175412865Y-52326759D01*
X175394235Y-52563470D01*
X165339900Y-52563470D01*
X165339900Y-50511604D01*
X167798900Y-50511604D01*
X167805655Y-50573786D01*
X167856785Y-50710175D01*
X167944139Y-50826731D01*
X168060695Y-50914085D01*
X168197084Y-50965215D01*
X168259266Y-50971970D01*
X171555534Y-50971970D01*
X171617716Y-50965215D01*
X171754105Y-50914085D01*
X171870661Y-50826731D01*
X171958015Y-50710175D01*
X172009145Y-50573786D01*
X172015900Y-50511604D01*
X172015900Y-48415336D01*
X172009145Y-48353154D01*
X171958015Y-48216765D01*
X171870661Y-48100209D01*
X171754105Y-48012855D01*
X171617716Y-47961725D01*
X171555534Y-47954970D01*
X168259266Y-47954970D01*
X168197084Y-47961725D01*
X168060695Y-48012855D01*
X167944139Y-48100209D01*
X167856785Y-48216765D01*
X167805655Y-48353154D01*
X167798900Y-48415336D01*
X167798900Y-50511604D01*
X165339900Y-50511604D01*
X165339900Y-46506502D01*
X165340430Y-46495263D01*
X165342109Y-46487751D01*
X165339962Y-46419439D01*
X165339900Y-46415482D01*
X165339900Y-46387487D01*
X165339392Y-46383464D01*
X165338459Y-46371622D01*
X165338202Y-46363423D01*
X165337065Y-46327265D01*
X165331387Y-46307721D01*
X165327377Y-46288358D01*
X165325820Y-46276030D01*
X165325820Y-46276028D01*
X165324827Y-46268171D01*
X165321911Y-46260807D01*
X165321910Y-46260802D01*
X165308493Y-46226914D01*
X165304648Y-46215685D01*
X165299802Y-46199005D01*
X165292269Y-46173077D01*
X165288230Y-46166247D01*
X165281912Y-46155564D01*
X165273212Y-46137806D01*
X165268639Y-46126255D01*
X165268635Y-46126249D01*
X165265719Y-46118882D01*
X165255524Y-46104849D01*
X165239636Y-46082982D01*
X165233119Y-46073060D01*
X165214574Y-46041702D01*
X165214571Y-46041698D01*
X165210534Y-46034872D01*
X165196150Y-46020488D01*
X165183309Y-46005454D01*
X165176002Y-45995397D01*
X165171342Y-45988983D01*
X165137150Y-45960697D01*
X165128370Y-45952707D01*
X164938658Y-45762995D01*
X164904632Y-45700683D01*
X164909697Y-45629868D01*
X164952244Y-45573032D01*
X165018764Y-45548221D01*
X165027753Y-45547900D01*
X178632067Y-45547900D01*
X178651455Y-45549401D01*
G37*
G04 #@! TD.AperFunction*
G04 #@! TA.AperFunction,Conductor*
G36*
X116161021Y-43567902D02*
G01*
X116207514Y-43621558D01*
X116218900Y-43673900D01*
X116218900Y-45227604D01*
X116225655Y-45289786D01*
X116276785Y-45426175D01*
X116364139Y-45542731D01*
X116480695Y-45630085D01*
X116617084Y-45681215D01*
X116679266Y-45687970D01*
X117975534Y-45687970D01*
X118037716Y-45681215D01*
X118174105Y-45630085D01*
X118290661Y-45542731D01*
X118378015Y-45426175D01*
X118429145Y-45289786D01*
X118435900Y-45227604D01*
X118435900Y-43673900D01*
X118455902Y-43605779D01*
X118509558Y-43559286D01*
X118561900Y-43547900D01*
X121692900Y-43547900D01*
X121761021Y-43567902D01*
X121807514Y-43621558D01*
X121818900Y-43673900D01*
X121818900Y-45227604D01*
X121825655Y-45289786D01*
X121876785Y-45426175D01*
X121964139Y-45542731D01*
X122080695Y-45630085D01*
X122217084Y-45681215D01*
X122279266Y-45687970D01*
X123575534Y-45687970D01*
X123637716Y-45681215D01*
X123774105Y-45630085D01*
X123890661Y-45542731D01*
X123978015Y-45426175D01*
X124029145Y-45289786D01*
X124035900Y-45227604D01*
X124035900Y-43673900D01*
X124055902Y-43605779D01*
X124109558Y-43559286D01*
X124161900Y-43547900D01*
X124389690Y-43547900D01*
X124457811Y-43567902D01*
X124504304Y-43621558D01*
X124515690Y-43673900D01*
X124515690Y-45030777D01*
X124515688Y-45031547D01*
X124515214Y-45109121D01*
X124517681Y-45117752D01*
X124523340Y-45137553D01*
X124526918Y-45154315D01*
X124531110Y-45183587D01*
X124534824Y-45191755D01*
X124534824Y-45191756D01*
X124541738Y-45206962D01*
X124548186Y-45224486D01*
X124555241Y-45249171D01*
X124560033Y-45256765D01*
X124560034Y-45256768D01*
X124571020Y-45274180D01*
X124579159Y-45289263D01*
X124591398Y-45316182D01*
X124597259Y-45322984D01*
X124608160Y-45335635D01*
X124619263Y-45350639D01*
X124632966Y-45372358D01*
X124639691Y-45378297D01*
X124639694Y-45378301D01*
X124655128Y-45391932D01*
X124667172Y-45404124D01*
X124680617Y-45419727D01*
X124680620Y-45419729D01*
X124686477Y-45426527D01*
X124694006Y-45431407D01*
X124694007Y-45431408D01*
X124708025Y-45440494D01*
X124722899Y-45451785D01*
X124735407Y-45462831D01*
X124742141Y-45468778D01*
X124768901Y-45481342D01*
X124783881Y-45489663D01*
X124801173Y-45500871D01*
X124801178Y-45500873D01*
X124808705Y-45505752D01*
X124817298Y-45508322D01*
X124817303Y-45508324D01*
X124833310Y-45513111D01*
X124850754Y-45519772D01*
X124865866Y-45526867D01*
X124865868Y-45526868D01*
X124873990Y-45530681D01*
X124882857Y-45532062D01*
X124882858Y-45532062D01*
X124885543Y-45532480D01*
X124903207Y-45535230D01*
X124919922Y-45539013D01*
X124939656Y-45544915D01*
X124939662Y-45544916D01*
X124948256Y-45547486D01*
X124957227Y-45547541D01*
X124957228Y-45547541D01*
X124967287Y-45547602D01*
X124982696Y-45547696D01*
X124983479Y-45547729D01*
X124984576Y-45547900D01*
X125015567Y-45547900D01*
X125016337Y-45547902D01*
X125089975Y-45548352D01*
X125089976Y-45548352D01*
X125093911Y-45548376D01*
X125095255Y-45547992D01*
X125096600Y-45547900D01*
X139939900Y-45547900D01*
X140008021Y-45567902D01*
X140054514Y-45621558D01*
X140065900Y-45673900D01*
X140065900Y-46489167D01*
X140045898Y-46557288D01*
X140033536Y-46573476D01*
X140022162Y-46586109D01*
X139991674Y-46619970D01*
X139962360Y-46652526D01*
X139910186Y-46742894D01*
X139886433Y-46784036D01*
X139866873Y-46817914D01*
X139807858Y-46999542D01*
X139807168Y-47006103D01*
X139807168Y-47006105D01*
X139797145Y-47101470D01*
X139787896Y-47189470D01*
X139796970Y-47275801D01*
X139784198Y-47345637D01*
X139735696Y-47397484D01*
X139671660Y-47414970D01*
X138931000Y-47414970D01*
X138927754Y-47415307D01*
X138927750Y-47415307D01*
X138832092Y-47425232D01*
X138832088Y-47425233D01*
X138825234Y-47425944D01*
X138818698Y-47428125D01*
X138818696Y-47428125D01*
X138748723Y-47451470D01*
X138657454Y-47481920D01*
X138507052Y-47574992D01*
X138382095Y-47700167D01*
X138378255Y-47706397D01*
X138378254Y-47706398D01*
X138295108Y-47841286D01*
X138289285Y-47850732D01*
X138275370Y-47892686D01*
X138236024Y-48011311D01*
X138233603Y-48018609D01*
X138232903Y-48025445D01*
X138232902Y-48025448D01*
X138231256Y-48041513D01*
X138222900Y-48123070D01*
X138222900Y-48748870D01*
X138223237Y-48752116D01*
X138223237Y-48752120D01*
X138230613Y-48823205D01*
X138233874Y-48854636D01*
X138236055Y-48861172D01*
X138236055Y-48861174D01*
X138262280Y-48939778D01*
X138289850Y-49022416D01*
X138382922Y-49172818D01*
X138461833Y-49251591D01*
X138469509Y-49259254D01*
X138503588Y-49321536D01*
X138498585Y-49392356D01*
X138469666Y-49437442D01*
X138454074Y-49453062D01*
X138391793Y-49487143D01*
X138320972Y-49482142D01*
X138275804Y-49453142D01*
X136674805Y-47852142D01*
X136640779Y-47789830D01*
X136637900Y-47763047D01*
X136637900Y-47014490D01*
X136638429Y-47003261D01*
X136640108Y-46995751D01*
X136637962Y-46927471D01*
X136637900Y-46923514D01*
X136637900Y-46895487D01*
X136637389Y-46891441D01*
X136636457Y-46879606D01*
X136636202Y-46871471D01*
X136635064Y-46835265D01*
X136629387Y-46815724D01*
X136625378Y-46796364D01*
X136623821Y-46784036D01*
X136623820Y-46784033D01*
X136622827Y-46776171D01*
X136619910Y-46768805D01*
X136619909Y-46768799D01*
X136606491Y-46734909D01*
X136602646Y-46723680D01*
X136600447Y-46716111D01*
X136590269Y-46681077D01*
X136586236Y-46674258D01*
X136586234Y-46674253D01*
X136579910Y-46663561D01*
X136571213Y-46645811D01*
X136563719Y-46626882D01*
X136537640Y-46590987D01*
X136531122Y-46581065D01*
X136512570Y-46549694D01*
X136512566Y-46549689D01*
X136508534Y-46542871D01*
X136494147Y-46528484D01*
X136481306Y-46513450D01*
X136474002Y-46503397D01*
X136469342Y-46496983D01*
X136440228Y-46472898D01*
X136426480Y-46459150D01*
X136423953Y-46455167D01*
X136374134Y-46408384D01*
X136371293Y-46405630D01*
X136351494Y-46385831D01*
X136348369Y-46383407D01*
X136348360Y-46383399D01*
X136348274Y-46383333D01*
X136339249Y-46375625D01*
X136326255Y-46363423D01*
X136306906Y-46345253D01*
X136289069Y-46335447D01*
X136272553Y-46324597D01*
X136256467Y-46312120D01*
X136215734Y-46294494D01*
X136205086Y-46289277D01*
X136193458Y-46282885D01*
X136166203Y-46267901D01*
X136158528Y-46265930D01*
X136158522Y-46265928D01*
X136146489Y-46262839D01*
X136127787Y-46256436D01*
X136109108Y-46248353D01*
X136075272Y-46242994D01*
X136065273Y-46241410D01*
X136053660Y-46239005D01*
X136010682Y-46227970D01*
X135990335Y-46227970D01*
X135970624Y-46226419D01*
X135958350Y-46224475D01*
X135950521Y-46223235D01*
X135942629Y-46223981D01*
X135906344Y-46227411D01*
X135894486Y-46227970D01*
X135520776Y-46227970D01*
X135452655Y-46207968D01*
X135406162Y-46154312D01*
X135402794Y-46146200D01*
X135376167Y-46075173D01*
X135373015Y-46066765D01*
X135285661Y-45950209D01*
X135169105Y-45862855D01*
X135032716Y-45811725D01*
X134970534Y-45804970D01*
X133074266Y-45804970D01*
X133012084Y-45811725D01*
X132875695Y-45862855D01*
X132759139Y-45950209D01*
X132671785Y-46066765D01*
X132620655Y-46203154D01*
X132613900Y-46265336D01*
X132613900Y-47461604D01*
X132620655Y-47523786D01*
X132671785Y-47660175D01*
X132759139Y-47776731D01*
X132875695Y-47864085D01*
X133012084Y-47915215D01*
X133074266Y-47921970D01*
X134970534Y-47921970D01*
X135032716Y-47915215D01*
X135120370Y-47882355D01*
X135160703Y-47867235D01*
X135160704Y-47867234D01*
X135169105Y-47864085D01*
X135176287Y-47858703D01*
X135180390Y-47856456D01*
X135249747Y-47841286D01*
X135316295Y-47866022D01*
X135358906Y-47922809D01*
X135366900Y-47966975D01*
X135366900Y-47999450D01*
X135366370Y-48010684D01*
X135364692Y-48018189D01*
X135364941Y-48026108D01*
X135366838Y-48086482D01*
X135366900Y-48090439D01*
X135366900Y-48118453D01*
X135367396Y-48122378D01*
X135367396Y-48122379D01*
X135367408Y-48122474D01*
X135368341Y-48134319D01*
X135369735Y-48178675D01*
X135371947Y-48186287D01*
X135375413Y-48198218D01*
X135379423Y-48217582D01*
X135381973Y-48237769D01*
X135384889Y-48245133D01*
X135384890Y-48245138D01*
X135398307Y-48279026D01*
X135402152Y-48290255D01*
X135406114Y-48303891D01*
X135414531Y-48332863D01*
X135418569Y-48339690D01*
X135418570Y-48339693D01*
X135424888Y-48350376D01*
X135433588Y-48368134D01*
X135438161Y-48379685D01*
X135438165Y-48379691D01*
X135441081Y-48387058D01*
X135445739Y-48393469D01*
X135445740Y-48393471D01*
X135467164Y-48422958D01*
X135473681Y-48432880D01*
X135492226Y-48464238D01*
X135492229Y-48464242D01*
X135496266Y-48471068D01*
X135510650Y-48485452D01*
X135523491Y-48500486D01*
X135535458Y-48516957D01*
X135541566Y-48522010D01*
X135569655Y-48545247D01*
X135578435Y-48553237D01*
X137679650Y-50654453D01*
X137687226Y-50662779D01*
X137691347Y-50669273D01*
X137697122Y-50674696D01*
X137741165Y-50716055D01*
X137744007Y-50718810D01*
X137763806Y-50738609D01*
X137766937Y-50741038D01*
X137766942Y-50741042D01*
X137767028Y-50741109D01*
X137776053Y-50748817D01*
X137802615Y-50773761D01*
X137802619Y-50773764D01*
X137808394Y-50779187D01*
X137815340Y-50783006D01*
X137815345Y-50783009D01*
X137826228Y-50788992D01*
X137842756Y-50799848D01*
X137852571Y-50807462D01*
X137852574Y-50807464D01*
X137858833Y-50812319D01*
X137866103Y-50815465D01*
X137866108Y-50815468D01*
X137899550Y-50829939D01*
X137910211Y-50835162D01*
X137942147Y-50852719D01*
X137942152Y-50852721D01*
X137949097Y-50856539D01*
X137956771Y-50858509D01*
X137956778Y-50858512D01*
X137968813Y-50861602D01*
X137987518Y-50868006D01*
X137994356Y-50870965D01*
X138006192Y-50876087D01*
X138033107Y-50880350D01*
X138050027Y-50883030D01*
X138061640Y-50885435D01*
X138104618Y-50896470D01*
X138124965Y-50896470D01*
X138144677Y-50898021D01*
X138164779Y-50901205D01*
X138172671Y-50900459D01*
X138208956Y-50897029D01*
X138220814Y-50896470D01*
X138250004Y-50896470D01*
X138318125Y-50916472D01*
X138357147Y-50956166D01*
X138382922Y-50997818D01*
X138508097Y-51122775D01*
X138514327Y-51126615D01*
X138514328Y-51126616D01*
X138633718Y-51200209D01*
X138658662Y-51215585D01*
X138705360Y-51231074D01*
X138820011Y-51269102D01*
X138820013Y-51269102D01*
X138826539Y-51271267D01*
X138833375Y-51271967D01*
X138833378Y-51271968D01*
X138876431Y-51276379D01*
X138931000Y-51281970D01*
X139397977Y-51281970D01*
X139466098Y-51301972D01*
X139487072Y-51318875D01*
X139815150Y-51646953D01*
X139822726Y-51655279D01*
X139826847Y-51661773D01*
X139855198Y-51688396D01*
X139876665Y-51708555D01*
X139879507Y-51711310D01*
X139899306Y-51731109D01*
X139902431Y-51733533D01*
X139902440Y-51733541D01*
X139902526Y-51733607D01*
X139911551Y-51741315D01*
X139943894Y-51771687D01*
X139961693Y-51781472D01*
X139961729Y-51781492D01*
X139978247Y-51792343D01*
X139994333Y-51804820D01*
X140035066Y-51822446D01*
X140045714Y-51827663D01*
X140084597Y-51849039D01*
X140092272Y-51851010D01*
X140092278Y-51851012D01*
X140104311Y-51854101D01*
X140123013Y-51860504D01*
X140141692Y-51868587D01*
X140175528Y-51873946D01*
X140185527Y-51875530D01*
X140197140Y-51877935D01*
X140240118Y-51888970D01*
X140260465Y-51888970D01*
X140280177Y-51890521D01*
X140300279Y-51893705D01*
X140308171Y-51892959D01*
X140344456Y-51889529D01*
X140356314Y-51888970D01*
X146093662Y-51888970D01*
X146161783Y-51908972D01*
X146208276Y-51962628D01*
X146218380Y-52032902D01*
X146216245Y-52044116D01*
X146214429Y-52051754D01*
X146211655Y-52059154D01*
X146204900Y-52121336D01*
X146204900Y-53709970D01*
X146184898Y-53778091D01*
X146131242Y-53824584D01*
X146078900Y-53835970D01*
X144490266Y-53835970D01*
X144428084Y-53842725D01*
X144291695Y-53893855D01*
X144175139Y-53981209D01*
X144087785Y-54097765D01*
X144036655Y-54234154D01*
X144029900Y-54296336D01*
X144029900Y-54942604D01*
X144030269Y-54946001D01*
X144036655Y-55004786D01*
X144034226Y-55005050D01*
X144034226Y-55033890D01*
X144036655Y-55034154D01*
X144029900Y-55096336D01*
X144029900Y-55535269D01*
X144009898Y-55603390D01*
X143950283Y-55652421D01*
X143943185Y-55655231D01*
X143943179Y-55655235D01*
X143935812Y-55658151D01*
X143929401Y-55662809D01*
X143929399Y-55662810D01*
X143899912Y-55684234D01*
X143889990Y-55690751D01*
X143858632Y-55709296D01*
X143858628Y-55709299D01*
X143851802Y-55713336D01*
X143837418Y-55727720D01*
X143822384Y-55740561D01*
X143805913Y-55752528D01*
X143800860Y-55758636D01*
X143777628Y-55786719D01*
X143769638Y-55795500D01*
X143672071Y-55893066D01*
X143609759Y-55927091D01*
X143582976Y-55929970D01*
X143414875Y-55929970D01*
X143346754Y-55909968D01*
X143325780Y-55893065D01*
X142918708Y-55485993D01*
X142911131Y-55477667D01*
X142907006Y-55471167D01*
X142878577Y-55444470D01*
X142857172Y-55424370D01*
X142854330Y-55421615D01*
X142834547Y-55401832D01*
X142831336Y-55399341D01*
X142822309Y-55391632D01*
X142795739Y-55366681D01*
X142789959Y-55361253D01*
X142778805Y-55355121D01*
X142772124Y-55351448D01*
X142755600Y-55340594D01*
X142745783Y-55332979D01*
X142745782Y-55332978D01*
X142739520Y-55328121D01*
X142698804Y-55310501D01*
X142688142Y-55305278D01*
X142656206Y-55287721D01*
X142656201Y-55287719D01*
X142649256Y-55283901D01*
X142641582Y-55281931D01*
X142641575Y-55281928D01*
X142629540Y-55278838D01*
X142610835Y-55272434D01*
X142599440Y-55267503D01*
X142592161Y-55264353D01*
X142565111Y-55260069D01*
X142548326Y-55257410D01*
X142536713Y-55255005D01*
X142493735Y-55243970D01*
X142473388Y-55243970D01*
X142453677Y-55242419D01*
X142441403Y-55240475D01*
X142433574Y-55239235D01*
X142425682Y-55239981D01*
X142389397Y-55243411D01*
X142377539Y-55243970D01*
X141211927Y-55243970D01*
X141143806Y-55223968D01*
X141122831Y-55207065D01*
X140620749Y-54704982D01*
X140613179Y-54696663D01*
X140609057Y-54690167D01*
X140559238Y-54643384D01*
X140556397Y-54640630D01*
X140536598Y-54620831D01*
X140533473Y-54618407D01*
X140533464Y-54618399D01*
X140533378Y-54618333D01*
X140524353Y-54610625D01*
X140500757Y-54588467D01*
X140492010Y-54580253D01*
X140474173Y-54570447D01*
X140457657Y-54559597D01*
X140441571Y-54547120D01*
X140400838Y-54529494D01*
X140390190Y-54524277D01*
X140377015Y-54517034D01*
X140351307Y-54502901D01*
X140343632Y-54500930D01*
X140343626Y-54500928D01*
X140331593Y-54497839D01*
X140312891Y-54491436D01*
X140294212Y-54483353D01*
X140260376Y-54477994D01*
X140250377Y-54476410D01*
X140238764Y-54474005D01*
X140195786Y-54462970D01*
X140175439Y-54462970D01*
X140155728Y-54461419D01*
X140143454Y-54459475D01*
X140135625Y-54458235D01*
X140127733Y-54458981D01*
X140091448Y-54462411D01*
X140079590Y-54462970D01*
X136995661Y-54462970D01*
X136927540Y-54442968D01*
X136921600Y-54438906D01*
X136920165Y-54437863D01*
X136858263Y-54392889D01*
X136773739Y-54331478D01*
X136773738Y-54331477D01*
X136768397Y-54327597D01*
X136762369Y-54324913D01*
X136762367Y-54324912D01*
X136599964Y-54252606D01*
X136599963Y-54252606D01*
X136593933Y-54249921D01*
X136500532Y-54230068D01*
X136413589Y-54211587D01*
X136413584Y-54211587D01*
X136407132Y-54210215D01*
X136216158Y-54210215D01*
X136209706Y-54211587D01*
X136209701Y-54211587D01*
X136122758Y-54230068D01*
X136029357Y-54249921D01*
X136023327Y-54252606D01*
X136023326Y-54252606D01*
X135860923Y-54324912D01*
X135860921Y-54324913D01*
X135854893Y-54327597D01*
X135849552Y-54331477D01*
X135849551Y-54331478D01*
X135806724Y-54362594D01*
X135700392Y-54439849D01*
X135695971Y-54444759D01*
X135695970Y-54444760D01*
X135585844Y-54567068D01*
X135572605Y-54581771D01*
X135553270Y-54615260D01*
X135500429Y-54706784D01*
X135477118Y-54747159D01*
X135418103Y-54928787D01*
X135417413Y-54935348D01*
X135417413Y-54935350D01*
X135409856Y-55007256D01*
X135398141Y-55118715D01*
X135398831Y-55125280D01*
X135415503Y-55283901D01*
X135418103Y-55308643D01*
X135477118Y-55490271D01*
X135572605Y-55655659D01*
X135577023Y-55660566D01*
X135577024Y-55660567D01*
X135653618Y-55745633D01*
X135700392Y-55797581D01*
X135854893Y-55909833D01*
X135860921Y-55912517D01*
X135860923Y-55912518D01*
X136015667Y-55981414D01*
X136029357Y-55987509D01*
X136035818Y-55988882D01*
X136035820Y-55988883D01*
X136051055Y-55992122D01*
X136113528Y-56025851D01*
X136144689Y-56076431D01*
X136183873Y-56197026D01*
X136279360Y-56362414D01*
X136283778Y-56367321D01*
X136283779Y-56367322D01*
X136334723Y-56423901D01*
X136407147Y-56504336D01*
X136561648Y-56616588D01*
X136567676Y-56619272D01*
X136567678Y-56619273D01*
X136674484Y-56666826D01*
X136728580Y-56712806D01*
X136748545Y-56768762D01*
X136759858Y-56876398D01*
X136761898Y-56882675D01*
X136761898Y-56882677D01*
X136763617Y-56887968D01*
X136818873Y-57058026D01*
X136822176Y-57063748D01*
X136822177Y-57063749D01*
X136840726Y-57095876D01*
X136914360Y-57223414D01*
X136918778Y-57228321D01*
X136918779Y-57228322D01*
X137007412Y-57326759D01*
X137042147Y-57365336D01*
X137196648Y-57477588D01*
X137202676Y-57480272D01*
X137202678Y-57480273D01*
X137335476Y-57539398D01*
X137371112Y-57555264D01*
X137464513Y-57575117D01*
X137551456Y-57593598D01*
X137551461Y-57593598D01*
X137557913Y-57594970D01*
X137748887Y-57594970D01*
X137755339Y-57593598D01*
X137755344Y-57593598D01*
X137842287Y-57575117D01*
X137935688Y-57555264D01*
X137941719Y-57552579D01*
X138104120Y-57480274D01*
X138104123Y-57480272D01*
X138110152Y-57477588D01*
X138113352Y-57475263D01*
X138181391Y-57458754D01*
X138248483Y-57481973D01*
X138292373Y-57537778D01*
X138301400Y-57584612D01*
X138301401Y-57998565D01*
X138301738Y-58005084D01*
X138311657Y-58100676D01*
X138314549Y-58114070D01*
X138365988Y-58268254D01*
X138372161Y-58281432D01*
X138461317Y-58425505D01*
X138458686Y-58427133D01*
X138480096Y-58480052D01*
X138466915Y-58549814D01*
X138460192Y-58560295D01*
X138460490Y-58560479D01*
X138371584Y-58704713D01*
X138365437Y-58717894D01*
X138314262Y-58872180D01*
X138311395Y-58885556D01*
X138301728Y-58979908D01*
X138301400Y-58986324D01*
X138301400Y-59236355D01*
X138305875Y-59251594D01*
X138307265Y-59252799D01*
X138314948Y-59254470D01*
X139037285Y-59254470D01*
X139052524Y-59249995D01*
X139053729Y-59248605D01*
X139055400Y-59240922D01*
X139055400Y-57348470D01*
X139075402Y-57280349D01*
X139129058Y-57233856D01*
X139181400Y-57222470D01*
X139437400Y-57222470D01*
X139505521Y-57242472D01*
X139552014Y-57296128D01*
X139563400Y-57348470D01*
X139563400Y-59636470D01*
X139543398Y-59704591D01*
X139489742Y-59751084D01*
X139437400Y-59762470D01*
X138319516Y-59762470D01*
X138304277Y-59766945D01*
X138303072Y-59768335D01*
X138301401Y-59776018D01*
X138301401Y-60030565D01*
X138301738Y-60037084D01*
X138311657Y-60132676D01*
X138314549Y-60146070D01*
X138365988Y-60300254D01*
X138372160Y-60313430D01*
X138383445Y-60331665D01*
X138402284Y-60400117D01*
X138381124Y-60467887D01*
X138326684Y-60513459D01*
X138276302Y-60523970D01*
X131745822Y-60523970D01*
X131677701Y-60503968D01*
X131656727Y-60487065D01*
X130846009Y-59676346D01*
X130030650Y-58860987D01*
X130023074Y-58852661D01*
X130018953Y-58846167D01*
X129969134Y-58799384D01*
X129966293Y-58796630D01*
X129946494Y-58776831D01*
X129943369Y-58774407D01*
X129943360Y-58774399D01*
X129943274Y-58774333D01*
X129934249Y-58766625D01*
X129907685Y-58741680D01*
X129901906Y-58736253D01*
X129884069Y-58726447D01*
X129867553Y-58715597D01*
X129851467Y-58703120D01*
X129810734Y-58685494D01*
X129800086Y-58680277D01*
X129788458Y-58673885D01*
X129761203Y-58658901D01*
X129753528Y-58656930D01*
X129753522Y-58656928D01*
X129741489Y-58653839D01*
X129722787Y-58647436D01*
X129704108Y-58639353D01*
X129666769Y-58633439D01*
X129660273Y-58632410D01*
X129648660Y-58630005D01*
X129605682Y-58618970D01*
X129585335Y-58618970D01*
X129565624Y-58617419D01*
X129553350Y-58615475D01*
X129545521Y-58614235D01*
X129537629Y-58614981D01*
X129501344Y-58618411D01*
X129489486Y-58618970D01*
X127046822Y-58618970D01*
X126978701Y-58598968D01*
X126957727Y-58582065D01*
X122711711Y-54336048D01*
X122677685Y-54273736D01*
X122682750Y-54202920D01*
X122699743Y-54172736D01*
X122700705Y-54171773D01*
X122766389Y-54065215D01*
X122789675Y-54027438D01*
X122789676Y-54027436D01*
X122793515Y-54021208D01*
X122830691Y-53909124D01*
X122847032Y-53859859D01*
X122847032Y-53859857D01*
X122849197Y-53853331D01*
X122850000Y-53845499D01*
X122855330Y-53793470D01*
X122859900Y-53748870D01*
X122859900Y-53123070D01*
X122858546Y-53110021D01*
X122849638Y-53024162D01*
X122849637Y-53024158D01*
X122848926Y-53017304D01*
X122840572Y-52992262D01*
X122795268Y-52856472D01*
X122792950Y-52849524D01*
X122699878Y-52699122D01*
X122613291Y-52612686D01*
X122579212Y-52550404D01*
X122584215Y-52479584D01*
X122613136Y-52434495D01*
X122695534Y-52351953D01*
X122700705Y-52346773D01*
X122704546Y-52340542D01*
X122789675Y-52202438D01*
X122789676Y-52202436D01*
X122793515Y-52196208D01*
X122825197Y-52100688D01*
X122847032Y-52034859D01*
X122847032Y-52034857D01*
X122849197Y-52028331D01*
X122859900Y-51923870D01*
X122859900Y-51298070D01*
X122859563Y-51294820D01*
X122849638Y-51199162D01*
X122849637Y-51199158D01*
X122848926Y-51192304D01*
X122846404Y-51184743D01*
X122837528Y-51158139D01*
X126414401Y-51158139D01*
X126414771Y-51164960D01*
X126420295Y-51215822D01*
X126423921Y-51231074D01*
X126469076Y-51351524D01*
X126477614Y-51367119D01*
X126554115Y-51469194D01*
X126566676Y-51481755D01*
X126668751Y-51558256D01*
X126684346Y-51566794D01*
X126804794Y-51611948D01*
X126820049Y-51615575D01*
X126870914Y-51621101D01*
X126877728Y-51621470D01*
X127550285Y-51621470D01*
X127565524Y-51616995D01*
X127566729Y-51615605D01*
X127568400Y-51607922D01*
X127568400Y-51603354D01*
X128076400Y-51603354D01*
X128080875Y-51618593D01*
X128082265Y-51619798D01*
X128089948Y-51621469D01*
X128767069Y-51621469D01*
X128773890Y-51621099D01*
X128824752Y-51615575D01*
X128840004Y-51611949D01*
X128960454Y-51566794D01*
X128976049Y-51558256D01*
X129078124Y-51481755D01*
X129090685Y-51469194D01*
X129167186Y-51367119D01*
X129175724Y-51351524D01*
X129220878Y-51231076D01*
X129224505Y-51215821D01*
X129230031Y-51164956D01*
X129230213Y-51161604D01*
X132613900Y-51161604D01*
X132620655Y-51223786D01*
X132671785Y-51360175D01*
X132759139Y-51476731D01*
X132875695Y-51564085D01*
X133012084Y-51615215D01*
X133074266Y-51621970D01*
X134970534Y-51621970D01*
X135032716Y-51615215D01*
X135169105Y-51564085D01*
X135285661Y-51476731D01*
X135373015Y-51360175D01*
X135424145Y-51223786D01*
X135430900Y-51161604D01*
X135430900Y-49965336D01*
X135424145Y-49903154D01*
X135373015Y-49766765D01*
X135285661Y-49650209D01*
X135169105Y-49562855D01*
X135032716Y-49511725D01*
X134970534Y-49504970D01*
X133074266Y-49504970D01*
X133012084Y-49511725D01*
X132875695Y-49562855D01*
X132759139Y-49650209D01*
X132671785Y-49766765D01*
X132620655Y-49903154D01*
X132613900Y-49965336D01*
X132613900Y-51161604D01*
X129230213Y-51161604D01*
X129230400Y-51158142D01*
X129230400Y-50835585D01*
X129225925Y-50820346D01*
X129224535Y-50819141D01*
X129216852Y-50817470D01*
X128094515Y-50817470D01*
X128079276Y-50821945D01*
X128078071Y-50823335D01*
X128076400Y-50831018D01*
X128076400Y-51603354D01*
X127568400Y-51603354D01*
X127568400Y-50835585D01*
X127563925Y-50820346D01*
X127562535Y-50819141D01*
X127554852Y-50817470D01*
X126432516Y-50817470D01*
X126417277Y-50821945D01*
X126416072Y-50823335D01*
X126414401Y-50831018D01*
X126414401Y-51158139D01*
X122837528Y-51158139D01*
X122795268Y-51031472D01*
X122792950Y-51024524D01*
X122699878Y-50874122D01*
X122670301Y-50844596D01*
X122579883Y-50754336D01*
X122574703Y-50749165D01*
X122545187Y-50730971D01*
X122430368Y-50660195D01*
X122430366Y-50660194D01*
X122424138Y-50656355D01*
X122308410Y-50617970D01*
X122262789Y-50602838D01*
X122262787Y-50602838D01*
X122256261Y-50600673D01*
X122249425Y-50599973D01*
X122249422Y-50599972D01*
X122195085Y-50594405D01*
X122151800Y-50589970D01*
X121543139Y-50589970D01*
X121475018Y-50569968D01*
X121454044Y-50553065D01*
X121272805Y-50371826D01*
X121238779Y-50309514D01*
X121236827Y-50291355D01*
X126414400Y-50291355D01*
X126418875Y-50306594D01*
X126420265Y-50307799D01*
X126427948Y-50309470D01*
X127550285Y-50309470D01*
X127565524Y-50304995D01*
X127566729Y-50303605D01*
X127568400Y-50295922D01*
X127568400Y-50291355D01*
X128076400Y-50291355D01*
X128080875Y-50306594D01*
X128082265Y-50307799D01*
X128089948Y-50309470D01*
X129212284Y-50309470D01*
X129227523Y-50304995D01*
X129228728Y-50303605D01*
X129230399Y-50295922D01*
X129230399Y-49968801D01*
X129230029Y-49961980D01*
X129224505Y-49911118D01*
X129220879Y-49895866D01*
X129175724Y-49775416D01*
X129167186Y-49759821D01*
X129090685Y-49657746D01*
X129078124Y-49645185D01*
X128976049Y-49568684D01*
X128960454Y-49560146D01*
X128840006Y-49514992D01*
X128824751Y-49511365D01*
X128773886Y-49505839D01*
X128767072Y-49505470D01*
X128094515Y-49505470D01*
X128079276Y-49509945D01*
X128078071Y-49511335D01*
X128076400Y-49519018D01*
X128076400Y-50291355D01*
X127568400Y-50291355D01*
X127568400Y-49523586D01*
X127563925Y-49508347D01*
X127562535Y-49507142D01*
X127554852Y-49505471D01*
X126877731Y-49505471D01*
X126870910Y-49505841D01*
X126820048Y-49511365D01*
X126804796Y-49514991D01*
X126684346Y-49560146D01*
X126668751Y-49568684D01*
X126566676Y-49645185D01*
X126554115Y-49657746D01*
X126477614Y-49759821D01*
X126469076Y-49775416D01*
X126423922Y-49895864D01*
X126420295Y-49911119D01*
X126414769Y-49961984D01*
X126414400Y-49968798D01*
X126414400Y-50291355D01*
X121236827Y-50291355D01*
X121235900Y-50282731D01*
X121235900Y-49563470D01*
X121255902Y-49495349D01*
X121309558Y-49448856D01*
X121337934Y-49442683D01*
X121337902Y-49442574D01*
X121370524Y-49432995D01*
X121371729Y-49431605D01*
X121373400Y-49423922D01*
X121373400Y-49419354D01*
X121881400Y-49419354D01*
X121885875Y-49434593D01*
X121887265Y-49435798D01*
X121894948Y-49437469D01*
X121972069Y-49437469D01*
X121978890Y-49437099D01*
X122029752Y-49431575D01*
X122045004Y-49427949D01*
X122165454Y-49382794D01*
X122181049Y-49374256D01*
X122283124Y-49297755D01*
X122295685Y-49285194D01*
X122372186Y-49183119D01*
X122380724Y-49167524D01*
X122425878Y-49047076D01*
X122429505Y-49031821D01*
X122435031Y-48980956D01*
X122435400Y-48974142D01*
X122435400Y-48426585D01*
X122430925Y-48411346D01*
X122429535Y-48410141D01*
X122421852Y-48408470D01*
X121899515Y-48408470D01*
X121884276Y-48412945D01*
X121883071Y-48414335D01*
X121881400Y-48422018D01*
X121881400Y-49419354D01*
X121373400Y-49419354D01*
X121373400Y-49211328D01*
X121381418Y-49167099D01*
X121426371Y-49047188D01*
X121426373Y-49047182D01*
X121429145Y-49039786D01*
X121435900Y-48977604D01*
X121435900Y-47882355D01*
X121881400Y-47882355D01*
X121885875Y-47897594D01*
X121887265Y-47898799D01*
X121894948Y-47900470D01*
X122417284Y-47900470D01*
X122432523Y-47895995D01*
X122433728Y-47894605D01*
X122435399Y-47886922D01*
X122435399Y-47461604D01*
X126413900Y-47461604D01*
X126420655Y-47523786D01*
X126471785Y-47660175D01*
X126559139Y-47776731D01*
X126675695Y-47864085D01*
X126812084Y-47915215D01*
X126874266Y-47921970D01*
X128770534Y-47921970D01*
X128832716Y-47915215D01*
X128969105Y-47864085D01*
X129085661Y-47776731D01*
X129173015Y-47660175D01*
X129224145Y-47523786D01*
X129230900Y-47461604D01*
X129230900Y-46265336D01*
X129224145Y-46203154D01*
X129173015Y-46066765D01*
X129085661Y-45950209D01*
X128969105Y-45862855D01*
X128832716Y-45811725D01*
X128770534Y-45804970D01*
X126874266Y-45804970D01*
X126812084Y-45811725D01*
X126675695Y-45862855D01*
X126559139Y-45950209D01*
X126471785Y-46066765D01*
X126420655Y-46203154D01*
X126413900Y-46265336D01*
X126413900Y-47461604D01*
X122435399Y-47461604D01*
X122435399Y-47334801D01*
X122435029Y-47327980D01*
X122429505Y-47277118D01*
X122425879Y-47261866D01*
X122380724Y-47141416D01*
X122372186Y-47125821D01*
X122295685Y-47023746D01*
X122283124Y-47011185D01*
X122181049Y-46934684D01*
X122165454Y-46926146D01*
X122045006Y-46880992D01*
X122029751Y-46877365D01*
X121978886Y-46871839D01*
X121972072Y-46871470D01*
X121899515Y-46871470D01*
X121884276Y-46875945D01*
X121883071Y-46877335D01*
X121881400Y-46885018D01*
X121881400Y-47882355D01*
X121435900Y-47882355D01*
X121435900Y-47331336D01*
X121429145Y-47269154D01*
X121426373Y-47261758D01*
X121426371Y-47261752D01*
X121381418Y-47141841D01*
X121373400Y-47097612D01*
X121373400Y-46889586D01*
X121368925Y-46874347D01*
X121367535Y-46873142D01*
X121359852Y-46871471D01*
X121282731Y-46871471D01*
X121275910Y-46871841D01*
X121225048Y-46877365D01*
X121209796Y-46880991D01*
X121172342Y-46895032D01*
X121101535Y-46900215D01*
X121083882Y-46895032D01*
X121057170Y-46885018D01*
X121037716Y-46877725D01*
X120975534Y-46870970D01*
X120279266Y-46870970D01*
X120275869Y-46871339D01*
X120224934Y-46876872D01*
X120224932Y-46876872D01*
X120217084Y-46877725D01*
X120209691Y-46880497D01*
X120209689Y-46880497D01*
X120171629Y-46894765D01*
X120100822Y-46899948D01*
X120083171Y-46894765D01*
X120045111Y-46880497D01*
X120045109Y-46880497D01*
X120037716Y-46877725D01*
X120029868Y-46876872D01*
X120029866Y-46876872D01*
X119978931Y-46871339D01*
X119975534Y-46870970D01*
X119279266Y-46870970D01*
X119275869Y-46871339D01*
X119224934Y-46876872D01*
X119224932Y-46876872D01*
X119217084Y-46877725D01*
X119209691Y-46880497D01*
X119209689Y-46880497D01*
X119171629Y-46894765D01*
X119100822Y-46899948D01*
X119083171Y-46894765D01*
X119045111Y-46880497D01*
X119045109Y-46880497D01*
X119037716Y-46877725D01*
X119029868Y-46876872D01*
X119029866Y-46876872D01*
X118978931Y-46871339D01*
X118975534Y-46870970D01*
X118279266Y-46870970D01*
X118217084Y-46877725D01*
X118080695Y-46928855D01*
X117964139Y-47016209D01*
X117876785Y-47132765D01*
X117825655Y-47269154D01*
X117818900Y-47331336D01*
X117818900Y-48012048D01*
X117798898Y-48080169D01*
X117781995Y-48101143D01*
X116961665Y-48921472D01*
X116177917Y-49705220D01*
X116169591Y-49712796D01*
X116163097Y-49716917D01*
X116157674Y-49722692D01*
X116116315Y-49766735D01*
X116113560Y-49769577D01*
X116093761Y-49789376D01*
X116091337Y-49792501D01*
X116091329Y-49792510D01*
X116091263Y-49792596D01*
X116083555Y-49801621D01*
X116053183Y-49833964D01*
X116049365Y-49840908D01*
X116049364Y-49840910D01*
X116043378Y-49851799D01*
X116032527Y-49868317D01*
X116020050Y-49884403D01*
X116002424Y-49925136D01*
X115997207Y-49935784D01*
X115975831Y-49974667D01*
X115973860Y-49982342D01*
X115973858Y-49982348D01*
X115970769Y-49994381D01*
X115964366Y-50013083D01*
X115956283Y-50031762D01*
X115953294Y-50050633D01*
X115949340Y-50075597D01*
X115946935Y-50087210D01*
X115935900Y-50130188D01*
X115935900Y-50150535D01*
X115934349Y-50170246D01*
X115931165Y-50190349D01*
X115931911Y-50198241D01*
X115935341Y-50234526D01*
X115935900Y-50246384D01*
X115935900Y-54323902D01*
X115915898Y-54392023D01*
X115862242Y-54438516D01*
X115791968Y-54448620D01*
X115767075Y-54442000D01*
X115763138Y-54439836D01*
X115755463Y-54437865D01*
X115755457Y-54437863D01*
X115743424Y-54434774D01*
X115724722Y-54428371D01*
X115706043Y-54420288D01*
X115672207Y-54414929D01*
X115662208Y-54413345D01*
X115650595Y-54410940D01*
X115607617Y-54399905D01*
X115587270Y-54399905D01*
X115567559Y-54398354D01*
X115555285Y-54396410D01*
X115547456Y-54395170D01*
X115539564Y-54395916D01*
X115503279Y-54399346D01*
X115491421Y-54399905D01*
X109480092Y-54399905D01*
X109411971Y-54379903D01*
X109374300Y-54342345D01*
X109362883Y-54324696D01*
X109344536Y-54296336D01*
X109287403Y-54208022D01*
X109287401Y-54208019D01*
X109284595Y-54203682D01*
X109134251Y-54038456D01*
X109130200Y-54035257D01*
X109130196Y-54035253D01*
X108962995Y-53903205D01*
X108962991Y-53903203D01*
X108958940Y-53900003D01*
X108917634Y-53877201D01*
X108867665Y-53826769D01*
X108852893Y-53757326D01*
X108878009Y-53690921D01*
X108905361Y-53664314D01*
X108953912Y-53629683D01*
X109084441Y-53536578D01*
X109242677Y-53378894D01*
X109302175Y-53296094D01*
X109370016Y-53201682D01*
X109373034Y-53197482D01*
X109379756Y-53183882D01*
X109469717Y-53001858D01*
X109469718Y-53001856D01*
X109472011Y-52997216D01*
X109536951Y-52783474D01*
X109566110Y-52561995D01*
X109566192Y-52558645D01*
X109567655Y-52498770D01*
X109567655Y-52498766D01*
X109567737Y-52495405D01*
X109549433Y-52272766D01*
X109495012Y-52056107D01*
X109405935Y-51851245D01*
X109326400Y-51728303D01*
X109287403Y-51668022D01*
X109287401Y-51668019D01*
X109284595Y-51663682D01*
X109134251Y-51498456D01*
X109130200Y-51495257D01*
X109130196Y-51495253D01*
X108962995Y-51363205D01*
X108962991Y-51363203D01*
X108958940Y-51360003D01*
X108917634Y-51337201D01*
X108867665Y-51286769D01*
X108852893Y-51217326D01*
X108878009Y-51150921D01*
X108905361Y-51124314D01*
X108957806Y-51086905D01*
X109084441Y-50996578D01*
X109089444Y-50991593D01*
X109195971Y-50885437D01*
X109242677Y-50838894D01*
X109248337Y-50831018D01*
X109370016Y-50661682D01*
X109373034Y-50657482D01*
X109387266Y-50628687D01*
X109469717Y-50461858D01*
X109469718Y-50461856D01*
X109472011Y-50457216D01*
X109509167Y-50334921D01*
X109535446Y-50248428D01*
X109535446Y-50248426D01*
X109536951Y-50243474D01*
X109566110Y-50021995D01*
X109566695Y-49998043D01*
X109567655Y-49958770D01*
X109567655Y-49958766D01*
X109567737Y-49955405D01*
X109549433Y-49732766D01*
X109495012Y-49516107D01*
X109405935Y-49311245D01*
X109316383Y-49172818D01*
X109287403Y-49128022D01*
X109287401Y-49128019D01*
X109284595Y-49123682D01*
X109134251Y-48958456D01*
X109130200Y-48955257D01*
X109130196Y-48955253D01*
X108962995Y-48823205D01*
X108962991Y-48823203D01*
X108958940Y-48820003D01*
X108925368Y-48801470D01*
X108906717Y-48791174D01*
X108763370Y-48712043D01*
X108758501Y-48710319D01*
X108758497Y-48710317D01*
X108557668Y-48639200D01*
X108557664Y-48639199D01*
X108552793Y-48637474D01*
X108547700Y-48636567D01*
X108547697Y-48636566D01*
X108337954Y-48599205D01*
X108337948Y-48599204D01*
X108332865Y-48598299D01*
X108259033Y-48597397D01*
X108114662Y-48595633D01*
X108114660Y-48595633D01*
X108109492Y-48595570D01*
X107888672Y-48629360D01*
X107676337Y-48698762D01*
X107478188Y-48801912D01*
X107474055Y-48805015D01*
X107474052Y-48805017D01*
X107310960Y-48927470D01*
X107299546Y-48936040D01*
X107145210Y-49097543D01*
X107019324Y-49282085D01*
X106987349Y-49350970D01*
X106937172Y-49459068D01*
X106925269Y-49484710D01*
X106865570Y-49699975D01*
X106841832Y-49922100D01*
X106842129Y-49927253D01*
X106842129Y-49927256D01*
X106851403Y-50088090D01*
X106854691Y-50145120D01*
X106855828Y-50150166D01*
X106855829Y-50150172D01*
X106867275Y-50200958D01*
X106903803Y-50363044D01*
X106964317Y-50512074D01*
X106984761Y-50562420D01*
X106987847Y-50570021D01*
X107026138Y-50632506D01*
X107092690Y-50741109D01*
X107104568Y-50760493D01*
X107250831Y-50929343D01*
X107422707Y-51072037D01*
X107448151Y-51086905D01*
X107496026Y-51114881D01*
X107544750Y-51166519D01*
X107557821Y-51236302D01*
X107531090Y-51302074D01*
X107490636Y-51335432D01*
X107478188Y-51341912D01*
X107474055Y-51345015D01*
X107474052Y-51345017D01*
X107303681Y-51472935D01*
X107299546Y-51476040D01*
X107289160Y-51486908D01*
X107160445Y-51621601D01*
X107145210Y-51637543D01*
X107142296Y-51641815D01*
X107142295Y-51641816D01*
X107126278Y-51665296D01*
X107019324Y-51822085D01*
X106925269Y-52024710D01*
X106865570Y-52239975D01*
X106841832Y-52462100D01*
X106842129Y-52467253D01*
X106842129Y-52467256D01*
X106852071Y-52639676D01*
X106854691Y-52685120D01*
X106855828Y-52690166D01*
X106855829Y-52690172D01*
X106858082Y-52700167D01*
X106903803Y-52903044D01*
X106987847Y-53110021D01*
X106997815Y-53126287D01*
X107064807Y-53235608D01*
X107104568Y-53300493D01*
X107250831Y-53469343D01*
X107422707Y-53612037D01*
X107464822Y-53636647D01*
X107496026Y-53654881D01*
X107544750Y-53706519D01*
X107557821Y-53776302D01*
X107531090Y-53842074D01*
X107490636Y-53875432D01*
X107478188Y-53881912D01*
X107474055Y-53885015D01*
X107474052Y-53885017D01*
X107303681Y-54012935D01*
X107299546Y-54016040D01*
X107253640Y-54064078D01*
X107149160Y-54173410D01*
X107145210Y-54177543D01*
X107142296Y-54181815D01*
X107142295Y-54181816D01*
X107090286Y-54258058D01*
X107019324Y-54362085D01*
X107003967Y-54395170D01*
X106927645Y-54559592D01*
X106925269Y-54564710D01*
X106865570Y-54779975D01*
X106841832Y-55002100D01*
X106842129Y-55007253D01*
X106842129Y-55007256D01*
X106847585Y-55101875D01*
X106854691Y-55225120D01*
X106855828Y-55230166D01*
X106855829Y-55230172D01*
X106877194Y-55324972D01*
X106903803Y-55443044D01*
X106955311Y-55569894D01*
X106978213Y-55626294D01*
X106987847Y-55650021D01*
X106990546Y-55654425D01*
X107100522Y-55833890D01*
X107104568Y-55840493D01*
X107250831Y-56009343D01*
X107254806Y-56012643D01*
X107254812Y-56012649D01*
X107260006Y-56016961D01*
X107299640Y-56075865D01*
X107301136Y-56146846D01*
X107264020Y-56207367D01*
X107223749Y-56231885D01*
X107116527Y-56272081D01*
X107100932Y-56280619D01*
X106998857Y-56357120D01*
X106986296Y-56369681D01*
X106909795Y-56471756D01*
X106901257Y-56487351D01*
X106856103Y-56607799D01*
X106852476Y-56623054D01*
X106846950Y-56673919D01*
X106846581Y-56680733D01*
X106846581Y-57303290D01*
X106851056Y-57318529D01*
X106852446Y-57319734D01*
X106860129Y-57321405D01*
X109544465Y-57321405D01*
X109559704Y-57316930D01*
X109560909Y-57315540D01*
X109562580Y-57307857D01*
X109562580Y-56680736D01*
X109562210Y-56673915D01*
X109556686Y-56623053D01*
X109553060Y-56607801D01*
X109507905Y-56487351D01*
X109499367Y-56471756D01*
X109422866Y-56369681D01*
X109410305Y-56357120D01*
X109308230Y-56280619D01*
X109292635Y-56272081D01*
X109182394Y-56230753D01*
X109125630Y-56188111D01*
X109100930Y-56121550D01*
X109116138Y-56052201D01*
X109137685Y-56023520D01*
X109239011Y-55922549D01*
X109239021Y-55922537D01*
X109242677Y-55918894D01*
X109258887Y-55896336D01*
X109370019Y-55741678D01*
X109370020Y-55741677D01*
X109373034Y-55737482D01*
X109375323Y-55732850D01*
X109375828Y-55732010D01*
X109428058Y-55683921D01*
X109483831Y-55670905D01*
X115211913Y-55670905D01*
X115280034Y-55690907D01*
X115301008Y-55707810D01*
X115811013Y-56217816D01*
X116320150Y-56726953D01*
X116327726Y-56735279D01*
X116331847Y-56741773D01*
X116366597Y-56774405D01*
X116381665Y-56788555D01*
X116384507Y-56791310D01*
X116404306Y-56811109D01*
X116407437Y-56813538D01*
X116407442Y-56813542D01*
X116407528Y-56813609D01*
X116416553Y-56821317D01*
X116443115Y-56846261D01*
X116443119Y-56846264D01*
X116448894Y-56851687D01*
X116455840Y-56855506D01*
X116455845Y-56855509D01*
X116466728Y-56861492D01*
X116483256Y-56872348D01*
X116493071Y-56879962D01*
X116493074Y-56879964D01*
X116499333Y-56884819D01*
X116506603Y-56887965D01*
X116506608Y-56887968D01*
X116540050Y-56902439D01*
X116550711Y-56907662D01*
X116582647Y-56925219D01*
X116582652Y-56925221D01*
X116589597Y-56929039D01*
X116597271Y-56931009D01*
X116597278Y-56931012D01*
X116609313Y-56934102D01*
X116628018Y-56940506D01*
X116632839Y-56942592D01*
X116646692Y-56948587D01*
X116673742Y-56952871D01*
X116690527Y-56955530D01*
X116702140Y-56957935D01*
X116745118Y-56968970D01*
X116765465Y-56968970D01*
X116785177Y-56970521D01*
X116805279Y-56973705D01*
X116813171Y-56972959D01*
X116849456Y-56969529D01*
X116861314Y-56968970D01*
X121335978Y-56968970D01*
X121404099Y-56988972D01*
X121425073Y-57005875D01*
X125591145Y-61171947D01*
X125598722Y-61180273D01*
X125602847Y-61186773D01*
X125608625Y-61192199D01*
X125608626Y-61192200D01*
X125652681Y-61233570D01*
X125655523Y-61236325D01*
X125675306Y-61256108D01*
X125678514Y-61258596D01*
X125687543Y-61266307D01*
X125719894Y-61296687D01*
X125726843Y-61300507D01*
X125737729Y-61306492D01*
X125754253Y-61317346D01*
X125770333Y-61329819D01*
X125777610Y-61332968D01*
X125811050Y-61347439D01*
X125821711Y-61352662D01*
X125853647Y-61370219D01*
X125853652Y-61370221D01*
X125860597Y-61374039D01*
X125868271Y-61376009D01*
X125868278Y-61376012D01*
X125880313Y-61379102D01*
X125899018Y-61385506D01*
X125910413Y-61390437D01*
X125917692Y-61393587D01*
X125944742Y-61397871D01*
X125961527Y-61400530D01*
X125973140Y-61402935D01*
X126016118Y-61413970D01*
X126036465Y-61413970D01*
X126056177Y-61415521D01*
X126076279Y-61418705D01*
X126084171Y-61417959D01*
X126120456Y-61414529D01*
X126132314Y-61413970D01*
X128574978Y-61413970D01*
X128643099Y-61433972D01*
X128664073Y-61450875D01*
X129415180Y-62201983D01*
X130163150Y-62949953D01*
X130170726Y-62958279D01*
X130174847Y-62964773D01*
X130208241Y-62996132D01*
X130224665Y-63011555D01*
X130227507Y-63014310D01*
X130247306Y-63034109D01*
X130250431Y-63036533D01*
X130250440Y-63036541D01*
X130250526Y-63036607D01*
X130259551Y-63044315D01*
X130291894Y-63074687D01*
X130298838Y-63078505D01*
X130298840Y-63078506D01*
X130309729Y-63084492D01*
X130326247Y-63095343D01*
X130342333Y-63107820D01*
X130383066Y-63125446D01*
X130393714Y-63130663D01*
X130432597Y-63152039D01*
X130440272Y-63154010D01*
X130440278Y-63154012D01*
X130452311Y-63157101D01*
X130471013Y-63163504D01*
X130489692Y-63171587D01*
X130523528Y-63176946D01*
X130533527Y-63178530D01*
X130545140Y-63180935D01*
X130588118Y-63191970D01*
X130608465Y-63191970D01*
X130628177Y-63193521D01*
X130648279Y-63196705D01*
X130656171Y-63195959D01*
X130692456Y-63192529D01*
X130704314Y-63191970D01*
X140133120Y-63191970D01*
X140201241Y-63211972D01*
X140247734Y-63265628D01*
X140257838Y-63335902D01*
X140236613Y-63385322D01*
X140238490Y-63386479D01*
X140149584Y-63530713D01*
X140143437Y-63543894D01*
X140092262Y-63698180D01*
X140089395Y-63711556D01*
X140079728Y-63805908D01*
X140079400Y-63812325D01*
X140079400Y-64062355D01*
X140083875Y-64077594D01*
X140085265Y-64078799D01*
X140092948Y-64080470D01*
X141215400Y-64080470D01*
X141283521Y-64100472D01*
X141330014Y-64154128D01*
X141341400Y-64206470D01*
X141341400Y-64462470D01*
X141321398Y-64530591D01*
X141267742Y-64577084D01*
X141215400Y-64588470D01*
X140097516Y-64588470D01*
X140082277Y-64592945D01*
X140081072Y-64594335D01*
X140079401Y-64602018D01*
X140079401Y-64856565D01*
X140079738Y-64863084D01*
X140089657Y-64958676D01*
X140092550Y-64972073D01*
X140110607Y-65026199D01*
X140113191Y-65097148D01*
X140077007Y-65158232D01*
X140013543Y-65190056D01*
X139942947Y-65182517D01*
X139901988Y-65155169D01*
X139433346Y-64686526D01*
X138560807Y-63813987D01*
X138553231Y-63805661D01*
X138549110Y-63799167D01*
X138499291Y-63752384D01*
X138496450Y-63749630D01*
X138476651Y-63729831D01*
X138473526Y-63727407D01*
X138473517Y-63727399D01*
X138473431Y-63727333D01*
X138464406Y-63719625D01*
X138450904Y-63706946D01*
X138432063Y-63689253D01*
X138414226Y-63679447D01*
X138397710Y-63668597D01*
X138381624Y-63656120D01*
X138340891Y-63638494D01*
X138330243Y-63633277D01*
X138301346Y-63617391D01*
X138291360Y-63611901D01*
X138283685Y-63609930D01*
X138283679Y-63609928D01*
X138271646Y-63606839D01*
X138252944Y-63600436D01*
X138234265Y-63592353D01*
X138200429Y-63586994D01*
X138190430Y-63585410D01*
X138178817Y-63583005D01*
X138135839Y-63571970D01*
X138115492Y-63571970D01*
X138095781Y-63570419D01*
X138083507Y-63568475D01*
X138075678Y-63567235D01*
X138067786Y-63567981D01*
X138031501Y-63571411D01*
X138019643Y-63571970D01*
X106469276Y-63571970D01*
X106458037Y-63571440D01*
X106450525Y-63569761D01*
X106442600Y-63570010D01*
X106442599Y-63570010D01*
X106382214Y-63571908D01*
X106378256Y-63571970D01*
X106350261Y-63571970D01*
X106346327Y-63572467D01*
X106346325Y-63572467D01*
X106346238Y-63572478D01*
X106334404Y-63573410D01*
X106290040Y-63574805D01*
X106270501Y-63580482D01*
X106251140Y-63584491D01*
X106238812Y-63586048D01*
X106238802Y-63586051D01*
X106230945Y-63587043D01*
X106223577Y-63589960D01*
X106223574Y-63589961D01*
X106189690Y-63603376D01*
X106178465Y-63607220D01*
X106135851Y-63619601D01*
X106129025Y-63623638D01*
X106118335Y-63629960D01*
X106100585Y-63638657D01*
X106081656Y-63646151D01*
X106075242Y-63650811D01*
X106045758Y-63672232D01*
X106035838Y-63678748D01*
X106004473Y-63697297D01*
X106004470Y-63697299D01*
X105997646Y-63701335D01*
X105983258Y-63715723D01*
X105968224Y-63728564D01*
X105951757Y-63740528D01*
X105930965Y-63765662D01*
X105923472Y-63774719D01*
X105915482Y-63783499D01*
X105254960Y-64444021D01*
X105192648Y-64478047D01*
X105121833Y-64472982D01*
X105064997Y-64430435D01*
X105040186Y-64363915D01*
X105039865Y-64354926D01*
X105039865Y-58470074D01*
X106846582Y-58470074D01*
X106846952Y-58476895D01*
X106852476Y-58527757D01*
X106856102Y-58543009D01*
X106901257Y-58663459D01*
X106909795Y-58679054D01*
X106986296Y-58781129D01*
X106998857Y-58793690D01*
X107100932Y-58870191D01*
X107116527Y-58878729D01*
X107236975Y-58923883D01*
X107252230Y-58927510D01*
X107303095Y-58933036D01*
X107309909Y-58933405D01*
X107932466Y-58933405D01*
X107947705Y-58928930D01*
X107948910Y-58927540D01*
X107950581Y-58919857D01*
X107950581Y-58915289D01*
X108458581Y-58915289D01*
X108463056Y-58930528D01*
X108464446Y-58931733D01*
X108472129Y-58933404D01*
X109099250Y-58933404D01*
X109106071Y-58933034D01*
X109156933Y-58927510D01*
X109172185Y-58923884D01*
X109292635Y-58878729D01*
X109308230Y-58870191D01*
X109410305Y-58793690D01*
X109422866Y-58781129D01*
X109499367Y-58679054D01*
X109507905Y-58663459D01*
X109553059Y-58543011D01*
X109556686Y-58527756D01*
X109562212Y-58476891D01*
X109562581Y-58470077D01*
X109562581Y-57847520D01*
X109558106Y-57832281D01*
X109556716Y-57831076D01*
X109549033Y-57829405D01*
X108476696Y-57829405D01*
X108461457Y-57833880D01*
X108460252Y-57835270D01*
X108458581Y-57842953D01*
X108458581Y-58915289D01*
X107950581Y-58915289D01*
X107950581Y-57847520D01*
X107946106Y-57832281D01*
X107944716Y-57831076D01*
X107937033Y-57829405D01*
X106864697Y-57829405D01*
X106849458Y-57833880D01*
X106848253Y-57835270D01*
X106846582Y-57842953D01*
X106846582Y-58470074D01*
X105039865Y-58470074D01*
X105039865Y-47092650D01*
X105041611Y-47071745D01*
X105044135Y-47056744D01*
X105044135Y-47056741D01*
X105044941Y-47051952D01*
X105045094Y-47039400D01*
X105044405Y-47034586D01*
X105044404Y-47034576D01*
X105043522Y-47028417D01*
X105042571Y-47001572D01*
X105050209Y-46894765D01*
X105054404Y-46836119D01*
X105056961Y-46818335D01*
X105098364Y-46628008D01*
X105103428Y-46610761D01*
X105157826Y-46464914D01*
X105171502Y-46428249D01*
X105178969Y-46411898D01*
X105180888Y-46408385D01*
X105226642Y-46324592D01*
X105272318Y-46240943D01*
X105282037Y-46225820D01*
X105398763Y-46069892D01*
X105410536Y-46056305D01*
X105548269Y-45918573D01*
X105561855Y-45906801D01*
X105717783Y-45790075D01*
X105732906Y-45780356D01*
X105902098Y-45687970D01*
X105903865Y-45687005D01*
X105920210Y-45679540D01*
X106067246Y-45624699D01*
X106102715Y-45611470D01*
X106119964Y-45606405D01*
X106310298Y-45565001D01*
X106328092Y-45562443D01*
X106338356Y-45561709D01*
X106489990Y-45550864D01*
X106507872Y-45551608D01*
X106516218Y-45551710D01*
X106525088Y-45553091D01*
X106533990Y-45551927D01*
X106533992Y-45551927D01*
X106553306Y-45549401D01*
X106556650Y-45548964D01*
X106572985Y-45547900D01*
X115015567Y-45547900D01*
X115016338Y-45547902D01*
X115093911Y-45548376D01*
X115122342Y-45540250D01*
X115139105Y-45536672D01*
X115139943Y-45536552D01*
X115168377Y-45532480D01*
X115191754Y-45521851D01*
X115209277Y-45515404D01*
X115233961Y-45508349D01*
X115241555Y-45503557D01*
X115241558Y-45503556D01*
X115258970Y-45492570D01*
X115274055Y-45484430D01*
X115300972Y-45472192D01*
X115320425Y-45455430D01*
X115335429Y-45444327D01*
X115357148Y-45430624D01*
X115363087Y-45423899D01*
X115363091Y-45423896D01*
X115376722Y-45408462D01*
X115388914Y-45396418D01*
X115404517Y-45382973D01*
X115404519Y-45382970D01*
X115411317Y-45377113D01*
X115425284Y-45355565D01*
X115436575Y-45340691D01*
X115447621Y-45328183D01*
X115447622Y-45328182D01*
X115453568Y-45321449D01*
X115466133Y-45294687D01*
X115474453Y-45279709D01*
X115485661Y-45262417D01*
X115485663Y-45262412D01*
X115490542Y-45254885D01*
X115493112Y-45246292D01*
X115493114Y-45246287D01*
X115497901Y-45230280D01*
X115504562Y-45212836D01*
X115511657Y-45197724D01*
X115511658Y-45197722D01*
X115515471Y-45189600D01*
X115520020Y-45160383D01*
X115523803Y-45143668D01*
X115529705Y-45123934D01*
X115529706Y-45123928D01*
X115532276Y-45115334D01*
X115532486Y-45080894D01*
X115532519Y-45080111D01*
X115532690Y-45079014D01*
X115532690Y-45048023D01*
X115532692Y-45047253D01*
X115533142Y-44973615D01*
X115533142Y-44973614D01*
X115533166Y-44969679D01*
X115532782Y-44968335D01*
X115532690Y-44966990D01*
X115532690Y-43673900D01*
X115552692Y-43605779D01*
X115606348Y-43559286D01*
X115658690Y-43547900D01*
X116092900Y-43547900D01*
X116161021Y-43567902D01*
G37*
G04 #@! TD.AperFunction*
G04 #@! TA.AperFunction,Conductor*
G36*
X156772021Y-46066972D02*
G01*
X156818514Y-46120628D01*
X156829900Y-46172970D01*
X156829900Y-49777450D01*
X156829370Y-49788684D01*
X156827692Y-49796189D01*
X156828720Y-49828913D01*
X156829838Y-49864482D01*
X156829900Y-49868412D01*
X156829900Y-49896453D01*
X156830396Y-49900378D01*
X156830396Y-49900379D01*
X156830408Y-49900474D01*
X156831341Y-49912319D01*
X156832735Y-49956675D01*
X156835944Y-49967719D01*
X156838413Y-49976218D01*
X156842423Y-49995582D01*
X156843967Y-50007802D01*
X156844973Y-50015769D01*
X156847889Y-50023133D01*
X156847890Y-50023138D01*
X156861307Y-50057026D01*
X156865152Y-50068255D01*
X156869998Y-50084935D01*
X156877531Y-50110863D01*
X156881569Y-50117690D01*
X156881570Y-50117693D01*
X156887888Y-50128376D01*
X156896588Y-50146134D01*
X156901161Y-50157685D01*
X156901165Y-50157691D01*
X156904081Y-50165058D01*
X156908739Y-50171469D01*
X156908740Y-50171471D01*
X156930164Y-50200958D01*
X156936681Y-50210880D01*
X156955226Y-50242238D01*
X156955229Y-50242242D01*
X156959266Y-50249068D01*
X156973650Y-50263452D01*
X156986491Y-50278486D01*
X156998458Y-50294957D01*
X157004566Y-50300010D01*
X157032655Y-50323247D01*
X157041435Y-50331237D01*
X157468145Y-50757947D01*
X157475722Y-50766273D01*
X157479847Y-50772773D01*
X157485625Y-50778199D01*
X157485626Y-50778200D01*
X157529681Y-50819570D01*
X157532523Y-50822325D01*
X157552306Y-50842108D01*
X157555514Y-50844596D01*
X157564543Y-50852307D01*
X157596894Y-50882687D01*
X157603843Y-50886507D01*
X157614729Y-50892492D01*
X157631253Y-50903346D01*
X157641067Y-50910959D01*
X157641070Y-50910961D01*
X157644842Y-50913886D01*
X157644844Y-50913889D01*
X157647332Y-50915818D01*
X157647021Y-50916219D01*
X157691846Y-50964226D01*
X157704553Y-51034076D01*
X157686516Y-51086905D01*
X157609584Y-51211713D01*
X157603437Y-51224894D01*
X157552262Y-51379180D01*
X157549395Y-51392556D01*
X157539728Y-51486908D01*
X157539400Y-51493325D01*
X157539400Y-51743355D01*
X157543875Y-51758594D01*
X157545265Y-51759799D01*
X157552948Y-51761470D01*
X158675400Y-51761470D01*
X158743521Y-51781472D01*
X158790014Y-51835128D01*
X158801400Y-51887470D01*
X158801400Y-53230354D01*
X158805875Y-53245593D01*
X158807265Y-53246798D01*
X158814948Y-53248469D01*
X158844495Y-53248469D01*
X158851014Y-53248132D01*
X158946606Y-53238213D01*
X158960000Y-53235321D01*
X159114184Y-53183882D01*
X159127362Y-53177709D01*
X159265207Y-53092407D01*
X159276608Y-53083371D01*
X159391138Y-52968642D01*
X159398194Y-52959708D01*
X159456112Y-52918647D01*
X159527035Y-52915417D01*
X159588446Y-52951044D01*
X159595246Y-52958877D01*
X159598922Y-52964818D01*
X159604104Y-52969991D01*
X159647918Y-53013729D01*
X159681997Y-53076012D01*
X159684900Y-53102902D01*
X159684900Y-53166467D01*
X159664898Y-53234588D01*
X159652532Y-53250782D01*
X159647360Y-53256526D01*
X159551873Y-53421914D01*
X159492858Y-53603542D01*
X159492168Y-53610103D01*
X159492168Y-53610105D01*
X159487462Y-53654881D01*
X159472896Y-53793470D01*
X159473586Y-53800035D01*
X159485523Y-53913605D01*
X159492858Y-53983398D01*
X159551873Y-54165026D01*
X159555176Y-54170748D01*
X159555177Y-54170749D01*
X159559100Y-54177543D01*
X159647360Y-54330414D01*
X159651778Y-54335321D01*
X159651779Y-54335322D01*
X159770725Y-54467425D01*
X159775147Y-54472336D01*
X159789905Y-54483058D01*
X159836668Y-54517034D01*
X159880022Y-54573257D01*
X159886097Y-54643993D01*
X159852965Y-54706784D01*
X159836673Y-54720903D01*
X159785747Y-54757903D01*
X159723544Y-54781407D01*
X159702343Y-54783411D01*
X159690486Y-54783970D01*
X157847320Y-54783970D01*
X157779199Y-54763968D01*
X157771755Y-54758796D01*
X157685105Y-54693855D01*
X157548716Y-54642725D01*
X157486534Y-54635970D01*
X155890266Y-54635970D01*
X155828084Y-54642725D01*
X155691695Y-54693855D01*
X155575139Y-54781209D01*
X155569758Y-54788389D01*
X155569757Y-54788390D01*
X155543792Y-54823035D01*
X155486933Y-54865550D01*
X155457326Y-54870883D01*
X155433277Y-54877945D01*
X155432072Y-54879335D01*
X155430401Y-54887018D01*
X155430401Y-54939139D01*
X155430771Y-54945960D01*
X155437148Y-55004677D01*
X155434402Y-55004975D01*
X155434460Y-55033916D01*
X155436655Y-55034154D01*
X155429900Y-55096336D01*
X155429900Y-55742604D01*
X155430269Y-55746001D01*
X155436655Y-55804786D01*
X155434226Y-55805050D01*
X155434226Y-55833890D01*
X155436655Y-55834154D01*
X155429900Y-55896336D01*
X155429900Y-56542604D01*
X155430269Y-56546001D01*
X155436655Y-56604786D01*
X155434226Y-56605050D01*
X155434226Y-56633890D01*
X155436655Y-56634154D01*
X155429900Y-56696336D01*
X155429900Y-57342604D01*
X155430269Y-57346001D01*
X155436655Y-57404786D01*
X155434226Y-57405050D01*
X155434226Y-57433890D01*
X155436655Y-57434154D01*
X155429900Y-57496336D01*
X155429900Y-58142604D01*
X155430269Y-58146001D01*
X155436655Y-58204786D01*
X155434226Y-58205050D01*
X155434226Y-58233890D01*
X155436655Y-58234154D01*
X155429900Y-58296336D01*
X155429900Y-58942604D01*
X155430269Y-58946001D01*
X155436655Y-59004786D01*
X155434226Y-59005050D01*
X155434226Y-59033890D01*
X155436655Y-59034154D01*
X155429900Y-59096336D01*
X155429900Y-59742604D01*
X155430269Y-59746001D01*
X155436655Y-59804786D01*
X155434226Y-59805050D01*
X155434226Y-59833890D01*
X155436655Y-59834154D01*
X155429900Y-59896336D01*
X155429900Y-60542604D01*
X155430269Y-60546001D01*
X155436655Y-60604786D01*
X155434226Y-60605050D01*
X155434226Y-60633890D01*
X155436655Y-60634154D01*
X155429900Y-60696336D01*
X155429900Y-61342604D01*
X155430269Y-61346001D01*
X155436655Y-61404786D01*
X155434226Y-61405050D01*
X155434226Y-61433890D01*
X155436655Y-61434154D01*
X155429900Y-61496336D01*
X155429900Y-62142604D01*
X155430269Y-62146001D01*
X155436655Y-62204786D01*
X155434226Y-62205050D01*
X155434226Y-62233890D01*
X155436655Y-62234154D01*
X155429900Y-62296336D01*
X155429900Y-62934970D01*
X155409898Y-63003091D01*
X155356242Y-63049584D01*
X155303900Y-63060970D01*
X154665266Y-63060970D01*
X154661869Y-63061339D01*
X154629430Y-63064863D01*
X154603084Y-63067725D01*
X154602852Y-63065586D01*
X154573888Y-63065636D01*
X154573607Y-63068218D01*
X154514886Y-63061839D01*
X154508072Y-63061470D01*
X154460515Y-63061470D01*
X154445276Y-63065945D01*
X154444071Y-63067335D01*
X154439521Y-63088253D01*
X154438303Y-63087988D01*
X154422398Y-63142157D01*
X154391965Y-63174862D01*
X154363816Y-63195959D01*
X154350139Y-63206209D01*
X154327726Y-63236115D01*
X154289226Y-63287485D01*
X154232367Y-63330000D01*
X154161548Y-63335026D01*
X154099255Y-63300966D01*
X154087574Y-63287485D01*
X154049074Y-63236115D01*
X154026661Y-63206209D01*
X154012985Y-63195959D01*
X153984835Y-63174862D01*
X153942320Y-63118003D01*
X153936987Y-63088396D01*
X153929925Y-63064347D01*
X153928535Y-63063142D01*
X153920852Y-63061471D01*
X153868731Y-63061471D01*
X153861910Y-63061841D01*
X153803193Y-63068218D01*
X153802895Y-63065472D01*
X153773954Y-63065530D01*
X153773716Y-63067725D01*
X153714931Y-63061339D01*
X153711534Y-63060970D01*
X153065266Y-63060970D01*
X153061869Y-63061339D01*
X153029430Y-63064863D01*
X153003084Y-63067725D01*
X153002820Y-63065296D01*
X152973980Y-63065296D01*
X152973716Y-63067725D01*
X152914931Y-63061339D01*
X152911534Y-63060970D01*
X152265266Y-63060970D01*
X152261869Y-63061339D01*
X152229430Y-63064863D01*
X152203084Y-63067725D01*
X152202820Y-63065296D01*
X152173980Y-63065296D01*
X152173716Y-63067725D01*
X152114931Y-63061339D01*
X152111534Y-63060970D01*
X151465266Y-63060970D01*
X151461869Y-63061339D01*
X151429430Y-63064863D01*
X151403084Y-63067725D01*
X151402820Y-63065296D01*
X151373980Y-63065296D01*
X151373716Y-63067725D01*
X151314931Y-63061339D01*
X151311534Y-63060970D01*
X150665266Y-63060970D01*
X150661869Y-63061339D01*
X150629430Y-63064863D01*
X150603084Y-63067725D01*
X150602820Y-63065296D01*
X150573980Y-63065296D01*
X150573716Y-63067725D01*
X150514931Y-63061339D01*
X150511534Y-63060970D01*
X149865266Y-63060970D01*
X149861869Y-63061339D01*
X149829430Y-63064863D01*
X149803084Y-63067725D01*
X149802820Y-63065296D01*
X149773980Y-63065296D01*
X149773716Y-63067725D01*
X149714931Y-63061339D01*
X149711534Y-63060970D01*
X149065266Y-63060970D01*
X149061869Y-63061339D01*
X149029430Y-63064863D01*
X149003084Y-63067725D01*
X149002820Y-63065296D01*
X148973980Y-63065296D01*
X148973716Y-63067725D01*
X148914931Y-63061339D01*
X148911534Y-63060970D01*
X148265266Y-63060970D01*
X148261869Y-63061339D01*
X148229430Y-63064863D01*
X148203084Y-63067725D01*
X148202852Y-63065586D01*
X148173888Y-63065636D01*
X148173607Y-63068218D01*
X148114886Y-63061839D01*
X148108072Y-63061470D01*
X148060515Y-63061470D01*
X148045276Y-63065945D01*
X148044071Y-63067335D01*
X148039521Y-63088253D01*
X148038303Y-63087988D01*
X148022398Y-63142157D01*
X147991965Y-63174862D01*
X147963816Y-63195959D01*
X147950139Y-63206209D01*
X147927726Y-63236115D01*
X147889226Y-63287485D01*
X147832367Y-63330000D01*
X147761548Y-63335026D01*
X147699255Y-63300966D01*
X147687574Y-63287485D01*
X147671193Y-63265628D01*
X147649074Y-63236114D01*
X147624226Y-63169609D01*
X147623900Y-63160550D01*
X147623900Y-62719490D01*
X147624429Y-62708261D01*
X147626108Y-62700751D01*
X147623962Y-62632471D01*
X147623900Y-62628514D01*
X147623900Y-62600487D01*
X147623389Y-62596441D01*
X147622457Y-62584606D01*
X147621313Y-62548192D01*
X147621064Y-62540265D01*
X147615387Y-62520724D01*
X147611378Y-62501364D01*
X147609821Y-62489036D01*
X147609820Y-62489033D01*
X147608827Y-62481171D01*
X147605910Y-62473805D01*
X147605909Y-62473799D01*
X147592491Y-62439909D01*
X147588646Y-62428680D01*
X147576269Y-62386077D01*
X147572236Y-62379258D01*
X147572234Y-62379253D01*
X147565910Y-62368561D01*
X147557213Y-62350811D01*
X147549719Y-62331882D01*
X147523640Y-62295987D01*
X147517122Y-62286065D01*
X147498570Y-62254694D01*
X147498566Y-62254689D01*
X147494534Y-62247871D01*
X147480147Y-62233484D01*
X147467306Y-62218450D01*
X147460002Y-62208397D01*
X147455342Y-62201983D01*
X147421150Y-62173697D01*
X147412371Y-62165708D01*
X146672650Y-61425987D01*
X146665074Y-61417661D01*
X146660953Y-61411167D01*
X146611134Y-61364384D01*
X146608293Y-61361630D01*
X146588494Y-61341831D01*
X146588660Y-61341665D01*
X146551704Y-61283062D01*
X146546900Y-61248602D01*
X146546900Y-60696336D01*
X146540145Y-60634154D01*
X146542574Y-60633890D01*
X146542574Y-60605050D01*
X146540145Y-60604786D01*
X146546531Y-60546001D01*
X146546900Y-60542604D01*
X146546900Y-59896336D01*
X146540145Y-59834154D01*
X146542284Y-59833922D01*
X146542234Y-59804958D01*
X146539652Y-59804677D01*
X146546031Y-59745956D01*
X146546400Y-59739142D01*
X146546400Y-59691585D01*
X146541925Y-59676346D01*
X146540535Y-59675141D01*
X146519617Y-59670591D01*
X146519882Y-59669373D01*
X146465713Y-59653468D01*
X146433008Y-59623035D01*
X146407043Y-59588390D01*
X146407042Y-59588389D01*
X146401661Y-59581209D01*
X146320385Y-59520296D01*
X146277870Y-59463437D01*
X146272844Y-59392618D01*
X146306904Y-59330325D01*
X146320385Y-59318644D01*
X146401661Y-59257731D01*
X146417682Y-59236355D01*
X146433008Y-59215905D01*
X146489867Y-59173390D01*
X146519474Y-59168057D01*
X146543523Y-59160995D01*
X146544728Y-59159605D01*
X146546399Y-59151922D01*
X146546399Y-59099801D01*
X146546029Y-59092980D01*
X146539652Y-59034263D01*
X146542398Y-59033965D01*
X146542340Y-59005024D01*
X146540145Y-59004786D01*
X146546531Y-58946001D01*
X146546900Y-58942604D01*
X146546900Y-58296336D01*
X146540145Y-58234154D01*
X146542574Y-58233890D01*
X146542574Y-58205050D01*
X146540145Y-58204786D01*
X146546531Y-58146001D01*
X146546900Y-58142604D01*
X146546900Y-57496336D01*
X146540145Y-57434154D01*
X146542574Y-57433890D01*
X146542574Y-57405050D01*
X146540145Y-57404786D01*
X146546531Y-57346001D01*
X146546900Y-57342604D01*
X146546900Y-56696336D01*
X146540145Y-56634154D01*
X146542574Y-56633890D01*
X146542574Y-56605050D01*
X146540145Y-56604786D01*
X146546531Y-56546001D01*
X146546900Y-56542604D01*
X146546900Y-55896336D01*
X146540145Y-55834154D01*
X146542574Y-55833890D01*
X146542574Y-55805050D01*
X146540145Y-55804786D01*
X146546531Y-55746001D01*
X146546900Y-55742604D01*
X146546900Y-55096336D01*
X146540145Y-55034154D01*
X146542574Y-55033890D01*
X146542574Y-55005050D01*
X146540145Y-55004786D01*
X146546531Y-54946001D01*
X146546900Y-54942604D01*
X146546900Y-54303970D01*
X146566902Y-54235849D01*
X146620558Y-54189356D01*
X146672900Y-54177970D01*
X147311534Y-54177970D01*
X147319534Y-54177101D01*
X147373716Y-54171215D01*
X147373980Y-54173644D01*
X147402820Y-54173644D01*
X147403084Y-54171215D01*
X147457267Y-54177101D01*
X147465266Y-54177970D01*
X148111534Y-54177970D01*
X148119534Y-54177101D01*
X148173716Y-54171215D01*
X148173980Y-54173644D01*
X148202820Y-54173644D01*
X148203084Y-54171215D01*
X148257267Y-54177101D01*
X148265266Y-54177970D01*
X148911534Y-54177970D01*
X148919534Y-54177101D01*
X148973716Y-54171215D01*
X148973948Y-54173354D01*
X149002912Y-54173304D01*
X149003193Y-54170722D01*
X149061914Y-54177101D01*
X149068728Y-54177470D01*
X149116285Y-54177470D01*
X149131524Y-54172995D01*
X149132729Y-54171605D01*
X149137279Y-54150687D01*
X149138497Y-54150952D01*
X149154402Y-54096783D01*
X149184835Y-54064078D01*
X149219480Y-54038113D01*
X149219481Y-54038112D01*
X149226661Y-54032731D01*
X149287574Y-53951455D01*
X149344433Y-53908940D01*
X149415252Y-53903914D01*
X149477545Y-53937974D01*
X149489225Y-53951454D01*
X149550139Y-54032731D01*
X149557319Y-54038112D01*
X149557320Y-54038113D01*
X149591965Y-54064078D01*
X149634480Y-54120937D01*
X149639813Y-54150544D01*
X149646875Y-54174593D01*
X149648265Y-54175798D01*
X149655948Y-54177469D01*
X149708069Y-54177469D01*
X149714890Y-54177099D01*
X149773607Y-54170722D01*
X149773905Y-54173468D01*
X149802846Y-54173410D01*
X149803084Y-54171215D01*
X149857267Y-54177101D01*
X149865266Y-54177970D01*
X150511534Y-54177970D01*
X150519534Y-54177101D01*
X150573716Y-54171215D01*
X150573980Y-54173644D01*
X150602820Y-54173644D01*
X150603084Y-54171215D01*
X150657267Y-54177101D01*
X150665266Y-54177970D01*
X151311534Y-54177970D01*
X151319534Y-54177101D01*
X151373716Y-54171215D01*
X151373980Y-54173644D01*
X151402820Y-54173644D01*
X151403084Y-54171215D01*
X151457267Y-54177101D01*
X151465266Y-54177970D01*
X152111534Y-54177970D01*
X152119534Y-54177101D01*
X152173716Y-54171215D01*
X152173980Y-54173644D01*
X152202820Y-54173644D01*
X152203084Y-54171215D01*
X152257267Y-54177101D01*
X152265266Y-54177970D01*
X152911534Y-54177970D01*
X152919534Y-54177101D01*
X152973716Y-54171215D01*
X152973980Y-54173644D01*
X153002820Y-54173644D01*
X153003084Y-54171215D01*
X153057267Y-54177101D01*
X153065266Y-54177970D01*
X153711534Y-54177970D01*
X153719534Y-54177101D01*
X153773716Y-54171215D01*
X153773980Y-54173644D01*
X153802820Y-54173644D01*
X153803084Y-54171215D01*
X153857267Y-54177101D01*
X153865266Y-54177970D01*
X154511534Y-54177970D01*
X154519534Y-54177101D01*
X154573716Y-54171215D01*
X154573980Y-54173644D01*
X154602820Y-54173644D01*
X154603084Y-54171215D01*
X154657267Y-54177101D01*
X154665266Y-54177970D01*
X155304400Y-54177970D01*
X155372521Y-54197972D01*
X155419014Y-54251628D01*
X155430400Y-54303970D01*
X155430400Y-54347355D01*
X155434875Y-54362594D01*
X155436265Y-54363799D01*
X155443948Y-54365470D01*
X156416285Y-54365470D01*
X156431524Y-54360995D01*
X156432729Y-54359605D01*
X156434400Y-54351922D01*
X156434400Y-54347355D01*
X156942400Y-54347355D01*
X156946875Y-54362594D01*
X156948265Y-54363799D01*
X156955948Y-54365470D01*
X157928284Y-54365470D01*
X157943523Y-54360995D01*
X157944728Y-54359605D01*
X157946399Y-54351922D01*
X157946399Y-54299801D01*
X157946029Y-54292980D01*
X157940505Y-54242118D01*
X157936879Y-54226866D01*
X157891724Y-54106416D01*
X157883186Y-54090821D01*
X157806685Y-53988746D01*
X157794124Y-53976185D01*
X157692049Y-53899684D01*
X157676454Y-53891146D01*
X157556006Y-53845992D01*
X157540751Y-53842365D01*
X157489886Y-53836839D01*
X157483072Y-53836470D01*
X156960515Y-53836470D01*
X156945276Y-53840945D01*
X156944071Y-53842335D01*
X156942400Y-53850018D01*
X156942400Y-54347355D01*
X156434400Y-54347355D01*
X156434400Y-53854586D01*
X156429925Y-53839347D01*
X156428535Y-53838142D01*
X156420852Y-53836471D01*
X155897900Y-53836471D01*
X155829779Y-53816469D01*
X155783286Y-53762813D01*
X155771900Y-53710471D01*
X155771900Y-52537565D01*
X157539401Y-52537565D01*
X157539738Y-52544084D01*
X157549657Y-52639676D01*
X157552549Y-52653070D01*
X157603988Y-52807254D01*
X157610161Y-52820432D01*
X157695463Y-52958277D01*
X157704499Y-52969678D01*
X157819229Y-53084209D01*
X157830640Y-53093221D01*
X157968643Y-53178286D01*
X157981824Y-53184433D01*
X158136110Y-53235608D01*
X158149486Y-53238475D01*
X158243838Y-53248142D01*
X158250254Y-53248470D01*
X158275285Y-53248470D01*
X158290524Y-53243995D01*
X158291729Y-53242605D01*
X158293400Y-53234922D01*
X158293400Y-52287585D01*
X158288925Y-52272346D01*
X158287535Y-52271141D01*
X158279852Y-52269470D01*
X157557516Y-52269470D01*
X157542277Y-52273945D01*
X157541072Y-52275335D01*
X157539401Y-52283018D01*
X157539401Y-52537565D01*
X155771900Y-52537565D01*
X155771900Y-52121336D01*
X155765145Y-52059154D01*
X155714015Y-51922765D01*
X155626661Y-51806209D01*
X155510105Y-51718855D01*
X155373716Y-51667725D01*
X155311534Y-51660970D01*
X154665266Y-51660970D01*
X154661869Y-51661339D01*
X154625444Y-51665296D01*
X154603084Y-51667725D01*
X154602820Y-51665296D01*
X154573980Y-51665296D01*
X154573716Y-51667725D01*
X154514931Y-51661339D01*
X154511534Y-51660970D01*
X153865266Y-51660970D01*
X153861869Y-51661339D01*
X153825444Y-51665296D01*
X153803084Y-51667725D01*
X153802820Y-51665296D01*
X153773980Y-51665296D01*
X153773716Y-51667725D01*
X153714931Y-51661339D01*
X153711534Y-51660970D01*
X153065266Y-51660970D01*
X153061869Y-51661339D01*
X153025444Y-51665296D01*
X153003084Y-51667725D01*
X153002820Y-51665296D01*
X152973980Y-51665296D01*
X152973716Y-51667725D01*
X152914931Y-51661339D01*
X152911534Y-51660970D01*
X152265266Y-51660970D01*
X152261869Y-51661339D01*
X152225444Y-51665296D01*
X152203084Y-51667725D01*
X152202820Y-51665296D01*
X152173980Y-51665296D01*
X152173716Y-51667725D01*
X152114931Y-51661339D01*
X152111534Y-51660970D01*
X152037823Y-51660970D01*
X151969702Y-51640968D01*
X151923209Y-51587312D01*
X151913105Y-51517038D01*
X151942599Y-51452458D01*
X151948728Y-51445874D01*
X152049586Y-51345017D01*
X152354888Y-51039715D01*
X152363207Y-51032145D01*
X152369703Y-51028023D01*
X152376339Y-51020957D01*
X152416485Y-50978205D01*
X152419240Y-50975363D01*
X152439039Y-50955564D01*
X152441463Y-50952439D01*
X152441471Y-50952430D01*
X152441537Y-50952344D01*
X152449245Y-50943319D01*
X152456306Y-50935800D01*
X152479617Y-50910976D01*
X152489423Y-50893139D01*
X152500273Y-50876623D01*
X152512750Y-50860537D01*
X152530376Y-50819804D01*
X152535593Y-50809156D01*
X152553149Y-50777221D01*
X152556969Y-50770273D01*
X152558940Y-50762598D01*
X152558942Y-50762592D01*
X152562031Y-50750559D01*
X152568434Y-50731857D01*
X152576517Y-50713178D01*
X152583460Y-50669343D01*
X152585867Y-50657721D01*
X152596900Y-50614752D01*
X152596900Y-50594405D01*
X152598451Y-50574694D01*
X152600395Y-50562420D01*
X152601635Y-50554591D01*
X152597459Y-50510414D01*
X152596900Y-50498556D01*
X152596900Y-50289246D01*
X152616902Y-50221125D01*
X152670558Y-50174632D01*
X152709648Y-50165023D01*
X152709534Y-50163970D01*
X152771716Y-50157215D01*
X152908105Y-50106085D01*
X153024661Y-50018731D01*
X153112015Y-49902175D01*
X153115167Y-49893767D01*
X153119477Y-49885895D01*
X153120990Y-49886723D01*
X153157273Y-49838415D01*
X153223833Y-49813711D01*
X153293183Y-49828913D01*
X153334825Y-49868412D01*
X153335525Y-49867858D01*
X153339414Y-49872765D01*
X153339761Y-49873094D01*
X153343922Y-49879818D01*
X153469097Y-50004775D01*
X153475327Y-50008615D01*
X153475328Y-50008616D01*
X153612490Y-50093164D01*
X153619662Y-50097585D01*
X153636736Y-50103248D01*
X153781011Y-50151102D01*
X153781013Y-50151102D01*
X153787539Y-50153267D01*
X153794375Y-50153967D01*
X153794378Y-50153968D01*
X153837431Y-50158379D01*
X153892000Y-50163970D01*
X154942800Y-50163970D01*
X154946046Y-50163633D01*
X154946050Y-50163633D01*
X155041708Y-50153708D01*
X155041712Y-50153707D01*
X155048566Y-50152996D01*
X155055102Y-50150815D01*
X155055104Y-50150815D01*
X155205319Y-50100699D01*
X155216346Y-50097020D01*
X155366748Y-50003948D01*
X155380230Y-49990443D01*
X155486534Y-49883953D01*
X155491705Y-49878773D01*
X155495546Y-49872542D01*
X155580675Y-49734438D01*
X155580676Y-49734436D01*
X155584515Y-49728208D01*
X155615390Y-49635122D01*
X155638032Y-49566859D01*
X155638032Y-49566857D01*
X155640197Y-49560331D01*
X155650900Y-49455870D01*
X155650900Y-48855070D01*
X155650563Y-48851820D01*
X155640638Y-48756162D01*
X155640637Y-48756158D01*
X155639926Y-48749304D01*
X155634015Y-48731585D01*
X155586268Y-48588472D01*
X155583950Y-48581524D01*
X155490878Y-48431122D01*
X155471068Y-48411346D01*
X155370886Y-48311339D01*
X155365703Y-48306165D01*
X155361165Y-48303368D01*
X155320576Y-48246117D01*
X155317346Y-48175194D01*
X155352972Y-48113783D01*
X155361468Y-48106408D01*
X155371607Y-48098372D01*
X155486139Y-47983641D01*
X155495151Y-47972230D01*
X155580216Y-47834227D01*
X155586363Y-47821046D01*
X155637538Y-47666760D01*
X155640405Y-47653384D01*
X155650072Y-47559032D01*
X155650400Y-47552616D01*
X155650400Y-47527585D01*
X155645925Y-47512346D01*
X155644535Y-47511141D01*
X155636852Y-47509470D01*
X153227515Y-47509470D01*
X153212276Y-47513945D01*
X153206557Y-47520545D01*
X153178153Y-47572564D01*
X153115841Y-47606590D01*
X153089056Y-47609470D01*
X151833400Y-47609470D01*
X151765279Y-47589468D01*
X151718786Y-47535812D01*
X151707400Y-47483470D01*
X151707400Y-47227470D01*
X151727402Y-47159349D01*
X151781058Y-47112856D01*
X151833400Y-47101470D01*
X153126285Y-47101470D01*
X153141524Y-47096995D01*
X153147243Y-47090395D01*
X153175647Y-47038376D01*
X153237959Y-47004350D01*
X153264744Y-47001470D01*
X155632284Y-47001470D01*
X155647523Y-46996995D01*
X155648728Y-46995605D01*
X155650399Y-46987922D01*
X155650399Y-46958375D01*
X155650062Y-46951856D01*
X155640143Y-46856264D01*
X155637251Y-46842870D01*
X155585812Y-46688686D01*
X155579639Y-46675508D01*
X155494337Y-46537663D01*
X155485301Y-46526262D01*
X155370571Y-46411731D01*
X155359160Y-46402719D01*
X155221157Y-46317654D01*
X155207976Y-46311507D01*
X155150862Y-46292563D01*
X155092503Y-46252132D01*
X155065266Y-46186568D01*
X155077800Y-46116686D01*
X155126124Y-46064674D01*
X155190530Y-46046970D01*
X156703900Y-46046970D01*
X156772021Y-46066972D01*
G37*
G04 #@! TD.AperFunction*
G04 #@! TA.AperFunction,Conductor*
G36*
X143122097Y-60163972D02*
G01*
X143168590Y-60217628D01*
X143178694Y-60287902D01*
X143149200Y-60352482D01*
X143143071Y-60359065D01*
X143015071Y-60487065D01*
X142952759Y-60521091D01*
X142925976Y-60523970D01*
X142242967Y-60523970D01*
X142174846Y-60503968D01*
X142128353Y-60450312D01*
X142118249Y-60380038D01*
X142135706Y-60331855D01*
X142147676Y-60312436D01*
X142151515Y-60306208D01*
X142176692Y-60230302D01*
X142217123Y-60171942D01*
X142282687Y-60144706D01*
X142296285Y-60143970D01*
X143053976Y-60143970D01*
X143122097Y-60163972D01*
G37*
G04 #@! TD.AperFunction*
G04 #@! TA.AperFunction,Conductor*
G36*
X162451432Y-54764394D02*
G01*
X162496495Y-54793355D01*
X163627690Y-55924550D01*
X163640070Y-55931310D01*
X163647720Y-55925583D01*
X163752605Y-55754428D01*
X163757087Y-55745633D01*
X163826491Y-55578076D01*
X163871039Y-55522795D01*
X163938403Y-55500374D01*
X164007194Y-55517932D01*
X164055572Y-55569894D01*
X164068900Y-55626294D01*
X164068900Y-56399046D01*
X164048898Y-56467167D01*
X164031997Y-56488140D01*
X163994304Y-56525834D01*
X163994302Y-56525835D01*
X163988438Y-56531699D01*
X163970164Y-56546817D01*
X163969856Y-56547026D01*
X163969852Y-56547030D01*
X163963296Y-56551485D01*
X163958052Y-56557433D01*
X163958051Y-56557434D01*
X163926025Y-56593761D01*
X163920606Y-56599531D01*
X163825882Y-56694255D01*
X163763570Y-56728281D01*
X163692755Y-56723216D01*
X163634854Y-56679225D01*
X163634157Y-56678266D01*
X163631576Y-56674054D01*
X163477369Y-56493501D01*
X163460747Y-56479304D01*
X163314874Y-56354717D01*
X163280998Y-56308784D01*
X163271522Y-56286802D01*
X162420212Y-55435492D01*
X162406268Y-55427878D01*
X162404435Y-55428009D01*
X162397820Y-55432260D01*
X161546320Y-56283760D01*
X161525374Y-56322118D01*
X161496618Y-56357542D01*
X161352447Y-56480676D01*
X161337431Y-56493501D01*
X161183224Y-56674054D01*
X161180645Y-56678262D01*
X161180641Y-56678268D01*
X161082928Y-56837721D01*
X161059160Y-56876507D01*
X161057267Y-56881077D01*
X161057265Y-56881081D01*
X160970189Y-57091303D01*
X160968295Y-57095876D01*
X160967140Y-57100688D01*
X160914552Y-57319734D01*
X160912865Y-57326759D01*
X160894235Y-57563470D01*
X160894623Y-57568400D01*
X160900934Y-57648584D01*
X160886338Y-57718064D01*
X160836496Y-57768623D01*
X160775322Y-57784470D01*
X160671913Y-57784470D01*
X160665461Y-57785842D01*
X160665456Y-57785842D01*
X160578513Y-57804323D01*
X160485112Y-57824176D01*
X160479082Y-57826861D01*
X160479081Y-57826861D01*
X160316678Y-57899167D01*
X160316676Y-57899168D01*
X160310648Y-57901852D01*
X160305307Y-57905732D01*
X160305306Y-57905733D01*
X160197840Y-57983812D01*
X160156147Y-58014104D01*
X160151732Y-58019007D01*
X160146820Y-58023430D01*
X160145179Y-58021608D01*
X160094190Y-58053020D01*
X160061001Y-58057470D01*
X159593919Y-58057470D01*
X159525798Y-58037468D01*
X159479305Y-57983812D01*
X159469201Y-57913538D01*
X159484800Y-57868470D01*
X159566623Y-57726749D01*
X159566624Y-57726748D01*
X159569927Y-57721026D01*
X159628942Y-57539398D01*
X159635439Y-57477588D01*
X159648214Y-57356035D01*
X159648904Y-57349470D01*
X159634296Y-57210482D01*
X159629632Y-57166105D01*
X159629632Y-57166103D01*
X159628942Y-57159542D01*
X159569927Y-56977914D01*
X159553969Y-56950273D01*
X159529367Y-56907662D01*
X159474440Y-56812526D01*
X159452857Y-56788555D01*
X159351075Y-56675515D01*
X159351074Y-56675514D01*
X159346653Y-56670604D01*
X159192152Y-56558352D01*
X159186124Y-56555668D01*
X159186122Y-56555667D01*
X159023719Y-56483361D01*
X159023718Y-56483361D01*
X159017688Y-56480676D01*
X158924288Y-56460823D01*
X158837344Y-56442342D01*
X158837339Y-56442342D01*
X158830887Y-56440970D01*
X158704603Y-56440970D01*
X158656334Y-56428579D01*
X158655519Y-56430638D01*
X158648149Y-56427720D01*
X158641203Y-56423901D01*
X158633531Y-56421931D01*
X158633523Y-56421928D01*
X158621489Y-56418839D01*
X158602787Y-56412436D01*
X158584108Y-56404353D01*
X158550272Y-56398994D01*
X158540273Y-56397410D01*
X158528660Y-56395005D01*
X158485682Y-56383970D01*
X158465335Y-56383970D01*
X158445624Y-56382419D01*
X158433350Y-56380475D01*
X158425521Y-56379235D01*
X158417629Y-56379981D01*
X158381344Y-56383411D01*
X158369486Y-56383970D01*
X158072900Y-56383970D01*
X158004779Y-56363968D01*
X157958286Y-56310312D01*
X157946900Y-56257970D01*
X157946900Y-56180970D01*
X157966902Y-56112849D01*
X158020558Y-56066356D01*
X158072900Y-56054970D01*
X159542428Y-56054970D01*
X159571625Y-56059125D01*
X159572692Y-56059587D01*
X159580521Y-56060827D01*
X159616527Y-56066530D01*
X159628140Y-56068935D01*
X159671118Y-56079970D01*
X159680001Y-56079970D01*
X159680723Y-56080182D01*
X159686912Y-56080964D01*
X159686786Y-56081962D01*
X159748122Y-56099972D01*
X159765308Y-56114579D01*
X159765820Y-56114010D01*
X159770732Y-56118433D01*
X159775147Y-56123336D01*
X159796729Y-56139016D01*
X159901628Y-56215230D01*
X159929648Y-56235588D01*
X159935676Y-56238272D01*
X159935678Y-56238273D01*
X160098081Y-56310579D01*
X160104112Y-56313264D01*
X160197512Y-56333117D01*
X160284456Y-56351598D01*
X160284461Y-56351598D01*
X160290913Y-56352970D01*
X160481887Y-56352970D01*
X160488339Y-56351598D01*
X160488344Y-56351598D01*
X160575288Y-56333117D01*
X160668688Y-56313264D01*
X160674719Y-56310579D01*
X160837122Y-56238273D01*
X160837124Y-56238272D01*
X160843152Y-56235588D01*
X160997653Y-56123336D01*
X161018690Y-56099972D01*
X161121021Y-55986322D01*
X161121022Y-55986321D01*
X161125440Y-55981414D01*
X161128741Y-55975696D01*
X161132624Y-55970352D01*
X161134644Y-55971819D01*
X161177861Y-55930596D01*
X161183936Y-55927724D01*
X162318305Y-54793355D01*
X162380617Y-54759329D01*
X162451432Y-54764394D01*
G37*
G04 #@! TD.AperFunction*
G04 #@! TA.AperFunction,Conductor*
G36*
X147936606Y-50153883D02*
G01*
X147999862Y-50158501D01*
X148056635Y-50201132D01*
X148075518Y-50237645D01*
X148075787Y-50238475D01*
X148080931Y-50261526D01*
X148080979Y-50261905D01*
X148080980Y-50261910D01*
X148081973Y-50269769D01*
X148084889Y-50277134D01*
X148084890Y-50277138D01*
X148102720Y-50322170D01*
X148105402Y-50329620D01*
X148118971Y-50371381D01*
X148122812Y-50383203D01*
X148127055Y-50389890D01*
X148127057Y-50389893D01*
X148127260Y-50390212D01*
X148138026Y-50411342D01*
X148141081Y-50419058D01*
X148145741Y-50425472D01*
X148174203Y-50464647D01*
X148178651Y-50471193D01*
X148204595Y-50512074D01*
X148204598Y-50512077D01*
X148208847Y-50518773D01*
X148214894Y-50524451D01*
X148230582Y-50542246D01*
X148235458Y-50548957D01*
X148274415Y-50581185D01*
X148278874Y-50584874D01*
X148284808Y-50590106D01*
X148302613Y-50606825D01*
X148325894Y-50628687D01*
X148332838Y-50632505D01*
X148332840Y-50632506D01*
X148333168Y-50632686D01*
X148352779Y-50646014D01*
X148353062Y-50646248D01*
X148353066Y-50646251D01*
X148359176Y-50651305D01*
X148384527Y-50663234D01*
X148410164Y-50675298D01*
X148417196Y-50678880D01*
X148466597Y-50706039D01*
X148474271Y-50708009D01*
X148474273Y-50708010D01*
X148474476Y-50708062D01*
X148474635Y-50708103D01*
X148496948Y-50716136D01*
X148497284Y-50716294D01*
X148497287Y-50716295D01*
X148504459Y-50719670D01*
X148512244Y-50721155D01*
X148512247Y-50721156D01*
X148559812Y-50730229D01*
X148567537Y-50731956D01*
X148590716Y-50737907D01*
X148622118Y-50745970D01*
X148630417Y-50745970D01*
X148654026Y-50748202D01*
X148654391Y-50748272D01*
X148654396Y-50748272D01*
X148662179Y-50749757D01*
X148718414Y-50746219D01*
X148726325Y-50745970D01*
X149426900Y-50745970D01*
X149495021Y-50765972D01*
X149541514Y-50819628D01*
X149552900Y-50871970D01*
X149552900Y-51760550D01*
X149532898Y-51828671D01*
X149527730Y-51836109D01*
X149489590Y-51886999D01*
X149489226Y-51887485D01*
X149432366Y-51930000D01*
X149361548Y-51935025D01*
X149299255Y-51900966D01*
X149287574Y-51887485D01*
X149287210Y-51886999D01*
X149226661Y-51806209D01*
X149208167Y-51792348D01*
X149184835Y-51774862D01*
X149142320Y-51718003D01*
X149136987Y-51688396D01*
X149129925Y-51664347D01*
X149128535Y-51663142D01*
X149120852Y-51661471D01*
X149068731Y-51661471D01*
X149061912Y-51661840D01*
X149021480Y-51666232D01*
X148951597Y-51653703D01*
X148918779Y-51630064D01*
X147694702Y-50405987D01*
X147687126Y-50397661D01*
X147683005Y-50391167D01*
X147672518Y-50381319D01*
X147636552Y-50320106D01*
X147639391Y-50249166D01*
X147680131Y-50191022D01*
X147745839Y-50164134D01*
X147758771Y-50163469D01*
X147827495Y-50163469D01*
X147834014Y-50163132D01*
X147936463Y-50152502D01*
X147936606Y-50153883D01*
G37*
G04 #@! TD.AperFunction*
G04 #@! TA.AperFunction,Conductor*
G36*
X146598920Y-46066972D02*
G01*
X146645413Y-46120628D01*
X146655517Y-46190902D01*
X146626023Y-46255482D01*
X146570676Y-46292493D01*
X146513407Y-46311600D01*
X146513405Y-46311601D01*
X146506454Y-46313920D01*
X146356052Y-46406992D01*
X146231095Y-46532167D01*
X146227255Y-46538397D01*
X146227254Y-46538398D01*
X146143512Y-46674253D01*
X146138285Y-46682732D01*
X146135981Y-46689679D01*
X146095346Y-46812191D01*
X146082603Y-46850609D01*
X146081903Y-46857445D01*
X146081902Y-46857448D01*
X146077548Y-46899948D01*
X146071900Y-46955070D01*
X146071900Y-47555870D01*
X146072237Y-47559116D01*
X146072237Y-47559120D01*
X146082018Y-47653384D01*
X146082874Y-47661636D01*
X146085055Y-47668172D01*
X146085055Y-47668174D01*
X146109573Y-47741663D01*
X146138850Y-47829416D01*
X146231922Y-47979818D01*
X146357097Y-48104775D01*
X146361635Y-48107572D01*
X146402224Y-48164823D01*
X146405454Y-48235746D01*
X146369828Y-48297157D01*
X146361332Y-48304532D01*
X146351193Y-48312568D01*
X146236661Y-48427299D01*
X146227649Y-48438710D01*
X146142584Y-48576713D01*
X146136437Y-48589894D01*
X146085262Y-48744180D01*
X146082395Y-48757556D01*
X146072728Y-48851908D01*
X146072400Y-48858325D01*
X146072400Y-48883355D01*
X146076875Y-48898594D01*
X146078265Y-48899799D01*
X146085948Y-48901470D01*
X147940900Y-48901470D01*
X148009021Y-48921472D01*
X148055514Y-48975128D01*
X148066900Y-49027470D01*
X148066900Y-49283470D01*
X148046898Y-49351591D01*
X147993242Y-49398084D01*
X147940900Y-49409470D01*
X146090516Y-49409470D01*
X146075277Y-49413945D01*
X146074072Y-49415335D01*
X146072401Y-49423018D01*
X146072401Y-49452565D01*
X146072738Y-49459084D01*
X146082657Y-49554676D01*
X146085549Y-49568070D01*
X146136988Y-49722254D01*
X146143161Y-49735432D01*
X146228463Y-49873277D01*
X146237499Y-49884678D01*
X146301729Y-49948797D01*
X146335808Y-50011080D01*
X146330805Y-50081900D01*
X146288307Y-50138773D01*
X146221808Y-50163641D01*
X146212711Y-50163970D01*
X143456387Y-50163970D01*
X143388266Y-50143968D01*
X143341773Y-50090312D01*
X143331060Y-50050974D01*
X143321638Y-49960162D01*
X143321637Y-49960158D01*
X143320926Y-49953304D01*
X143316356Y-49939604D01*
X143267268Y-49792472D01*
X143264950Y-49785524D01*
X143171878Y-49635122D01*
X143046703Y-49510165D01*
X143042165Y-49507368D01*
X143001576Y-49450117D01*
X142998346Y-49379194D01*
X143033972Y-49317783D01*
X143042468Y-49310408D01*
X143052607Y-49302372D01*
X143167139Y-49187641D01*
X143176151Y-49176230D01*
X143261216Y-49038227D01*
X143267363Y-49025046D01*
X143318538Y-48870760D01*
X143321405Y-48857384D01*
X143331072Y-48763032D01*
X143331400Y-48756616D01*
X143331400Y-48731585D01*
X143326925Y-48716346D01*
X143325535Y-48715141D01*
X143317852Y-48713470D01*
X141970400Y-48713470D01*
X141902279Y-48693468D01*
X141855786Y-48639812D01*
X141844400Y-48587470D01*
X141844400Y-48187355D01*
X142352400Y-48187355D01*
X142356875Y-48202594D01*
X142358265Y-48203799D01*
X142365948Y-48205470D01*
X143313284Y-48205470D01*
X143328523Y-48200995D01*
X143329728Y-48199605D01*
X143331399Y-48191922D01*
X143331399Y-48162375D01*
X143331062Y-48155856D01*
X143321143Y-48060264D01*
X143318251Y-48046870D01*
X143266812Y-47892686D01*
X143260639Y-47879508D01*
X143175337Y-47741663D01*
X143166301Y-47730262D01*
X143051571Y-47615731D01*
X143040160Y-47606719D01*
X142902157Y-47521654D01*
X142888976Y-47515507D01*
X142734690Y-47464332D01*
X142721314Y-47461465D01*
X142626962Y-47451798D01*
X142620545Y-47451470D01*
X142370515Y-47451470D01*
X142355276Y-47455945D01*
X142354071Y-47457335D01*
X142352400Y-47465018D01*
X142352400Y-48187355D01*
X141844400Y-48187355D01*
X141844400Y-47469586D01*
X141839925Y-47454347D01*
X141838535Y-47453142D01*
X141830852Y-47451471D01*
X141727304Y-47451471D01*
X141659183Y-47431469D01*
X141612690Y-47377813D01*
X141601994Y-47312300D01*
X141605831Y-47275799D01*
X141614904Y-47189470D01*
X141605655Y-47101470D01*
X141595632Y-47006105D01*
X141595632Y-47006103D01*
X141594942Y-46999542D01*
X141535927Y-46817914D01*
X141516368Y-46784036D01*
X141492614Y-46742894D01*
X141440440Y-46652526D01*
X141411127Y-46619970D01*
X141380638Y-46586109D01*
X141369264Y-46573477D01*
X141338546Y-46509470D01*
X141336900Y-46489167D01*
X141336900Y-46172970D01*
X141356902Y-46104849D01*
X141410558Y-46058356D01*
X141462900Y-46046970D01*
X146530799Y-46046970D01*
X146598920Y-46066972D01*
G37*
G04 #@! TD.AperFunction*
G04 #@! TA.AperFunction,Conductor*
G36*
X149957521Y-48821472D02*
G01*
X150004014Y-48875128D01*
X150015400Y-48927470D01*
X150015400Y-49183470D01*
X149995398Y-49251591D01*
X149941742Y-49298084D01*
X149889400Y-49309470D01*
X149463900Y-49309470D01*
X149395779Y-49289468D01*
X149349286Y-49235812D01*
X149337900Y-49183470D01*
X149337900Y-48927470D01*
X149357902Y-48859349D01*
X149411558Y-48812856D01*
X149463900Y-48801470D01*
X149889400Y-48801470D01*
X149957521Y-48821472D01*
G37*
G04 #@! TD.AperFunction*
G04 #@! TD*
M02*
