M48
; DRILL file {KiCad (6.0.10)} date Fri Aug  4 22:23:38 2023
; FORMAT={-:-/ absolute / inch / decimal}
; #@! TF.CreationDate,2023-08-04T22:23:38-04:00
; #@! TF.GenerationSoftware,Kicad,Pcbnew,(6.0.10)
; #@! TF.FileFunction,Plated,1,2,PTH
FMAT,2
INCH
; #@! TA.AperFunction,Plated,PTH,ViaDrill
T1C0.0157
; #@! TA.AperFunction,Plated,PTH,ComponentDrill
T2C0.0394
; #@! TA.AperFunction,Plated,PTH,ComponentDrill
T3C0.0579
; #@! TA.AperFunction,Plated,PTH,ComponentDrill
T4C0.0591
%
G90
G05
T1
X1.02Y-2.545
X1.135Y-2.4
X1.27Y-2.58
X1.45Y-5.91
X1.455Y-3.665
X1.455Y-4.41
X1.46Y-5.16
X1.525Y-2.455
X1.65Y-2.51
X1.68Y-2.735
X1.72Y-2.775
X1.725Y-5.23
X1.73Y-5.1
X1.735Y-3.615
X1.735Y-3.735
X1.735Y-4.345
X1.735Y-4.47
X2.04Y-3.665
X2.045Y-4.41
X2.05Y-5.16
X2.055Y-5.91
X2.18Y-2.84
X2.185Y-2.455
X2.19Y-4.415
X2.2Y-3.66
X2.2Y-5.165
X2.2Y-5.91
X2.235Y-2.655
X2.24Y-2.235
X2.24Y-2.805
X2.25Y-2.37
X2.265Y-2.62
X2.49Y-5.12
X2.495Y-4.36
X2.495Y-5.225
X2.5Y-3.6
X2.5Y-3.71
X2.5Y-4.485
X2.655Y-3.045
X2.795Y-5.165
X2.8Y-3.665
X2.8Y-4.415
X2.805Y-5.91
X2.86Y-2.68
X2.935Y-2.625
X2.94Y-2.7329
X2.945Y-5.915
X2.95Y-3.67
X2.95Y-4.41
X2.955Y-5.16
X2.995Y-2.76
X3.03Y-4.5
X3.035Y-3.545
X3.035Y-3.76
X3.04Y-2.335
X3.04Y-2.405
X3.04Y-4.315
X3.07Y-2.865
X3.09Y-5.32
X3.165Y-2.99
X3.22Y-4.32
X3.225Y-4.49
X3.24Y-3.545
X3.245Y-3.72
X3.47Y-2.945
X3.545Y-3.665
X3.55Y-4.41
X3.6Y-2.84
X3.67Y-2.84
X3.68Y-2.76
T2
X0.8706Y-2.3889
X0.8706Y-2.4889
X0.8706Y-2.5889
X0.8706Y-2.6889
X3.0046Y-2.4916
X3.0046Y-2.59
X3.0046Y-2.6884
X3.5754Y-2.4916
X3.5754Y-2.6884
T3
X0.945Y-3.2216
X0.945Y-3.9716
X0.945Y-4.7216
X0.945Y-5.4716
X0.9966Y-3.1641
X0.9966Y-3.9141
X0.9966Y-4.6641
X0.9966Y-5.4141
X1.1934Y-3.1444
X1.1934Y-3.8944
X1.1934Y-4.6444
X1.1934Y-5.3945
X1.195Y-3.1216
X1.195Y-3.8716
X1.195Y-4.6216
X1.195Y-5.3716
X1.695Y-3.2216
X1.695Y-3.9716
X1.695Y-4.7216
X1.695Y-5.4716
X1.7466Y-3.1641
X1.7466Y-3.9141
X1.7466Y-4.6641
X1.7466Y-5.4141
X1.9434Y-3.1444
X1.9434Y-3.8944
X1.9434Y-4.6444
X1.9434Y-5.3945
X1.945Y-3.1216
X1.945Y-3.8716
X1.945Y-4.6216
X1.945Y-5.3716
X2.445Y-3.2216
X2.445Y-3.9716
X2.445Y-4.7216
X2.445Y-5.4716
X2.4966Y-3.1641
X2.4966Y-3.9141
X2.4966Y-4.6641
X2.4966Y-5.4141
X2.6934Y-3.1444
X2.6934Y-3.8944
X2.6934Y-4.6444
X2.6934Y-5.3945
X2.695Y-3.1216
X2.695Y-3.8716
X2.695Y-4.6216
X2.695Y-5.3716
X3.195Y-3.2216
X3.195Y-3.9716
X3.2466Y-3.1641
X3.2466Y-3.9141
X3.4434Y-3.1444
X3.4434Y-3.8944
X3.445Y-3.1216
X3.445Y-3.8716
X3.4478Y-5.05
X3.5053Y-5.1016
X3.5249Y-5.2984
X3.5478Y-5.3
T4
G00X3.2743Y-2.3695
M15
G01X3.3254Y-2.3695
M16
G05
G00X3.2743Y-2.8105
M15
G01X3.3254Y-2.8105
M16
G05
T0
M30
