G04 #@! TF.GenerationSoftware,KiCad,Pcbnew,(6.0.10)*
G04 #@! TF.CreationDate,2023-08-04T22:23:19-04:00*
G04 #@! TF.ProjectId,NugMacro-Keypad,4e75674d-6163-4726-9f2d-4b6579706164,rev?*
G04 #@! TF.SameCoordinates,Original*
G04 #@! TF.FileFunction,Soldermask,Bot*
G04 #@! TF.FilePolarity,Negative*
%FSLAX46Y46*%
G04 Gerber Fmt 4.6, Leading zero omitted, Abs format (unit mm)*
G04 Created by KiCad (PCBNEW (6.0.10)) date 2023-08-04 22:23:19*
%MOMM*%
%LPD*%
G01*
G04 APERTURE LIST*
G04 Aperture macros list*
%AMRoundRect*
0 Rectangle with rounded corners*
0 $1 Rounding radius*
0 $2 $3 $4 $5 $6 $7 $8 $9 X,Y pos of 4 corners*
0 Add a 4 corners polygon primitive as box body*
4,1,4,$2,$3,$4,$5,$6,$7,$8,$9,$2,$3,0*
0 Add four circle primitives for the rounded corners*
1,1,$1+$1,$2,$3*
1,1,$1+$1,$4,$5*
1,1,$1+$1,$6,$7*
1,1,$1+$1,$8,$9*
0 Add four rect primitives between the rounded corners*
20,1,$1+$1,$2,$3,$4,$5,0*
20,1,$1+$1,$4,$5,$6,$7,0*
20,1,$1+$1,$6,$7,$8,$9,0*
20,1,$1+$1,$8,$9,$2,$3,0*%
%AMHorizOval*
0 Thick line with rounded ends*
0 $1 width*
0 $2 $3 position (X,Y) of the first rounded end (center of the circle)*
0 $4 $5 position (X,Y) of the second rounded end (center of the circle)*
0 Add line between two ends*
20,1,$1,$2,$3,$4,$5,0*
0 Add two circle primitives to create the rounded ends*
1,1,$1,$2,$3*
1,1,$1,$4,$5*%
G04 Aperture macros list end*
%ADD10R,0.550000X1.500000*%
%ADD11R,1.500000X0.550000*%
%ADD12HorizOval,2.250000X0.020000X0.290000X-0.020000X-0.290000X0*%
%ADD13C,2.250000*%
%ADD14HorizOval,2.250000X0.655001X0.730000X-0.655001X-0.730000X0*%
%ADD15C,1.750000*%
%ADD16C,3.987800*%
%ADD17C,2.000000*%
%ADD18R,3.200000X2.000000*%
%ADD19R,2.000000X2.000000*%
%ADD20HorizOval,2.250000X0.290000X-0.020000X-0.290000X0.020000X0*%
%ADD21HorizOval,2.250000X0.730000X-0.655001X-0.730000X0.655001X0*%
%ADD22C,3.048000*%
%ADD23R,1.700000X1.700000*%
%ADD24O,1.700000X1.700000*%
%ADD25RoundRect,0.250000X0.450000X-0.262500X0.450000X0.262500X-0.450000X0.262500X-0.450000X-0.262500X0*%
%ADD26R,1.200000X0.900000*%
%ADD27RoundRect,0.250000X-0.475000X0.250000X-0.475000X-0.250000X0.475000X-0.250000X0.475000X0.250000X0*%
%ADD28RoundRect,0.250000X0.262500X0.450000X-0.262500X0.450000X-0.262500X-0.450000X0.262500X-0.450000X0*%
%ADD29R,0.900000X1.200000*%
%ADD30R,0.600000X1.550000*%
%ADD31R,1.200000X1.800000*%
%ADD32R,1.800000X1.100000*%
%ADD33RoundRect,0.250000X0.475000X-0.250000X0.475000X0.250000X-0.475000X0.250000X-0.475000X-0.250000X0*%
%ADD34R,1.400000X1.200000*%
%ADD35RoundRect,0.250000X0.250000X0.475000X-0.250000X0.475000X-0.250000X-0.475000X0.250000X-0.475000X0*%
G04 APERTURE END LIST*
D10*
X60897000Y-75042000D03*
X61697000Y-75042000D03*
X62497000Y-75042000D03*
X63297000Y-75042000D03*
X64097000Y-75042000D03*
X64897000Y-75042000D03*
X65697000Y-75042000D03*
X66497000Y-75042000D03*
X67297000Y-75042000D03*
X68097000Y-75042000D03*
X68897000Y-75042000D03*
D11*
X70597000Y-73342000D03*
X70597000Y-72542000D03*
X70597000Y-71742000D03*
X70597000Y-70942000D03*
X70597000Y-70142000D03*
X70597000Y-69342000D03*
X70597000Y-68542000D03*
X70597000Y-67742000D03*
X70597000Y-66942000D03*
X70597000Y-66142000D03*
X70597000Y-65342000D03*
D10*
X68897000Y-63642000D03*
X68097000Y-63642000D03*
X67297000Y-63642000D03*
X66497000Y-63642000D03*
X65697000Y-63642000D03*
X64897000Y-63642000D03*
X64097000Y-63642000D03*
X63297000Y-63642000D03*
X62497000Y-63642000D03*
X61697000Y-63642000D03*
X60897000Y-63642000D03*
D11*
X59197000Y-65342000D03*
X59197000Y-66142000D03*
X59197000Y-66942000D03*
X59197000Y-67742000D03*
X59197000Y-68542000D03*
X59197000Y-69342000D03*
X59197000Y-70142000D03*
X59197000Y-70942000D03*
X59197000Y-71742000D03*
X59197000Y-72542000D03*
X59197000Y-73342000D03*
D12*
X87483035Y-98628930D03*
D13*
X87503035Y-98338930D03*
X82463035Y-99418930D03*
D14*
X81808036Y-100148930D03*
D15*
X79883035Y-103418930D03*
X90043035Y-103418930D03*
D16*
X84963035Y-103418930D03*
D12*
X30332965Y-79578930D03*
D13*
X30352965Y-79288930D03*
D14*
X24657966Y-81098930D03*
D13*
X25312965Y-80368930D03*
D15*
X22732965Y-84368930D03*
D16*
X27812965Y-84368930D03*
D15*
X32892965Y-84368930D03*
D12*
X49382935Y-117679030D03*
D13*
X49402935Y-117389030D03*
D14*
X43707936Y-119199030D03*
D13*
X44362935Y-118469030D03*
D15*
X51942935Y-122469030D03*
D16*
X46862935Y-122469030D03*
D15*
X41782935Y-122469030D03*
D12*
X87483035Y-79578930D03*
D13*
X87503035Y-79288930D03*
D14*
X81808036Y-81098930D03*
D13*
X82463035Y-80368930D03*
D15*
X90043035Y-84368930D03*
D16*
X84963035Y-84368930D03*
D15*
X79883035Y-84368930D03*
D13*
X49402935Y-136439070D03*
D12*
X49382935Y-136729070D03*
D14*
X43707936Y-138249070D03*
D13*
X44362935Y-137519070D03*
D15*
X41782935Y-141519070D03*
X51942935Y-141519070D03*
D16*
X46862935Y-141519070D03*
D13*
X68453035Y-98338930D03*
D12*
X68433035Y-98628930D03*
D13*
X63413035Y-99418930D03*
D14*
X62758036Y-100148930D03*
D16*
X65913035Y-103418930D03*
D15*
X60833035Y-103418930D03*
X70993035Y-103418930D03*
D12*
X30332965Y-98628930D03*
D13*
X30352965Y-98338930D03*
X25312965Y-99418930D03*
D14*
X24657966Y-100148930D03*
D16*
X27812965Y-103418930D03*
D15*
X32892965Y-103418930D03*
X22732965Y-103418930D03*
D13*
X68453035Y-136439070D03*
D12*
X68433035Y-136729070D03*
D13*
X63413035Y-137519070D03*
D14*
X62758036Y-138249070D03*
D15*
X70993035Y-141519070D03*
X60833035Y-141519070D03*
D16*
X65913035Y-141519070D03*
D13*
X68453035Y-117389030D03*
D12*
X68433035Y-117679030D03*
D14*
X62758036Y-119199030D03*
D13*
X63413035Y-118469030D03*
D15*
X70993035Y-122469030D03*
D16*
X65913035Y-122469030D03*
D15*
X60833035Y-122469030D03*
D17*
X90816000Y-63286000D03*
X90816000Y-68286000D03*
D18*
X83816000Y-71386000D03*
X83816000Y-60186000D03*
D17*
X76316000Y-65786000D03*
X76316000Y-68286000D03*
D19*
X76316000Y-63286000D03*
D13*
X90113450Y-134620000D03*
D20*
X89823450Y-134600000D03*
D13*
X89033450Y-129580000D03*
D21*
X88303450Y-128925001D03*
D15*
X85033450Y-127000000D03*
D16*
X76778450Y-120142000D03*
D22*
X92018450Y-120142000D03*
D15*
X85033450Y-137160000D03*
D16*
X76778450Y-144018000D03*
X85033450Y-132080000D03*
D22*
X92018450Y-144018000D03*
D12*
X30332965Y-117679030D03*
D13*
X30352965Y-117389030D03*
D14*
X24657966Y-119199030D03*
D13*
X25312965Y-118469030D03*
D16*
X27812965Y-122469030D03*
D15*
X32892965Y-122469030D03*
X22732965Y-122469030D03*
D13*
X30352965Y-136439070D03*
D12*
X30332965Y-136729070D03*
D13*
X25312965Y-137519070D03*
D14*
X24657966Y-138249070D03*
D16*
X27812965Y-141519070D03*
D15*
X22732965Y-141519070D03*
X32892965Y-141519070D03*
D23*
X22113181Y-68297935D03*
D24*
X22113181Y-65757935D03*
X22113181Y-63217935D03*
X22113181Y-60677935D03*
D12*
X49382935Y-98628930D03*
D13*
X49402935Y-98338930D03*
D14*
X43707936Y-100148930D03*
D13*
X44362935Y-99418930D03*
D15*
X41782935Y-103418930D03*
X51942935Y-103418930D03*
D16*
X46862935Y-103418930D03*
D12*
X49382935Y-79578930D03*
D13*
X49402935Y-79288930D03*
X44362935Y-80368930D03*
D14*
X43707936Y-81098930D03*
D15*
X51942935Y-84368930D03*
X41782935Y-84368930D03*
D16*
X46862935Y-84368930D03*
D12*
X68433035Y-79578930D03*
D13*
X68453035Y-79288930D03*
X63413035Y-80368930D03*
D14*
X62758036Y-81098930D03*
D15*
X60833035Y-84368930D03*
D16*
X65913035Y-84368930D03*
D15*
X70993035Y-84368930D03*
D25*
X35560000Y-64158500D03*
X35560000Y-62333500D03*
D26*
X34812700Y-130936000D03*
X34812700Y-127636000D03*
X34812965Y-150169070D03*
X34812965Y-146869070D03*
D27*
X44831000Y-65471000D03*
X44831000Y-67371000D03*
D26*
X53862600Y-150168670D03*
X53862600Y-146868670D03*
D28*
X74144500Y-73787000D03*
X75969500Y-73787000D03*
D25*
X32258000Y-64158500D03*
X32258000Y-62333500D03*
D26*
X78359000Y-133576000D03*
X78359000Y-130276000D03*
D29*
X89790000Y-74803000D03*
X93090000Y-74803000D03*
D30*
X35536000Y-58877000D03*
X34536000Y-58877000D03*
X33536000Y-58877000D03*
X32536000Y-58877000D03*
D31*
X36836000Y-55002000D03*
X31236000Y-55002000D03*
D27*
X42418000Y-67371000D03*
X42418000Y-65471000D03*
D25*
X73279000Y-59641000D03*
X73279000Y-57816000D03*
D26*
X91963035Y-112068930D03*
X91963035Y-108768930D03*
X72912600Y-112068530D03*
X72912600Y-108768530D03*
D28*
X54760500Y-58166000D03*
X52935500Y-58166000D03*
D32*
X47931000Y-61286000D03*
X41731000Y-57586000D03*
X47931000Y-57586000D03*
X41731000Y-61286000D03*
D26*
X53862600Y-112068530D03*
X53862600Y-108768530D03*
D33*
X68326000Y-59878000D03*
X68326000Y-57978000D03*
D26*
X72912600Y-150168670D03*
X72912600Y-146868670D03*
D34*
X65870000Y-59778000D03*
X63670000Y-59778000D03*
X63670000Y-58078000D03*
X65870000Y-58078000D03*
D27*
X61214000Y-57978000D03*
X61214000Y-59878000D03*
D26*
X72913035Y-93018930D03*
X72913035Y-89718930D03*
X72912600Y-131118630D03*
X72912600Y-127818630D03*
X53862935Y-93018930D03*
X53862935Y-89718930D03*
X34812965Y-93018930D03*
X34812965Y-89718930D03*
D35*
X54859000Y-69342000D03*
X52959000Y-69342000D03*
D27*
X47244000Y-67371000D03*
X47244000Y-65471000D03*
D26*
X34812700Y-111886000D03*
X34812700Y-108586000D03*
X53862935Y-131119030D03*
X53862935Y-127819030D03*
D27*
X52197000Y-65471000D03*
X52197000Y-67371000D03*
D25*
X75311000Y-57816000D03*
X75311000Y-59641000D03*
D27*
X49657000Y-65471000D03*
X49657000Y-67371000D03*
D26*
X91962600Y-93018530D03*
X91962600Y-89718530D03*
M02*
