G04 #@! TF.GenerationSoftware,KiCad,Pcbnew,(6.0.10)*
G04 #@! TF.CreationDate,2023-08-04T22:23:19-04:00*
G04 #@! TF.ProjectId,NugMacro-Keypad,4e75674d-6163-4726-9f2d-4b6579706164,rev?*
G04 #@! TF.SameCoordinates,Original*
G04 #@! TF.FileFunction,Soldermask,Top*
G04 #@! TF.FilePolarity,Negative*
%FSLAX46Y46*%
G04 Gerber Fmt 4.6, Leading zero omitted, Abs format (unit mm)*
G04 Created by KiCad (PCBNEW (6.0.10)) date 2023-08-04 22:23:19*
%MOMM*%
%LPD*%
G01*
G04 APERTURE LIST*
%ADD10C,1.750000*%
%ADD11C,3.987800*%
%ADD12C,2.000000*%
%ADD13R,3.200000X2.000000*%
%ADD14R,2.000000X2.000000*%
%ADD15C,3.048000*%
%ADD16R,1.700000X1.700000*%
%ADD17O,1.700000X1.700000*%
G04 APERTURE END LIST*
D10*
X79883035Y-103418930D03*
X90043035Y-103418930D03*
D11*
X84963035Y-103418930D03*
D10*
X22732965Y-84368930D03*
D11*
X27812965Y-84368930D03*
D10*
X32892965Y-84368930D03*
X51942935Y-122469030D03*
D11*
X46862935Y-122469030D03*
D10*
X41782935Y-122469030D03*
X90043035Y-84368930D03*
D11*
X84963035Y-84368930D03*
D10*
X79883035Y-84368930D03*
X41782935Y-141519070D03*
X51942935Y-141519070D03*
D11*
X46862935Y-141519070D03*
X65913035Y-103418930D03*
D10*
X60833035Y-103418930D03*
X70993035Y-103418930D03*
D11*
X27812965Y-103418930D03*
D10*
X32892965Y-103418930D03*
X22732965Y-103418930D03*
X70993035Y-141519070D03*
X60833035Y-141519070D03*
D11*
X65913035Y-141519070D03*
D10*
X70993035Y-122469030D03*
D11*
X65913035Y-122469030D03*
D10*
X60833035Y-122469030D03*
D12*
X90816000Y-63286000D03*
X90816000Y-68286000D03*
D13*
X83816000Y-71386000D03*
X83816000Y-60186000D03*
D12*
X76316000Y-65786000D03*
X76316000Y-68286000D03*
D14*
X76316000Y-63286000D03*
D10*
X85033450Y-127000000D03*
D11*
X76778450Y-120142000D03*
D15*
X92018450Y-120142000D03*
D10*
X85033450Y-137160000D03*
D11*
X76778450Y-144018000D03*
X85033450Y-132080000D03*
D15*
X92018450Y-144018000D03*
D11*
X27812965Y-122469030D03*
D10*
X32892965Y-122469030D03*
X22732965Y-122469030D03*
D11*
X27812965Y-141519070D03*
D10*
X22732965Y-141519070D03*
X32892965Y-141519070D03*
D16*
X22113181Y-68297935D03*
D17*
X22113181Y-65757935D03*
X22113181Y-63217935D03*
X22113181Y-60677935D03*
D10*
X41782935Y-103418930D03*
X51942935Y-103418930D03*
D11*
X46862935Y-103418930D03*
D10*
X51942935Y-84368930D03*
X41782935Y-84368930D03*
D11*
X46862935Y-84368930D03*
D10*
X60833035Y-84368930D03*
D11*
X65913035Y-84368930D03*
D10*
X70993035Y-84368930D03*
M02*
