G04 #@! TF.GenerationSoftware,KiCad,Pcbnew,(6.0.10)*
G04 #@! TF.CreationDate,2023-08-06T19:18:38-04:00*
G04 #@! TF.ProjectId,NugMacro-Keypad,4e75674d-6163-4726-9f2d-4b6579706164,V3*
G04 #@! TF.SameCoordinates,Original*
G04 #@! TF.FileFunction,Legend,Bot*
G04 #@! TF.FilePolarity,Positive*
%FSLAX46Y46*%
G04 Gerber Fmt 4.6, Leading zero omitted, Abs format (unit mm)*
G04 Created by KiCad (PCBNEW (6.0.10)) date 2023-08-06 19:18:38*
%MOMM*%
%LPD*%
G01*
G04 APERTURE LIST*
G04 Aperture macros list*
%AMRoundRect*
0 Rectangle with rounded corners*
0 $1 Rounding radius*
0 $2 $3 $4 $5 $6 $7 $8 $9 X,Y pos of 4 corners*
0 Add a 4 corners polygon primitive as box body*
4,1,4,$2,$3,$4,$5,$6,$7,$8,$9,$2,$3,0*
0 Add four circle primitives for the rounded corners*
1,1,$1+$1,$2,$3*
1,1,$1+$1,$4,$5*
1,1,$1+$1,$6,$7*
1,1,$1+$1,$8,$9*
0 Add four rect primitives between the rounded corners*
20,1,$1+$1,$2,$3,$4,$5,0*
20,1,$1+$1,$4,$5,$6,$7,0*
20,1,$1+$1,$6,$7,$8,$9,0*
20,1,$1+$1,$8,$9,$2,$3,0*%
%AMHorizOval*
0 Thick line with rounded ends*
0 $1 width*
0 $2 $3 position (X,Y) of the first rounded end (center of the circle)*
0 $4 $5 position (X,Y) of the second rounded end (center of the circle)*
0 Add line between two ends*
20,1,$1,$2,$3,$4,$5,0*
0 Add two circle primitives to create the rounded ends*
1,1,$1,$2,$3*
1,1,$1,$4,$5*%
G04 Aperture macros list end*
%ADD10C,0.150000*%
%ADD11C,0.120000*%
%ADD12C,3.987800*%
%ADD13C,1.750000*%
%ADD14HorizOval,2.250000X0.655001X0.730000X-0.655001X-0.730000X0*%
%ADD15C,2.250000*%
%ADD16HorizOval,2.250000X0.020000X0.290000X-0.020000X-0.290000X0*%
%ADD17R,2.000000X2.000000*%
%ADD18C,2.000000*%
%ADD19R,3.200000X2.000000*%
%ADD20C,3.048000*%
%ADD21HorizOval,2.250000X0.730000X-0.655001X-0.730000X0.655001X0*%
%ADD22HorizOval,2.250000X0.290000X-0.020000X-0.290000X0.020000X0*%
%ADD23R,1.700000X1.700000*%
%ADD24O,1.700000X1.700000*%
%ADD25RoundRect,0.250000X0.450000X-0.262500X0.450000X0.262500X-0.450000X0.262500X-0.450000X-0.262500X0*%
%ADD26R,1.200000X0.900000*%
%ADD27RoundRect,0.250000X0.475000X-0.250000X0.475000X0.250000X-0.475000X0.250000X-0.475000X-0.250000X0*%
%ADD28R,1.500000X0.550000*%
%ADD29R,0.550000X1.500000*%
%ADD30RoundRect,0.250000X0.262500X0.450000X-0.262500X0.450000X-0.262500X-0.450000X0.262500X-0.450000X0*%
%ADD31R,0.900000X1.200000*%
%ADD32R,1.200000X1.800000*%
%ADD33R,0.600000X1.550000*%
%ADD34RoundRect,0.250000X0.250000X0.475000X-0.250000X0.475000X-0.250000X-0.475000X0.250000X-0.475000X0*%
%ADD35RoundRect,0.250000X-0.450000X0.262500X-0.450000X-0.262500X0.450000X-0.262500X0.450000X0.262500X0*%
%ADD36R,1.800000X1.100000*%
%ADD37R,1.400000X1.200000*%
%ADD38RoundRect,0.250000X-0.475000X0.250000X-0.475000X-0.250000X0.475000X-0.250000X0.475000X0.250000X0*%
%ADD39RoundRect,0.250000X-0.250000X-0.475000X0.250000X-0.475000X0.250000X0.475000X-0.250000X0.475000X0*%
G04 APERTURE END LIST*
D10*
G04 #@! TO.C,R3*
X123753780Y-52356803D02*
X123277590Y-52023470D01*
X123753780Y-51785374D02*
X122753780Y-51785374D01*
X122753780Y-52166327D01*
X122801400Y-52261565D01*
X122849019Y-52309184D01*
X122944257Y-52356803D01*
X123087114Y-52356803D01*
X123182352Y-52309184D01*
X123229971Y-52261565D01*
X123277590Y-52166327D01*
X123277590Y-51785374D01*
X122753780Y-52690136D02*
X122753780Y-53309184D01*
X123134733Y-52975850D01*
X123134733Y-53118708D01*
X123182352Y-53213946D01*
X123229971Y-53261565D01*
X123325209Y-53309184D01*
X123563304Y-53309184D01*
X123658542Y-53261565D01*
X123706161Y-53213946D01*
X123753780Y-53118708D01*
X123753780Y-52832993D01*
X123706161Y-52737755D01*
X123658542Y-52690136D01*
G04 #@! TO.C,D3*
X123356745Y-118008404D02*
X122356745Y-118008404D01*
X122356745Y-118246500D01*
X122404365Y-118389357D01*
X122499603Y-118484595D01*
X122594841Y-118532214D01*
X122785317Y-118579833D01*
X122928174Y-118579833D01*
X123118650Y-118532214D01*
X123213888Y-118484595D01*
X123309126Y-118389357D01*
X123356745Y-118246500D01*
X123356745Y-118008404D01*
X122356745Y-118913166D02*
X122356745Y-119532214D01*
X122737698Y-119198880D01*
X122737698Y-119341738D01*
X122785317Y-119436976D01*
X122832936Y-119484595D01*
X122928174Y-119532214D01*
X123166269Y-119532214D01*
X123261507Y-119484595D01*
X123309126Y-119436976D01*
X123356745Y-119341738D01*
X123356745Y-119056023D01*
X123309126Y-118960785D01*
X123261507Y-118913166D01*
G04 #@! TO.C,D4*
X123356745Y-137058444D02*
X122356745Y-137058444D01*
X122356745Y-137296540D01*
X122404365Y-137439397D01*
X122499603Y-137534635D01*
X122594841Y-137582254D01*
X122785317Y-137629873D01*
X122928174Y-137629873D01*
X123118650Y-137582254D01*
X123213888Y-137534635D01*
X123309126Y-137439397D01*
X123356745Y-137296540D01*
X123356745Y-137058444D01*
X122690079Y-138487016D02*
X123356745Y-138487016D01*
X122309126Y-138248920D02*
X123023412Y-138010825D01*
X123023412Y-138629873D01*
G04 #@! TO.C,C4*
X144135542Y-49242803D02*
X144183161Y-49195184D01*
X144230780Y-49052327D01*
X144230780Y-48957089D01*
X144183161Y-48814231D01*
X144087923Y-48718993D01*
X143992685Y-48671374D01*
X143802209Y-48623755D01*
X143659352Y-48623755D01*
X143468876Y-48671374D01*
X143373638Y-48718993D01*
X143278400Y-48814231D01*
X143230780Y-48957089D01*
X143230780Y-49052327D01*
X143278400Y-49195184D01*
X143326019Y-49242803D01*
X143564114Y-50099946D02*
X144230780Y-50099946D01*
X143183161Y-49861850D02*
X143897447Y-49623755D01*
X143897447Y-50242803D01*
G04 #@! TO.C,D8*
X142406380Y-137058044D02*
X141406380Y-137058044D01*
X141406380Y-137296140D01*
X141454000Y-137438997D01*
X141549238Y-137534235D01*
X141644476Y-137581854D01*
X141834952Y-137629473D01*
X141977809Y-137629473D01*
X142168285Y-137581854D01*
X142263523Y-137534235D01*
X142358761Y-137438997D01*
X142406380Y-137296140D01*
X142406380Y-137058044D01*
X141834952Y-138200901D02*
X141787333Y-138105663D01*
X141739714Y-138058044D01*
X141644476Y-138010425D01*
X141596857Y-138010425D01*
X141501619Y-138058044D01*
X141454000Y-138105663D01*
X141406380Y-138200901D01*
X141406380Y-138391378D01*
X141454000Y-138486616D01*
X141501619Y-138534235D01*
X141596857Y-138581854D01*
X141644476Y-138581854D01*
X141739714Y-138534235D01*
X141787333Y-138486616D01*
X141834952Y-138391378D01*
X141834952Y-138200901D01*
X141882571Y-138105663D01*
X141930190Y-138058044D01*
X142025428Y-138010425D01*
X142215904Y-138010425D01*
X142311142Y-138058044D01*
X142358761Y-138105663D01*
X142406380Y-138200901D01*
X142406380Y-138391378D01*
X142358761Y-138486616D01*
X142311142Y-138534235D01*
X142215904Y-138581854D01*
X142025428Y-138581854D01*
X141930190Y-138534235D01*
X141882571Y-138486616D01*
X141834952Y-138391378D01*
G04 #@! TO.C,U1*
X151750304Y-65521850D02*
X151750304Y-66331374D01*
X151702685Y-66426612D01*
X151655066Y-66474231D01*
X151559828Y-66521850D01*
X151369352Y-66521850D01*
X151274114Y-66474231D01*
X151226495Y-66426612D01*
X151178876Y-66331374D01*
X151178876Y-65521850D01*
X150178876Y-66521850D02*
X150750304Y-66521850D01*
X150464590Y-66521850D02*
X150464590Y-65521850D01*
X150559828Y-65664708D01*
X150655066Y-65759946D01*
X150750304Y-65807565D01*
G04 #@! TO.C,R4*
X161315066Y-61866850D02*
X161648400Y-61390660D01*
X161886495Y-61866850D02*
X161886495Y-60866850D01*
X161505542Y-60866850D01*
X161410304Y-60914470D01*
X161362685Y-60962089D01*
X161315066Y-61057327D01*
X161315066Y-61200184D01*
X161362685Y-61295422D01*
X161410304Y-61343041D01*
X161505542Y-61390660D01*
X161886495Y-61390660D01*
X160457923Y-61200184D02*
X160457923Y-61866850D01*
X160696019Y-60819231D02*
X160934114Y-61533517D01*
X160315066Y-61533517D01*
G04 #@! TO.C,R2*
X120451780Y-52356803D02*
X119975590Y-52023470D01*
X120451780Y-51785374D02*
X119451780Y-51785374D01*
X119451780Y-52166327D01*
X119499400Y-52261565D01*
X119547019Y-52309184D01*
X119642257Y-52356803D01*
X119785114Y-52356803D01*
X119880352Y-52309184D01*
X119927971Y-52261565D01*
X119975590Y-52166327D01*
X119975590Y-51785374D01*
X119547019Y-52737755D02*
X119499400Y-52785374D01*
X119451780Y-52880612D01*
X119451780Y-53118708D01*
X119499400Y-53213946D01*
X119547019Y-53261565D01*
X119642257Y-53309184D01*
X119737495Y-53309184D01*
X119880352Y-53261565D01*
X120451780Y-52690136D01*
X120451780Y-53309184D01*
G04 #@! TO.C,D15*
X166902780Y-119989184D02*
X165902780Y-119989184D01*
X165902780Y-120227279D01*
X165950400Y-120370136D01*
X166045638Y-120465374D01*
X166140876Y-120512993D01*
X166331352Y-120560612D01*
X166474209Y-120560612D01*
X166664685Y-120512993D01*
X166759923Y-120465374D01*
X166855161Y-120370136D01*
X166902780Y-120227279D01*
X166902780Y-119989184D01*
X166902780Y-121512993D02*
X166902780Y-120941565D01*
X166902780Y-121227279D02*
X165902780Y-121227279D01*
X166045638Y-121132041D01*
X166140876Y-121036803D01*
X166188495Y-120941565D01*
X165902780Y-122417755D02*
X165902780Y-121941565D01*
X166378971Y-121893946D01*
X166331352Y-121941565D01*
X166283733Y-122036803D01*
X166283733Y-122274898D01*
X166331352Y-122370136D01*
X166378971Y-122417755D01*
X166474209Y-122465374D01*
X166712304Y-122465374D01*
X166807542Y-122417755D01*
X166855161Y-122370136D01*
X166902780Y-122274898D01*
X166902780Y-122036803D01*
X166855161Y-121941565D01*
X166807542Y-121893946D01*
G04 #@! TO.C,D16*
X176967685Y-66605850D02*
X176967685Y-65605850D01*
X176729590Y-65605850D01*
X176586733Y-65653470D01*
X176491495Y-65748708D01*
X176443876Y-65843946D01*
X176396257Y-66034422D01*
X176396257Y-66177279D01*
X176443876Y-66367755D01*
X176491495Y-66462993D01*
X176586733Y-66558231D01*
X176729590Y-66605850D01*
X176967685Y-66605850D01*
X175443876Y-66605850D02*
X176015304Y-66605850D01*
X175729590Y-66605850D02*
X175729590Y-65605850D01*
X175824828Y-65748708D01*
X175920066Y-65843946D01*
X176015304Y-65891565D01*
X174586733Y-65605850D02*
X174777209Y-65605850D01*
X174872447Y-65653470D01*
X174920066Y-65701089D01*
X175015304Y-65843946D01*
X175062923Y-66034422D01*
X175062923Y-66415374D01*
X175015304Y-66510612D01*
X174967685Y-66558231D01*
X174872447Y-66605850D01*
X174681971Y-66605850D01*
X174586733Y-66558231D01*
X174539114Y-66510612D01*
X174491495Y-66415374D01*
X174491495Y-66177279D01*
X174539114Y-66082041D01*
X174586733Y-66034422D01*
X174681971Y-65986803D01*
X174872447Y-65986803D01*
X174967685Y-66034422D01*
X175015304Y-66082041D01*
X175062923Y-66177279D01*
G04 #@! TO.C,J2*
X122873733Y-49077850D02*
X122873733Y-49792136D01*
X122921352Y-49934993D01*
X123016590Y-50030231D01*
X123159447Y-50077850D01*
X123254685Y-50077850D01*
X122445161Y-49173089D02*
X122397542Y-49125470D01*
X122302304Y-49077850D01*
X122064209Y-49077850D01*
X121968971Y-49125470D01*
X121921352Y-49173089D01*
X121873733Y-49268327D01*
X121873733Y-49363565D01*
X121921352Y-49506422D01*
X122492780Y-50077850D01*
X121873733Y-50077850D01*
G04 #@! TO.C,C3*
X140426066Y-56153612D02*
X140473685Y-56201231D01*
X140616542Y-56248850D01*
X140711780Y-56248850D01*
X140854638Y-56201231D01*
X140949876Y-56105993D01*
X140997495Y-56010755D01*
X141045114Y-55820279D01*
X141045114Y-55677422D01*
X140997495Y-55486946D01*
X140949876Y-55391708D01*
X140854638Y-55296470D01*
X140711780Y-55248850D01*
X140616542Y-55248850D01*
X140473685Y-55296470D01*
X140426066Y-55344089D01*
X140092733Y-55248850D02*
X139473685Y-55248850D01*
X139807019Y-55629803D01*
X139664161Y-55629803D01*
X139568923Y-55677422D01*
X139521304Y-55725041D01*
X139473685Y-55820279D01*
X139473685Y-56058374D01*
X139521304Y-56153612D01*
X139568923Y-56201231D01*
X139664161Y-56248850D01*
X139949876Y-56248850D01*
X140045114Y-56201231D01*
X140092733Y-56153612D01*
G04 #@! TO.C,R6*
X161472780Y-47839303D02*
X160996590Y-47505970D01*
X161472780Y-47267874D02*
X160472780Y-47267874D01*
X160472780Y-47648827D01*
X160520400Y-47744065D01*
X160568019Y-47791684D01*
X160663257Y-47839303D01*
X160806114Y-47839303D01*
X160901352Y-47791684D01*
X160948971Y-47744065D01*
X160996590Y-47648827D01*
X160996590Y-47267874D01*
X160472780Y-48696446D02*
X160472780Y-48505970D01*
X160520400Y-48410731D01*
X160568019Y-48363112D01*
X160710876Y-48267874D01*
X160901352Y-48220255D01*
X161282304Y-48220255D01*
X161377542Y-48267874D01*
X161425161Y-48315493D01*
X161472780Y-48410731D01*
X161472780Y-48601208D01*
X161425161Y-48696446D01*
X161377542Y-48744065D01*
X161282304Y-48791684D01*
X161044209Y-48791684D01*
X160948971Y-48744065D01*
X160901352Y-48696446D01*
X160853733Y-48601208D01*
X160853733Y-48410731D01*
X160901352Y-48315493D01*
X160948971Y-48267874D01*
X161044209Y-48220255D01*
G04 #@! TO.C,D14*
X180506815Y-98482114D02*
X179506815Y-98482114D01*
X179506815Y-98720209D01*
X179554435Y-98863066D01*
X179649673Y-98958304D01*
X179744911Y-99005923D01*
X179935387Y-99053542D01*
X180078244Y-99053542D01*
X180268720Y-99005923D01*
X180363958Y-98958304D01*
X180459196Y-98863066D01*
X180506815Y-98720209D01*
X180506815Y-98482114D01*
X180506815Y-100005923D02*
X180506815Y-99434495D01*
X180506815Y-99720209D02*
X179506815Y-99720209D01*
X179649673Y-99624971D01*
X179744911Y-99529733D01*
X179792530Y-99434495D01*
X179840149Y-100863066D02*
X180506815Y-100863066D01*
X179459196Y-100624971D02*
X180173482Y-100386876D01*
X180173482Y-101005923D01*
G04 #@! TO.C,D10*
X161456380Y-98481714D02*
X160456380Y-98481714D01*
X160456380Y-98719809D01*
X160504000Y-98862666D01*
X160599238Y-98957904D01*
X160694476Y-99005523D01*
X160884952Y-99053142D01*
X161027809Y-99053142D01*
X161218285Y-99005523D01*
X161313523Y-98957904D01*
X161408761Y-98862666D01*
X161456380Y-98719809D01*
X161456380Y-98481714D01*
X161456380Y-100005523D02*
X161456380Y-99434095D01*
X161456380Y-99719809D02*
X160456380Y-99719809D01*
X160599238Y-99624571D01*
X160694476Y-99529333D01*
X160742095Y-99434095D01*
X160456380Y-100624571D02*
X160456380Y-100719809D01*
X160504000Y-100815047D01*
X160551619Y-100862666D01*
X160646857Y-100910285D01*
X160837333Y-100957904D01*
X161075428Y-100957904D01*
X161265904Y-100910285D01*
X161361142Y-100862666D01*
X161408761Y-100815047D01*
X161456380Y-100719809D01*
X161456380Y-100624571D01*
X161408761Y-100529333D01*
X161361142Y-100481714D01*
X161265904Y-100434095D01*
X161075428Y-100386476D01*
X160837333Y-100386476D01*
X160646857Y-100434095D01*
X160551619Y-100481714D01*
X160504000Y-100529333D01*
X160456380Y-100624571D01*
G04 #@! TO.C,R1*
X138233780Y-49181803D02*
X137757590Y-48848470D01*
X138233780Y-48610374D02*
X137233780Y-48610374D01*
X137233780Y-48991327D01*
X137281400Y-49086565D01*
X137329019Y-49134184D01*
X137424257Y-49181803D01*
X137567114Y-49181803D01*
X137662352Y-49134184D01*
X137709971Y-49086565D01*
X137757590Y-48991327D01*
X137757590Y-48610374D01*
X138233780Y-50134184D02*
X138233780Y-49562755D01*
X138233780Y-49848470D02*
X137233780Y-49848470D01*
X137376638Y-49753231D01*
X137471876Y-49657993D01*
X137519495Y-49562755D01*
G04 #@! TO.C,SW1*
X141018733Y-65628231D02*
X140875876Y-65675850D01*
X140637780Y-65675850D01*
X140542542Y-65628231D01*
X140494923Y-65580612D01*
X140447304Y-65485374D01*
X140447304Y-65390136D01*
X140494923Y-65294898D01*
X140542542Y-65247279D01*
X140637780Y-65199660D01*
X140828257Y-65152041D01*
X140923495Y-65104422D01*
X140971114Y-65056803D01*
X141018733Y-64961565D01*
X141018733Y-64866327D01*
X140971114Y-64771089D01*
X140923495Y-64723470D01*
X140828257Y-64675850D01*
X140590161Y-64675850D01*
X140447304Y-64723470D01*
X140113971Y-64675850D02*
X139875876Y-65675850D01*
X139685400Y-64961565D01*
X139494923Y-65675850D01*
X139256828Y-64675850D01*
X138352066Y-65675850D02*
X138923495Y-65675850D01*
X138637780Y-65675850D02*
X138637780Y-64675850D01*
X138733019Y-64818708D01*
X138828257Y-64913946D01*
X138923495Y-64961565D01*
G04 #@! TO.C,D6*
X142406380Y-98957904D02*
X141406380Y-98957904D01*
X141406380Y-99196000D01*
X141454000Y-99338857D01*
X141549238Y-99434095D01*
X141644476Y-99481714D01*
X141834952Y-99529333D01*
X141977809Y-99529333D01*
X142168285Y-99481714D01*
X142263523Y-99434095D01*
X142358761Y-99338857D01*
X142406380Y-99196000D01*
X142406380Y-98957904D01*
X141406380Y-100386476D02*
X141406380Y-100196000D01*
X141454000Y-100100761D01*
X141501619Y-100053142D01*
X141644476Y-99957904D01*
X141834952Y-99910285D01*
X142215904Y-99910285D01*
X142311142Y-99957904D01*
X142358761Y-100005523D01*
X142406380Y-100100761D01*
X142406380Y-100291238D01*
X142358761Y-100386476D01*
X142311142Y-100434095D01*
X142215904Y-100481714D01*
X141977809Y-100481714D01*
X141882571Y-100434095D01*
X141834952Y-100386476D01*
X141787333Y-100291238D01*
X141787333Y-100100761D01*
X141834952Y-100005523D01*
X141882571Y-99957904D01*
X141977809Y-99910285D01*
G04 #@! TO.C,C1*
X156454542Y-48038803D02*
X156502161Y-47991184D01*
X156549780Y-47848327D01*
X156549780Y-47753089D01*
X156502161Y-47610231D01*
X156406923Y-47514993D01*
X156311685Y-47467374D01*
X156121209Y-47419755D01*
X155978352Y-47419755D01*
X155787876Y-47467374D01*
X155692638Y-47514993D01*
X155597400Y-47610231D01*
X155549780Y-47753089D01*
X155549780Y-47848327D01*
X155597400Y-47991184D01*
X155645019Y-48038803D01*
X156549780Y-48991184D02*
X156549780Y-48419755D01*
X156549780Y-48705470D02*
X155549780Y-48705470D01*
X155692638Y-48610231D01*
X155787876Y-48514993D01*
X155835495Y-48419755D01*
G04 #@! TO.C,D12*
X161456380Y-136581854D02*
X160456380Y-136581854D01*
X160456380Y-136819949D01*
X160504000Y-136962806D01*
X160599238Y-137058044D01*
X160694476Y-137105663D01*
X160884952Y-137153282D01*
X161027809Y-137153282D01*
X161218285Y-137105663D01*
X161313523Y-137058044D01*
X161408761Y-136962806D01*
X161456380Y-136819949D01*
X161456380Y-136581854D01*
X161456380Y-138105663D02*
X161456380Y-137534235D01*
X161456380Y-137819949D02*
X160456380Y-137819949D01*
X160599238Y-137724711D01*
X160694476Y-137629473D01*
X160742095Y-137534235D01*
X160551619Y-138486616D02*
X160504000Y-138534235D01*
X160456380Y-138629473D01*
X160456380Y-138867568D01*
X160504000Y-138962806D01*
X160551619Y-139010425D01*
X160646857Y-139058044D01*
X160742095Y-139058044D01*
X160884952Y-139010425D01*
X161456380Y-138438997D01*
X161456380Y-139058044D01*
G04 #@! TO.C,Y1*
X151337590Y-48181660D02*
X151337590Y-48657850D01*
X151670923Y-47657850D02*
X151337590Y-48181660D01*
X151004257Y-47657850D01*
X150147114Y-48657850D02*
X150718542Y-48657850D01*
X150432828Y-48657850D02*
X150432828Y-47657850D01*
X150528066Y-47800708D01*
X150623304Y-47895946D01*
X150718542Y-47943565D01*
G04 #@! TO.C,C2*
X145982542Y-48038803D02*
X146030161Y-47991184D01*
X146077780Y-47848327D01*
X146077780Y-47753089D01*
X146030161Y-47610231D01*
X145934923Y-47514993D01*
X145839685Y-47467374D01*
X145649209Y-47419755D01*
X145506352Y-47419755D01*
X145315876Y-47467374D01*
X145220638Y-47514993D01*
X145125400Y-47610231D01*
X145077780Y-47753089D01*
X145077780Y-47848327D01*
X145125400Y-47991184D01*
X145173019Y-48038803D01*
X145173019Y-48419755D02*
X145125400Y-48467374D01*
X145077780Y-48562612D01*
X145077780Y-48800708D01*
X145125400Y-48895946D01*
X145173019Y-48943565D01*
X145268257Y-48991184D01*
X145363495Y-48991184D01*
X145506352Y-48943565D01*
X146077780Y-48372136D01*
X146077780Y-48991184D01*
G04 #@! TO.C,D9*
X161456815Y-79908304D02*
X160456815Y-79908304D01*
X160456815Y-80146400D01*
X160504435Y-80289257D01*
X160599673Y-80384495D01*
X160694911Y-80432114D01*
X160885387Y-80479733D01*
X161028244Y-80479733D01*
X161218720Y-80432114D01*
X161313958Y-80384495D01*
X161409196Y-80289257D01*
X161456815Y-80146400D01*
X161456815Y-79908304D01*
X161456815Y-80955923D02*
X161456815Y-81146400D01*
X161409196Y-81241638D01*
X161361577Y-81289257D01*
X161218720Y-81384495D01*
X161028244Y-81432114D01*
X160647292Y-81432114D01*
X160552054Y-81384495D01*
X160504435Y-81336876D01*
X160456815Y-81241638D01*
X160456815Y-81051161D01*
X160504435Y-80955923D01*
X160552054Y-80908304D01*
X160647292Y-80860685D01*
X160885387Y-80860685D01*
X160980625Y-80908304D01*
X161028244Y-80955923D01*
X161075863Y-81051161D01*
X161075863Y-81241638D01*
X161028244Y-81336876D01*
X160980625Y-81384495D01*
X160885387Y-81432114D01*
G04 #@! TO.C,D11*
X161456380Y-117531814D02*
X160456380Y-117531814D01*
X160456380Y-117769909D01*
X160504000Y-117912766D01*
X160599238Y-118008004D01*
X160694476Y-118055623D01*
X160884952Y-118103242D01*
X161027809Y-118103242D01*
X161218285Y-118055623D01*
X161313523Y-118008004D01*
X161408761Y-117912766D01*
X161456380Y-117769909D01*
X161456380Y-117531814D01*
X161456380Y-119055623D02*
X161456380Y-118484195D01*
X161456380Y-118769909D02*
X160456380Y-118769909D01*
X160599238Y-118674671D01*
X160694476Y-118579433D01*
X160742095Y-118484195D01*
X161456380Y-120008004D02*
X161456380Y-119436576D01*
X161456380Y-119722290D02*
X160456380Y-119722290D01*
X160599238Y-119627052D01*
X160694476Y-119531814D01*
X160742095Y-119436576D01*
G04 #@! TO.C,D5*
X142406715Y-79908304D02*
X141406715Y-79908304D01*
X141406715Y-80146400D01*
X141454335Y-80289257D01*
X141549573Y-80384495D01*
X141644811Y-80432114D01*
X141835287Y-80479733D01*
X141978144Y-80479733D01*
X142168620Y-80432114D01*
X142263858Y-80384495D01*
X142359096Y-80289257D01*
X142406715Y-80146400D01*
X142406715Y-79908304D01*
X141406715Y-81384495D02*
X141406715Y-80908304D01*
X141882906Y-80860685D01*
X141835287Y-80908304D01*
X141787668Y-81003542D01*
X141787668Y-81241638D01*
X141835287Y-81336876D01*
X141882906Y-81384495D01*
X141978144Y-81432114D01*
X142216239Y-81432114D01*
X142311477Y-81384495D01*
X142359096Y-81336876D01*
X142406715Y-81241638D01*
X142406715Y-81003542D01*
X142359096Y-80908304D01*
X142311477Y-80860685D01*
G04 #@! TO.C,D1*
X123356745Y-79908304D02*
X122356745Y-79908304D01*
X122356745Y-80146400D01*
X122404365Y-80289257D01*
X122499603Y-80384495D01*
X122594841Y-80432114D01*
X122785317Y-80479733D01*
X122928174Y-80479733D01*
X123118650Y-80432114D01*
X123213888Y-80384495D01*
X123309126Y-80289257D01*
X123356745Y-80146400D01*
X123356745Y-79908304D01*
X123356745Y-81432114D02*
X123356745Y-80860685D01*
X123356745Y-81146400D02*
X122356745Y-81146400D01*
X122499603Y-81051161D01*
X122594841Y-80955923D01*
X122642460Y-80860685D01*
G04 #@! TO.C,C6*
X140426066Y-58185612D02*
X140473685Y-58233231D01*
X140616542Y-58280850D01*
X140711780Y-58280850D01*
X140854638Y-58233231D01*
X140949876Y-58137993D01*
X140997495Y-58042755D01*
X141045114Y-57852279D01*
X141045114Y-57709422D01*
X140997495Y-57518946D01*
X140949876Y-57423708D01*
X140854638Y-57328470D01*
X140711780Y-57280850D01*
X140616542Y-57280850D01*
X140473685Y-57328470D01*
X140426066Y-57376089D01*
X139568923Y-57280850D02*
X139759400Y-57280850D01*
X139854638Y-57328470D01*
X139902257Y-57376089D01*
X139997495Y-57518946D01*
X140045114Y-57709422D01*
X140045114Y-58090374D01*
X139997495Y-58185612D01*
X139949876Y-58233231D01*
X139854638Y-58280850D01*
X139664161Y-58280850D01*
X139568923Y-58233231D01*
X139521304Y-58185612D01*
X139473685Y-58090374D01*
X139473685Y-57852279D01*
X139521304Y-57757041D01*
X139568923Y-57709422D01*
X139664161Y-57661803D01*
X139854638Y-57661803D01*
X139949876Y-57709422D01*
X139997495Y-57757041D01*
X140045114Y-57852279D01*
G04 #@! TO.C,C8*
X158902066Y-68403612D02*
X158949685Y-68451231D01*
X159092542Y-68498850D01*
X159187780Y-68498850D01*
X159330638Y-68451231D01*
X159425876Y-68355993D01*
X159473495Y-68260755D01*
X159521114Y-68070279D01*
X159521114Y-67927422D01*
X159473495Y-67736946D01*
X159425876Y-67641708D01*
X159330638Y-67546470D01*
X159187780Y-67498850D01*
X159092542Y-67498850D01*
X158949685Y-67546470D01*
X158902066Y-67594089D01*
X158330638Y-67927422D02*
X158425876Y-67879803D01*
X158473495Y-67832184D01*
X158521114Y-67736946D01*
X158521114Y-67689327D01*
X158473495Y-67594089D01*
X158425876Y-67546470D01*
X158330638Y-67498850D01*
X158140161Y-67498850D01*
X158044923Y-67546470D01*
X157997304Y-67594089D01*
X157949685Y-67689327D01*
X157949685Y-67736946D01*
X157997304Y-67832184D01*
X158044923Y-67879803D01*
X158140161Y-67927422D01*
X158330638Y-67927422D01*
X158425876Y-67975041D01*
X158473495Y-68022660D01*
X158521114Y-68117898D01*
X158521114Y-68308374D01*
X158473495Y-68403612D01*
X158425876Y-68451231D01*
X158330638Y-68498850D01*
X158140161Y-68498850D01*
X158044923Y-68451231D01*
X157997304Y-68403612D01*
X157949685Y-68308374D01*
X157949685Y-68117898D01*
X157997304Y-68022660D01*
X158044923Y-67975041D01*
X158140161Y-67927422D01*
G04 #@! TO.C,D2*
X123356745Y-98958304D02*
X122356745Y-98958304D01*
X122356745Y-99196400D01*
X122404365Y-99339257D01*
X122499603Y-99434495D01*
X122594841Y-99482114D01*
X122785317Y-99529733D01*
X122928174Y-99529733D01*
X123118650Y-99482114D01*
X123213888Y-99434495D01*
X123309126Y-99339257D01*
X123356745Y-99196400D01*
X123356745Y-98958304D01*
X122451984Y-99910685D02*
X122404365Y-99958304D01*
X122356745Y-100053542D01*
X122356745Y-100291638D01*
X122404365Y-100386876D01*
X122451984Y-100434495D01*
X122547222Y-100482114D01*
X122642460Y-100482114D01*
X122785317Y-100434495D01*
X123356745Y-99863066D01*
X123356745Y-100482114D01*
G04 #@! TO.C,D7*
X142406715Y-118008404D02*
X141406715Y-118008404D01*
X141406715Y-118246500D01*
X141454335Y-118389357D01*
X141549573Y-118484595D01*
X141644811Y-118532214D01*
X141835287Y-118579833D01*
X141978144Y-118579833D01*
X142168620Y-118532214D01*
X142263858Y-118484595D01*
X142359096Y-118389357D01*
X142406715Y-118246500D01*
X142406715Y-118008404D01*
X141406715Y-118913166D02*
X141406715Y-119579833D01*
X142406715Y-119151261D01*
G04 #@! TO.C,C7*
X142204066Y-63011612D02*
X142251685Y-63059231D01*
X142394542Y-63106850D01*
X142489780Y-63106850D01*
X142632638Y-63059231D01*
X142727876Y-62963993D01*
X142775495Y-62868755D01*
X142823114Y-62678279D01*
X142823114Y-62535422D01*
X142775495Y-62344946D01*
X142727876Y-62249708D01*
X142632638Y-62154470D01*
X142489780Y-62106850D01*
X142394542Y-62106850D01*
X142251685Y-62154470D01*
X142204066Y-62202089D01*
X141870733Y-62106850D02*
X141204066Y-62106850D01*
X141632638Y-63106850D01*
G04 #@! TO.C,R5*
X163504780Y-47839303D02*
X163028590Y-47505970D01*
X163504780Y-47267874D02*
X162504780Y-47267874D01*
X162504780Y-47648827D01*
X162552400Y-47744065D01*
X162600019Y-47791684D01*
X162695257Y-47839303D01*
X162838114Y-47839303D01*
X162933352Y-47791684D01*
X162980971Y-47744065D01*
X163028590Y-47648827D01*
X163028590Y-47267874D01*
X162504780Y-48744065D02*
X162504780Y-48267874D01*
X162980971Y-48220255D01*
X162933352Y-48267874D01*
X162885733Y-48363112D01*
X162885733Y-48601208D01*
X162933352Y-48696446D01*
X162980971Y-48744065D01*
X163076209Y-48791684D01*
X163314304Y-48791684D01*
X163409542Y-48744065D01*
X163457161Y-48696446D01*
X163504780Y-48601208D01*
X163504780Y-48363112D01*
X163457161Y-48267874D01*
X163409542Y-48220255D01*
G04 #@! TO.C,C5*
X159664066Y-50692612D02*
X159711685Y-50740231D01*
X159854542Y-50787850D01*
X159949780Y-50787850D01*
X160092638Y-50740231D01*
X160187876Y-50644993D01*
X160235495Y-50549755D01*
X160283114Y-50359279D01*
X160283114Y-50216422D01*
X160235495Y-50025946D01*
X160187876Y-49930708D01*
X160092638Y-49835470D01*
X159949780Y-49787850D01*
X159854542Y-49787850D01*
X159711685Y-49835470D01*
X159664066Y-49883089D01*
X158759304Y-49787850D02*
X159235495Y-49787850D01*
X159283114Y-50264041D01*
X159235495Y-50216422D01*
X159140257Y-50168803D01*
X158902161Y-50168803D01*
X158806923Y-50216422D01*
X158759304Y-50264041D01*
X158711685Y-50359279D01*
X158711685Y-50597374D01*
X158759304Y-50692612D01*
X158806923Y-50740231D01*
X158902161Y-50787850D01*
X159140257Y-50787850D01*
X159235495Y-50740231D01*
X159283114Y-50692612D01*
G04 #@! TO.C,D13*
X180506380Y-79431714D02*
X179506380Y-79431714D01*
X179506380Y-79669809D01*
X179554000Y-79812666D01*
X179649238Y-79907904D01*
X179744476Y-79955523D01*
X179934952Y-80003142D01*
X180077809Y-80003142D01*
X180268285Y-79955523D01*
X180363523Y-79907904D01*
X180458761Y-79812666D01*
X180506380Y-79669809D01*
X180506380Y-79431714D01*
X180506380Y-80955523D02*
X180506380Y-80384095D01*
X180506380Y-80669809D02*
X179506380Y-80669809D01*
X179649238Y-80574571D01*
X179744476Y-80479333D01*
X179792095Y-80384095D01*
X179506380Y-81288857D02*
X179506380Y-81907904D01*
X179887333Y-81574571D01*
X179887333Y-81717428D01*
X179934952Y-81812666D01*
X179982571Y-81860285D01*
X180077809Y-81907904D01*
X180315904Y-81907904D01*
X180411142Y-81860285D01*
X180458761Y-81812666D01*
X180506380Y-81717428D01*
X180506380Y-81431714D01*
X180458761Y-81336476D01*
X180411142Y-81288857D01*
D11*
G04 #@! TO.C,R3*
X120916400Y-52750534D02*
X120916400Y-52296406D01*
X122386400Y-52750534D02*
X122386400Y-52296406D01*
G04 #@! TO.C,D3*
X121904365Y-120996500D02*
X121904365Y-117096500D01*
X119904365Y-120996500D02*
X119904365Y-117096500D01*
X121904365Y-120996500D02*
X119904365Y-120996500D01*
G04 #@! TO.C,D4*
X121904365Y-140046540D02*
X121904365Y-136146540D01*
X121904365Y-140046540D02*
X119904365Y-140046540D01*
X119904365Y-140046540D02*
X119904365Y-136146540D01*
G04 #@! TO.C,C4*
X141363400Y-49670722D02*
X141363400Y-49148218D01*
X142833400Y-49670722D02*
X142833400Y-49148218D01*
G04 #@! TO.C,D8*
X138954000Y-140046140D02*
X138954000Y-136146140D01*
X140954000Y-140046140D02*
X138954000Y-140046140D01*
X140954000Y-140046140D02*
X140954000Y-136146140D01*
D10*
G04 #@! TO.C,U1*
X156163400Y-53444470D02*
X156163400Y-54119470D01*
X145813400Y-53444470D02*
X146488400Y-53444470D01*
X145813400Y-53444470D02*
X145813400Y-54119470D01*
X145813400Y-63794470D02*
X145813400Y-63219470D01*
X145813400Y-63219470D02*
X144538400Y-63219470D01*
X156163400Y-63794470D02*
X155488400Y-63794470D01*
X145813400Y-63794470D02*
X146488400Y-63794470D01*
X156163400Y-53444470D02*
X155488400Y-53444470D01*
X156163400Y-63794470D02*
X156163400Y-63119470D01*
D11*
G04 #@! TO.C,R4*
X161375464Y-62329470D02*
X160921336Y-62329470D01*
X161375464Y-63799470D02*
X160921336Y-63799470D01*
G04 #@! TO.C,R2*
X119084400Y-52750534D02*
X119084400Y-52296406D01*
X117614400Y-52750534D02*
X117614400Y-52296406D01*
G04 #@! TO.C,D15*
X163450400Y-123453470D02*
X163450400Y-119553470D01*
X165450400Y-123453470D02*
X165450400Y-119553470D01*
X165450400Y-123453470D02*
X163450400Y-123453470D01*
G04 #@! TO.C,D16*
X173503400Y-65153470D02*
X177403400Y-65153470D01*
X173503400Y-63153470D02*
X177403400Y-63153470D01*
X173503400Y-65153470D02*
X173503400Y-63153470D01*
D10*
G04 #@! TO.C,J2*
X122127400Y-43579470D02*
X118127400Y-43579470D01*
X117127400Y-47779470D02*
X118127400Y-47779470D01*
X122127400Y-47779470D02*
X123127400Y-47779470D01*
X117127400Y-45379470D02*
X117127400Y-47779470D01*
X123127400Y-47779470D02*
X123127400Y-45379470D01*
D11*
G04 #@! TO.C,C3*
X140520652Y-58211470D02*
X139998148Y-58211470D01*
X140520652Y-56741470D02*
X139998148Y-56741470D01*
G04 #@! TO.C,R6*
X158635400Y-48233034D02*
X158635400Y-47778906D01*
X160105400Y-48233034D02*
X160105400Y-47778906D01*
G04 #@! TO.C,D14*
X177054435Y-101946400D02*
X177054435Y-98046400D01*
X179054435Y-101946400D02*
X177054435Y-101946400D01*
X179054435Y-101946400D02*
X179054435Y-98046400D01*
G04 #@! TO.C,D10*
X160004000Y-101946000D02*
X158004000Y-101946000D01*
X158004000Y-101946000D02*
X158004000Y-98046000D01*
X160004000Y-101946000D02*
X160004000Y-98046000D01*
G04 #@! TO.C,R1*
X138696400Y-49121406D02*
X138696400Y-49575534D01*
X140166400Y-49121406D02*
X140166400Y-49575534D01*
D10*
G04 #@! TO.C,SW1*
X133522400Y-46113470D02*
X128322400Y-46113470D01*
X128322400Y-46113470D02*
X128322400Y-51313470D01*
X128322400Y-51313470D02*
X133522400Y-51313470D01*
X133522400Y-51313470D02*
X133522400Y-46113470D01*
X131922400Y-48713470D02*
G75*
G03*
X131922400Y-48713470I-1000000J0D01*
G01*
D11*
G04 #@! TO.C,D6*
X140954000Y-101946000D02*
X138954000Y-101946000D01*
X140954000Y-101946000D02*
X140954000Y-98046000D01*
X138954000Y-101946000D02*
X138954000Y-98046000D01*
G04 #@! TO.C,C1*
X155152400Y-48466722D02*
X155152400Y-47944218D01*
X153682400Y-48466722D02*
X153682400Y-47944218D01*
G04 #@! TO.C,D12*
X160004000Y-140046140D02*
X158004000Y-140046140D01*
X160004000Y-140046140D02*
X160004000Y-136146140D01*
X158004000Y-140046140D02*
X158004000Y-136146140D01*
G04 #@! TO.C,Y1*
X152861400Y-46555470D02*
X152861400Y-49855470D01*
X152861400Y-49855470D02*
X148861400Y-49855470D01*
G04 #@! TO.C,C2*
X146570400Y-47944218D02*
X146570400Y-48466722D01*
X148040400Y-47944218D02*
X148040400Y-48466722D01*
G04 #@! TO.C,D9*
X158004435Y-82896400D02*
X158004435Y-78996400D01*
X160004435Y-82896400D02*
X158004435Y-82896400D01*
X160004435Y-82896400D02*
X160004435Y-78996400D01*
G04 #@! TO.C,D11*
X158004000Y-120996100D02*
X158004000Y-117096100D01*
X160004000Y-120996100D02*
X158004000Y-120996100D01*
X160004000Y-120996100D02*
X160004000Y-117096100D01*
G04 #@! TO.C,D5*
X138954335Y-82896400D02*
X138954335Y-78996400D01*
X140954335Y-82896400D02*
X140954335Y-78996400D01*
X140954335Y-82896400D02*
X138954335Y-82896400D01*
G04 #@! TO.C,D1*
X119904365Y-82896400D02*
X119904365Y-78996400D01*
X121904365Y-82896400D02*
X121904365Y-78996400D01*
X121904365Y-82896400D02*
X119904365Y-82896400D01*
G04 #@! TO.C,C6*
X140520652Y-60243470D02*
X139998148Y-60243470D01*
X140520652Y-58773470D02*
X139998148Y-58773470D01*
G04 #@! TO.C,C8*
X158474148Y-65631470D02*
X158996652Y-65631470D01*
X158474148Y-67101470D02*
X158996652Y-67101470D01*
G04 #@! TO.C,D2*
X119904365Y-101946400D02*
X119904365Y-98046400D01*
X121904365Y-101946400D02*
X119904365Y-101946400D01*
X121904365Y-101946400D02*
X121904365Y-98046400D01*
G04 #@! TO.C,D7*
X140954335Y-120996500D02*
X138954335Y-120996500D01*
X138954335Y-120996500D02*
X138954335Y-117096500D01*
X140954335Y-120996500D02*
X140954335Y-117096500D01*
G04 #@! TO.C,C7*
X142298652Y-63599470D02*
X141776148Y-63599470D01*
X142298652Y-65069470D02*
X141776148Y-65069470D01*
G04 #@! TO.C,R5*
X162137400Y-48233034D02*
X162137400Y-47778906D01*
X160667400Y-48233034D02*
X160667400Y-47778906D01*
G04 #@! TO.C,C5*
X159758652Y-51280470D02*
X159236148Y-51280470D01*
X159758652Y-52750470D02*
X159236148Y-52750470D01*
G04 #@! TO.C,D13*
X177054000Y-82896000D02*
X177054000Y-78996000D01*
X179054000Y-82896000D02*
X179054000Y-78996000D01*
X179054000Y-82896000D02*
X177054000Y-82896000D01*
G04 #@! TD*
%LPC*%
D12*
G04 #@! TO.C,MX14*
X171054435Y-92696400D03*
D13*
X176134435Y-92696400D03*
X165974435Y-92696400D03*
D14*
X167899436Y-89426400D03*
D15*
X168554435Y-88696400D03*
X173594435Y-87616400D03*
D16*
X173574435Y-87906400D03*
G04 #@! TD*
D13*
G04 #@! TO.C,MX1*
X118984365Y-73646400D03*
D12*
X113904365Y-73646400D03*
D13*
X108824365Y-73646400D03*
D15*
X111404365Y-69646400D03*
D14*
X110749366Y-70376400D03*
D15*
X116444365Y-68566400D03*
D16*
X116424365Y-68856400D03*
G04 #@! TD*
D13*
G04 #@! TO.C,MX7*
X127874335Y-111746500D03*
D12*
X132954335Y-111746500D03*
D13*
X138034335Y-111746500D03*
D15*
X130454335Y-107746500D03*
D14*
X129799336Y-108476500D03*
D15*
X135494335Y-106666500D03*
D16*
X135474335Y-106956500D03*
G04 #@! TD*
D13*
G04 #@! TO.C,MX13*
X165974435Y-73646400D03*
D12*
X171054435Y-73646400D03*
D13*
X176134435Y-73646400D03*
D15*
X168554435Y-69646400D03*
D14*
X167899436Y-70376400D03*
D15*
X173594435Y-68566400D03*
D16*
X173574435Y-68856400D03*
G04 #@! TD*
D12*
G04 #@! TO.C,MX8*
X132954335Y-130796540D03*
D13*
X138034335Y-130796540D03*
X127874335Y-130796540D03*
D15*
X130454335Y-126796540D03*
D14*
X129799336Y-127526540D03*
D16*
X135474335Y-126006540D03*
D15*
X135494335Y-125716540D03*
G04 #@! TD*
D13*
G04 #@! TO.C,MX10*
X157084435Y-92696400D03*
X146924435Y-92696400D03*
D12*
X152004435Y-92696400D03*
D14*
X148849436Y-89426400D03*
D15*
X149504435Y-88696400D03*
D16*
X154524435Y-87906400D03*
D15*
X154544435Y-87616400D03*
G04 #@! TD*
D13*
G04 #@! TO.C,MX2*
X108824365Y-92696400D03*
X118984365Y-92696400D03*
D12*
X113904365Y-92696400D03*
D14*
X110749366Y-89426400D03*
D15*
X111404365Y-88696400D03*
X116444365Y-87616400D03*
D16*
X116424365Y-87906400D03*
G04 #@! TD*
D12*
G04 #@! TO.C,MX12*
X152004435Y-130796540D03*
D13*
X146924435Y-130796540D03*
X157084435Y-130796540D03*
D14*
X148849436Y-127526540D03*
D15*
X149504435Y-126796540D03*
D16*
X154524435Y-126006540D03*
D15*
X154544435Y-125716540D03*
G04 #@! TD*
D13*
G04 #@! TO.C,MX11*
X146924435Y-111746500D03*
D12*
X152004435Y-111746500D03*
D13*
X157084435Y-111746500D03*
D15*
X149504435Y-107746500D03*
D14*
X148849436Y-108476500D03*
D16*
X154524435Y-106956500D03*
D15*
X154544435Y-106666500D03*
G04 #@! TD*
D17*
G04 #@! TO.C,SW2*
X162407400Y-52563470D03*
D18*
X162407400Y-57563470D03*
X162407400Y-55063470D03*
D19*
X169907400Y-49463470D03*
X169907400Y-60663470D03*
D18*
X176907400Y-57563470D03*
X176907400Y-52563470D03*
G04 #@! TD*
D20*
G04 #@! TO.C,MX15*
X178109850Y-133295470D03*
D12*
X171124850Y-121357470D03*
X162869850Y-133295470D03*
D13*
X171124850Y-126437470D03*
D20*
X178109850Y-109419470D03*
D12*
X162869850Y-109419470D03*
D13*
X171124850Y-116277470D03*
D21*
X174394850Y-118202471D03*
D15*
X175124850Y-118857470D03*
D22*
X175914850Y-123877470D03*
D15*
X176204850Y-123897470D03*
G04 #@! TD*
D13*
G04 #@! TO.C,MX3*
X108824365Y-111746500D03*
X118984365Y-111746500D03*
D12*
X113904365Y-111746500D03*
D15*
X111404365Y-107746500D03*
D14*
X110749366Y-108476500D03*
D15*
X116444365Y-106666500D03*
D16*
X116424365Y-106956500D03*
G04 #@! TD*
D13*
G04 #@! TO.C,MX4*
X118984365Y-130796540D03*
X108824365Y-130796540D03*
D12*
X113904365Y-130796540D03*
D14*
X110749366Y-127526540D03*
D15*
X111404365Y-126796540D03*
D16*
X116424365Y-126006540D03*
D15*
X116444365Y-125716540D03*
G04 #@! TD*
D23*
G04 #@! TO.C,J3*
X108204581Y-57575405D03*
D24*
X108204581Y-55035405D03*
X108204581Y-52495405D03*
X108204581Y-49955405D03*
G04 #@! TD*
D12*
G04 #@! TO.C,MX6*
X132954335Y-92696400D03*
D13*
X138034335Y-92696400D03*
X127874335Y-92696400D03*
D15*
X130454335Y-88696400D03*
D14*
X129799336Y-89426400D03*
D15*
X135494335Y-87616400D03*
D16*
X135474335Y-87906400D03*
G04 #@! TD*
D12*
G04 #@! TO.C,MX5*
X132954335Y-73646400D03*
D13*
X127874335Y-73646400D03*
X138034335Y-73646400D03*
D14*
X129799336Y-70376400D03*
D15*
X130454335Y-69646400D03*
X135494335Y-68566400D03*
D16*
X135474335Y-68856400D03*
G04 #@! TD*
D13*
G04 #@! TO.C,MX9*
X157084435Y-73646400D03*
D12*
X152004435Y-73646400D03*
D13*
X146924435Y-73646400D03*
D14*
X148849436Y-70376400D03*
D15*
X149504435Y-69646400D03*
X154544435Y-68566400D03*
D16*
X154524435Y-68856400D03*
G04 #@! TD*
D25*
G04 #@! TO.C,R3*
X121651400Y-53435970D03*
X121651400Y-51610970D03*
G04 #@! TD*
D26*
G04 #@! TO.C,D3*
X120904365Y-120396500D03*
X120904365Y-117096500D03*
G04 #@! TD*
G04 #@! TO.C,D4*
X120904365Y-139446540D03*
X120904365Y-136146540D03*
G04 #@! TD*
D27*
G04 #@! TO.C,C4*
X142098400Y-50359470D03*
X142098400Y-48459470D03*
G04 #@! TD*
D26*
G04 #@! TO.C,D8*
X139954000Y-139446140D03*
X139954000Y-136146140D03*
G04 #@! TD*
D28*
G04 #@! TO.C,U1*
X145288400Y-62619470D03*
X145288400Y-61819470D03*
X145288400Y-61019470D03*
X145288400Y-60219470D03*
X145288400Y-59419470D03*
X145288400Y-58619470D03*
X145288400Y-57819470D03*
X145288400Y-57019470D03*
X145288400Y-56219470D03*
X145288400Y-55419470D03*
X145288400Y-54619470D03*
D29*
X146988400Y-52919470D03*
X147788400Y-52919470D03*
X148588400Y-52919470D03*
X149388400Y-52919470D03*
X150188400Y-52919470D03*
X150988400Y-52919470D03*
X151788400Y-52919470D03*
X152588400Y-52919470D03*
X153388400Y-52919470D03*
X154188400Y-52919470D03*
X154988400Y-52919470D03*
D28*
X156688400Y-54619470D03*
X156688400Y-55419470D03*
X156688400Y-56219470D03*
X156688400Y-57019470D03*
X156688400Y-57819470D03*
X156688400Y-58619470D03*
X156688400Y-59419470D03*
X156688400Y-60219470D03*
X156688400Y-61019470D03*
X156688400Y-61819470D03*
X156688400Y-62619470D03*
D29*
X154988400Y-64319470D03*
X154188400Y-64319470D03*
X153388400Y-64319470D03*
X152588400Y-64319470D03*
X151788400Y-64319470D03*
X150988400Y-64319470D03*
X150188400Y-64319470D03*
X149388400Y-64319470D03*
X148588400Y-64319470D03*
X147788400Y-64319470D03*
X146988400Y-64319470D03*
G04 #@! TD*
D30*
G04 #@! TO.C,R4*
X162060900Y-63064470D03*
X160235900Y-63064470D03*
G04 #@! TD*
D25*
G04 #@! TO.C,R2*
X118349400Y-53435970D03*
X118349400Y-51610970D03*
G04 #@! TD*
D26*
G04 #@! TO.C,D15*
X164450400Y-122853470D03*
X164450400Y-119553470D03*
G04 #@! TD*
D31*
G04 #@! TO.C,D16*
X174103400Y-64153470D03*
X177403400Y-64153470D03*
G04 #@! TD*
D32*
G04 #@! TO.C,J2*
X117327400Y-44279470D03*
X122927400Y-44279470D03*
D33*
X118627400Y-48154470D03*
X119627400Y-48154470D03*
X120627400Y-48154470D03*
X121627400Y-48154470D03*
G04 #@! TD*
D34*
G04 #@! TO.C,C3*
X141209400Y-57476470D03*
X139309400Y-57476470D03*
G04 #@! TD*
D25*
G04 #@! TO.C,R6*
X159370400Y-48918470D03*
X159370400Y-47093470D03*
G04 #@! TD*
D26*
G04 #@! TO.C,D14*
X178054435Y-101346400D03*
X178054435Y-98046400D03*
G04 #@! TD*
G04 #@! TO.C,D10*
X159004000Y-101346000D03*
X159004000Y-98046000D03*
G04 #@! TD*
D35*
G04 #@! TO.C,R1*
X139431400Y-48435970D03*
X139431400Y-50260970D03*
G04 #@! TD*
D36*
G04 #@! TO.C,SW1*
X127822400Y-50563470D03*
X134022400Y-46863470D03*
X127822400Y-46863470D03*
X134022400Y-50563470D03*
G04 #@! TD*
D26*
G04 #@! TO.C,D6*
X139954000Y-101346000D03*
X139954000Y-98046000D03*
G04 #@! TD*
D27*
G04 #@! TO.C,C1*
X154417400Y-49155470D03*
X154417400Y-47255470D03*
G04 #@! TD*
D26*
G04 #@! TO.C,D12*
X159004000Y-139446140D03*
X159004000Y-136146140D03*
G04 #@! TD*
D37*
G04 #@! TO.C,Y1*
X151961400Y-49055470D03*
X149761400Y-49055470D03*
X149761400Y-47355470D03*
X151961400Y-47355470D03*
G04 #@! TD*
D38*
G04 #@! TO.C,C2*
X147305400Y-47255470D03*
X147305400Y-49155470D03*
G04 #@! TD*
D26*
G04 #@! TO.C,D9*
X159004435Y-82296400D03*
X159004435Y-78996400D03*
G04 #@! TD*
G04 #@! TO.C,D11*
X159004000Y-120396100D03*
X159004000Y-117096100D03*
G04 #@! TD*
G04 #@! TO.C,D5*
X139954335Y-82296400D03*
X139954335Y-78996400D03*
G04 #@! TD*
G04 #@! TO.C,D1*
X120904365Y-82296400D03*
X120904365Y-78996400D03*
G04 #@! TD*
D34*
G04 #@! TO.C,C6*
X141209400Y-59508470D03*
X139309400Y-59508470D03*
G04 #@! TD*
D39*
G04 #@! TO.C,C8*
X157785400Y-66366470D03*
X159685400Y-66366470D03*
G04 #@! TD*
D26*
G04 #@! TO.C,D2*
X120904365Y-101346400D03*
X120904365Y-98046400D03*
G04 #@! TD*
G04 #@! TO.C,D7*
X139954335Y-120396500D03*
X139954335Y-117096500D03*
G04 #@! TD*
D34*
G04 #@! TO.C,C7*
X142987400Y-64334470D03*
X141087400Y-64334470D03*
G04 #@! TD*
D25*
G04 #@! TO.C,R5*
X161402400Y-48918470D03*
X161402400Y-47093470D03*
G04 #@! TD*
D34*
G04 #@! TO.C,C5*
X160447400Y-52015470D03*
X158547400Y-52015470D03*
G04 #@! TD*
D26*
G04 #@! TO.C,D13*
X178054000Y-82296000D03*
X178054000Y-78996000D03*
G04 #@! TD*
M02*
