G04 #@! TF.GenerationSoftware,KiCad,Pcbnew,(6.0.10)*
G04 #@! TF.CreationDate,2023-08-04T22:23:19-04:00*
G04 #@! TF.ProjectId,NugMacro-Keypad,4e75674d-6163-4726-9f2d-4b6579706164,rev?*
G04 #@! TF.SameCoordinates,Original*
G04 #@! TF.FileFunction,Legend,Bot*
G04 #@! TF.FilePolarity,Positive*
%FSLAX46Y46*%
G04 Gerber Fmt 4.6, Leading zero omitted, Abs format (unit mm)*
G04 Created by KiCad (PCBNEW (6.0.10)) date 2023-08-04 22:23:19*
%MOMM*%
%LPD*%
G01*
G04 APERTURE LIST*
%ADD10C,0.150000*%
%ADD11C,0.120000*%
G04 APERTURE END LIST*
D10*
X65658904Y-76244380D02*
X65658904Y-77053904D01*
X65611285Y-77149142D01*
X65563666Y-77196761D01*
X65468428Y-77244380D01*
X65277952Y-77244380D01*
X65182714Y-77196761D01*
X65135095Y-77149142D01*
X65087476Y-77053904D01*
X65087476Y-76244380D01*
X64087476Y-77244380D02*
X64658904Y-77244380D01*
X64373190Y-77244380D02*
X64373190Y-76244380D01*
X64468428Y-76387238D01*
X64563666Y-76482476D01*
X64658904Y-76530095D01*
X37662380Y-63079333D02*
X37186190Y-62746000D01*
X37662380Y-62507904D02*
X36662380Y-62507904D01*
X36662380Y-62888857D01*
X36710000Y-62984095D01*
X36757619Y-63031714D01*
X36852857Y-63079333D01*
X36995714Y-63079333D01*
X37090952Y-63031714D01*
X37138571Y-62984095D01*
X37186190Y-62888857D01*
X37186190Y-62507904D01*
X36662380Y-63412666D02*
X36662380Y-64031714D01*
X37043333Y-63698380D01*
X37043333Y-63841238D01*
X37090952Y-63936476D01*
X37138571Y-63984095D01*
X37233809Y-64031714D01*
X37471904Y-64031714D01*
X37567142Y-63984095D01*
X37614761Y-63936476D01*
X37662380Y-63841238D01*
X37662380Y-63555523D01*
X37614761Y-63460285D01*
X37567142Y-63412666D01*
X37265080Y-128547904D02*
X36265080Y-128547904D01*
X36265080Y-128786000D01*
X36312700Y-128928857D01*
X36407938Y-129024095D01*
X36503176Y-129071714D01*
X36693652Y-129119333D01*
X36836509Y-129119333D01*
X37026985Y-129071714D01*
X37122223Y-129024095D01*
X37217461Y-128928857D01*
X37265080Y-128786000D01*
X37265080Y-128547904D01*
X36265080Y-129452666D02*
X36265080Y-130071714D01*
X36646033Y-129738380D01*
X36646033Y-129881238D01*
X36693652Y-129976476D01*
X36741271Y-130024095D01*
X36836509Y-130071714D01*
X37074604Y-130071714D01*
X37169842Y-130024095D01*
X37217461Y-129976476D01*
X37265080Y-129881238D01*
X37265080Y-129595523D01*
X37217461Y-129500285D01*
X37169842Y-129452666D01*
X37265345Y-147780974D02*
X36265345Y-147780974D01*
X36265345Y-148019070D01*
X36312965Y-148161927D01*
X36408203Y-148257165D01*
X36503441Y-148304784D01*
X36693917Y-148352403D01*
X36836774Y-148352403D01*
X37027250Y-148304784D01*
X37122488Y-148257165D01*
X37217726Y-148161927D01*
X37265345Y-148019070D01*
X37265345Y-147780974D01*
X36598679Y-149209546D02*
X37265345Y-149209546D01*
X36217726Y-148971450D02*
X36932012Y-148733355D01*
X36932012Y-149352403D01*
X43508142Y-66254333D02*
X43555761Y-66206714D01*
X43603380Y-66063857D01*
X43603380Y-65968619D01*
X43555761Y-65825761D01*
X43460523Y-65730523D01*
X43365285Y-65682904D01*
X43174809Y-65635285D01*
X43031952Y-65635285D01*
X42841476Y-65682904D01*
X42746238Y-65730523D01*
X42651000Y-65825761D01*
X42603380Y-65968619D01*
X42603380Y-66063857D01*
X42651000Y-66206714D01*
X42698619Y-66254333D01*
X42936714Y-67111476D02*
X43603380Y-67111476D01*
X42555761Y-66873380D02*
X43270047Y-66635285D01*
X43270047Y-67254333D01*
X56314980Y-147780574D02*
X55314980Y-147780574D01*
X55314980Y-148018670D01*
X55362600Y-148161527D01*
X55457838Y-148256765D01*
X55553076Y-148304384D01*
X55743552Y-148352003D01*
X55886409Y-148352003D01*
X56076885Y-148304384D01*
X56172123Y-148256765D01*
X56267361Y-148161527D01*
X56314980Y-148018670D01*
X56314980Y-147780574D01*
X55743552Y-148923431D02*
X55695933Y-148828193D01*
X55648314Y-148780574D01*
X55553076Y-148732955D01*
X55505457Y-148732955D01*
X55410219Y-148780574D01*
X55362600Y-148828193D01*
X55314980Y-148923431D01*
X55314980Y-149113908D01*
X55362600Y-149209146D01*
X55410219Y-149256765D01*
X55505457Y-149304384D01*
X55553076Y-149304384D01*
X55648314Y-149256765D01*
X55695933Y-149209146D01*
X55743552Y-149113908D01*
X55743552Y-148923431D01*
X55791171Y-148828193D01*
X55838790Y-148780574D01*
X55934028Y-148732955D01*
X56124504Y-148732955D01*
X56219742Y-148780574D01*
X56267361Y-148828193D01*
X56314980Y-148923431D01*
X56314980Y-149113908D01*
X56267361Y-149209146D01*
X56219742Y-149256765D01*
X56124504Y-149304384D01*
X55934028Y-149304384D01*
X55838790Y-149256765D01*
X55791171Y-149209146D01*
X55743552Y-149113908D01*
X75223666Y-72589380D02*
X75557000Y-72113190D01*
X75795095Y-72589380D02*
X75795095Y-71589380D01*
X75414142Y-71589380D01*
X75318904Y-71637000D01*
X75271285Y-71684619D01*
X75223666Y-71779857D01*
X75223666Y-71922714D01*
X75271285Y-72017952D01*
X75318904Y-72065571D01*
X75414142Y-72113190D01*
X75795095Y-72113190D01*
X74366523Y-71922714D02*
X74366523Y-72589380D01*
X74604619Y-71541761D02*
X74842714Y-72256047D01*
X74223666Y-72256047D01*
X34360380Y-63079333D02*
X33884190Y-62746000D01*
X34360380Y-62507904D02*
X33360380Y-62507904D01*
X33360380Y-62888857D01*
X33408000Y-62984095D01*
X33455619Y-63031714D01*
X33550857Y-63079333D01*
X33693714Y-63079333D01*
X33788952Y-63031714D01*
X33836571Y-62984095D01*
X33884190Y-62888857D01*
X33884190Y-62507904D01*
X33455619Y-63460285D02*
X33408000Y-63507904D01*
X33360380Y-63603142D01*
X33360380Y-63841238D01*
X33408000Y-63936476D01*
X33455619Y-63984095D01*
X33550857Y-64031714D01*
X33646095Y-64031714D01*
X33788952Y-63984095D01*
X34360380Y-63412666D01*
X34360380Y-64031714D01*
X80811380Y-130711714D02*
X79811380Y-130711714D01*
X79811380Y-130949809D01*
X79859000Y-131092666D01*
X79954238Y-131187904D01*
X80049476Y-131235523D01*
X80239952Y-131283142D01*
X80382809Y-131283142D01*
X80573285Y-131235523D01*
X80668523Y-131187904D01*
X80763761Y-131092666D01*
X80811380Y-130949809D01*
X80811380Y-130711714D01*
X80811380Y-132235523D02*
X80811380Y-131664095D01*
X80811380Y-131949809D02*
X79811380Y-131949809D01*
X79954238Y-131854571D01*
X80049476Y-131759333D01*
X80097095Y-131664095D01*
X79811380Y-133140285D02*
X79811380Y-132664095D01*
X80287571Y-132616476D01*
X80239952Y-132664095D01*
X80192333Y-132759333D01*
X80192333Y-132997428D01*
X80239952Y-133092666D01*
X80287571Y-133140285D01*
X80382809Y-133187904D01*
X80620904Y-133187904D01*
X80716142Y-133140285D01*
X80763761Y-133092666D01*
X80811380Y-132997428D01*
X80811380Y-132759333D01*
X80763761Y-132664095D01*
X80716142Y-132616476D01*
X92654285Y-77255380D02*
X92654285Y-76255380D01*
X92416190Y-76255380D01*
X92273333Y-76303000D01*
X92178095Y-76398238D01*
X92130476Y-76493476D01*
X92082857Y-76683952D01*
X92082857Y-76826809D01*
X92130476Y-77017285D01*
X92178095Y-77112523D01*
X92273333Y-77207761D01*
X92416190Y-77255380D01*
X92654285Y-77255380D01*
X91130476Y-77255380D02*
X91701904Y-77255380D01*
X91416190Y-77255380D02*
X91416190Y-76255380D01*
X91511428Y-76398238D01*
X91606666Y-76493476D01*
X91701904Y-76541095D01*
X90273333Y-76255380D02*
X90463809Y-76255380D01*
X90559047Y-76303000D01*
X90606666Y-76350619D01*
X90701904Y-76493476D01*
X90749523Y-76683952D01*
X90749523Y-77064904D01*
X90701904Y-77160142D01*
X90654285Y-77207761D01*
X90559047Y-77255380D01*
X90368571Y-77255380D01*
X90273333Y-77207761D01*
X90225714Y-77160142D01*
X90178095Y-77064904D01*
X90178095Y-76826809D01*
X90225714Y-76731571D01*
X90273333Y-76683952D01*
X90368571Y-76636333D01*
X90559047Y-76636333D01*
X90654285Y-76683952D01*
X90701904Y-76731571D01*
X90749523Y-76826809D01*
X36782333Y-59800380D02*
X36782333Y-60514666D01*
X36829952Y-60657523D01*
X36925190Y-60752761D01*
X37068047Y-60800380D01*
X37163285Y-60800380D01*
X36353761Y-59895619D02*
X36306142Y-59848000D01*
X36210904Y-59800380D01*
X35972809Y-59800380D01*
X35877571Y-59848000D01*
X35829952Y-59895619D01*
X35782333Y-59990857D01*
X35782333Y-60086095D01*
X35829952Y-60228952D01*
X36401380Y-60800380D01*
X35782333Y-60800380D01*
X41095142Y-66254333D02*
X41142761Y-66206714D01*
X41190380Y-66063857D01*
X41190380Y-65968619D01*
X41142761Y-65825761D01*
X41047523Y-65730523D01*
X40952285Y-65682904D01*
X40761809Y-65635285D01*
X40618952Y-65635285D01*
X40428476Y-65682904D01*
X40333238Y-65730523D01*
X40238000Y-65825761D01*
X40190380Y-65968619D01*
X40190380Y-66063857D01*
X40238000Y-66206714D01*
X40285619Y-66254333D01*
X40190380Y-66587666D02*
X40190380Y-67206714D01*
X40571333Y-66873380D01*
X40571333Y-67016238D01*
X40618952Y-67111476D01*
X40666571Y-67159095D01*
X40761809Y-67206714D01*
X40999904Y-67206714D01*
X41095142Y-67159095D01*
X41142761Y-67111476D01*
X41190380Y-67016238D01*
X41190380Y-66730523D01*
X41142761Y-66635285D01*
X41095142Y-66587666D01*
X75381380Y-58561833D02*
X74905190Y-58228500D01*
X75381380Y-57990404D02*
X74381380Y-57990404D01*
X74381380Y-58371357D01*
X74429000Y-58466595D01*
X74476619Y-58514214D01*
X74571857Y-58561833D01*
X74714714Y-58561833D01*
X74809952Y-58514214D01*
X74857571Y-58466595D01*
X74905190Y-58371357D01*
X74905190Y-57990404D01*
X74381380Y-59418976D02*
X74381380Y-59228500D01*
X74429000Y-59133261D01*
X74476619Y-59085642D01*
X74619476Y-58990404D01*
X74809952Y-58942785D01*
X75190904Y-58942785D01*
X75286142Y-58990404D01*
X75333761Y-59038023D01*
X75381380Y-59133261D01*
X75381380Y-59323738D01*
X75333761Y-59418976D01*
X75286142Y-59466595D01*
X75190904Y-59514214D01*
X74952809Y-59514214D01*
X74857571Y-59466595D01*
X74809952Y-59418976D01*
X74762333Y-59323738D01*
X74762333Y-59133261D01*
X74809952Y-59038023D01*
X74857571Y-58990404D01*
X74952809Y-58942785D01*
X94415415Y-109204644D02*
X93415415Y-109204644D01*
X93415415Y-109442739D01*
X93463035Y-109585596D01*
X93558273Y-109680834D01*
X93653511Y-109728453D01*
X93843987Y-109776072D01*
X93986844Y-109776072D01*
X94177320Y-109728453D01*
X94272558Y-109680834D01*
X94367796Y-109585596D01*
X94415415Y-109442739D01*
X94415415Y-109204644D01*
X94415415Y-110728453D02*
X94415415Y-110157025D01*
X94415415Y-110442739D02*
X93415415Y-110442739D01*
X93558273Y-110347501D01*
X93653511Y-110252263D01*
X93701130Y-110157025D01*
X93748749Y-111585596D02*
X94415415Y-111585596D01*
X93367796Y-111347501D02*
X94082082Y-111109406D01*
X94082082Y-111728453D01*
X75364980Y-109204244D02*
X74364980Y-109204244D01*
X74364980Y-109442339D01*
X74412600Y-109585196D01*
X74507838Y-109680434D01*
X74603076Y-109728053D01*
X74793552Y-109775672D01*
X74936409Y-109775672D01*
X75126885Y-109728053D01*
X75222123Y-109680434D01*
X75317361Y-109585196D01*
X75364980Y-109442339D01*
X75364980Y-109204244D01*
X75364980Y-110728053D02*
X75364980Y-110156625D01*
X75364980Y-110442339D02*
X74364980Y-110442339D01*
X74507838Y-110347101D01*
X74603076Y-110251863D01*
X74650695Y-110156625D01*
X74364980Y-111347101D02*
X74364980Y-111442339D01*
X74412600Y-111537577D01*
X74460219Y-111585196D01*
X74555457Y-111632815D01*
X74745933Y-111680434D01*
X74984028Y-111680434D01*
X75174504Y-111632815D01*
X75269742Y-111585196D01*
X75317361Y-111537577D01*
X75364980Y-111442339D01*
X75364980Y-111347101D01*
X75317361Y-111251863D01*
X75269742Y-111204244D01*
X75174504Y-111156625D01*
X74984028Y-111109006D01*
X74745933Y-111109006D01*
X74555457Y-111156625D01*
X74460219Y-111204244D01*
X74412600Y-111251863D01*
X74364980Y-111347101D01*
X54014666Y-56968380D02*
X54348000Y-56492190D01*
X54586095Y-56968380D02*
X54586095Y-55968380D01*
X54205142Y-55968380D01*
X54109904Y-56016000D01*
X54062285Y-56063619D01*
X54014666Y-56158857D01*
X54014666Y-56301714D01*
X54062285Y-56396952D01*
X54109904Y-56444571D01*
X54205142Y-56492190D01*
X54586095Y-56492190D01*
X53062285Y-56968380D02*
X53633714Y-56968380D01*
X53348000Y-56968380D02*
X53348000Y-55968380D01*
X53443238Y-56111238D01*
X53538476Y-56206476D01*
X53633714Y-56254095D01*
X54927333Y-76350761D02*
X54784476Y-76398380D01*
X54546380Y-76398380D01*
X54451142Y-76350761D01*
X54403523Y-76303142D01*
X54355904Y-76207904D01*
X54355904Y-76112666D01*
X54403523Y-76017428D01*
X54451142Y-75969809D01*
X54546380Y-75922190D01*
X54736857Y-75874571D01*
X54832095Y-75826952D01*
X54879714Y-75779333D01*
X54927333Y-75684095D01*
X54927333Y-75588857D01*
X54879714Y-75493619D01*
X54832095Y-75446000D01*
X54736857Y-75398380D01*
X54498761Y-75398380D01*
X54355904Y-75446000D01*
X54022571Y-75398380D02*
X53784476Y-76398380D01*
X53594000Y-75684095D01*
X53403523Y-76398380D01*
X53165428Y-75398380D01*
X52260666Y-76398380D02*
X52832095Y-76398380D01*
X52546380Y-76398380D02*
X52546380Y-75398380D01*
X52641619Y-75541238D01*
X52736857Y-75636476D01*
X52832095Y-75684095D01*
X56314980Y-109680434D02*
X55314980Y-109680434D01*
X55314980Y-109918530D01*
X55362600Y-110061387D01*
X55457838Y-110156625D01*
X55553076Y-110204244D01*
X55743552Y-110251863D01*
X55886409Y-110251863D01*
X56076885Y-110204244D01*
X56172123Y-110156625D01*
X56267361Y-110061387D01*
X56314980Y-109918530D01*
X56314980Y-109680434D01*
X55314980Y-111109006D02*
X55314980Y-110918530D01*
X55362600Y-110823291D01*
X55410219Y-110775672D01*
X55553076Y-110680434D01*
X55743552Y-110632815D01*
X56124504Y-110632815D01*
X56219742Y-110680434D01*
X56267361Y-110728053D01*
X56314980Y-110823291D01*
X56314980Y-111013768D01*
X56267361Y-111109006D01*
X56219742Y-111156625D01*
X56124504Y-111204244D01*
X55886409Y-111204244D01*
X55791171Y-111156625D01*
X55743552Y-111109006D01*
X55695933Y-111013768D01*
X55695933Y-110823291D01*
X55743552Y-110728053D01*
X55791171Y-110680434D01*
X55886409Y-110632815D01*
X70363142Y-58761333D02*
X70410761Y-58713714D01*
X70458380Y-58570857D01*
X70458380Y-58475619D01*
X70410761Y-58332761D01*
X70315523Y-58237523D01*
X70220285Y-58189904D01*
X70029809Y-58142285D01*
X69886952Y-58142285D01*
X69696476Y-58189904D01*
X69601238Y-58237523D01*
X69506000Y-58332761D01*
X69458380Y-58475619D01*
X69458380Y-58570857D01*
X69506000Y-58713714D01*
X69553619Y-58761333D01*
X70458380Y-59713714D02*
X70458380Y-59142285D01*
X70458380Y-59428000D02*
X69458380Y-59428000D01*
X69601238Y-59332761D01*
X69696476Y-59237523D01*
X69744095Y-59142285D01*
X75364980Y-147304384D02*
X74364980Y-147304384D01*
X74364980Y-147542479D01*
X74412600Y-147685336D01*
X74507838Y-147780574D01*
X74603076Y-147828193D01*
X74793552Y-147875812D01*
X74936409Y-147875812D01*
X75126885Y-147828193D01*
X75222123Y-147780574D01*
X75317361Y-147685336D01*
X75364980Y-147542479D01*
X75364980Y-147304384D01*
X75364980Y-148828193D02*
X75364980Y-148256765D01*
X75364980Y-148542479D02*
X74364980Y-148542479D01*
X74507838Y-148447241D01*
X74603076Y-148352003D01*
X74650695Y-148256765D01*
X74460219Y-149209146D02*
X74412600Y-149256765D01*
X74364980Y-149352003D01*
X74364980Y-149590098D01*
X74412600Y-149685336D01*
X74460219Y-149732955D01*
X74555457Y-149780574D01*
X74650695Y-149780574D01*
X74793552Y-149732955D01*
X75364980Y-149161527D01*
X75364980Y-149780574D01*
X65246190Y-58904190D02*
X65246190Y-59380380D01*
X65579523Y-58380380D02*
X65246190Y-58904190D01*
X64912857Y-58380380D01*
X64055714Y-59380380D02*
X64627142Y-59380380D01*
X64341428Y-59380380D02*
X64341428Y-58380380D01*
X64436666Y-58523238D01*
X64531904Y-58618476D01*
X64627142Y-58666095D01*
X59891142Y-58761333D02*
X59938761Y-58713714D01*
X59986380Y-58570857D01*
X59986380Y-58475619D01*
X59938761Y-58332761D01*
X59843523Y-58237523D01*
X59748285Y-58189904D01*
X59557809Y-58142285D01*
X59414952Y-58142285D01*
X59224476Y-58189904D01*
X59129238Y-58237523D01*
X59034000Y-58332761D01*
X58986380Y-58475619D01*
X58986380Y-58570857D01*
X59034000Y-58713714D01*
X59081619Y-58761333D01*
X59081619Y-59142285D02*
X59034000Y-59189904D01*
X58986380Y-59285142D01*
X58986380Y-59523238D01*
X59034000Y-59618476D01*
X59081619Y-59666095D01*
X59176857Y-59713714D01*
X59272095Y-59713714D01*
X59414952Y-59666095D01*
X59986380Y-59094666D01*
X59986380Y-59713714D01*
X75365415Y-90630834D02*
X74365415Y-90630834D01*
X74365415Y-90868930D01*
X74413035Y-91011787D01*
X74508273Y-91107025D01*
X74603511Y-91154644D01*
X74793987Y-91202263D01*
X74936844Y-91202263D01*
X75127320Y-91154644D01*
X75222558Y-91107025D01*
X75317796Y-91011787D01*
X75365415Y-90868930D01*
X75365415Y-90630834D01*
X75365415Y-91678453D02*
X75365415Y-91868930D01*
X75317796Y-91964168D01*
X75270177Y-92011787D01*
X75127320Y-92107025D01*
X74936844Y-92154644D01*
X74555892Y-92154644D01*
X74460654Y-92107025D01*
X74413035Y-92059406D01*
X74365415Y-91964168D01*
X74365415Y-91773691D01*
X74413035Y-91678453D01*
X74460654Y-91630834D01*
X74555892Y-91583215D01*
X74793987Y-91583215D01*
X74889225Y-91630834D01*
X74936844Y-91678453D01*
X74984463Y-91773691D01*
X74984463Y-91964168D01*
X74936844Y-92059406D01*
X74889225Y-92107025D01*
X74793987Y-92154644D01*
X75364980Y-128254344D02*
X74364980Y-128254344D01*
X74364980Y-128492439D01*
X74412600Y-128635296D01*
X74507838Y-128730534D01*
X74603076Y-128778153D01*
X74793552Y-128825772D01*
X74936409Y-128825772D01*
X75126885Y-128778153D01*
X75222123Y-128730534D01*
X75317361Y-128635296D01*
X75364980Y-128492439D01*
X75364980Y-128254344D01*
X75364980Y-129778153D02*
X75364980Y-129206725D01*
X75364980Y-129492439D02*
X74364980Y-129492439D01*
X74507838Y-129397201D01*
X74603076Y-129301963D01*
X74650695Y-129206725D01*
X75364980Y-130730534D02*
X75364980Y-130159106D01*
X75364980Y-130444820D02*
X74364980Y-130444820D01*
X74507838Y-130349582D01*
X74603076Y-130254344D01*
X74650695Y-130159106D01*
X56315315Y-90630834D02*
X55315315Y-90630834D01*
X55315315Y-90868930D01*
X55362935Y-91011787D01*
X55458173Y-91107025D01*
X55553411Y-91154644D01*
X55743887Y-91202263D01*
X55886744Y-91202263D01*
X56077220Y-91154644D01*
X56172458Y-91107025D01*
X56267696Y-91011787D01*
X56315315Y-90868930D01*
X56315315Y-90630834D01*
X55315315Y-92107025D02*
X55315315Y-91630834D01*
X55791506Y-91583215D01*
X55743887Y-91630834D01*
X55696268Y-91726072D01*
X55696268Y-91964168D01*
X55743887Y-92059406D01*
X55791506Y-92107025D01*
X55886744Y-92154644D01*
X56124839Y-92154644D01*
X56220077Y-92107025D01*
X56267696Y-92059406D01*
X56315315Y-91964168D01*
X56315315Y-91726072D01*
X56267696Y-91630834D01*
X56220077Y-91583215D01*
X37265345Y-90630834D02*
X36265345Y-90630834D01*
X36265345Y-90868930D01*
X36312965Y-91011787D01*
X36408203Y-91107025D01*
X36503441Y-91154644D01*
X36693917Y-91202263D01*
X36836774Y-91202263D01*
X37027250Y-91154644D01*
X37122488Y-91107025D01*
X37217726Y-91011787D01*
X37265345Y-90868930D01*
X37265345Y-90630834D01*
X37265345Y-92154644D02*
X37265345Y-91583215D01*
X37265345Y-91868930D02*
X36265345Y-91868930D01*
X36408203Y-91773691D01*
X36503441Y-91678453D01*
X36551060Y-91583215D01*
X54075666Y-68019142D02*
X54123285Y-68066761D01*
X54266142Y-68114380D01*
X54361380Y-68114380D01*
X54504238Y-68066761D01*
X54599476Y-67971523D01*
X54647095Y-67876285D01*
X54694714Y-67685809D01*
X54694714Y-67542952D01*
X54647095Y-67352476D01*
X54599476Y-67257238D01*
X54504238Y-67162000D01*
X54361380Y-67114380D01*
X54266142Y-67114380D01*
X54123285Y-67162000D01*
X54075666Y-67209619D01*
X53218523Y-67114380D02*
X53409000Y-67114380D01*
X53504238Y-67162000D01*
X53551857Y-67209619D01*
X53647095Y-67352476D01*
X53694714Y-67542952D01*
X53694714Y-67923904D01*
X53647095Y-68019142D01*
X53599476Y-68066761D01*
X53504238Y-68114380D01*
X53313761Y-68114380D01*
X53218523Y-68066761D01*
X53170904Y-68019142D01*
X53123285Y-67923904D01*
X53123285Y-67685809D01*
X53170904Y-67590571D01*
X53218523Y-67542952D01*
X53313761Y-67495333D01*
X53504238Y-67495333D01*
X53599476Y-67542952D01*
X53647095Y-67590571D01*
X53694714Y-67685809D01*
X45921142Y-66254333D02*
X45968761Y-66206714D01*
X46016380Y-66063857D01*
X46016380Y-65968619D01*
X45968761Y-65825761D01*
X45873523Y-65730523D01*
X45778285Y-65682904D01*
X45587809Y-65635285D01*
X45444952Y-65635285D01*
X45254476Y-65682904D01*
X45159238Y-65730523D01*
X45064000Y-65825761D01*
X45016380Y-65968619D01*
X45016380Y-66063857D01*
X45064000Y-66206714D01*
X45111619Y-66254333D01*
X45444952Y-66825761D02*
X45397333Y-66730523D01*
X45349714Y-66682904D01*
X45254476Y-66635285D01*
X45206857Y-66635285D01*
X45111619Y-66682904D01*
X45064000Y-66730523D01*
X45016380Y-66825761D01*
X45016380Y-67016238D01*
X45064000Y-67111476D01*
X45111619Y-67159095D01*
X45206857Y-67206714D01*
X45254476Y-67206714D01*
X45349714Y-67159095D01*
X45397333Y-67111476D01*
X45444952Y-67016238D01*
X45444952Y-66825761D01*
X45492571Y-66730523D01*
X45540190Y-66682904D01*
X45635428Y-66635285D01*
X45825904Y-66635285D01*
X45921142Y-66682904D01*
X45968761Y-66730523D01*
X46016380Y-66825761D01*
X46016380Y-67016238D01*
X45968761Y-67111476D01*
X45921142Y-67159095D01*
X45825904Y-67206714D01*
X45635428Y-67206714D01*
X45540190Y-67159095D01*
X45492571Y-67111476D01*
X45444952Y-67016238D01*
X37265080Y-109497904D02*
X36265080Y-109497904D01*
X36265080Y-109736000D01*
X36312700Y-109878857D01*
X36407938Y-109974095D01*
X36503176Y-110021714D01*
X36693652Y-110069333D01*
X36836509Y-110069333D01*
X37026985Y-110021714D01*
X37122223Y-109974095D01*
X37217461Y-109878857D01*
X37265080Y-109736000D01*
X37265080Y-109497904D01*
X36360319Y-110450285D02*
X36312700Y-110497904D01*
X36265080Y-110593142D01*
X36265080Y-110831238D01*
X36312700Y-110926476D01*
X36360319Y-110974095D01*
X36455557Y-111021714D01*
X36550795Y-111021714D01*
X36693652Y-110974095D01*
X37265080Y-110402666D01*
X37265080Y-111021714D01*
X56315315Y-128730934D02*
X55315315Y-128730934D01*
X55315315Y-128969030D01*
X55362935Y-129111887D01*
X55458173Y-129207125D01*
X55553411Y-129254744D01*
X55743887Y-129302363D01*
X55886744Y-129302363D01*
X56077220Y-129254744D01*
X56172458Y-129207125D01*
X56267696Y-129111887D01*
X56315315Y-128969030D01*
X56315315Y-128730934D01*
X55315315Y-129635696D02*
X55315315Y-130302363D01*
X56315315Y-129873791D01*
X50874142Y-66254333D02*
X50921761Y-66206714D01*
X50969380Y-66063857D01*
X50969380Y-65968619D01*
X50921761Y-65825761D01*
X50826523Y-65730523D01*
X50731285Y-65682904D01*
X50540809Y-65635285D01*
X50397952Y-65635285D01*
X50207476Y-65682904D01*
X50112238Y-65730523D01*
X50017000Y-65825761D01*
X49969380Y-65968619D01*
X49969380Y-66063857D01*
X50017000Y-66206714D01*
X50064619Y-66254333D01*
X49969380Y-66587666D02*
X49969380Y-67254333D01*
X50969380Y-66825761D01*
X77413380Y-58561833D02*
X76937190Y-58228500D01*
X77413380Y-57990404D02*
X76413380Y-57990404D01*
X76413380Y-58371357D01*
X76461000Y-58466595D01*
X76508619Y-58514214D01*
X76603857Y-58561833D01*
X76746714Y-58561833D01*
X76841952Y-58514214D01*
X76889571Y-58466595D01*
X76937190Y-58371357D01*
X76937190Y-57990404D01*
X76413380Y-59466595D02*
X76413380Y-58990404D01*
X76889571Y-58942785D01*
X76841952Y-58990404D01*
X76794333Y-59085642D01*
X76794333Y-59323738D01*
X76841952Y-59418976D01*
X76889571Y-59466595D01*
X76984809Y-59514214D01*
X77222904Y-59514214D01*
X77318142Y-59466595D01*
X77365761Y-59418976D01*
X77413380Y-59323738D01*
X77413380Y-59085642D01*
X77365761Y-58990404D01*
X77318142Y-58942785D01*
X48334142Y-66254333D02*
X48381761Y-66206714D01*
X48429380Y-66063857D01*
X48429380Y-65968619D01*
X48381761Y-65825761D01*
X48286523Y-65730523D01*
X48191285Y-65682904D01*
X48000809Y-65635285D01*
X47857952Y-65635285D01*
X47667476Y-65682904D01*
X47572238Y-65730523D01*
X47477000Y-65825761D01*
X47429380Y-65968619D01*
X47429380Y-66063857D01*
X47477000Y-66206714D01*
X47524619Y-66254333D01*
X47429380Y-67159095D02*
X47429380Y-66682904D01*
X47905571Y-66635285D01*
X47857952Y-66682904D01*
X47810333Y-66778142D01*
X47810333Y-67016238D01*
X47857952Y-67111476D01*
X47905571Y-67159095D01*
X48000809Y-67206714D01*
X48238904Y-67206714D01*
X48334142Y-67159095D01*
X48381761Y-67111476D01*
X48429380Y-67016238D01*
X48429380Y-66778142D01*
X48381761Y-66682904D01*
X48334142Y-66635285D01*
X94414980Y-90154244D02*
X93414980Y-90154244D01*
X93414980Y-90392339D01*
X93462600Y-90535196D01*
X93557838Y-90630434D01*
X93653076Y-90678053D01*
X93843552Y-90725672D01*
X93986409Y-90725672D01*
X94176885Y-90678053D01*
X94272123Y-90630434D01*
X94367361Y-90535196D01*
X94414980Y-90392339D01*
X94414980Y-90154244D01*
X94414980Y-91678053D02*
X94414980Y-91106625D01*
X94414980Y-91392339D02*
X93414980Y-91392339D01*
X93557838Y-91297101D01*
X93653076Y-91201863D01*
X93700695Y-91106625D01*
X93414980Y-92011387D02*
X93414980Y-92630434D01*
X93795933Y-92297101D01*
X93795933Y-92439958D01*
X93843552Y-92535196D01*
X93891171Y-92582815D01*
X93986409Y-92630434D01*
X94224504Y-92630434D01*
X94319742Y-92582815D01*
X94367361Y-92535196D01*
X94414980Y-92439958D01*
X94414980Y-92154244D01*
X94367361Y-92059006D01*
X94319742Y-92011387D01*
X70072000Y-74517000D02*
X70072000Y-73842000D01*
X70072000Y-64167000D02*
X69397000Y-64167000D01*
X59722000Y-74517000D02*
X60397000Y-74517000D01*
X70072000Y-74517000D02*
X69397000Y-74517000D01*
X59722000Y-73942000D02*
X58447000Y-73942000D01*
X59722000Y-74517000D02*
X59722000Y-73942000D01*
X59722000Y-64167000D02*
X59722000Y-64842000D01*
X59722000Y-64167000D02*
X60397000Y-64167000D01*
X70072000Y-64167000D02*
X70072000Y-64842000D01*
D11*
X34825000Y-63473064D02*
X34825000Y-63018936D01*
X36295000Y-63473064D02*
X36295000Y-63018936D01*
X35812700Y-131536000D02*
X35812700Y-127636000D01*
X33812700Y-131536000D02*
X33812700Y-127636000D01*
X35812700Y-131536000D02*
X33812700Y-131536000D01*
X35812965Y-150769070D02*
X35812965Y-146869070D01*
X35812965Y-150769070D02*
X33812965Y-150769070D01*
X33812965Y-150769070D02*
X33812965Y-146869070D01*
X45566000Y-66159748D02*
X45566000Y-66682252D01*
X44096000Y-66159748D02*
X44096000Y-66682252D01*
X52862600Y-150768670D02*
X52862600Y-146868670D01*
X54862600Y-150768670D02*
X52862600Y-150768670D01*
X54862600Y-150768670D02*
X54862600Y-146868670D01*
X75284064Y-74522000D02*
X74829936Y-74522000D01*
X75284064Y-73052000D02*
X74829936Y-73052000D01*
X32993000Y-63473064D02*
X32993000Y-63018936D01*
X31523000Y-63473064D02*
X31523000Y-63018936D01*
X77359000Y-134176000D02*
X77359000Y-130276000D01*
X79359000Y-134176000D02*
X79359000Y-130276000D01*
X79359000Y-134176000D02*
X77359000Y-134176000D01*
X89190000Y-75803000D02*
X93090000Y-75803000D01*
X89190000Y-73803000D02*
X93090000Y-73803000D01*
X89190000Y-75803000D02*
X89190000Y-73803000D01*
D10*
X37036000Y-58502000D02*
X37036000Y-56102000D01*
X31036000Y-56102000D02*
X31036000Y-58502000D01*
X36036000Y-58502000D02*
X37036000Y-58502000D01*
X31036000Y-58502000D02*
X32036000Y-58502000D01*
X36036000Y-54302000D02*
X32036000Y-54302000D01*
D11*
X41683000Y-66159748D02*
X41683000Y-66682252D01*
X43153000Y-66159748D02*
X43153000Y-66682252D01*
X72544000Y-58955564D02*
X72544000Y-58501436D01*
X74014000Y-58955564D02*
X74014000Y-58501436D01*
X90963035Y-112668930D02*
X90963035Y-108768930D01*
X92963035Y-112668930D02*
X90963035Y-112668930D01*
X92963035Y-112668930D02*
X92963035Y-108768930D01*
X73912600Y-112668530D02*
X71912600Y-112668530D01*
X71912600Y-112668530D02*
X71912600Y-108768530D01*
X73912600Y-112668530D02*
X73912600Y-108768530D01*
X54075064Y-57431000D02*
X53620936Y-57431000D01*
X54075064Y-58901000D02*
X53620936Y-58901000D01*
D10*
X45831000Y-59436000D02*
G75*
G03*
X45831000Y-59436000I-1000000J0D01*
G01*
X47431000Y-62036000D02*
X47431000Y-56836000D01*
X42231000Y-62036000D02*
X47431000Y-62036000D01*
X42231000Y-56836000D02*
X42231000Y-62036000D01*
X47431000Y-56836000D02*
X42231000Y-56836000D01*
D11*
X54862600Y-112668530D02*
X52862600Y-112668530D01*
X54862600Y-112668530D02*
X54862600Y-108768530D01*
X52862600Y-112668530D02*
X52862600Y-108768530D01*
X69061000Y-59189252D02*
X69061000Y-58666748D01*
X67591000Y-59189252D02*
X67591000Y-58666748D01*
X73912600Y-150768670D02*
X71912600Y-150768670D01*
X73912600Y-150768670D02*
X73912600Y-146868670D01*
X71912600Y-150768670D02*
X71912600Y-146868670D01*
X66770000Y-57278000D02*
X66770000Y-60578000D01*
X66770000Y-60578000D02*
X62770000Y-60578000D01*
X60479000Y-58666748D02*
X60479000Y-59189252D01*
X61949000Y-58666748D02*
X61949000Y-59189252D01*
X71913035Y-93618930D02*
X71913035Y-89718930D01*
X73913035Y-93618930D02*
X71913035Y-93618930D01*
X73913035Y-93618930D02*
X73913035Y-89718930D01*
X71912600Y-131718630D02*
X71912600Y-127818630D01*
X73912600Y-131718630D02*
X71912600Y-131718630D01*
X73912600Y-131718630D02*
X73912600Y-127818630D01*
X52862935Y-93618930D02*
X52862935Y-89718930D01*
X54862935Y-93618930D02*
X54862935Y-89718930D01*
X54862935Y-93618930D02*
X52862935Y-93618930D01*
X33812965Y-93618930D02*
X33812965Y-89718930D01*
X35812965Y-93618930D02*
X35812965Y-89718930D01*
X35812965Y-93618930D02*
X33812965Y-93618930D01*
X54170252Y-70077000D02*
X53647748Y-70077000D01*
X54170252Y-68607000D02*
X53647748Y-68607000D01*
X46509000Y-66159748D02*
X46509000Y-66682252D01*
X47979000Y-66159748D02*
X47979000Y-66682252D01*
X33812700Y-112486000D02*
X33812700Y-108586000D01*
X35812700Y-112486000D02*
X33812700Y-112486000D01*
X35812700Y-112486000D02*
X35812700Y-108586000D01*
X54862935Y-131719030D02*
X52862935Y-131719030D01*
X52862935Y-131719030D02*
X52862935Y-127819030D01*
X54862935Y-131719030D02*
X54862935Y-127819030D01*
X51462000Y-66159748D02*
X51462000Y-66682252D01*
X52932000Y-66159748D02*
X52932000Y-66682252D01*
X74576000Y-58955564D02*
X74576000Y-58501436D01*
X76046000Y-58955564D02*
X76046000Y-58501436D01*
X48922000Y-66159748D02*
X48922000Y-66682252D01*
X50392000Y-66159748D02*
X50392000Y-66682252D01*
X90962600Y-93618530D02*
X90962600Y-89718530D01*
X92962600Y-93618530D02*
X92962600Y-89718530D01*
X92962600Y-93618530D02*
X90962600Y-93618530D01*
M02*
