  0
SECTION
  2
HEADER
  9
$ACADVER
  1
AC1009
  9
$FILLMODE
 70
 0
  9
$SPLFRAME
 70
 1
  9
$EXTMIN
 10
0
 20
0
 30
0.0
  9
$EXTMAX
 10
1058.33
 20
1058.33
 30
0.0
  0
ENDSEC
  0
SECTION
  2
TABLES
  0
TABLE
  2
LAYER
 70
1
  0
LAYER
  2
0
 70
     0
 62
     7
  6
CONTINUOUS
  0
ENDTAB
  0
ENDSEC
  0
SECTION
  2
ENTITIES
  0
LINE
  8
0
 62
     0
 10
0.0950846
 20
76.4575
 30
0.0
 11
76.2953
 21
76.4575
 31
0.0
  0
LINE
  8
0
 62
     0
 10
76.2953
 20
76.4575
 30
0.0
 11
76.2953
 21
0.257693
 31
0.0
  0
LINE
  8
0
 62
     0
 10
76.2953
 20
0.257693
 30
0.0
 11
0.0950846
 21
0.257693
 31
0.0
  0
LINE
  8
0
 62
     0
 10
0.0950846
 20
0.257693
 30
0.0
 11
0.0950846
 21
76.4575
 31
0.0
  0
LINE
  8
0
 62
     0
 10
2.61965
 20
16.7831
 30
0.0
 11
16.6192
 21
16.7831
 31
0.0
  0
LINE
  8
0
 62
     0
 10
16.6192
 20
16.7831
 30
0.0
 11
16.6192
 21
2.78364
 31
0.0
  0
LINE
  8
0
 62
     0
 10
16.6192
 20
2.78364
 30
0.0
 11
2.61965
 21
2.78364
 31
0.0
  0
LINE
  8
0
 62
     0
 10
2.61965
 20
2.78364
 30
0.0
 11
2.61965
 21
16.7831
 31
0.0
  0
LINE
  8
0
 62
     0
 10
21.6697
 20
16.7831
 30
0.0
 11
35.669
 21
16.7831
 31
0.0
  0
LINE
  8
0
 62
     0
 10
35.669
 20
16.7831
 30
0.0
 11
35.669
 21
2.78364
 31
0.0
  0
LINE
  8
0
 62
     0
 10
35.669
 20
2.78364
 30
0.0
 11
21.6697
 21
2.78364
 31
0.0
  0
LINE
  8
0
 62
     0
 10
21.6697
 20
2.78364
 30
0.0
 11
21.6697
 21
16.7831
 31
0.0
  0
LINE
  8
0
 62
     0
 10
40.7197
 20
16.7831
 30
0.0
 11
54.719
 21
16.7831
 31
0.0
  0
LINE
  8
0
 62
     0
 10
54.719
 20
16.7831
 30
0.0
 11
54.719
 21
2.78364
 31
0.0
  0
LINE
  8
0
 62
     0
 10
54.719
 20
2.78364
 30
0.0
 11
40.7197
 21
2.78364
 31
0.0
  0
LINE
  8
0
 62
     0
 10
40.7197
 20
2.78364
 30
0.0
 11
40.7197
 21
16.7831
 31
0.0
  0
LINE
  8
0
 62
     0
 10
66.27
 20
35.4087
 30
0.0
 11
66.27
 21
34.5833
 31
0.0
  0
LINE
  8
0
 62
     0
 10
66.27
 20
34.5833
 30
0.0
 11
59.9997
 21
34.5833
 31
0.0
  0
LINE
  8
0
 62
     0
 10
59.9997
 20
34.5833
 30
0.0
 11
59.9997
 21
32.8593
 31
0.0
  0
LINE
  8
0
 62
     0
 10
59.9997
 20
32.8593
 30
0.0
 11
58.7996
 21
32.8593
 31
0.0
  0
LINE
  8
0
 62
     0
 10
58.7996
 20
32.8593
 30
0.0
 11
58.7996
 21
29.5589
 31
0.0
  0
LINE
  8
0
 62
     0
 10
58.7996
 20
29.5589
 30
0.0
 11
59.9997
 21
29.5589
 31
0.0
  0
LINE
  8
0
 62
     0
 10
59.9997
 20
29.5589
 30
0.0
 11
59.9997
 21
27.8336
 31
0.0
  0
LINE
  8
0
 62
     0
 10
59.9997
 20
27.8336
 30
0.0
 11
64.4701
 21
27.8336
 31
0.0
  0
LINE
  8
0
 62
     0
 10
64.4701
 20
27.8336
 30
0.0
 11
64.4701
 21
26.3081
 31
0.0
  0
LINE
  8
0
 62
     0
 10
64.4701
 20
26.3081
 30
0.0
 11
59.7697
 21
26.3081
 31
0.0
  0
LINE
  8
0
 62
     0
 10
59.7697
 20
26.3081
 30
0.0
 11
59.7697
 21
12.3086
 31
0.0
  0
LINE
  8
0
 62
     0
 10
59.7697
 20
12.3086
 30
0.0
 11
64.4701
 21
12.3086
 31
0.0
  0
LINE
  8
0
 62
     0
 10
64.4701
 20
12.3086
 30
0.0
 11
64.4701
 21
10.7831
 31
0.0
  0
LINE
  8
0
 62
     0
 10
64.4701
 20
10.7831
 30
0.0
 11
59.9997
 21
10.7831
 31
0.0
  0
LINE
  8
0
 62
     0
 10
59.9997
 20
10.7831
 30
0.0
 11
59.9997
 21
9.05785
 31
0.0
  0
LINE
  8
0
 62
     0
 10
59.9997
 20
9.05785
 30
0.0
 11
58.7996
 21
9.05785
 31
0.0
  0
LINE
  8
0
 62
     0
 10
58.7996
 20
9.05785
 30
0.0
 11
58.7996
 21
5.75881
 31
0.0
  0
LINE
  8
0
 62
     0
 10
58.7996
 20
5.75881
 30
0.0
 11
59.9997
 21
5.75881
 31
0.0
  0
LINE
  8
0
 62
     0
 10
59.9997
 20
5.75881
 30
0.0
 11
59.9997
 21
4.03352
 31
0.0
  0
LINE
  8
0
 62
     0
 10
59.9997
 20
4.03352
 30
0.0
 11
66.27
 21
4.03352
 31
0.0
  0
LINE
  8
0
 62
     0
 10
66.27
 20
4.03352
 30
0.0
 11
66.27
 21
3.20807
 31
0.0
  0
LINE
  8
0
 62
     0
 10
66.27
 20
3.20807
 30
0.0
 11
69.07
 21
3.20807
 31
0.0
  0
LINE
  8
0
 62
     0
 10
69.07
 20
3.20807
 30
0.0
 11
69.07
 21
4.03352
 31
0.0
  0
LINE
  8
0
 62
     0
 10
69.07
 20
4.03352
 30
0.0
 11
72.3
 21
4.03352
 31
0.0
  0
LINE
  8
0
 62
     0
 10
72.3
 20
4.03352
 30
0.0
 11
72.3
 21
10.7831
 31
0.0
  0
LINE
  8
0
 62
     0
 10
72.3
 20
10.7831
 30
0.0
 11
69.07
 21
10.7831
 31
0.0
  0
LINE
  8
0
 62
     0
 10
69.07
 20
10.7831
 30
0.0
 11
69.07
 21
12.3086
 31
0.0
  0
LINE
  8
0
 62
     0
 10
69.07
 20
12.3086
 30
0.0
 11
73.769
 21
12.3086
 31
0.0
  0
LINE
  8
0
 62
     0
 10
73.769
 20
12.3086
 30
0.0
 11
73.769
 21
26.3081
 31
0.0
  0
LINE
  8
0
 62
     0
 10
73.769
 20
26.3081
 30
0.0
 11
69.07
 21
26.3081
 31
0.0
  0
LINE
  8
0
 62
     0
 10
69.07
 20
26.3081
 30
0.0
 11
69.07
 21
27.8336
 31
0.0
  0
LINE
  8
0
 62
     0
 10
69.07
 20
27.8336
 30
0.0
 11
72.3
 21
27.8336
 31
0.0
  0
LINE
  8
0
 62
     0
 10
72.3
 20
27.8336
 30
0.0
 11
72.3
 21
34.5833
 31
0.0
  0
LINE
  8
0
 62
     0
 10
72.3
 20
34.5833
 30
0.0
 11
69.07
 21
34.5833
 31
0.0
  0
LINE
  8
0
 62
     0
 10
69.07
 20
34.5833
 30
0.0
 11
69.07
 21
35.4087
 31
0.0
  0
LINE
  8
0
 62
     0
 10
69.07
 20
35.4087
 30
0.0
 11
66.27
 21
35.4087
 31
0.0
  0
LINE
  8
0
 62
     0
 10
2.61965
 20
35.833
 30
0.0
 11
16.6192
 21
35.833
 31
0.0
  0
LINE
  8
0
 62
     0
 10
16.6192
 20
35.833
 30
0.0
 11
16.6192
 21
21.8336
 31
0.0
  0
LINE
  8
0
 62
     0
 10
16.6192
 20
21.8336
 30
0.0
 11
2.61965
 21
21.8336
 31
0.0
  0
LINE
  8
0
 62
     0
 10
2.61965
 20
21.8336
 30
0.0
 11
2.61965
 21
35.833
 31
0.0
  0
LINE
  8
0
 62
     0
 10
21.6697
 20
35.833
 30
0.0
 11
35.669
 21
35.833
 31
0.0
  0
LINE
  8
0
 62
     0
 10
35.669
 20
35.833
 30
0.0
 11
35.669
 21
21.8336
 31
0.0
  0
LINE
  8
0
 62
     0
 10
35.669
 20
21.8336
 30
0.0
 11
21.6697
 21
21.8336
 31
0.0
  0
LINE
  8
0
 62
     0
 10
21.6697
 20
21.8336
 30
0.0
 11
21.6697
 21
35.833
 31
0.0
  0
LINE
  8
0
 62
     0
 10
40.7197
 20
35.833
 30
0.0
 11
54.719
 21
35.833
 31
0.0
  0
LINE
  8
0
 62
     0
 10
54.719
 20
35.833
 30
0.0
 11
54.719
 21
21.8336
 31
0.0
  0
LINE
  8
0
 62
     0
 10
54.719
 20
21.8336
 30
0.0
 11
40.7197
 21
21.8336
 31
0.0
  0
LINE
  8
0
 62
     0
 10
40.7197
 20
21.8336
 30
0.0
 11
40.7197
 21
35.833
 31
0.0
  0
LINE
  8
0
 62
     0
 10
2.61965
 20
54.8831
 30
0.0
 11
16.6192
 21
54.8831
 31
0.0
  0
LINE
  8
0
 62
     0
 10
16.6192
 20
54.8831
 30
0.0
 11
16.6192
 21
40.8838
 31
0.0
  0
LINE
  8
0
 62
     0
 10
16.6192
 20
40.8838
 30
0.0
 11
2.61965
 21
40.8838
 31
0.0
  0
LINE
  8
0
 62
     0
 10
2.61965
 20
40.8838
 30
0.0
 11
2.61965
 21
54.8831
 31
0.0
  0
LINE
  8
0
 62
     0
 10
21.6697
 20
54.8831
 30
0.0
 11
35.669
 21
54.8831
 31
0.0
  0
LINE
  8
0
 62
     0
 10
35.669
 20
54.8831
 30
0.0
 11
35.669
 21
40.8838
 31
0.0
  0
LINE
  8
0
 62
     0
 10
35.669
 20
40.8838
 30
0.0
 11
21.6697
 21
40.8838
 31
0.0
  0
LINE
  8
0
 62
     0
 10
21.6697
 20
40.8838
 30
0.0
 11
21.6697
 21
54.8831
 31
0.0
  0
LINE
  8
0
 62
     0
 10
40.7197
 20
54.8831
 30
0.0
 11
54.719
 21
54.8831
 31
0.0
  0
LINE
  8
0
 62
     0
 10
54.719
 20
54.8831
 30
0.0
 11
54.719
 21
40.8838
 31
0.0
  0
LINE
  8
0
 62
     0
 10
54.719
 20
40.8838
 30
0.0
 11
40.7197
 21
40.8838
 31
0.0
  0
LINE
  8
0
 62
     0
 10
40.7197
 20
40.8838
 30
0.0
 11
40.7197
 21
54.8831
 31
0.0
  0
LINE
  8
0
 62
     0
 10
59.7697
 20
54.8831
 30
0.0
 11
73.769
 21
54.8831
 31
0.0
  0
LINE
  8
0
 62
     0
 10
73.769
 20
54.8831
 30
0.0
 11
73.769
 21
40.8838
 31
0.0
  0
LINE
  8
0
 62
     0
 10
73.769
 20
40.8838
 30
0.0
 11
59.7697
 21
40.8838
 31
0.0
  0
LINE
  8
0
 62
     0
 10
59.7697
 20
40.8838
 30
0.0
 11
59.7697
 21
54.8831
 31
0.0
  0
LINE
  8
0
 62
     0
 10
2.61965
 20
73.9331
 30
0.0
 11
16.6192
 21
73.9331
 31
0.0
  0
LINE
  8
0
 62
     0
 10
16.6192
 20
73.9331
 30
0.0
 11
16.6192
 21
59.9338
 31
0.0
  0
LINE
  8
0
 62
     0
 10
16.6192
 20
59.9338
 30
0.0
 11
2.61965
 21
59.9338
 31
0.0
  0
LINE
  8
0
 62
     0
 10
2.61965
 20
59.9338
 30
0.0
 11
2.61965
 21
73.9331
 31
0.0
  0
LINE
  8
0
 62
     0
 10
21.6697
 20
73.9331
 30
0.0
 11
35.669
 21
73.9331
 31
0.0
  0
LINE
  8
0
 62
     0
 10
35.669
 20
73.9331
 30
0.0
 11
35.669
 21
59.9338
 31
0.0
  0
LINE
  8
0
 62
     0
 10
35.669
 20
59.9338
 30
0.0
 11
21.6697
 21
59.9338
 31
0.0
  0
LINE
  8
0
 62
     0
 10
21.6697
 20
59.9338
 30
0.0
 11
21.6697
 21
73.9331
 31
0.0
  0
LINE
  8
0
 62
     0
 10
40.7197
 20
73.9331
 30
0.0
 11
54.719
 21
73.9331
 31
0.0
  0
LINE
  8
0
 62
     0
 10
54.719
 20
73.9331
 30
0.0
 11
54.719
 21
59.9338
 31
0.0
  0
LINE
  8
0
 62
     0
 10
54.719
 20
59.9338
 30
0.0
 11
40.7197
 21
59.9338
 31
0.0
  0
LINE
  8
0
 62
     0
 10
40.7197
 20
59.9338
 30
0.0
 11
40.7197
 21
73.9331
 31
0.0
  0
LINE
  8
0
 62
     0
 10
59.7697
 20
73.9331
 30
0.0
 11
73.769
 21
73.9331
 31
0.0
  0
LINE
  8
0
 62
     0
 10
73.769
 20
73.9331
 30
0.0
 11
73.769
 21
59.9338
 31
0.0
  0
LINE
  8
0
 62
     0
 10
73.769
 20
59.9338
 30
0.0
 11
59.7697
 21
59.9338
 31
0.0
  0
LINE
  8
0
 62
     0
 10
59.7697
 20
59.9338
 30
0.0
 11
59.7697
 21
73.9331
 31
0.0
  0
ENDSEC
  0
EOF
