%TF.GenerationSoftware,KiCad,Pcbnew,(6.0.10)*%
%TF.CreationDate,2023-09-03T22:57:24-04:00*%
%TF.ProjectId,NugMacro-Keypad,4e75674d-6163-4726-9f2d-4b6579706164,V3*%
%TF.SameCoordinates,Original*%
%TF.FileFunction,Soldermask,Top*%
%TF.FilePolarity,Negative*%
%FSLAX46Y46*%
G04 Gerber Fmt 4.6, Leading zero omitted, Abs format (unit mm)*
G04 Created by KiCad (PCBNEW (6.0.10)) date 2023-09-03 22:57:24*
%MOMM*%
%LPD*%
G01*
G04 APERTURE LIST*
%ADD10C,1.750000*%
%ADD11C,3.987800*%
%ADD12R,2.000000X2.000000*%
%ADD13C,2.000000*%
%ADD14R,3.200000X2.000000*%
%ADD15C,3.048000*%
%ADD16R,1.700000X1.700000*%
%ADD17O,1.700000X1.700000*%
G04 APERTURE END LIST*
D10*
%TO.C,MX14*%
X165974435Y-92696400D03*
X176134435Y-92696400D03*
D11*
X171054435Y-92696400D03*
%TD*%
D10*
%TO.C,MX1*%
X118984365Y-73646400D03*
X108824365Y-73646400D03*
D11*
X113904365Y-73646400D03*
%TD*%
D10*
%TO.C,MX7*%
X138034335Y-111746500D03*
X127874335Y-111746500D03*
D11*
X132954335Y-111746500D03*
%TD*%
D10*
%TO.C,MX13*%
X176134435Y-73646400D03*
D11*
X171054435Y-73646400D03*
D10*
X165974435Y-73646400D03*
%TD*%
D11*
%TO.C,MX8*%
X132954335Y-130796540D03*
D10*
X127874335Y-130796540D03*
X138034335Y-130796540D03*
%TD*%
%TO.C,MX10*%
X146924435Y-92696400D03*
D11*
X152004435Y-92696400D03*
D10*
X157084435Y-92696400D03*
%TD*%
D11*
%TO.C,MX2*%
X113904365Y-92696400D03*
D10*
X118984365Y-92696400D03*
X108824365Y-92696400D03*
%TD*%
%TO.C,MX12*%
X157084435Y-130796540D03*
X146924435Y-130796540D03*
D11*
X152004435Y-130796540D03*
%TD*%
D10*
%TO.C,MX11*%
X146924435Y-111746500D03*
X157084435Y-111746500D03*
D11*
X152004435Y-111746500D03*
%TD*%
D12*
%TO.C,SW2*%
X162407400Y-52563470D03*
D13*
X162407400Y-57563470D03*
X162407400Y-55063470D03*
D14*
X169907400Y-49463470D03*
X169907400Y-60663470D03*
D13*
X176907400Y-57563470D03*
X176907400Y-52563470D03*
%TD*%
D11*
%TO.C,MX15*%
X162808250Y-109378750D03*
X171063250Y-121285000D03*
D15*
X178048250Y-109378750D03*
D11*
X162808250Y-133191250D03*
D10*
X171063250Y-126365000D03*
X171063250Y-116205000D03*
D15*
X178048250Y-133191250D03*
%TD*%
D10*
%TO.C,MX3*%
X108824365Y-111746500D03*
D11*
X113904365Y-111746500D03*
D10*
X118984365Y-111746500D03*
%TD*%
D11*
%TO.C,MX4*%
X113904365Y-130796540D03*
D10*
X108824365Y-130796540D03*
X118984365Y-130796540D03*
%TD*%
D16*
%TO.C,J3*%
X108204581Y-57575405D03*
D17*
X108204581Y-55035405D03*
X108204581Y-52495405D03*
X108204581Y-49955405D03*
%TD*%
D10*
%TO.C,MX6*%
X138034335Y-92696400D03*
D11*
X132954335Y-92696400D03*
D10*
X127874335Y-92696400D03*
%TD*%
%TO.C,MX5*%
X138034335Y-73646400D03*
X127874335Y-73646400D03*
D11*
X132954335Y-73646400D03*
%TD*%
D10*
%TO.C,MX9*%
X157084435Y-73646400D03*
D11*
X152004435Y-73646400D03*
D10*
X146924435Y-73646400D03*
%TD*%
M02*
