%TF.GenerationSoftware,KiCad,Pcbnew,(6.0.10)*%
%TF.CreationDate,2023-09-03T22:57:24-04:00*%
%TF.ProjectId,NugMacro-Keypad,4e75674d-6163-4726-9f2d-4b6579706164,V3*%
%TF.SameCoordinates,Original*%
%TF.FileFunction,Soldermask,Bot*%
%TF.FilePolarity,Negative*%
%FSLAX46Y46*%
G04 Gerber Fmt 4.6, Leading zero omitted, Abs format (unit mm)*
G04 Created by KiCad (PCBNEW (6.0.10)) date 2023-09-03 22:57:24*
%MOMM*%
%LPD*%
G01*
G04 APERTURE LIST*
G04 Aperture macros list*
%AMRoundRect*
0 Rectangle with rounded corners*
0 $1 Rounding radius*
0 $2 $3 $4 $5 $6 $7 $8 $9 X,Y pos of 4 corners*
0 Add a 4 corners polygon primitive as box body*
4,1,4,$2,$3,$4,$5,$6,$7,$8,$9,$2,$3,0*
0 Add four circle primitives for the rounded corners*
1,1,$1+$1,$2,$3*
1,1,$1+$1,$4,$5*
1,1,$1+$1,$6,$7*
1,1,$1+$1,$8,$9*
0 Add four rect primitives between the rounded corners*
20,1,$1+$1,$2,$3,$4,$5,0*
20,1,$1+$1,$4,$5,$6,$7,0*
20,1,$1+$1,$6,$7,$8,$9,0*
20,1,$1+$1,$8,$9,$2,$3,0*%
G04 Aperture macros list end*
%ADD10C,1.750000*%
%ADD11C,3.987800*%
%ADD12C,2.250000*%
%ADD13R,2.000000X2.000000*%
%ADD14C,2.000000*%
%ADD15R,3.200000X2.000000*%
%ADD16C,3.048000*%
%ADD17R,1.700000X1.700000*%
%ADD18O,1.700000X1.700000*%
%ADD19RoundRect,0.250000X0.450000X-0.262500X0.450000X0.262500X-0.450000X0.262500X-0.450000X-0.262500X0*%
%ADD20R,1.200000X0.900000*%
%ADD21RoundRect,0.250000X0.475000X-0.250000X0.475000X0.250000X-0.475000X0.250000X-0.475000X-0.250000X0*%
%ADD22R,1.500000X0.550000*%
%ADD23R,0.550000X1.500000*%
%ADD24RoundRect,0.250000X0.262500X0.450000X-0.262500X0.450000X-0.262500X-0.450000X0.262500X-0.450000X0*%
%ADD25R,0.900000X1.200000*%
%ADD26R,1.200000X1.800000*%
%ADD27R,0.600000X1.550000*%
%ADD28RoundRect,0.250000X0.250000X0.475000X-0.250000X0.475000X-0.250000X-0.475000X0.250000X-0.475000X0*%
%ADD29RoundRect,0.250000X-0.450000X0.262500X-0.450000X-0.262500X0.450000X-0.262500X0.450000X0.262500X0*%
%ADD30R,1.800000X1.100000*%
%ADD31R,1.400000X1.200000*%
%ADD32RoundRect,0.250000X-0.475000X0.250000X-0.475000X-0.250000X0.475000X-0.250000X0.475000X0.250000X0*%
%ADD33RoundRect,0.250000X-0.250000X-0.475000X0.250000X-0.475000X0.250000X0.475000X-0.250000X0.475000X0*%
G04 APERTURE END LIST*
D10*
%TO.C,MX14*%
X165974435Y-92696400D03*
X176134435Y-92696400D03*
D11*
X171054435Y-92696400D03*
D12*
X167244435Y-90156400D03*
X173594435Y-87616400D03*
%TD*%
D10*
%TO.C,MX1*%
X118984365Y-73646400D03*
X108824365Y-73646400D03*
D11*
X113904365Y-73646400D03*
D12*
X110094365Y-71106400D03*
X116444365Y-68566400D03*
%TD*%
D10*
%TO.C,MX7*%
X138034335Y-111746500D03*
X127874335Y-111746500D03*
D11*
X132954335Y-111746500D03*
D12*
X129144335Y-109206500D03*
X135494335Y-106666500D03*
%TD*%
D10*
%TO.C,MX13*%
X176134435Y-73646400D03*
D11*
X171054435Y-73646400D03*
D10*
X165974435Y-73646400D03*
D12*
X167244435Y-71106400D03*
X173594435Y-68566400D03*
%TD*%
D11*
%TO.C,MX8*%
X132954335Y-130796540D03*
D10*
X127874335Y-130796540D03*
X138034335Y-130796540D03*
D12*
X129144335Y-128256540D03*
X135494335Y-125716540D03*
%TD*%
D10*
%TO.C,MX10*%
X146924435Y-92696400D03*
D11*
X152004435Y-92696400D03*
D10*
X157084435Y-92696400D03*
D12*
X148194435Y-90156400D03*
X154544435Y-87616400D03*
%TD*%
D11*
%TO.C,MX2*%
X113904365Y-92696400D03*
D10*
X118984365Y-92696400D03*
X108824365Y-92696400D03*
D12*
X110094365Y-90156400D03*
X116444365Y-87616400D03*
%TD*%
D10*
%TO.C,MX12*%
X157084435Y-130796540D03*
X146924435Y-130796540D03*
D11*
X152004435Y-130796540D03*
D12*
X148194435Y-128256540D03*
X154544435Y-125716540D03*
%TD*%
D10*
%TO.C,MX11*%
X146924435Y-111746500D03*
X157084435Y-111746500D03*
D11*
X152004435Y-111746500D03*
D12*
X148194435Y-109206500D03*
X154544435Y-106666500D03*
%TD*%
D13*
%TO.C,SW2*%
X162407400Y-52563470D03*
D14*
X162407400Y-57563470D03*
X162407400Y-55063470D03*
D15*
X169907400Y-49463470D03*
X169907400Y-60663470D03*
D14*
X176907400Y-57563470D03*
X176907400Y-52563470D03*
%TD*%
D11*
%TO.C,MX15*%
X162808250Y-109378750D03*
X171063250Y-121285000D03*
D16*
X178048250Y-109378750D03*
D11*
X162808250Y-133191250D03*
D10*
X171063250Y-126365000D03*
X171063250Y-116205000D03*
D16*
X178048250Y-133191250D03*
D12*
X173603250Y-117475000D03*
X176143250Y-123825000D03*
%TD*%
D10*
%TO.C,MX3*%
X108824365Y-111746500D03*
D11*
X113904365Y-111746500D03*
D10*
X118984365Y-111746500D03*
D12*
X110094365Y-109206500D03*
X116444365Y-106666500D03*
%TD*%
D11*
%TO.C,MX4*%
X113904365Y-130796540D03*
D10*
X108824365Y-130796540D03*
X118984365Y-130796540D03*
D12*
X110094365Y-128256540D03*
X116444365Y-125716540D03*
%TD*%
D17*
%TO.C,J3*%
X108204581Y-57575405D03*
D18*
X108204581Y-55035405D03*
X108204581Y-52495405D03*
X108204581Y-49955405D03*
%TD*%
D10*
%TO.C,MX6*%
X138034335Y-92696400D03*
D11*
X132954335Y-92696400D03*
D10*
X127874335Y-92696400D03*
D12*
X129144335Y-90156400D03*
X135494335Y-87616400D03*
%TD*%
D10*
%TO.C,MX5*%
X138034335Y-73646400D03*
X127874335Y-73646400D03*
D11*
X132954335Y-73646400D03*
D12*
X129144335Y-71106400D03*
X135494335Y-68566400D03*
%TD*%
D10*
%TO.C,MX9*%
X157084435Y-73646400D03*
D11*
X152004435Y-73646400D03*
D10*
X146924435Y-73646400D03*
D12*
X148194435Y-71106400D03*
X154544435Y-68566400D03*
%TD*%
D19*
%TO.C,R3*%
X121788200Y-55638500D03*
X121788200Y-53813500D03*
%TD*%
D20*
%TO.C,D3*%
X120904365Y-120396500D03*
X120904365Y-117096500D03*
%TD*%
%TO.C,D4*%
X120904365Y-139446540D03*
X120904365Y-136146540D03*
%TD*%
D21*
%TO.C,C4*%
X142098400Y-50359470D03*
X142098400Y-48459470D03*
%TD*%
D20*
%TO.C,D8*%
X139954000Y-139446140D03*
X139954000Y-136146140D03*
%TD*%
D22*
%TO.C,U1*%
X145288400Y-62619470D03*
X145288400Y-61819470D03*
X145288400Y-61019470D03*
X145288400Y-60219470D03*
X145288400Y-59419470D03*
X145288400Y-58619470D03*
X145288400Y-57819470D03*
X145288400Y-57019470D03*
X145288400Y-56219470D03*
X145288400Y-55419470D03*
X145288400Y-54619470D03*
D23*
X146988400Y-52919470D03*
X147788400Y-52919470D03*
X148588400Y-52919470D03*
X149388400Y-52919470D03*
X150188400Y-52919470D03*
X150988400Y-52919470D03*
X151788400Y-52919470D03*
X152588400Y-52919470D03*
X153388400Y-52919470D03*
X154188400Y-52919470D03*
X154988400Y-52919470D03*
D22*
X156688400Y-54619470D03*
X156688400Y-55419470D03*
X156688400Y-56219470D03*
X156688400Y-57019470D03*
X156688400Y-57819470D03*
X156688400Y-58619470D03*
X156688400Y-59419470D03*
X156688400Y-60219470D03*
X156688400Y-61019470D03*
X156688400Y-61819470D03*
X156688400Y-62619470D03*
D23*
X154988400Y-64319470D03*
X154188400Y-64319470D03*
X153388400Y-64319470D03*
X152588400Y-64319470D03*
X151788400Y-64319470D03*
X150988400Y-64319470D03*
X150188400Y-64319470D03*
X149388400Y-64319470D03*
X148588400Y-64319470D03*
X147788400Y-64319470D03*
X146988400Y-64319470D03*
%TD*%
D24*
%TO.C,R4*%
X162060900Y-63064470D03*
X160235900Y-63064470D03*
%TD*%
D19*
%TO.C,R2*%
X118486200Y-55638500D03*
X118486200Y-53813500D03*
%TD*%
D20*
%TO.C,D15*%
X164450400Y-122853470D03*
X164450400Y-119553470D03*
%TD*%
D25*
%TO.C,D16*%
X174103400Y-64153470D03*
X177403400Y-64153470D03*
%TD*%
D26*
%TO.C,J2*%
X117322600Y-46482000D03*
X122922600Y-46482000D03*
D27*
X118622600Y-50357000D03*
X119622600Y-50357000D03*
X120622600Y-50357000D03*
X121622600Y-50357000D03*
%TD*%
D28*
%TO.C,C3*%
X141209400Y-57476470D03*
X139309400Y-57476470D03*
%TD*%
D19*
%TO.C,R6*%
X159370400Y-48918470D03*
X159370400Y-47093470D03*
%TD*%
D20*
%TO.C,D14*%
X178054435Y-101346400D03*
X178054435Y-98046400D03*
%TD*%
%TO.C,D10*%
X159004000Y-101346000D03*
X159004000Y-98046000D03*
%TD*%
D29*
%TO.C,R1*%
X139431400Y-48435970D03*
X139431400Y-50260970D03*
%TD*%
D30*
%TO.C,SW1*%
X127822400Y-50563470D03*
X134022400Y-46863470D03*
X127822400Y-46863470D03*
X134022400Y-50563470D03*
%TD*%
D20*
%TO.C,D6*%
X139954000Y-101346000D03*
X139954000Y-98046000D03*
%TD*%
D21*
%TO.C,C1*%
X154417400Y-49155470D03*
X154417400Y-47255470D03*
%TD*%
D20*
%TO.C,D12*%
X159004000Y-139446140D03*
X159004000Y-136146140D03*
%TD*%
D31*
%TO.C,Y1*%
X151961400Y-49055470D03*
X149761400Y-49055470D03*
X149761400Y-47355470D03*
X151961400Y-47355470D03*
%TD*%
D32*
%TO.C,C2*%
X147305400Y-47255470D03*
X147305400Y-49155470D03*
%TD*%
D20*
%TO.C,D9*%
X159004435Y-82296400D03*
X159004435Y-78996400D03*
%TD*%
%TO.C,D11*%
X159004000Y-120396100D03*
X159004000Y-117096100D03*
%TD*%
%TO.C,D5*%
X139954335Y-82296400D03*
X139954335Y-78996400D03*
%TD*%
%TO.C,D1*%
X120904365Y-82296400D03*
X120904365Y-78996400D03*
%TD*%
D28*
%TO.C,C6*%
X141209400Y-59508470D03*
X139309400Y-59508470D03*
%TD*%
D33*
%TO.C,C8*%
X157785400Y-66366470D03*
X159685400Y-66366470D03*
%TD*%
D20*
%TO.C,D2*%
X120904365Y-101346400D03*
X120904365Y-98046400D03*
%TD*%
%TO.C,D7*%
X139954335Y-120396500D03*
X139954335Y-117096500D03*
%TD*%
D28*
%TO.C,C7*%
X142987400Y-64334470D03*
X141087400Y-64334470D03*
%TD*%
D19*
%TO.C,R5*%
X161402400Y-48918470D03*
X161402400Y-47093470D03*
%TD*%
D28*
%TO.C,C5*%
X160447400Y-52015470D03*
X158547400Y-52015470D03*
%TD*%
D20*
%TO.C,D13*%
X178054000Y-82296000D03*
X178054000Y-78996000D03*
%TD*%
M02*
