%TF.GenerationSoftware,KiCad,Pcbnew,(6.0.10)*%
%TF.CreationDate,2023-08-07T18:40:01-04:00*%
%TF.ProjectId,NugMacro-Keypad,4e75674d-6163-4726-9f2d-4b6579706164,V3*%
%TF.SameCoordinates,Original*%
%TF.FileFunction,Soldermask,Bot*%
%TF.FilePolarity,Negative*%
%FSLAX46Y46*%
G04 Gerber Fmt 4.6, Leading zero omitted, Abs format (unit mm)*
G04 Created by KiCad (PCBNEW (6.0.10)) date 2023-08-07 18:40:01*
%MOMM*%
%LPD*%
G01*
G04 APERTURE LIST*
G04 Aperture macros list*
%AMRoundRect*
0 Rectangle with rounded corners*
0 $1 Rounding radius*
0 $2 $3 $4 $5 $6 $7 $8 $9 X,Y pos of 4 corners*
0 Add a 4 corners polygon primitive as box body*
4,1,4,$2,$3,$4,$5,$6,$7,$8,$9,$2,$3,0*
0 Add four circle primitives for the rounded corners*
1,1,$1+$1,$2,$3*
1,1,$1+$1,$4,$5*
1,1,$1+$1,$6,$7*
1,1,$1+$1,$8,$9*
0 Add four rect primitives between the rounded corners*
20,1,$1+$1,$2,$3,$4,$5,0*
20,1,$1+$1,$4,$5,$6,$7,0*
20,1,$1+$1,$6,$7,$8,$9,0*
20,1,$1+$1,$8,$9,$2,$3,0*%
%AMHorizOval*
0 Thick line with rounded ends*
0 $1 width*
0 $2 $3 position (X,Y) of the first rounded end (center of the circle)*
0 $4 $5 position (X,Y) of the second rounded end (center of the circle)*
0 Add line between two ends*
20,1,$1,$2,$3,$4,$5,0*
0 Add two circle primitives to create the rounded ends*
1,1,$1,$2,$3*
1,1,$1,$4,$5*%
G04 Aperture macros list end*
%ADD10C,3.987800*%
%ADD11C,1.750000*%
%ADD12HorizOval,2.250000X0.655001X0.730000X-0.655001X-0.730000X0*%
%ADD13C,2.250000*%
%ADD14HorizOval,2.250000X0.020000X0.290000X-0.020000X-0.290000X0*%
%ADD15R,2.000000X2.000000*%
%ADD16C,2.000000*%
%ADD17R,3.200000X2.000000*%
%ADD18C,3.048000*%
%ADD19HorizOval,2.250000X0.730000X-0.655001X-0.730000X0.655001X0*%
%ADD20HorizOval,2.250000X0.290000X-0.020000X-0.290000X0.020000X0*%
%ADD21R,1.700000X1.700000*%
%ADD22O,1.700000X1.700000*%
%ADD23RoundRect,0.250000X0.450000X-0.262500X0.450000X0.262500X-0.450000X0.262500X-0.450000X-0.262500X0*%
%ADD24R,1.200000X0.900000*%
%ADD25RoundRect,0.250000X0.475000X-0.250000X0.475000X0.250000X-0.475000X0.250000X-0.475000X-0.250000X0*%
%ADD26R,1.500000X0.550000*%
%ADD27R,0.550000X1.500000*%
%ADD28RoundRect,0.250000X0.262500X0.450000X-0.262500X0.450000X-0.262500X-0.450000X0.262500X-0.450000X0*%
%ADD29R,0.900000X1.200000*%
%ADD30R,1.200000X1.800000*%
%ADD31R,0.600000X1.550000*%
%ADD32RoundRect,0.250000X0.250000X0.475000X-0.250000X0.475000X-0.250000X-0.475000X0.250000X-0.475000X0*%
%ADD33RoundRect,0.250000X-0.450000X0.262500X-0.450000X-0.262500X0.450000X-0.262500X0.450000X0.262500X0*%
%ADD34R,1.800000X1.100000*%
%ADD35R,1.400000X1.200000*%
%ADD36RoundRect,0.250000X-0.475000X0.250000X-0.475000X-0.250000X0.475000X-0.250000X0.475000X0.250000X0*%
%ADD37RoundRect,0.250000X-0.250000X-0.475000X0.250000X-0.475000X0.250000X0.475000X-0.250000X0.475000X0*%
G04 APERTURE END LIST*
D10*
%TO.C,MX14*%
X171054435Y-92696400D03*
D11*
X176134435Y-92696400D03*
X165974435Y-92696400D03*
D12*
X167899436Y-89426400D03*
D13*
X168554435Y-88696400D03*
X173594435Y-87616400D03*
D14*
X173574435Y-87906400D03*
%TD*%
D11*
%TO.C,MX1*%
X118984365Y-73646400D03*
D10*
X113904365Y-73646400D03*
D11*
X108824365Y-73646400D03*
D13*
X111404365Y-69646400D03*
D12*
X110749366Y-70376400D03*
D13*
X116444365Y-68566400D03*
D14*
X116424365Y-68856400D03*
%TD*%
D11*
%TO.C,MX7*%
X127874335Y-111746500D03*
D10*
X132954335Y-111746500D03*
D11*
X138034335Y-111746500D03*
D13*
X130454335Y-107746500D03*
D12*
X129799336Y-108476500D03*
D13*
X135494335Y-106666500D03*
D14*
X135474335Y-106956500D03*
%TD*%
D11*
%TO.C,MX13*%
X165974435Y-73646400D03*
D10*
X171054435Y-73646400D03*
D11*
X176134435Y-73646400D03*
D13*
X168554435Y-69646400D03*
D12*
X167899436Y-70376400D03*
D13*
X173594435Y-68566400D03*
D14*
X173574435Y-68856400D03*
%TD*%
D10*
%TO.C,MX8*%
X132954335Y-130796540D03*
D11*
X138034335Y-130796540D03*
X127874335Y-130796540D03*
D13*
X130454335Y-126796540D03*
D12*
X129799336Y-127526540D03*
D14*
X135474335Y-126006540D03*
D13*
X135494335Y-125716540D03*
%TD*%
D11*
%TO.C,MX10*%
X157084435Y-92696400D03*
X146924435Y-92696400D03*
D10*
X152004435Y-92696400D03*
D12*
X148849436Y-89426400D03*
D13*
X149504435Y-88696400D03*
D14*
X154524435Y-87906400D03*
D13*
X154544435Y-87616400D03*
%TD*%
D11*
%TO.C,MX2*%
X108824365Y-92696400D03*
X118984365Y-92696400D03*
D10*
X113904365Y-92696400D03*
D12*
X110749366Y-89426400D03*
D13*
X111404365Y-88696400D03*
X116444365Y-87616400D03*
D14*
X116424365Y-87906400D03*
%TD*%
D10*
%TO.C,MX12*%
X152004435Y-130796540D03*
D11*
X146924435Y-130796540D03*
X157084435Y-130796540D03*
D12*
X148849436Y-127526540D03*
D13*
X149504435Y-126796540D03*
D14*
X154524435Y-126006540D03*
D13*
X154544435Y-125716540D03*
%TD*%
D11*
%TO.C,MX11*%
X146924435Y-111746500D03*
D10*
X152004435Y-111746500D03*
D11*
X157084435Y-111746500D03*
D13*
X149504435Y-107746500D03*
D12*
X148849436Y-108476500D03*
D14*
X154524435Y-106956500D03*
D13*
X154544435Y-106666500D03*
%TD*%
D15*
%TO.C,SW2*%
X162407400Y-52563470D03*
D16*
X162407400Y-57563470D03*
X162407400Y-55063470D03*
D17*
X169907400Y-49463470D03*
X169907400Y-60663470D03*
D16*
X176907400Y-57563470D03*
X176907400Y-52563470D03*
%TD*%
D18*
%TO.C,MX15*%
X178109850Y-133295470D03*
D10*
X171124850Y-121357470D03*
X162869850Y-133295470D03*
D11*
X171124850Y-126437470D03*
D18*
X178109850Y-109419470D03*
D10*
X162869850Y-109419470D03*
D11*
X171124850Y-116277470D03*
D19*
X174394850Y-118202471D03*
D13*
X175124850Y-118857470D03*
D20*
X175914850Y-123877470D03*
D13*
X176204850Y-123897470D03*
%TD*%
D11*
%TO.C,MX3*%
X108824365Y-111746500D03*
X118984365Y-111746500D03*
D10*
X113904365Y-111746500D03*
D13*
X111404365Y-107746500D03*
D12*
X110749366Y-108476500D03*
D13*
X116444365Y-106666500D03*
D14*
X116424365Y-106956500D03*
%TD*%
D11*
%TO.C,MX4*%
X118984365Y-130796540D03*
X108824365Y-130796540D03*
D10*
X113904365Y-130796540D03*
D12*
X110749366Y-127526540D03*
D13*
X111404365Y-126796540D03*
D14*
X116424365Y-126006540D03*
D13*
X116444365Y-125716540D03*
%TD*%
D21*
%TO.C,J3*%
X108204581Y-57575405D03*
D22*
X108204581Y-55035405D03*
X108204581Y-52495405D03*
X108204581Y-49955405D03*
%TD*%
D10*
%TO.C,MX6*%
X132954335Y-92696400D03*
D11*
X138034335Y-92696400D03*
X127874335Y-92696400D03*
D13*
X130454335Y-88696400D03*
D12*
X129799336Y-89426400D03*
D13*
X135494335Y-87616400D03*
D14*
X135474335Y-87906400D03*
%TD*%
D10*
%TO.C,MX5*%
X132954335Y-73646400D03*
D11*
X127874335Y-73646400D03*
X138034335Y-73646400D03*
D12*
X129799336Y-70376400D03*
D13*
X130454335Y-69646400D03*
X135494335Y-68566400D03*
D14*
X135474335Y-68856400D03*
%TD*%
D11*
%TO.C,MX9*%
X157084435Y-73646400D03*
D10*
X152004435Y-73646400D03*
D11*
X146924435Y-73646400D03*
D12*
X148849436Y-70376400D03*
D13*
X149504435Y-69646400D03*
X154544435Y-68566400D03*
D14*
X154524435Y-68856400D03*
%TD*%
D23*
%TO.C,R3*%
X121793000Y-53435970D03*
X121793000Y-51610970D03*
%TD*%
D24*
%TO.C,D3*%
X120904365Y-120396500D03*
X120904365Y-117096500D03*
%TD*%
%TO.C,D4*%
X120904365Y-139446540D03*
X120904365Y-136146540D03*
%TD*%
D25*
%TO.C,C4*%
X142098400Y-50359470D03*
X142098400Y-48459470D03*
%TD*%
D24*
%TO.C,D8*%
X139954000Y-139446140D03*
X139954000Y-136146140D03*
%TD*%
D26*
%TO.C,U1*%
X145288400Y-62619470D03*
X145288400Y-61819470D03*
X145288400Y-61019470D03*
X145288400Y-60219470D03*
X145288400Y-59419470D03*
X145288400Y-58619470D03*
X145288400Y-57819470D03*
X145288400Y-57019470D03*
X145288400Y-56219470D03*
X145288400Y-55419470D03*
X145288400Y-54619470D03*
D27*
X146988400Y-52919470D03*
X147788400Y-52919470D03*
X148588400Y-52919470D03*
X149388400Y-52919470D03*
X150188400Y-52919470D03*
X150988400Y-52919470D03*
X151788400Y-52919470D03*
X152588400Y-52919470D03*
X153388400Y-52919470D03*
X154188400Y-52919470D03*
X154988400Y-52919470D03*
D26*
X156688400Y-54619470D03*
X156688400Y-55419470D03*
X156688400Y-56219470D03*
X156688400Y-57019470D03*
X156688400Y-57819470D03*
X156688400Y-58619470D03*
X156688400Y-59419470D03*
X156688400Y-60219470D03*
X156688400Y-61019470D03*
X156688400Y-61819470D03*
X156688400Y-62619470D03*
D27*
X154988400Y-64319470D03*
X154188400Y-64319470D03*
X153388400Y-64319470D03*
X152588400Y-64319470D03*
X151788400Y-64319470D03*
X150988400Y-64319470D03*
X150188400Y-64319470D03*
X149388400Y-64319470D03*
X148588400Y-64319470D03*
X147788400Y-64319470D03*
X146988400Y-64319470D03*
%TD*%
D28*
%TO.C,R4*%
X162060900Y-63064470D03*
X160235900Y-63064470D03*
%TD*%
D23*
%TO.C,R2*%
X118491000Y-53435970D03*
X118491000Y-51610970D03*
%TD*%
D24*
%TO.C,D15*%
X164450400Y-122853470D03*
X164450400Y-119553470D03*
%TD*%
D29*
%TO.C,D16*%
X174103400Y-64153470D03*
X177403400Y-64153470D03*
%TD*%
D30*
%TO.C,J2*%
X117327400Y-44279470D03*
X122927400Y-44279470D03*
D31*
X118627400Y-48154470D03*
X119627400Y-48154470D03*
X120627400Y-48154470D03*
X121627400Y-48154470D03*
%TD*%
D32*
%TO.C,C3*%
X141209400Y-57476470D03*
X139309400Y-57476470D03*
%TD*%
D23*
%TO.C,R6*%
X159370400Y-48918470D03*
X159370400Y-47093470D03*
%TD*%
D24*
%TO.C,D14*%
X178054435Y-101346400D03*
X178054435Y-98046400D03*
%TD*%
%TO.C,D10*%
X159004000Y-101346000D03*
X159004000Y-98046000D03*
%TD*%
D33*
%TO.C,R1*%
X139431400Y-48435970D03*
X139431400Y-50260970D03*
%TD*%
D34*
%TO.C,SW1*%
X127822400Y-50563470D03*
X134022400Y-46863470D03*
X127822400Y-46863470D03*
X134022400Y-50563470D03*
%TD*%
D24*
%TO.C,D6*%
X139954000Y-101346000D03*
X139954000Y-98046000D03*
%TD*%
D25*
%TO.C,C1*%
X154417400Y-49155470D03*
X154417400Y-47255470D03*
%TD*%
D24*
%TO.C,D12*%
X159004000Y-139446140D03*
X159004000Y-136146140D03*
%TD*%
D35*
%TO.C,Y1*%
X151961400Y-49055470D03*
X149761400Y-49055470D03*
X149761400Y-47355470D03*
X151961400Y-47355470D03*
%TD*%
D36*
%TO.C,C2*%
X147305400Y-47255470D03*
X147305400Y-49155470D03*
%TD*%
D24*
%TO.C,D9*%
X159004435Y-82296400D03*
X159004435Y-78996400D03*
%TD*%
%TO.C,D11*%
X159004000Y-120396100D03*
X159004000Y-117096100D03*
%TD*%
%TO.C,D5*%
X139954335Y-82296400D03*
X139954335Y-78996400D03*
%TD*%
%TO.C,D1*%
X120904365Y-82296400D03*
X120904365Y-78996400D03*
%TD*%
D32*
%TO.C,C6*%
X141209400Y-59508470D03*
X139309400Y-59508470D03*
%TD*%
D37*
%TO.C,C8*%
X157785400Y-66366470D03*
X159685400Y-66366470D03*
%TD*%
D24*
%TO.C,D2*%
X120904365Y-101346400D03*
X120904365Y-98046400D03*
%TD*%
%TO.C,D7*%
X139954335Y-120396500D03*
X139954335Y-117096500D03*
%TD*%
D32*
%TO.C,C7*%
X142987400Y-64334470D03*
X141087400Y-64334470D03*
%TD*%
D23*
%TO.C,R5*%
X161402400Y-48918470D03*
X161402400Y-47093470D03*
%TD*%
D32*
%TO.C,C5*%
X160447400Y-52015470D03*
X158547400Y-52015470D03*
%TD*%
D24*
%TO.C,D13*%
X178054000Y-82296000D03*
X178054000Y-78996000D03*
%TD*%
M02*
