M48
; DRILL file {KiCad (6.0.10)} date Sun Sep  3 22:57:24 2023
; FORMAT={-:-/ absolute / inch / decimal}
; #@! TF.CreationDate,2023-09-03T22:57:24-04:00
; #@! TF.GenerationSoftware,Kicad,Pcbnew,(6.0.10)
; #@! TF.FileFunction,Plated,1,2,PTH
FMAT,2
INCH
; #@! TA.AperFunction,Plated,PTH,ViaDrill
T1C0.0157
; #@! TA.AperFunction,Plated,PTH,ComponentDrill
T2C0.0394
; #@! TA.AperFunction,Plated,PTH,ComponentDrill
T3C0.0579
; #@! TA.AperFunction,Plated,PTH,ComponentDrill
T4C0.0591
%
G90
G05
T1
X4.37Y-2.27
X4.8498Y-2.0767
X4.925Y-2.02
X5.3666Y-2.17
X5.37Y-2.305
X5.3944Y-2.1979
X5.4194Y-2.2318
X5.485Y-2.4915
X5.5394Y-1.8579
X5.6144Y-2.3079
X5.6201Y-2.3715
X5.63Y-1.85
X5.6644Y-2.4679
X5.715Y-1.915
X5.7244Y-2.5468
X6.03Y-1.8165
X6.0444Y-2.6229
X6.1Y-1.8165
X6.1694Y-2.6368
X6.18Y-2.01
X6.2494Y-2.2579
X6.3144Y-2.1179
X6.3144Y-2.1829
X6.3294Y-2.3107
X6.3444Y-1.9929
X6.3444Y-4.7379
X6.36Y-2.61
X6.3844Y-2.3379
X6.39Y-2.55
X6.4294Y-1.9129
X6.4294Y-1.9829
X6.4594Y-2.4429
X6.5544Y-2.5679
X6.7694Y-2.5229
T2
X4.26Y-1.9667
X4.26Y-2.0667
X4.26Y-2.1667
X4.26Y-2.2667
X6.394Y-2.0694
X6.394Y-2.1679
X6.394Y-2.2663
X6.9649Y-2.0694
X6.9649Y-2.2663
T3
X4.3344Y-2.7995
X4.3344Y-3.5495
X4.3344Y-4.2995
X4.3344Y-5.0495
X4.5844Y-2.6995
X4.5844Y-3.4495
X4.5844Y-4.1995
X4.5844Y-4.9495
X5.0844Y-2.7995
X5.0844Y-3.5495
X5.0844Y-4.2995
X5.0844Y-5.0495
X5.3344Y-2.6995
X5.3344Y-3.4495
X5.3344Y-4.1995
X5.3344Y-4.9495
X5.8344Y-2.7995
X5.8344Y-3.5495
X5.8344Y-4.2995
X5.8344Y-5.0495
X6.0844Y-2.6995
X6.0844Y-3.4495
X6.0844Y-4.1995
X6.0844Y-4.9495
X6.5844Y-2.7995
X6.5844Y-3.5495
X6.8344Y-2.6995
X6.8344Y-3.4495
X6.8348Y-4.625
X6.9348Y-4.875
T4
G00X6.6637Y-1.9474
M15
G01X6.7149Y-1.9474
M16
G05
G00X6.6637Y-2.3883
M15
G01X6.7149Y-2.3883
M16
G05
T0
M30
