M48
; DRILL file {KiCad (6.0.10)} date Sun Sep  3 22:57:24 2023
; FORMAT={-:-/ absolute / inch / decimal}
; #@! TF.CreationDate,2023-09-03T22:57:24-04:00
; #@! TF.GenerationSoftware,Kicad,Pcbnew,(6.0.10)
; #@! TF.FileFunction,NonPlated,1,2,NPTH
FMAT,2
INCH
; #@! TA.AperFunction,NonPlated,NPTH,ComponentDrill
T1C0.0689
; #@! TA.AperFunction,NonPlated,NPTH,ComponentDrill
T2C0.1200
; #@! TA.AperFunction,NonPlated,NPTH,ComponentDrill
T3C0.1570
%
G90
G05
T1
X4.2844Y-2.8995
X4.2844Y-3.6495
X4.2844Y-4.3995
X4.2844Y-5.1495
X4.6844Y-2.8995
X4.6844Y-3.6495
X4.6844Y-4.3995
X4.6844Y-5.1495
X5.0344Y-2.8995
X5.0344Y-3.6495
X5.0344Y-4.3995
X5.0344Y-5.1495
X5.4344Y-2.8995
X5.4344Y-3.6495
X5.4344Y-4.3995
X5.4344Y-5.1495
X5.7844Y-2.8995
X5.7844Y-3.6495
X5.7844Y-4.3995
X5.7844Y-5.1495
X6.1844Y-2.8995
X6.1844Y-3.6495
X6.1844Y-4.3995
X6.1844Y-5.1495
X6.5344Y-2.8995
X6.5344Y-3.6495
X6.7348Y-4.575
X6.7348Y-4.975
X6.9344Y-2.8995
X6.9344Y-3.6495
T2
X7.0098Y-4.3062
X7.0098Y-5.2437
T3
X4.4844Y-2.8995
X4.4844Y-3.6495
X4.4844Y-4.3995
X4.4844Y-5.1495
X5.2344Y-2.8995
X5.2344Y-3.6495
X5.2344Y-4.3995
X5.2344Y-5.1495
X5.9844Y-2.8995
X5.9844Y-3.6495
X5.9844Y-4.3995
X5.9844Y-5.1495
X6.4098Y-4.3062
X6.4098Y-5.2437
X6.7344Y-2.8995
X6.7344Y-3.6495
X6.7348Y-4.775
T0
M30
